<?xml version="1.0" encoding="UTF-8"?>
<svg id="katman_1" data-name="katman 1" xmlns="http://www.w3.org/2000/svg" viewBox="0 0 628.01 554.47">
  <defs>
    <style>
      .cls-1, .cls-2, .cls-3, .cls-4, .cls-5 {
        stroke: #764695;
        stroke-miterlimit: 10;
      }

      .cls-1, .cls-4 {
        stroke-width: 2px;
      }

      .cls-1, .cls-6 {
        fill: #fff;
      }

      .cls-7 {
        fill: #3c3c3b;
      }

      .cls-2 {
        stroke-width: 3.41px;
      }

      .cls-2, .cls-3, .cls-4, .cls-5 {
        fill: none;
      }

      .cls-3 {
        stroke-width: 4.01px;
      }

      .cls-8 {
        fill: #dadada;
      }

      .cls-9 {
        fill: #868686;
      }

      .cls-5 {
        stroke-width: 1.8px;
      }

      .cls-10 {
        fill: #e42829;
      }

      .cls-11 {
        fill: #764695;
      }
    </style>
  </defs>
  <rect class="cls-3" x="293.64" y="148.53" width="177.52" height="340.19"/>
  <rect class="cls-4" x="483.77" y="358.9" width="83.13" height="60.53"/>
  <rect class="cls-4" x="483.77" y="429.16" width="83.13" height="60.4"/>
  <rect class="cls-5" x="144.58" y="442.37" width="106.45" height="47.84"/>
  <g>
    <path class="cls-11" d="M27.44,207.55H.44v-18.89h3.64v14.12h8.11v-12.16h3.6v12.16h11.66v4.77Z"/>
    <path class="cls-11" d="M27.44,184.03H.44v-4.77h23.33v-13.75h3.68v18.52Z"/>
    <path class="cls-11" d="M8.43,139.55h11.03c6.31,0,8.43,5.33,8.43,11.46s-2.12,11.46-8.43,11.46h-11.03c-6.31,0-8.43-5.38-8.43-11.46s2.12-11.46,8.43-11.46ZM9.43,157.7h8.99c4.51,0,5.71-2.76,5.71-6.69s-1.2-6.69-5.71-6.69h-8.99c-4.47,0-5.67,2.76-5.67,6.69s1.2,6.69,5.67,6.69Z"/>
    <path class="cls-11" d="M8.43,109.71h11.03c6.31,0,8.43,5.33,8.43,11.46s-2.12,11.46-8.43,11.46h-11.03c-6.31,0-8.43-5.38-8.43-11.46s2.12-11.46,8.43-11.46ZM9.43,127.86h8.99c4.51,0,5.71-2.76,5.71-6.69s-1.2-6.69-5.71-6.69h-8.99c-4.47,0-5.67,2.76-5.67,6.69s1.2,6.69,5.67,6.69Z"/>
    <path class="cls-11" d="M27.44,84.36l-11.35,6.73v6.92h11.35v4.77H.44v-14.22c0-3.88,2.68-6.73,5.99-6.73h3.67c2.6,0,4.79,1.73,5.63,4.35l11.7-7.02v5.19ZM7.39,86.61c-2.24,0-3.32,1.12-3.32,4.07v7.34h8.39v-7.34c0-2.95-1.08-4.07-3.32-4.07h-1.76Z"/>
    <path class="cls-11" d="M17.18,45.45h4.23c5.15,0,6.47,5.14,6.47,9.87s-1.32,9.87-6.47,9.87h-13.38c-6.27,0-8.03-4.02-8.03-10.24,0-1.82.32-5.8.52-8.33h3.83s-.6,6.5-.6,7.9c0,5.33,1.72,5.89,4.55,5.89h2.84c-.6-1.64-.84-2.9-.84-5.85,0-6.97,2.76-9.12,6.87-9.12ZM20.73,60.42c2.6,0,3.63-1.78,3.63-5.1s-1.04-5.1-3.63-5.1h-3.04c-2.68,0-3.56,1.12-3.56,4.44,0,2.71.84,5.75.84,5.75h5.75Z"/>
  </g>
  <rect class="cls-4" x="169.88" y="1" width="122.87" height="60.53"/>
  <rect class="cls-4" x="169.88" y="73.89" width="104.38" height="60.4"/>
  <rect class="cls-4" x="464.66" y="13.61" width="106.34" height="47.92"/>
  <rect class="cls-2" x="293.67" y="148.46" width="175.19" height="83.6"/>
  <rect class="cls-1" x="244.72" y="442.5" width="6.07" height="17.55"/>
  <rect class="cls-1" x="263.73" y="424.88" width="6.07" height="17.55" transform="translate(700.42 166.89) rotate(90)"/>
  <rect class="cls-1" x="268.04" y="73.99" width="6.07" height="17.55"/>
  <rect class="cls-1" x="280.92" y="49.72" width="6.07" height="17.55" transform="translate(342.45 -225.46) rotate(90)"/>
  <rect class="cls-1" x="294.79" y="192.21" width="6.07" height="17.55"/>
  <rect class="cls-1" x="483.77" y="401.88" width="6.07" height="17.55"/>
  <rect class="cls-1" x="483.77" y="429.16" width="6.07" height="17.55"/>
  <g id="gltanim">
    <g id="gltanim-2" data-name="gltanim">
      <rect class="cls-11" x="482.53" y="178.99" width="145.48" height="159.25"/>
      <g>
        <path class="cls-8" d="M558.41,197.33h-1.57v-1.55h3.12v4.66h-.48l-.32-.57c-.57.46-1.27.73-1.96.73-2.25,0-3.78-2.17-3.78-4.82s1.53-4.83,3.78-4.83c1.11,0,2.26.71,2.89,1.79l-.92.87c-.6-.77-1.2-1.11-1.86-1.11-1.18,0-2.17,1.25-2.17,3.28s1,3.26,2.17,3.26c.38,0,.74-.11,1.11-.36v-1.34Z"/>
        <path class="cls-8" d="M564.47,198.88h2.65v1.55h-4.2v-9.34h1.55v7.79Z"/>
        <path class="cls-8" d="M568.04,192.65v-1.56h6.85v1.56h-2.65v7.79h-1.55v-7.79h-2.65Z"/>
        <path class="cls-8" d="M583.14,200.44h-1.55v-5.91c0-2.31,1.4-3.59,3.11-3.59s3.12,1.27,3.12,3.59v5.91h-1.55v-3.11h-3.12v3.11ZM586.26,194.53c0-1.37-.71-2.03-1.57-2.03s-1.55.66-1.55,2.03v1.25h3.12v-1.25Z"/>
        <path class="cls-8" d="M595.75,191.09h1.4v9.34h-1.18l-3.66-5.97v5.97h-1.4v-9.34h1.16l3.67,5.97v-5.97Z"/>
        <path class="cls-8" d="M601.81,192.65h-1.55v-1.56h4.67v1.56h-1.56v6.23h1.56v1.55h-4.67v-1.55h1.55v-6.23Z"/>
        <path class="cls-8" d="M614.34,200.44v-5.63l-2.25,4.23h-.31l-2.25-4.23v5.63h-1.49v-9.34h1.27l2.62,4.92,2.62-4.92h1.27v9.34h-1.48Z"/>
      </g>
    </g>
    <g>
      <path class="cls-6" d="M510.36,300.9h-2.33v-8.86c0-3.46,2.1-5.38,4.66-5.38s4.68,1.91,4.68,5.38v8.86h-2.33v-4.66h-4.68v4.66ZM515.04,292.04c0-2.06-1.07-3.04-2.35-3.04s-2.33.99-2.33,3.04v1.87h4.68v-1.87Z"/>
      <path class="cls-6" d="M529.28,300.9v-5.9c0-2-1.09-3.04-2.35-3.04s-2.56,1.15-2.56,2.58v6.36h-2.33v-10.96h.8l.88,1.6c.78-1.09,2.23-1.83,3.59-1.83,2.42,0,4.3,1.99,4.3,5.23v5.96h-2.33Z"/>
      <path class="cls-6" d="M538.6,285.74c0,.76-.63,1.36-1.39,1.36s-1.41-.61-1.41-1.36.63-1.41,1.41-1.41,1.39.63,1.39,1.41ZM536.04,289.94h2.33v10.96h-2.33v-10.96Z"/>
      <path class="cls-6" d="M550.03,300.9h-2.33v-7.37c0-.99-.52-1.53-1.15-1.53s-1.18.57-1.18,1.3v7.6h-2.33v-10.96h.8l.61,1.09c.55-.78,1.45-1.32,2.44-1.32s1.78.42,2.35,1.15c.55-.67,1.39-1.15,2.33-1.15,1.76,0,3.15,1.49,3.15,3.84v7.35h-2.33v-7.37c0-.99-.55-1.53-1.18-1.53s-1.18.57-1.18,1.3v7.6Z"/>
      <path class="cls-6" d="M567.92,300.9l-.88-1.66c-.88,1.18-2.1,1.89-3.51,1.89-2.62,0-4.66-2.54-4.7-5.71-.04-3.17,2.08-5.71,4.7-5.71,1.41,0,2.62.71,3.51,1.89l.88-1.66h.8v10.96h-.8ZM563.82,291.9c-1.43,0-2.56,1.6-2.56,3.53s1.13,3.53,2.56,3.53,2.56-1.6,2.56-3.53-1.13-3.53-2.56-3.53Z"/>
      <path class="cls-6" d="M572.92,292.27v-2.33h2.1v-3.97h2.33v3.97h3.51v2.33h-3.51v4.58c0,1.66.78,2.29,1.72,2.29.5,0,.88-.15,1.34-.34l.27,1.43c-.61.52-1.37.88-2.21.88-1.93,0-3.46-1.68-3.46-4.37v-4.47h-2.1Z"/>
      <path class="cls-6" d="M587.62,285.74c0,.76-.63,1.36-1.39,1.36s-1.41-.61-1.41-1.36.63-1.41,1.41-1.41,1.39.63,1.39,1.41ZM585.05,289.94h2.33v10.96h-2.33v-10.96Z"/>
      <path class="cls-6" d="M601.94,295.42c0,3.17-2.33,5.71-5.23,5.71s-5.21-2.54-5.21-5.71,2.33-5.71,5.21-5.71,5.23,2.54,5.23,5.71ZM593.94,295.42c0,1.93,1.24,3.53,2.77,3.53s2.79-1.6,2.79-3.53-1.24-3.53-2.79-3.53-2.77,1.6-2.77,3.53Z"/>
      <path class="cls-6" d="M613.3,300.9v-5.9c0-2-1.09-3.04-2.35-3.04s-2.56,1.15-2.56,2.58v6.36h-2.33v-10.96h.8l.88,1.6c.78-1.09,2.23-1.83,3.59-1.83,2.42,0,4.3,1.99,4.3,5.23v5.96h-2.33Z"/>
      <path class="cls-6" d="M550.91,326.33c-1.51,0-2.65-.48-3.95-1.49l.27-2.08c1.41.76,2.56,1.24,3.76,1.24,1.05,0,2.39-.57,2.39-1.7,0-2.67-6.61-1.64-6.61-6.32,0-2.44,2.14-4.12,4.62-4.12,1.58,0,2.65.55,4.09,1.68l-.74,1.85c-.99-.65-2.16-1.22-3.28-1.22-1.41,0-2.27.76-2.27,1.6,0,2.5,6.63,1.87,6.63,6.17,0,2.88-2.41,4.39-4.93,4.39Z"/>
      <path class="cls-6" d="M558.91,317.47v-2.33h2.1v-3.97h2.33v3.97h3.51v2.33h-3.51v4.58c0,1.66.78,2.29,1.72,2.29.5,0,.88-.15,1.34-.34l.27,1.43c-.61.53-1.36.88-2.2.88-1.93,0-3.46-1.68-3.46-4.37v-4.47h-2.1Z"/>
      <path class="cls-6" d="M579.59,326.1l-.88-1.62c-.78,1.11-2.23,1.85-3.61,1.85-2.39,0-4.28-1.99-4.28-5.23v-5.96h2.33v5.9c0,1.97,1.07,3.02,2.33,3.02s2.58-1.13,2.58-2.56v-6.36h2.33v10.96h-.8Z"/>
      <path class="cls-6" d="M593.6,326.1l-.88-1.66c-.88,1.18-2.1,1.89-3.51,1.89-2.62,0-4.7-2.54-4.7-5.71s2.08-5.71,4.7-5.71c1.07,0,2.06.42,2.83,1.13v-6.28h2.35v16.33h-.8ZM589.51,317.1c-1.43,0-2.56,1.6-2.56,3.53s1.13,3.53,2.56,3.53,2.56-1.6,2.56-3.53-1.13-3.53-2.56-3.53Z"/>
      <path class="cls-6" d="M601.62,310.94c0,.76-.63,1.36-1.38,1.36s-1.41-.61-1.41-1.36.63-1.41,1.41-1.41,1.38.63,1.38,1.41ZM599.06,315.14h2.33v10.96h-2.33v-10.96Z"/>
      <path class="cls-6" d="M615.94,320.62c0,3.17-2.33,5.71-5.23,5.71s-5.21-2.54-5.21-5.71,2.33-5.71,5.21-5.71,5.23,2.54,5.23,5.71ZM607.94,320.62c0,1.93,1.24,3.53,2.77,3.53s2.79-1.6,2.79-3.53-1.24-3.53-2.79-3.53-2.77,1.6-2.77,3.53Z"/>
    </g>
    <g>
      <rect class="cls-11" x="481.53" y="309.21" width="8.36" height="29.73"/>
      <path class="cls-6" d="M488.89,310.21v27.73h-6.36v-27.73h6.36M490.89,308.21h-10.36v31.73h10.36v-31.73h0Z"/>
    </g>
  </g>
  <g id="gltbasic">
    <g id="gltbasic-2" data-name="gltbasic">
      <rect class="cls-11" x="118.21" y="155.54" width="156.97" height="219.49"/>
      <g>
        <path class="cls-8" d="M135.14,173.93h-1.57v-1.55h3.12v4.66h-.48l-.32-.57c-.57.46-1.27.73-1.96.73-2.25,0-3.78-2.17-3.78-4.82s1.53-4.83,3.78-4.83c1.11,0,2.26.71,2.89,1.79l-.92.87c-.6-.77-1.2-1.11-1.86-1.11-1.18,0-2.17,1.25-2.17,3.28s1,3.26,2.17,3.26c.38,0,.74-.11,1.11-.36v-1.34Z"/>
        <path class="cls-8" d="M141.19,175.48h2.65v1.55h-4.2v-9.34h1.55v7.79Z"/>
        <path class="cls-8" d="M144.76,169.25v-1.56h6.85v1.56h-2.65v7.79h-1.55v-7.79h-2.65Z"/>
        <path class="cls-8" d="M158.3,167.69h3.26c1.37,0,2.49,1.12,2.49,2.49,0,.64-.2,1.12-.55,1.54.71.55,1.18,1.33,1.18,2.35,0,1.64-1.33,2.96-2.96,2.96h-3.43v-9.34ZM159.86,171.13h1.71c.52,0,.94-.42.94-.94s-.42-.94-.94-.94h-1.71v1.88ZM159.86,175.48h1.88c.77,0,1.4-.63,1.4-1.4s-.63-1.4-1.4-1.4h-1.88v2.8Z"/>
        <path class="cls-8" d="M169.19,177.04h-1.55v-5.91c0-2.31,1.4-3.59,3.11-3.59s3.12,1.27,3.12,3.59v5.91h-1.55v-3.11h-3.12v3.11ZM172.32,171.13c0-1.37-.71-2.03-1.57-2.03s-1.55.66-1.55,2.03v1.25h3.12v-1.25Z"/>
        <path class="cls-8" d="M179.12,177.19c-1.01,0-1.77-.32-2.63-.99l.18-1.39c.94.5,1.71.83,2.51.83.7,0,1.6-.38,1.6-1.13,0-1.78-4.41-1.09-4.41-4.22,0-1.62,1.43-2.75,3.08-2.75,1.05,0,1.76.36,2.73,1.12l-.49,1.23c-.66-.43-1.44-.81-2.19-.81-.94,0-1.51.5-1.51,1.06,0,1.67,4.43,1.25,4.43,4.12,0,1.92-1.61,2.93-3.29,2.93Z"/>
        <path class="cls-8" d="M186.32,169.25h-1.55v-1.56h4.67v1.56h-1.56v6.23h1.56v1.55h-4.67v-1.55h1.55v-6.23Z"/>
        <path class="cls-8" d="M196.33,167.54c1.15,0,2.35.71,3.01,1.79l-.98.87c-.63-.77-1.26-1.11-1.96-1.11-1.23,0-2.3,1.25-2.3,3.28s1.06,3.26,2.3,3.26c.7,0,1.33-.32,1.96-1.11l.98.87c-.66,1.08-1.86,1.79-3.01,1.79-2.35,0-3.94-2.17-3.94-4.82s1.58-4.83,3.94-4.83Z"/>
      </g>
    </g>
    <g>
      <rect class="cls-11" x="267.83" y="218.72" width="8.35" height="29.73"/>
      <path class="cls-6" d="M275.18,219.72v27.73h-6.36v-27.73h6.36M277.18,217.72h-10.36v31.73h10.36v-31.73h0Z"/>
    </g>
    <g>
      <rect class="cls-11" x="267.83" y="346.3" width="8.35" height="29.73"/>
      <path class="cls-6" d="M275.18,347.3v27.73h-6.36v-27.73h6.36M277.18,345.3h-10.36v31.73h10.36v-31.73h0Z"/>
    </g>
    <g>
      <path class="cls-6" d="M131.06,298.4h4.89c2.06,0,3.74,1.68,3.74,3.74,0,.97-.29,1.68-.82,2.31,1.07.82,1.76,1.99,1.76,3.53,0,2.46-1.99,4.43-4.43,4.43h-5.14v-14ZM133.39,303.54h2.56c.78,0,1.41-.63,1.41-1.41s-.63-1.41-1.41-1.41h-2.56v2.81ZM133.39,310.07h2.81c1.15,0,2.1-.95,2.1-2.1s-.94-2.1-2.1-2.1h-2.81v4.2Z"/>
      <path class="cls-6" d="M153.61,312.4l-.88-1.66c-.88,1.18-2.1,1.89-3.51,1.89-2.62,0-4.66-2.54-4.7-5.71-.04-3.17,2.08-5.71,4.7-5.71,1.41,0,2.62.71,3.51,1.89l.88-1.66h.8v10.96h-.8ZM149.52,303.39c-1.43,0-2.56,1.6-2.56,3.53s1.13,3.53,2.56,3.53,2.56-1.6,2.56-3.53-1.13-3.53-2.56-3.53Z"/>
      <path class="cls-6" d="M162.39,312.67c-1.28,0-2.29-.42-3.51-1.26l.25-1.97c1.43.73,2.37,1.11,3.3,1.11.78,0,1.83-.38,1.83-1.18,0-1.87-5.5-1.18-5.5-4.89,0-1.95,1.83-3.34,4.03-3.34,1.32,0,2.29.4,3.63,1.41l-.69,1.72c-1.05-.57-1.99-1.03-2.88-1.03-1.05,0-1.7.5-1.7,1.09,0,1.74,5.5,1.3,5.5,4.79,0,2.29-2.06,3.55-4.26,3.55Z"/>
      <path class="cls-6" d="M173.31,297.24c0,.76-.63,1.37-1.39,1.37s-1.41-.61-1.41-1.37.63-1.41,1.41-1.41,1.39.63,1.39,1.41ZM170.75,301.44h2.33v10.96h-2.33v-10.96Z"/>
      <path class="cls-6" d="M184.71,304.57c-.55-.8-1.49-1.18-2.33-1.18-1.51,0-2.75,1.49-2.75,3.53s1.24,3.53,2.75,3.53c.84,0,1.87-.34,2.33-1.18l1.39,1.18c-.9,1.32-2.33,2.18-3.93,2.18-2.77,0-4.98-2.54-4.98-5.71s2.2-5.71,4.98-5.71c1.6,0,3.02.86,3.95,2.18l-1.41,1.18Z"/>
      <path class="cls-6" d="M131.06,323.6h3.28c3.46,0,6.28,3.13,6.28,7.01s-2.81,6.99-6.28,6.99h-3.28v-14ZM133.39,335.27h.94c2.04,0,3.72-2.1,3.72-4.66s-1.68-4.68-3.72-4.68h-.94v9.34Z"/>
      <path class="cls-6" d="M150.34,335.65c1.24,0,2.2-.73,2.81-1.26l1.22,1.47c-.9,1.11-2.52,1.97-4.24,1.97-3.55,0-5.65-2.54-5.65-5.67s2.18-5.75,5.4-5.75,5.4,2.65,4.83,5.98h-7.68c-.1,1.49,1.03,3.25,3.32,3.25ZM152.18,330.46c0-1.07-.84-1.87-2.29-1.87-.94,0-2.06.46-2.56,1.87h4.85Z"/>
      <path class="cls-6" d="M162.39,337.87c-1.28,0-2.29-.42-3.51-1.26l.25-1.97c1.43.74,2.37,1.11,3.3,1.11.78,0,1.83-.38,1.83-1.18,0-1.87-5.5-1.18-5.5-4.89,0-1.95,1.83-3.34,4.03-3.34,1.32,0,2.29.4,3.63,1.41l-.69,1.72c-1.05-.57-1.99-1.03-2.88-1.03-1.05,0-1.7.5-1.7,1.09,0,1.74,5.5,1.3,5.5,4.79,0,2.29-2.06,3.55-4.26,3.55Z"/>
      <path class="cls-6" d="M173.31,322.44c0,.76-.63,1.36-1.39,1.36s-1.41-.61-1.41-1.36.63-1.41,1.41-1.41,1.39.63,1.39,1.41ZM170.75,326.64h2.33v10.96h-2.33v-10.96Z"/>
      <path class="cls-6" d="M182.13,342.26c-1.91,0-3.55-1.13-4.35-2.29l1.28-1.3c.9.9,1.81,1.51,3.19,1.51s2.5-.99,2.5-3.09v-.42c-.78.71-1.78,1.15-2.86,1.15-2.62,0-4.7-2.54-4.7-5.71s2.08-5.71,4.7-5.71c1.41,0,2.62.71,3.51,1.89l.88-1.66h.8v10.25c0,3.46-2.25,5.38-4.96,5.38ZM182.19,328.59c-1.43,0-2.56,1.6-2.56,3.53s1.13,3.53,2.56,3.53,2.56-1.6,2.56-3.53-1.13-3.53-2.56-3.53Z"/>
      <path class="cls-6" d="M198.99,337.6v-5.9c0-1.99-1.09-3.04-2.35-3.04s-2.56,1.16-2.56,2.58v6.36h-2.33v-10.96h.8l.88,1.6c.78-1.09,2.23-1.83,3.59-1.83,2.41,0,4.3,2,4.3,5.23v5.96h-2.33Z"/>
      <path class="cls-6" d="M134.27,363.03c-1.51,0-2.65-.48-3.95-1.49l.27-2.08c1.41.76,2.56,1.24,3.76,1.24,1.05,0,2.39-.57,2.39-1.7,0-2.67-6.61-1.64-6.61-6.32,0-2.44,2.14-4.12,4.62-4.12,1.57,0,2.65.55,4.09,1.68l-.73,1.85c-.99-.65-2.16-1.22-3.28-1.22-1.41,0-2.27.76-2.27,1.6,0,2.5,6.63,1.87,6.63,6.17,0,2.88-2.41,4.39-4.93,4.39Z"/>
      <path class="cls-6" d="M142.27,354.17v-2.33h2.1v-3.97h2.33v3.97h3.51v2.33h-3.51v4.58c0,1.66.78,2.29,1.72,2.29.5,0,.88-.15,1.34-.34l.27,1.43c-.61.52-1.36.88-2.2.88-1.93,0-3.46-1.68-3.46-4.37v-4.47h-2.1Z"/>
      <path class="cls-6" d="M162.96,362.8l-.88-1.62c-.78,1.11-2.23,1.85-3.61,1.85-2.39,0-4.28-2-4.28-5.23v-5.96h2.33v5.9c0,1.97,1.07,3.02,2.33,3.02s2.58-1.13,2.58-2.56v-6.36h2.33v10.96h-.8Z"/>
      <path class="cls-6" d="M176.96,362.8l-.88-1.66c-.88,1.18-2.1,1.89-3.51,1.89-2.62,0-4.7-2.54-4.7-5.71s2.08-5.71,4.7-5.71c1.07,0,2.06.42,2.83,1.13v-6.28h2.35v16.33h-.8ZM172.87,353.79c-1.43,0-2.56,1.6-2.56,3.53s1.13,3.53,2.56,3.53,2.56-1.6,2.56-3.53-1.13-3.53-2.56-3.53Z"/>
      <path class="cls-6" d="M184.99,347.64c0,.76-.63,1.37-1.39,1.37s-1.41-.61-1.41-1.37.63-1.41,1.41-1.41,1.39.63,1.39,1.41ZM182.42,351.84h2.33v10.96h-2.33v-10.96Z"/>
      <path class="cls-6" d="M199.31,357.32c0,3.17-2.33,5.71-5.23,5.71s-5.21-2.54-5.21-5.71,2.33-5.71,5.21-5.71,5.23,2.54,5.23,5.71ZM191.31,357.32c0,1.93,1.24,3.53,2.77,3.53s2.79-1.6,2.79-3.53-1.24-3.53-2.79-3.53-2.77,1.6-2.77,3.53Z"/>
    </g>
  </g>
  <g>
    <path class="cls-7" d="M501.82,455.19c2.7,0,4.21,2.81,4.21,6.21s-1.51,6.19-4.21,6.19-4.2-2.79-4.2-6.19,1.49-6.21,4.2-6.21ZM501.82,465.59c1.35,0,2.09-1.91,2.09-4.2s-.74-4.21-2.09-4.21-2.07,1.91-2.07,4.21.74,4.2,2.07,4.2Z"/>
    <path class="cls-7" d="M516.65,455.62c-.38-.16-.94-.36-1.55-.36-.81,0-1.48.54-1.48,1.94v.79h2.81v2h-2.81v7.4h-2v-7.4h-2.2v-2h2.2v-.86c0-2.3,1.31-3.75,2.99-3.75,1.08,0,1.91.32,2.41.61l-.38,1.62Z"/>
    <path class="cls-7" d="M523.64,459.99v7.4h-2v-7.4h-2.2v-2h2.2v-.86c0-2.3,1.31-3.75,2.99-3.75,1.08,0,1.91.32,2.41.61l-.38,1.62c-.38-.16-.94-.36-1.55-.36-.81,0-1.48.54-1.48,1.94v.79h8.21v9.4h-2v-7.4h-6.21ZM532.04,454.39c0,.65-.54,1.17-1.21,1.17s-1.19-.52-1.19-1.17.54-1.21,1.19-1.21,1.21.54,1.21,1.21Z"/>
    <path class="cls-7" d="M541.82,460.68c-.47-.68-1.28-1.01-2-1.01-1.3,0-2.36,1.28-2.36,3.03s1.06,3.02,2.36,3.02c.72,0,1.6-.29,2-1.01l1.19,1.01c-.77,1.13-2,1.87-3.37,1.87-2.38,0-4.27-2.18-4.27-4.9s1.89-4.9,4.27-4.9c1.37,0,2.59.74,3.38,1.87l-1.21,1.01Z"/>
    <path class="cls-7" d="M550.37,465.72c1.06,0,1.89-.63,2.41-1.08l1.04,1.26c-.77.95-2.16,1.69-3.64,1.69-3.04,0-4.84-2.18-4.84-4.86s1.87-4.93,4.63-4.93,4.63,2.27,4.14,5.13h-6.59c-.09,1.28.88,2.79,2.84,2.79ZM551.95,461.27c0-.92-.72-1.6-1.96-1.6-.81,0-1.76.4-2.2,1.6h4.16Z"/>
  </g>
  <g>
    <path class="cls-7" d="M500.98,384.34c2.7,0,4.21,2.81,4.21,6.21s-1.51,6.19-4.21,6.19-4.2-2.79-4.2-6.19,1.49-6.21,4.2-6.21ZM500.98,394.75c1.35,0,2.09-1.91,2.09-4.2s-.74-4.21-2.09-4.21-2.07,1.91-2.07,4.21.74,4.2,2.07,4.2Z"/>
    <path class="cls-7" d="M515.82,384.77c-.38-.16-.94-.36-1.55-.36-.81,0-1.48.54-1.48,1.94v.79h2.81v2h-2.81v7.4h-2v-7.4h-2.2v-2h2.2v-.86c0-2.3,1.31-3.75,2.99-3.75,1.08,0,1.91.32,2.41.61l-.38,1.62Z"/>
    <path class="cls-7" d="M522.8,389.15v7.4h-2v-7.4h-2.2v-2h2.2v-.86c0-2.3,1.31-3.75,2.99-3.75,1.08,0,1.91.32,2.41.61l-.38,1.62c-.38-.16-.94-.36-1.55-.36-.81,0-1.48.54-1.48,1.94v.79h8.21v9.4h-2v-7.4h-6.21ZM531.21,383.55c0,.65-.54,1.17-1.21,1.17s-1.19-.52-1.19-1.17.54-1.21,1.19-1.21,1.21.54,1.21,1.21Z"/>
    <path class="cls-7" d="M540.98,389.83c-.47-.68-1.28-1.01-2-1.01-1.3,0-2.36,1.28-2.36,3.03s1.06,3.02,2.36,3.02c.72,0,1.6-.29,2-1.01l1.19,1.01c-.77,1.13-2,1.87-3.37,1.87-2.38,0-4.27-2.18-4.27-4.9s1.89-4.9,4.27-4.9c1.37,0,2.59.74,3.38,1.87l-1.21,1.01Z"/>
    <path class="cls-7" d="M549.53,394.87c1.06,0,1.89-.63,2.41-1.08l1.04,1.26c-.77.95-2.16,1.69-3.64,1.69-3.04,0-4.84-2.18-4.84-4.86s1.87-4.93,4.63-4.93,4.63,2.27,4.14,5.13h-6.59c-.09,1.28.88,2.79,2.84,2.79ZM551.11,390.42c0-.92-.72-1.6-1.96-1.6-.81,0-1.76.4-2.2,1.6h4.16Z"/>
  </g>
  <g id="infirmary">
    <rect class="cls-4" x="144.55" y="388.85" width="130.99" height="47.84"/>
    <g>
      <path class="cls-7" d="M159.43,413.77h-2v-2h6v2h-2v8.01h2v2h-6v-2h2v-8.01Z"/>
      <path class="cls-7" d="M173.65,423.78v-5.06c0-1.71-.94-2.61-2.02-2.61s-2.2.99-2.2,2.21v5.46h-2v-9.4h.68l.76,1.37c.67-.94,1.91-1.57,3.08-1.57,2.07,0,3.69,1.71,3.69,4.48v5.11h-2Z"/>
      <path class="cls-7" d="M183.24,416.38v7.4h-2v-7.4h-2.2v-2h2.2v-.86c0-2.3,1.31-3.75,2.99-3.75,1.08,0,1.91.32,2.41.61l-.38,1.62c-.38-.16-.94-.36-1.55-.36-.81,0-1.48.54-1.48,1.94v.79h8.21v9.4h-2v-7.4h-6.21ZM191.65,410.78c0,.65-.54,1.17-1.21,1.17s-1.19-.52-1.19-1.17.54-1.21,1.19-1.21,1.21.54,1.21,1.21Z"/>
      <path class="cls-7" d="M197.44,418.33v5.46h-2v-9.4h.68l.76,1.37c.67-.94,1.71-1.57,2.88-1.57.18,0,.58.05.58.05v3.89h-.67l-.99-1.85c-.72.34-1.24,1.13-1.24,2.05Z"/>
      <path class="cls-7" d="M209.43,423.78h-2v-6.32c0-.85-.45-1.31-.99-1.31s-1.01.49-1.01,1.12v6.52h-2v-9.4h.68l.52.94c.47-.67,1.24-1.13,2.09-1.13s1.53.36,2.02.99c.47-.58,1.19-.99,2-.99,1.51,0,2.7,1.28,2.7,3.29v6.3h-2v-6.32c0-.85-.47-1.31-1.01-1.31s-1.01.49-1.01,1.12v6.52Z"/>
      <path class="cls-7" d="M224.77,423.78l-.76-1.42c-.76,1.01-1.8,1.62-3.01,1.62-2.25,0-4-2.18-4.03-4.9-.04-2.72,1.78-4.9,4.03-4.9,1.21,0,2.25.61,3.01,1.62l.76-1.42h.68v9.4h-.68ZM221.26,416.06c-1.22,0-2.2,1.37-2.2,3.03s.97,3.02,2.2,3.02,2.2-1.37,2.2-3.02-.97-3.03-2.2-3.03Z"/>
      <path class="cls-7" d="M231.44,418.33v5.46h-2v-9.4h.68l.76,1.37c.67-.94,1.71-1.57,2.88-1.57.18,0,.58.05.58.05v3.89h-.67l-.99-1.85c-.72.34-1.24,1.13-1.24,2.05Z"/>
      <path class="cls-7" d="M237.13,427.78l2.25-5.56-3.17-7.83h2.12l2.11,5.22,2.09-5.22h2.12l-5.4,13.4h-2.12Z"/>
    </g>
  </g>
  <g>
    <path class="cls-7" d="M159.39,477.22h-2v-12.01h2v5.53l3.96-5.53h2.45l-4.21,5.87,4.41,6.14h-2.45l-4.16-5.8v5.8Z"/>
    <path class="cls-7" d="M171.59,464.22c0,.65-.54,1.17-1.19,1.17s-1.21-.52-1.21-1.17.54-1.21,1.21-1.21,1.19.54,1.19,1.21ZM169.39,467.82h2v9.4h-2v-9.4Z"/>
    <path class="cls-7" d="M174.99,469.82v-2h1.8v-3.4h2v3.4h3.01v2h-3.01v3.93c0,1.42.67,1.96,1.48,1.96.43,0,.76-.13,1.15-.29l.23,1.22c-.52.45-1.17.76-1.89.76-1.66,0-2.97-1.44-2.97-3.75v-3.83h-1.8Z"/>
    <path class="cls-7" d="M191.37,470.5c-.47-.68-1.28-1.01-2-1.01-1.3,0-2.36,1.28-2.36,3.03s1.06,3.02,2.36,3.02c.72,0,1.6-.29,2-1.01l1.19,1.01c-.77,1.13-2,1.87-3.37,1.87-2.38,0-4.27-2.18-4.27-4.9s1.89-4.9,4.27-4.9c1.37,0,2.59.74,3.38,1.87l-1.21,1.01Z"/>
    <path class="cls-7" d="M199.92,467.62c2.07,0,3.69,1.71,3.69,4.48v5.11h-2v-5.06c0-1.71-.94-2.61-2.02-2.61s-2.2.99-2.2,2.21v5.46h-2v-14.01h2v5.35c.63-.58,1.64-.94,2.52-.94Z"/>
    <path class="cls-7" d="M211.93,475.54c1.06,0,1.89-.63,2.41-1.08l1.04,1.26c-.77.95-2.16,1.69-3.64,1.69-3.04,0-4.84-2.18-4.84-4.86s1.87-4.93,4.63-4.93,4.63,2.27,4.14,5.13h-6.59c-.09,1.28.88,2.79,2.85,2.79ZM213.51,471.1c0-.92-.72-1.6-1.96-1.6-.81,0-1.76.4-2.2,1.6h4.16Z"/>
    <path class="cls-7" d="M225.63,477.22v-5.06c0-1.71-.94-2.61-2.02-2.61s-2.2.99-2.2,2.21v5.46h-2v-9.4h.68l.76,1.37c.67-.94,1.91-1.57,3.08-1.57,2.07,0,3.69,1.71,3.69,4.48v5.11h-2Z"/>
  </g>
  <g>
    <path class="cls-7" d="M197.99,98.88c2.7,0,4.21,2.81,4.21,6.21s-1.51,6.19-4.21,6.19-4.2-2.79-4.2-6.19,1.49-6.21,4.2-6.21ZM197.99,109.29c1.35,0,2.09-1.91,2.09-4.2s-.74-4.21-2.09-4.21-2.07,1.91-2.07,4.21.74,4.2,2.07,4.2Z"/>
    <path class="cls-7" d="M212.82,99.31c-.38-.16-.94-.36-1.55-.36-.81,0-1.48.54-1.48,1.94v.79h2.81v2h-2.81v7.4h-2v-7.4h-2.2v-2h2.2v-.86c0-2.3,1.31-3.75,2.99-3.75,1.08,0,1.91.32,2.41.61l-.38,1.62Z"/>
    <path class="cls-7" d="M219.8,103.69v7.4h-2v-7.4h-2.2v-2h2.2v-.86c0-2.3,1.31-3.75,2.99-3.75,1.08,0,1.91.32,2.41.61l-.38,1.62c-.38-.16-.94-.36-1.55-.36-.81,0-1.48.54-1.48,1.94v.79h8.21v9.4h-2v-7.4h-6.21ZM228.21,98.09c0,.65-.54,1.17-1.21,1.17s-1.19-.52-1.19-1.17.54-1.21,1.19-1.21,1.21.54,1.21,1.21Z"/>
    <path class="cls-7" d="M237.98,104.37c-.47-.68-1.28-1.01-2-1.01-1.3,0-2.36,1.28-2.36,3.03s1.06,3.02,2.36,3.02c.72,0,1.6-.29,2-1.01l1.19,1.01c-.77,1.13-2,1.87-3.37,1.87-2.38,0-4.27-2.18-4.27-4.9s1.89-4.9,4.27-4.9c1.37,0,2.59.74,3.38,1.87l-1.21,1.01Z"/>
    <path class="cls-7" d="M246.53,109.42c1.06,0,1.89-.63,2.41-1.08l1.04,1.26c-.77.95-2.16,1.69-3.64,1.69-3.04,0-4.84-2.18-4.84-4.86s1.87-4.93,4.63-4.93,4.63,2.27,4.14,5.13h-6.59c-.09,1.28.88,2.79,2.84,2.79ZM248.12,104.97c0-.92-.72-1.6-1.96-1.6-.81,0-1.76.4-2.2,1.6h4.16Z"/>
  </g>
  <g>
    <path class="cls-7" d="M207.23,26.06c2.7,0,4.21,2.81,4.21,6.21s-1.51,6.19-4.21,6.19-4.2-2.79-4.2-6.19,1.49-6.21,4.2-6.21ZM207.23,36.47c1.35,0,2.09-1.91,2.09-4.2s-.74-4.21-2.09-4.21-2.07,1.91-2.07,4.21.74,4.2,2.07,4.2Z"/>
    <path class="cls-7" d="M222.06,26.49c-.38-.16-.94-.36-1.55-.36-.81,0-1.48.54-1.48,1.94v.79h2.81v2h-2.81v7.4h-2v-7.4h-2.2v-2h2.2v-.86c0-2.3,1.31-3.75,2.99-3.75,1.08,0,1.91.32,2.41.61l-.38,1.62Z"/>
    <path class="cls-7" d="M229.04,30.87v7.4h-2v-7.4h-2.2v-2h2.2v-.86c0-2.3,1.31-3.75,2.99-3.75,1.08,0,1.91.32,2.41.61l-.38,1.62c-.38-.16-.94-.36-1.55-.36-.81,0-1.48.54-1.48,1.94v.79h8.21v9.4h-2v-7.4h-6.21ZM237.45,25.27c0,.65-.54,1.17-1.21,1.17s-1.19-.52-1.19-1.17.54-1.21,1.19-1.21,1.21.54,1.21,1.21Z"/>
    <path class="cls-7" d="M247.23,31.55c-.47-.68-1.28-1.01-2-1.01-1.3,0-2.36,1.28-2.36,3.03s1.06,3.02,2.36,3.02c.72,0,1.6-.29,2-1.01l1.19,1.01c-.77,1.13-2,1.87-3.37,1.87-2.38,0-4.27-2.18-4.27-4.9s1.89-4.9,4.27-4.9c1.37,0,2.59.74,3.38,1.87l-1.21,1.01Z"/>
    <path class="cls-7" d="M255.77,36.59c1.06,0,1.89-.63,2.41-1.08l1.04,1.26c-.77.95-2.16,1.69-3.64,1.69-3.04,0-4.84-2.18-4.84-4.86s1.87-4.93,4.63-4.93,4.63,2.27,4.14,5.13h-6.59c-.09,1.28.88,2.79,2.84,2.79ZM257.36,32.15c0-.92-.72-1.6-1.96-1.6-.81,0-1.76.4-2.2,1.6h4.16Z"/>
  </g>
  <g>
    <path class="cls-7" d="M493.75,32.36c2.7,0,4.21,2.81,4.21,6.21s-1.51,6.19-4.21,6.19-4.2-2.79-4.2-6.19,1.49-6.21,4.2-6.21ZM493.75,42.77c1.35,0,2.09-1.91,2.09-4.2s-.74-4.21-2.09-4.21-2.07,1.91-2.07,4.21.74,4.2,2.07,4.2Z"/>
    <path class="cls-7" d="M508.58,32.8c-.38-.16-.94-.36-1.55-.36-.81,0-1.48.54-1.48,1.94v.79h2.81v2h-2.81v7.4h-2v-7.4h-2.2v-2h2.2v-.86c0-2.3,1.31-3.75,2.99-3.75,1.08,0,1.91.32,2.41.61l-.38,1.62Z"/>
    <path class="cls-7" d="M515.56,37.17v7.4h-2v-7.4h-2.2v-2h2.2v-.86c0-2.3,1.31-3.75,2.99-3.75,1.08,0,1.91.32,2.41.61l-.38,1.62c-.38-.16-.94-.36-1.55-.36-.81,0-1.48.54-1.48,1.94v.79h8.21v9.4h-2v-7.4h-6.21ZM523.97,31.57c0,.65-.54,1.17-1.21,1.17s-1.19-.52-1.19-1.17.54-1.21,1.19-1.21,1.21.54,1.21,1.21Z"/>
    <path class="cls-7" d="M533.74,37.86c-.47-.68-1.28-1.01-2-1.01-1.3,0-2.36,1.28-2.36,3.03s1.06,3.02,2.36,3.02c.72,0,1.6-.29,2-1.01l1.19,1.01c-.77,1.13-2,1.87-3.37,1.87-2.38,0-4.27-2.18-4.27-4.9s1.89-4.9,4.27-4.9c1.37,0,2.59.74,3.38,1.87l-1.21,1.01Z"/>
    <path class="cls-7" d="M542.29,42.9c1.06,0,1.89-.63,2.41-1.08l1.04,1.26c-.77.95-2.16,1.69-3.64,1.69-3.04,0-4.84-2.18-4.84-4.86s1.87-4.93,4.63-4.93,4.63,2.27,4.14,5.13h-6.59c-.09,1.28.88,2.79,2.84,2.79ZM543.88,38.45c0-.92-.72-1.6-1.96-1.6-.81,0-1.76.4-2.2,1.6h4.16Z"/>
  </g>
  <g>
    <path class="cls-7" d="M379.27,170.76c0,2.2-1.8,4-4.01,4-1.84,0-3.31-1.21-3.82-2.83l1.89-.67c.22.81.97,1.49,1.93,1.49,1.1,0,2-.9,2-2s-.9-2-2-2h-1.49v-.61l2.65-3.6h-3.24l-.97,1.6h-.59v-3.6h7.87v.99l-2.63,3.53c1.37.63,2.43,1.96,2.43,3.69Z"/>
    <path class="cls-7" d="M383.26,162.55h2.81c2.97,0,5.38,2.68,5.38,6.01s-2.41,6-5.38,6h-2.81v-12.01ZM385.26,172.56h.81c1.75,0,3.19-1.8,3.19-4s-1.44-4.02-3.19-4.02h-.81v8.01Z"/>
    <path class="cls-7" d="M352.66,188.17c0,2.2-1.8,4-4,4h-2.41v4h-2v-12.01h4.41c2.2,0,4,1.8,4,4.02ZM350.67,188.17c0-1.12-.9-2.02-2-2.02h-2.41v4.02h2.41c1.1,0,2-.9,2-2Z"/>
    <path class="cls-7" d="M358.26,190.71v5.46h-2v-9.4h.68l.76,1.37c.67-.94,1.71-1.57,2.88-1.57.18,0,.58.05.58.05v3.89h-.67l-.99-1.85c-.72.34-1.24,1.13-1.24,2.05Z"/>
    <path class="cls-7" d="M366.45,183.16c0,.65-.54,1.17-1.19,1.17s-1.21-.52-1.21-1.17.54-1.21,1.21-1.21,1.19.54,1.19,1.21ZM364.25,186.76h2v9.4h-2v-9.4Z"/>
    <path class="cls-7" d="M376.46,196.16v-5.06c0-1.71-.94-2.61-2.02-2.61s-2.2.99-2.2,2.21v5.46h-2v-9.4h.68l.76,1.37c.67-.94,1.91-1.57,3.08-1.57,2.07,0,3.69,1.71,3.69,4.48v5.11h-2Z"/>
    <path class="cls-7" d="M381.86,188.76v-2h1.8v-3.4h2v3.4h3.01v2h-3.01v3.93c0,1.42.67,1.96,1.48,1.96.43,0,.76-.13,1.15-.29l.23,1.22c-.52.45-1.17.76-1.89.76-1.66,0-2.97-1.44-2.97-3.75v-3.84h-1.8Z"/>
    <path class="cls-7" d="M394.46,183.16c0,.65-.54,1.17-1.19,1.17s-1.21-.52-1.21-1.17.54-1.21,1.21-1.21,1.19.54,1.19,1.21ZM392.26,186.76h2v9.4h-2v-9.4Z"/>
    <path class="cls-7" d="M404.47,196.16v-5.06c0-1.71-.94-2.61-2.02-2.61s-2.2.99-2.2,2.21v5.46h-2v-9.4h.68l.76,1.37c.67-.94,1.91-1.57,3.08-1.57,2.07,0,3.69,1.71,3.69,4.48v5.11h-2Z"/>
    <path class="cls-7" d="M414.02,200.16c-1.64,0-3.04-.97-3.73-1.96l1.1-1.12c.77.77,1.55,1.3,2.74,1.3s2.14-.85,2.14-2.65v-.36c-.67.61-1.53.99-2.45.99-2.25,0-4.03-2.18-4.03-4.9s1.78-4.9,4.03-4.9c1.21,0,2.25.61,3.01,1.62l.76-1.42h.68v8.79c0,2.97-1.93,4.61-4.25,4.61ZM414.08,188.44c-1.22,0-2.2,1.37-2.2,3.02s.97,3.02,2.2,3.02,2.2-1.37,2.2-3.02-.97-3.02-2.2-3.02Z"/>
    <path class="cls-7" d="M369.26,215.76h3.4v2h-5.4v-12.01h2v10.01Z"/>
    <path class="cls-7" d="M382.58,217.76l-.76-1.42c-.76,1.01-1.8,1.62-3.01,1.62-2.25,0-4-2.18-4.03-4.9s1.78-4.9,4.03-4.9c1.21,0,2.25.61,3.01,1.62l.76-1.42h.68v9.4h-.68ZM379.07,210.04c-1.22,0-2.2,1.37-2.2,3.03s.97,3.02,2.2,3.02,2.2-1.37,2.2-3.02-.97-3.03-2.2-3.03Z"/>
    <path class="cls-7" d="M387.94,217.76h-.68v-14.01h2v5.38c.68-.61,1.53-.97,2.45-.97,2.23,0,4.03,2.18,4.03,4.9s-1.8,4.9-4.03,4.9c-1.21,0-2.27-.61-3.01-1.62l-.76,1.42ZM389.26,213.06c0,1.66.99,3.02,2.2,3.02s2.2-1.37,2.2-3.02-.97-3.03-2.2-3.03-2.2,1.37-2.2,3.03Z"/>
  </g>
  <g>
    <rect class="cls-9" x="291.3" y="517.09" width="83.77" height="30.38"/>
    <rect class="cls-9" x="389.7" y="517.16" width="83.77" height="30.38"/>
    <g>
      <path class="cls-10" d="M506.23,530.54v.43s-.53,0-.53,0v.24s.44-.02.44-.02v.41s-.43.01-.43.01l.02.5-.49.03v-1.56s.98-.04.98-.04Z"/>
      <path class="cls-10" d="M506.92,530.57v1.52s-.48.03-.48.03l-.02-1.53.5-.02Z"/>
      <path class="cls-10" d="M507.73,531.62l-.08.02.02.48h-.48s-.02-1.51-.02-1.51l.74-.04.37.06.04.82-.16.08.3.43-.44.2-.29-.54ZM507.61,531.29l.25-.02v-.32s-.26,0-.26,0v.34Z"/>
      <path class="cls-10" d="M509.52,532.11h-.97s0-1.46,0-1.46l.09-.06.84-.02v.39s-.48,0-.48,0v.2s.35,0,.35,0v.36s-.38,0-.38,0v.21s.55-.01.55-.01v.4Z"/>
      <path class="cls-10" d="M505.43,533.02h-.3s0-.45,0-.45l.03-.02h.26s0,.11,0,.11h-.14s0,.06,0,.06h.11s0,.11,0,.11h-.11s0,.06,0,.06h.17s0,.12,0,.12Z"/>
      <path class="cls-10" d="M505.67,532.87l-.04.03v.12s-.17,0-.17,0l.03-.19.08-.05-.08-.05v-.17s.14,0,.14,0v.12s.04.04.04.04l.03-.03v-.12s.15,0,.15,0l-.02.17-.07.05.07.05.03.19h-.16s0-.11,0-.11l-.04-.03Z"/>
      <path class="cls-10" d="M506.25,532.68h-.12s.02.33.02.33h-.15s0-.33,0-.33h-.11s0-.13,0-.13h.35s0,.13,0,.13Z"/>
      <path class="cls-10" d="M506.45,532.55v.46s-.15,0-.15,0v-.47s.15,0,.15,0Z"/>
      <path class="cls-10" d="M506.91,533.01h-.14s0-.14,0-.14l-.1-.13v.26s-.14,0-.14,0v-.45s.13-.01.13-.01l.11.15v-.15s.14,0,.14,0v.46Z"/>
      <path class="cls-10" d="M507.05,532.55h.26s0,.13,0,.13h-.18v.2h.07s0-.12,0-.12h.14s-.01.26-.01.26h-.33s-.02-.38-.02-.38l.07-.09Z"/>
      <path class="cls-10" d="M507.75,532.55l.02.41-.06.05h-.29s-.03-.02-.03-.02v-.43s.14,0,.14,0v.31s.1-.01.1-.01v-.31s.13,0,.13,0Z"/>
      <path class="cls-10" d="M507.99,532.55v.46s-.15,0-.15,0v-.47s.15,0,.15,0Z"/>
      <path class="cls-10" d="M508.35,532.55v.13s-.14,0-.14,0v.03s.15.07.15.07v.23s-.3.03-.3.03v-.15s.15,0,.15,0v-.04s-.16-.09-.16-.09v-.19s.14-.01.14-.01h.16Z"/>
      <path class="cls-10" d="M508.65,532.85h-.09s0,.16,0,.16h-.14v-.45s.14,0,.14,0v.17s.09,0,.09,0v-.18s.15,0,.15,0v.48s-.15,0-.15,0v-.18Z"/>
      <path class="cls-10" d="M509.17,533.02h-.3s0-.45,0-.45l.03-.02h.26s0,.11,0,.11h-.14s0,.06,0,.06h.11s0,.11,0,.11h-.11s0,.06,0,.06h.17s0,.12,0,.12Z"/>
      <path class="cls-10" d="M509.4,532.87h-.02s0,.15,0,.15h-.15s0-.46,0-.46h.23s.11,0,.11,0v.25s-.04.03-.04.03l.09.13-.13.06-.09-.17ZM509.36,532.77h.08s0-.1,0-.1h-.08s0,.1,0,.1Z"/>
    </g>
    <path class="cls-10" d="M503.34,535.87l3.88,2.89c.06.05.15.05.21,0l3.88-2.89c.06-.04.08-.12.06-.19-.02-.07-.09-.12-.16-.12h-1.74v-1.79c0-.1-.08-.17-.17-.17h-3.93c-.1,0-.17.08-.17.17v1.79h-1.74c-.07,0-.14.05-.16.12-.02.07,0,.15.06.19Z"/>
    <path class="cls-10" d="M514.39,525.31s-.08-.05-.14-.05c-.02,0-.03,0-.05,0l-3.1.66c-.05,0-.09.03-.12.08-.03.04-.05.09-.05.14h-3.38c.06-.14.1-.29.1-.44,0-.3-.11-.57-.33-.78-.22-.22-.48-.33-.78-.33s-.57.11-.78.33c-.22.22-.33.48-.33.78,0,.2.06.4.17.6-.26.08-.51.2-.75.36-.24.16-.44.31-.59.46-.15.15-.29.31-.42.48-.13.17-.22.3-.26.37-.04.07-.08.13-.1.18-.06.11-.06.22-.02.34.04.12.11.2.22.26.06.03.13.05.2.05.18,0,.32-.08.39-.24.02-.04.05-.09.1-.17.05-.08.14-.2.28-.37.14-.17.29-.32.46-.46.16-.14.38-.26.63-.37.26-.11.52-.16.8-.16h.22v.77c-.46.14-.83.4-1.12.79-.29.39-.43.83-.43,1.32v.07h4.43v-.07c0-.53-.17-1-.5-1.41-.33-.41-.76-.66-1.27-.77v-.71h3.06c0,.05.02.1.05.14.03.04.07.07.12.08l3.1.66s.03,0,.05,0c.06,0,.1-.02.14-.05.06-.04.08-.1.08-.17v-2.22c0-.07-.03-.13-.08-.17ZM506.85,526.02c-.09.09-.19.13-.31.13s-.22-.04-.31-.13c-.09-.09-.13-.19-.13-.31s.04-.22.13-.31c.09-.09.19-.13.31-.13s.22.04.31.13c.09.09.13.19.13.31s-.04.22-.13.31Z"/>
    <g>
      <g>
        <polygon class="cls-11" points="483.05 534.31 483.34 536.63 497.53 534.71 497.23 532.39 483.05 534.31"/>
        <polygon class="cls-11" points="497.28 528.83 483.07 527.37 482.81 529.69 497.02 531.16 497.28 528.83"/>
        <polygon class="cls-11" points="483.77 522.94 497.38 527.18 498.1 524.95 484.49 520.71 483.77 522.94"/>
        <polygon class="cls-11" points="487.67 514.91 498.86 523.74 500.33 521.91 489.14 513.08 487.67 514.91"/>
        <polygon class="cls-11" points="493.32 509.36 501.55 521 503.48 519.67 495.25 508.03 493.32 509.36"/>
        <polygon class="cls-11" points="500.37 505.89 505.17 519.31 507.39 518.54 502.59 505.12 500.37 505.89"/>
        <polygon class="cls-11" points="531.35 523.33 530.81 521.05 516.92 524.51 517.46 526.78 531.35 523.33"/>
        <polygon class="cls-11" points="517.81 527.98 517.8 530.32 532.08 530.23 532.09 527.89 517.81 527.98"/>
        <polygon class="cls-11" points="517.41 534.27 531.4 537.01 531.88 534.71 517.89 531.98 517.41 534.27"/>
        <polygon class="cls-11" points="515.52 537.54 527.61 545.09 528.87 543.12 516.79 535.56 515.52 537.54"/>
        <polygon class="cls-11" points="512.64 540.11 522.08 550.78 523.85 549.25 514.41 538.57 512.64 540.11"/>
        <polygon class="cls-11" points="508.87 541.65 515.1 554.47 517.22 553.47 510.99 540.65 508.87 541.65"/>
      </g>
      <polygon class="cls-11" points="264.09 538.21 264.09 528.7 251.31 528.7 251.31 519.03 238.52 519.03 238.52 509.36 225.73 509.36 225.73 499.69 212.95 499.69 212.95 509.36 212.95 547.88 238.52 547.88 251.31 547.88 263.87 547.88 276.66 547.88 276.66 538.21 264.09 538.21"/>
    </g>
  </g>
  <g id="glt601">
    <g id="glt601-2" data-name="glt601">
      <rect class="cls-11" x="307.92" y="5.07" width="148.35" height="127.42"/>
    </g>
    <g>
      <path class="cls-8" d="M362.17,65.43c.66,0,1.26.34,1.86,1.11l.92-.87c-.63-1.08-1.78-1.79-2.89-1.79-2.25,0-3.78,2.19-3.78,4.83s1.53,4.82,3.78,4.82c.69,0,1.39-.27,1.96-.73l.32.57h.48v-4.66h-3.12v1.55h1.57v1.34c-.36.25-.73.36-1.11.36-1.18,0-2.17-1.25-2.17-3.26s1-3.28,2.17-3.28Z"/>
      <polygon class="cls-8" points="369.34 64.03 367.78 64.03 367.78 73.38 371.99 73.38 371.99 71.82 369.34 71.82 369.34 64.03"/>
      <polygon class="cls-8" points="372.91 65.59 375.55 65.59 375.55 73.38 377.11 73.38 377.11 65.59 379.76 65.59 379.76 64.03 372.91 64.03 372.91 65.59"/>
      <path class="cls-8" d="M385.16,67.32l2.31-3.29h-1.91l-2.97,4.24c-.45.63-.83,1.26-.81,2.14.01,1.71,1.4,3.11,3.11,3.11s3.12-1.4,3.12-3.11-1.26-2.97-2.86-3.1ZM384.89,71.98c-.85,0-1.55-.7-1.55-1.55s.7-1.55,1.55-1.55,1.56.7,1.56,1.55-.7,1.55-1.56,1.55Z"/>
      <path class="cls-8" d="M394.23,63.88c-2.1,0-3.26,2.19-3.26,4.83s1.16,4.82,3.26,4.82,3.28-2.17,3.28-4.82-1.18-4.83-3.28-4.83ZM394.23,71.98c-1.04,0-1.61-1.48-1.61-3.26s.57-3.28,1.61-3.28,1.62,1.48,1.62,3.28-.57,3.26-1.62,3.26Z"/>
      <polygon class="cls-8" points="404.35 71.82 404.35 63.88 403.89 63.88 400.75 67.02 401.1 67.66 402.8 67.03 402.8 71.82 401.24 71.82 401.24 73.38 405.91 73.38 405.91 71.82 404.35 71.82"/>
    </g>
    <g>
      <rect class="cls-11" x="448.72" y="86.05" width="8.36" height="29.73"/>
      <path class="cls-6" d="M456.07,87.05v27.73h-6.36v-27.73h6.36M458.07,85.05h-10.36v31.73h10.36v-31.73h0Z"/>
    </g>
  </g>
  <rect class="cls-1" x="470.63" y="49.62" width="6.07" height="17.55" transform="translate(532.07 -415.27) rotate(90)"/>
  <g id="gltmac02">
    <g id="gltmac02-2" data-name="gltmac02">
      <rect class="cls-11" x="482.44" y="71.62" width="145.41" height="97.29"/>
      <g>
        <path class="cls-8" d="M547.6,89.9h-1.57v-1.55h3.12v4.66h-.48l-.32-.57c-.57.46-1.27.73-1.96.73-2.25,0-3.78-2.17-3.78-4.82s1.53-4.83,3.78-4.83c1.11,0,2.26.71,2.89,1.79l-.92.87c-.6-.77-1.2-1.11-1.86-1.11-1.18,0-2.17,1.25-2.17,3.28s1,3.26,2.17,3.26c.38,0,.74-.11,1.11-.36v-1.34Z"/>
        <path class="cls-8" d="M553.66,91.45h2.65v1.55h-4.2v-9.34h1.55v7.79Z"/>
        <path class="cls-8" d="M557.23,85.22v-1.56h6.85v1.56h-2.65v7.79h-1.55v-7.79h-2.65Z"/>
        <path class="cls-8" d="M577.07,93.01v-5.63l-2.26,4.23h-.31l-2.25-4.23v5.63h-1.49v-9.34h1.27l2.62,4.92,2.62-4.92h1.27v9.34h-1.48Z"/>
        <path class="cls-8" d="M583.21,93.01h-1.55v-5.91c0-2.31,1.4-3.59,3.11-3.59s3.12,1.27,3.12,3.59v5.91h-1.55v-3.11h-3.12v3.11ZM586.34,87.1c0-1.37-.71-2.03-1.57-2.03s-1.55.66-1.55,2.03v1.25h3.12v-1.25Z"/>
        <path class="cls-8" d="M594.78,83.51c1.15,0,2.35.71,3.01,1.79l-.98.87c-.63-.77-1.26-1.11-1.96-1.11-1.23,0-2.3,1.25-2.3,3.28s1.06,3.26,2.3,3.26c.7,0,1.33-.32,1.96-1.11l.98.87c-.66,1.08-1.86,1.79-3.01,1.79-2.35,0-3.94-2.17-3.94-4.82s1.58-4.83,3.94-4.83Z"/>
        <path class="cls-8" d="M603.44,83.51c2.1,0,3.28,2.19,3.28,4.83s-1.18,4.82-3.28,4.82-3.26-2.17-3.26-4.82,1.16-4.83,3.26-4.83ZM603.44,91.61c1.05,0,1.62-1.48,1.62-3.26s-.57-3.28-1.62-3.28-1.61,1.48-1.61,3.28.57,3.26,1.61,3.26Z"/>
        <path class="cls-8" d="M614.34,86.62c0-.85-.7-1.55-1.56-1.55s-1.55.7-1.55,1.55v.78h-1.55v-.78c0-1.71,1.4-3.11,3.11-3.11s3.12,1.4,3.12,3.11c0,1.29-.59,2.09-1.48,2.93l-2.02,1.91h3.5v1.55h-6.23v-.56l3.35-3.54c.52-.55,1.32-1.37,1.32-2.28Z"/>
      </g>
    </g>
    <g>
      <rect class="cls-11" x="481.53" y="140.21" width="8.36" height="29.73"/>
      <path class="cls-6" d="M488.89,141.21v27.73h-6.36v-27.73h6.36M490.89,139.21h-10.36v31.73h10.36v-31.73h0Z"/>
    </g>
    <g>
      <path class="cls-6" d="M522.78,156.84v-8.44l-3.38,6.34h-.46l-3.38-6.34v8.44h-2.23v-14h1.91l3.93,7.37,3.93-7.37h1.91v14h-2.23Z"/>
      <path class="cls-6" d="M538.21,156.84l-.88-1.66c-.88,1.18-2.1,1.89-3.51,1.89-2.62,0-4.66-2.54-4.7-5.71-.04-3.17,2.08-5.71,4.7-5.71,1.41,0,2.62.71,3.51,1.89l.88-1.66h.8v10.96h-.8ZM534.12,147.83c-1.43,0-2.56,1.6-2.56,3.53s1.13,3.53,2.56,3.53,2.56-1.6,2.56-3.53-1.13-3.53-2.56-3.53Z"/>
      <path class="cls-6" d="M550.65,149.01c-.55-.8-1.49-1.18-2.33-1.18-1.51,0-2.75,1.49-2.75,3.53s1.24,3.53,2.75,3.53c.84,0,1.87-.34,2.33-1.18l1.39,1.18c-.9,1.32-2.33,2.18-3.93,2.18-2.77,0-4.98-2.54-4.98-5.71s2.2-5.71,4.98-5.71c1.6,0,3.02.86,3.95,2.18l-1.41,1.18Z"/>
      <path class="cls-6" d="M564.67,154.51h3.97v2.33h-6.3v-14h2.33v11.67Z"/>
      <path class="cls-6" d="M580.21,156.84l-.88-1.66c-.88,1.18-2.1,1.89-3.51,1.89-2.62,0-4.66-2.54-4.7-5.71-.04-3.17,2.08-5.71,4.7-5.71,1.41,0,2.62.71,3.51,1.89l.88-1.66h.8v10.96h-.8ZM576.12,147.83c-1.43,0-2.56,1.6-2.56,3.53s1.13,3.53,2.56,3.53,2.56-1.6,2.56-3.53-1.13-3.53-2.56-3.53Z"/>
      <path class="cls-6" d="M586.47,156.84h-.8v-16.33h2.33v6.28c.8-.71,1.78-1.13,2.86-1.13,2.6,0,4.7,2.54,4.7,5.71s-2.1,5.71-4.7,5.71c-1.41,0-2.65-.71-3.51-1.89l-.88,1.66ZM588.01,151.36c0,1.93,1.15,3.53,2.56,3.53s2.56-1.6,2.56-3.53-1.13-3.53-2.56-3.53-2.56,1.6-2.56,3.53Z"/>
      <path class="cls-6" d="M613.67,147.26c0-1.28-1.05-2.33-2.33-2.33s-2.33,1.05-2.33,2.33v1.18h-2.33v-1.18c0-2.56,2.1-4.66,4.66-4.66s4.68,2.1,4.68,4.66c0,1.93-.88,3.13-2.23,4.39l-3.02,2.86h5.25v2.33h-9.34v-.84l5.02-5.31c.78-.82,1.97-2.06,1.97-3.42Z"/>
    </g>
  </g>
</svg>