<?xml version="1.0" encoding="UTF-8"?>
<svg id="katman_1" data-name="katman 1" xmlns="http://www.w3.org/2000/svg" viewBox="0 0 714.47 560.25">
  <defs>
    <style>
      .cls-1 {
        fill: #3c3c3b;
      }

      .cls-2 {
        fill: none;
        stroke: #b6373d;
        stroke-miterlimit: 10;
        stroke-width: 2px;
      }

      .cls-3 {
        fill: #e52629;
      }

      .cls-4 {
        fill: #dadada;
      }

      .cls-5 {
        fill: #fff;
      }

      .cls-6 {
        font-family: ArialRoundedMTBold, 'Arial Rounded MT Bold';
        font-size: 20.69px;
      }

      .cls-6, .cls-7 {
        fill: #b6373d;
      }

      .cls-8 {
        fill: #878787;
      }
    </style>
  </defs>
  <rect class="cls-2" x="295.26" y="153.08" width="182.09" height="340.19"/>
  <path class="cls-7" d="M293.61,385.18v107.1h-88.4v-107.1h88.4M295.61,383.18h-92.4v111.1h92.4v-111.1h0Z"/>
  <g>
    <path class="cls-7" d="M27.44,213.62H.44v-18.89h3.64v14.12h8.11v-12.16h3.6v12.16h11.66v4.77Z"/>
    <path class="cls-7" d="M27.44,190.09H.44v-4.77h23.33v-13.75h3.68v18.52Z"/>
    <path class="cls-7" d="M8.43,145.61h11.03c6.31,0,8.43,5.33,8.43,11.46s-2.12,11.46-8.43,11.46h-11.03c-6.31,0-8.43-5.38-8.43-11.46s2.12-11.46,8.43-11.46ZM9.43,163.76h8.99c4.51,0,5.71-2.76,5.71-6.69s-1.2-6.69-5.71-6.69h-8.99c-4.47,0-5.67,2.76-5.67,6.69s1.2,6.69,5.67,6.69Z"/>
    <path class="cls-7" d="M8.43,115.78h11.03c6.31,0,8.43,5.33,8.43,11.46s-2.12,11.46-8.43,11.46h-11.03c-6.31,0-8.43-5.38-8.43-11.46s2.12-11.46,8.43-11.46ZM9.43,133.92h8.99c4.51,0,5.71-2.76,5.71-6.69s-1.2-6.69-5.71-6.69h-8.99c-4.47,0-5.67,2.76-5.67,6.69s1.2,6.69,5.67,6.69Z"/>
    <path class="cls-7" d="M27.44,90.43l-11.35,6.73v6.92h11.35v4.77H.44v-14.22c0-3.88,2.68-6.73,5.99-6.73h3.67c2.6,0,4.79,1.73,5.63,4.35l11.7-7.02v5.19ZM7.39,92.67c-2.24,0-3.32,1.12-3.32,4.07v7.34h8.39v-7.34c0-2.95-1.08-4.07-3.32-4.07h-1.76Z"/>
    <path class="cls-7" d="M29.28,53.72c5.27,0,6.67,4.12,6.67,9.31,0,3.32-.52,8.89-.52,8.89h-3.71s.52-4.82.52-7.67c0-2.99-.52-5.75-3.48-5.75h-2.8c-2.68,0-3.32,2.25-3.32,4.49v8.28h-14.14v-16.18h3.64v11.41h6.87v-4.26c0-5.99,2.72-8.51,6.59-8.51h3.67Z"/>
  </g>
  <path class="cls-7" d="M202.97,385.84v157.09H16.34v-157.09h186.63M205.63,383.18H13.68v162.41h191.95v-162.41h0Z"/>
  <g>
    <rect class="cls-5" x="321.61" y="397.93" width="119.24" height="41.81"/>
    <path class="cls-7" d="M439.85,398.93v39.81h-117.24v-39.81h117.24M441.85,396.93h-121.24v43.81h121.24v-43.81h0Z"/>
  </g>
  <rect class="cls-5" x="322.61" y="389.52" width="20.31" height="13.33"/>
  <g>
    <rect class="cls-5" x="300.68" y="405.09" width="20.84" height="41.81"/>
    <path class="cls-7" d="M320.52,406.09v39.81h-18.84v-39.81h18.84M322.52,404.09h-22.84v43.81h22.84v-43.81h0Z"/>
  </g>
  <rect class="cls-5" x="289.5" y="419.33" width="20.31" height="13.33"/>
  <line class="cls-2" x1="202.96" y1="439.03" x2="252.2" y2="439.03"/>
  <rect class="cls-5" x="289.5" y="385.18" width="9.59" height="107.08"/>
  <rect class="cls-5" x="301.68" y="393.91" width="18.88" height="51.99"/>
  <g>
    <rect class="cls-8" x="295.03" y="522.87" width="83.77" height="30.38"/>
    <rect class="cls-8" x="393.44" y="522.94" width="83.77" height="30.38"/>
    <g>
      <polygon class="cls-7" points="501.26 540.49 487.08 542.41 486.78 540.1 500.97 538.17 501.26 540.49"/>
      <polygon class="cls-7" points="500.75 536.94 486.54 535.48 486.81 533.15 501.01 534.62 500.75 536.94"/>
      <polygon class="cls-7" points="501.11 532.96 487.5 528.72 488.22 526.49 501.83 530.73 501.11 532.96"/>
      <polygon class="cls-7" points="502.59 529.52 491.4 520.69 492.87 518.87 504.06 527.69 502.59 529.52"/>
      <polygon class="cls-7" points="505.28 526.78 497.05 515.14 498.98 513.81 507.21 525.45 505.28 526.78"/>
      <polygon class="cls-7" points="508.91 525.09 504.11 511.67 506.32 510.9 511.12 524.32 508.91 525.09"/>
    </g>
    <g>
      <polygon class="cls-7" points="520.65 530.29 534.54 526.84 535.09 529.11 521.19 532.56 520.65 530.29"/>
      <polygon class="cls-7" points="521.54 533.76 535.83 533.67 535.82 536.01 521.53 536.1 521.54 533.76"/>
      <polygon class="cls-7" points="521.62 537.76 535.61 540.49 535.14 542.79 521.15 540.06 521.62 537.76"/>
      <polygon class="cls-7" points="520.52 541.34 532.61 548.9 531.34 550.87 519.26 543.32 520.52 541.34"/>
      <polygon class="cls-7" points="518.14 544.35 527.59 555.03 525.82 556.56 516.37 545.89 518.14 544.35"/>
      <polygon class="cls-7" points="514.72 546.43 520.95 559.25 518.83 560.25 512.6 547.43 514.72 546.43"/>
    </g>
    <g>
      <path class="cls-3" d="M509.97,536.32v.43s-.53,0-.53,0v.24s.44-.02.44-.02v.41s-.43.01-.43.01l.02.5-.49.03v-1.56s.98-.04.98-.04Z"/>
      <path class="cls-3" d="M510.65,536.35v1.52s-.48.03-.48.03l-.02-1.53.5-.02Z"/>
      <path class="cls-3" d="M511.46,537.41l-.08.02.02.48h-.48s-.02-1.51-.02-1.51l.74-.04.37.06.04.82-.16.08.3.43-.44.2-.29-.54ZM511.34,537.07l.25-.02v-.32s-.26,0-.26,0v.34Z"/>
      <path class="cls-3" d="M513.25,537.89h-.97s0-1.46,0-1.46l.09-.06.84-.02v.39s-.48,0-.48,0v.2s.35,0,.35,0v.36s-.38,0-.38,0v.21s.55-.01.55-.01v.4Z"/>
      <path class="cls-3" d="M509.16,538.8h-.3s0-.45,0-.45l.03-.02h.26s0,.11,0,.11h-.14s0,.06,0,.06h.11s0,.11,0,.11h-.11s0,.06,0,.06h.17s0,.12,0,.12Z"/>
      <path class="cls-3" d="M509.4,538.65l-.04.03v.12s-.17,0-.17,0l.03-.19.08-.05-.08-.05v-.17s.14,0,.14,0v.12s.04.04.04.04l.03-.03v-.12s.15,0,.15,0l-.02.17-.07.05.07.05.03.19h-.16s0-.11,0-.11l-.04-.03Z"/>
      <path class="cls-3" d="M509.99,538.46h-.12s.02.33.02.33h-.15s0-.33,0-.33h-.11s0-.13,0-.13h.35s0,.13,0,.13Z"/>
      <path class="cls-3" d="M510.18,538.33v.46s-.15,0-.15,0v-.47s.15,0,.15,0Z"/>
      <path class="cls-3" d="M510.64,538.79h-.14s0-.14,0-.14l-.1-.13v.26s-.14,0-.14,0v-.45s.13-.01.13-.01l.11.15v-.15s.14,0,.14,0v.46Z"/>
      <path class="cls-3" d="M510.78,538.33h.26s0,.13,0,.13h-.18v.2h.07s0-.12,0-.12h.14s-.01.26-.01.26h-.33s-.02-.38-.02-.38l.07-.09Z"/>
      <path class="cls-3" d="M511.49,538.33l.02.41-.06.05h-.29s-.03-.02-.03-.02v-.43s.14,0,.14,0v.31s.1-.01.1-.01v-.31s.13,0,.13,0Z"/>
      <path class="cls-3" d="M511.72,538.33v.46s-.15,0-.15,0v-.47s.15,0,.15,0Z"/>
      <path class="cls-3" d="M512.08,538.33v.13s-.14,0-.14,0v.03s.15.07.15.07v.23s-.3.03-.3.03v-.15s.15,0,.15,0v-.04s-.16-.09-.16-.09v-.19s.14-.01.14-.01h.16Z"/>
      <path class="cls-3" d="M512.39,538.63h-.09s0,.16,0,.16h-.14v-.45s.14,0,.14,0v.17s.09,0,.09,0v-.18s.15,0,.15,0v.48s-.15,0-.15,0v-.18Z"/>
      <path class="cls-3" d="M512.91,538.8h-.3s0-.45,0-.45l.03-.02h.26s0,.11,0,.11h-.14s0,.06,0,.06h.11s0,.11,0,.11h-.11s0,.06,0,.06h.17s0,.12,0,.12Z"/>
      <path class="cls-3" d="M513.13,538.65h-.02s0,.15,0,.15h-.15s0-.46,0-.46h.23s.11,0,.11,0v.25s-.04.03-.04.03l.09.13-.13.06-.09-.17ZM513.1,538.55h.08s0-.1,0-.1h-.08s0,.1,0,.1Z"/>
    </g>
    <path class="cls-3" d="M507.07,541.66l3.88,2.89c.06.05.15.05.21,0l3.88-2.89c.06-.04.08-.12.06-.19-.02-.07-.09-.12-.16-.12h-1.74v-1.79c0-.1-.08-.17-.17-.17h-3.93c-.1,0-.17.08-.17.17v1.79h-1.74c-.07,0-.14.05-.16.12-.02.07,0,.15.06.19Z"/>
    <path class="cls-3" d="M518.12,531.1s-.08-.05-.14-.05c-.02,0-.03,0-.05,0l-3.1.66c-.05,0-.09.03-.12.08-.03.04-.05.09-.05.14h-3.38c.06-.14.1-.29.1-.44,0-.3-.11-.57-.33-.78-.22-.22-.48-.33-.78-.33s-.57.11-.78.33c-.22.22-.33.48-.33.78,0,.2.06.4.17.6-.26.08-.51.2-.75.36-.24.16-.44.31-.59.46-.15.15-.29.31-.42.48-.13.17-.22.3-.26.37-.04.07-.08.13-.1.18-.06.11-.06.22-.02.34.04.12.11.2.22.26.06.03.13.05.2.05.18,0,.32-.08.39-.24.02-.04.05-.09.1-.17.05-.08.14-.2.28-.37.14-.17.29-.32.46-.46.16-.14.38-.26.63-.37.26-.11.52-.16.8-.16h.22v.77c-.46.14-.83.4-1.12.79-.29.39-.43.83-.43,1.32v.07h4.43v-.07c0-.53-.17-1-.5-1.41-.33-.41-.76-.66-1.27-.77v-.71h3.06c0,.05.02.1.05.14.03.04.07.07.12.08l3.1.66s.03,0,.05,0c.06,0,.1-.02.14-.05.06-.04.08-.1.08-.17v-2.22c0-.07-.03-.13-.08-.17ZM510.58,531.8c-.09.09-.19.13-.31.13s-.22-.04-.31-.13c-.09-.09-.13-.19-.13-.31s.04-.22.13-.31c.09-.09.19-.13.31-.13s.22.04.31.13c.09.09.13.19.13.31s-.04.22-.13.31Z"/>
    <polygon class="cls-7" points="267.83 543.99 267.83 534.48 255.04 534.48 255.04 524.81 242.25 524.81 242.25 515.14 229.47 515.14 229.47 505.47 216.68 505.47 216.68 515.14 216.68 553.66 242.25 553.66 255.04 553.66 267.61 553.66 280.39 553.66 280.39 543.99 267.83 543.99"/>
  </g>
  <g>
    <path class="cls-1" d="M28.06,512.42h6.99v2.33h-4.66v2.81h4.66v2.33h-4.66v4.2h4.66v2.33h-6.99v-14Z"/>
    <path class="cls-1" d="M46.73,518.96v2.35h-6.99v-2.35h6.99Z"/>
    <path class="cls-1" d="M54.73,526.7c-1.28,0-2.29-.42-3.51-1.26l.25-1.97c1.43.73,2.37,1.11,3.3,1.11.78,0,1.83-.38,1.83-1.18,0-1.87-5.5-1.18-5.5-4.89,0-1.95,1.83-3.34,4.03-3.34,1.32,0,2.29.4,3.63,1.41l-.69,1.72c-1.05-.57-1.99-1.03-2.88-1.03-1.05,0-1.7.5-1.7,1.09,0,1.74,5.5,1.3,5.5,4.79,0,2.29-2.06,3.55-4.26,3.55Z"/>
    <path class="cls-1" d="M68.28,526.66c-1.07,0-2.06-.42-2.86-1.13v5.56h-2.33v-15.62h.8l.88,1.66c.86-1.18,2.1-1.89,3.51-1.89,2.6,0,4.7,2.54,4.7,5.71s-2.1,5.71-4.7,5.71ZM67.98,517.42c-1.41,0-2.56,1.6-2.56,3.53s1.15,3.53,2.56,3.53,2.56-1.6,2.56-3.53-1.13-3.53-2.56-3.53Z"/>
    <path class="cls-1" d="M86.99,520.95c0,3.17-2.33,5.71-5.23,5.71s-5.21-2.54-5.21-5.71,2.33-5.71,5.21-5.71,5.23,2.54,5.23,5.71ZM78.99,520.95c0,1.93,1.24,3.53,2.77,3.53s2.79-1.6,2.79-3.53-1.24-3.53-2.79-3.53-2.77,1.6-2.77,3.53Z"/>
    <path class="cls-1" d="M93.43,520.07v6.36h-2.33v-10.96h.8l.88,1.6c.78-1.09,1.99-1.83,3.36-1.83.21,0,.67.06.67.06v4.54h-.78l-1.15-2.16c-.84.4-1.45,1.32-1.45,2.39Z"/>
  </g>
  <g id="facultysecretary">
    <rect class="cls-2" x="489.45" y="412.74" width="224.02" height="79.05"/>
    <g>
      <path class="cls-1" d="M621.72,434.97h7.47v2.33h-5.14v2.81h5.14v2.33h-5.14v6.53h-2.33v-14Z"/>
      <path class="cls-1" d="M641.94,448.97l-.88-1.66c-.88,1.18-2.1,1.89-3.51,1.89-2.62,0-4.66-2.54-4.7-5.71-.04-3.17,2.08-5.71,4.7-5.71,1.41,0,2.62.71,3.51,1.89l.88-1.66h.8v10.96h-.8ZM637.84,439.97c-1.43,0-2.56,1.6-2.56,3.53s1.13,3.53,2.56,3.53,2.56-1.6,2.56-3.53-1.13-3.53-2.56-3.53Z"/>
      <path class="cls-1" d="M654.37,441.14c-.55-.8-1.49-1.18-2.33-1.18-1.51,0-2.75,1.49-2.75,3.53s1.24,3.53,2.75,3.53c.84,0,1.87-.34,2.33-1.18l1.39,1.18c-.9,1.32-2.33,2.18-3.93,2.18-2.77,0-4.98-2.54-4.98-5.71s2.21-5.71,4.98-5.71c1.6,0,3.02.86,3.95,2.18l-1.41,1.18Z"/>
      <path class="cls-1" d="M667.62,448.97l-.88-1.62c-.78,1.11-2.23,1.85-3.61,1.85-2.39,0-4.28-2-4.28-5.23v-5.96h2.33v5.9c0,1.97,1.07,3.02,2.33,3.02s2.58-1.13,2.58-2.56v-6.36h2.33v10.96h-.8Z"/>
      <path class="cls-1" d="M673.08,432.64h2.33v16.33h-2.33v-16.33Z"/>
      <path class="cls-1" d="M679.61,440.34v-2.33h2.1v-3.97h2.33v3.97h3.51v2.33h-3.51v4.58c0,1.66.78,2.29,1.72,2.29.5,0,.88-.15,1.34-.34l.27,1.43c-.61.52-1.36.88-2.2.88-1.93,0-3.46-1.68-3.46-4.37v-4.47h-2.1Z"/>
      <path class="cls-1" d="M691.4,453.63l2.62-6.49-3.7-9.13h2.48l2.46,6.09,2.44-6.09h2.48l-6.3,15.62h-2.48Z"/>
      <path class="cls-1" d="M599.27,474.4c-1.51,0-2.65-.48-3.95-1.49l.27-2.08c1.41.76,2.56,1.24,3.76,1.24,1.05,0,2.39-.57,2.39-1.7,0-2.67-6.61-1.64-6.61-6.32,0-2.44,2.14-4.12,4.62-4.12,1.57,0,2.65.55,4.09,1.68l-.73,1.85c-.99-.65-2.16-1.22-3.28-1.22-1.41,0-2.27.76-2.27,1.6,0,2.5,6.63,1.87,6.63,6.17,0,2.88-2.42,4.39-4.93,4.39Z"/>
      <path class="cls-1" d="M613,472.22c1.24,0,2.21-.73,2.81-1.26l1.22,1.47c-.9,1.11-2.52,1.97-4.24,1.97-3.55,0-5.65-2.54-5.65-5.67s2.18-5.75,5.4-5.75,5.4,2.65,4.83,5.98h-7.68c-.1,1.49,1.03,3.25,3.32,3.25ZM614.85,467.04c0-1.07-.84-1.87-2.29-1.87-.95,0-2.06.46-2.56,1.87h4.85Z"/>
      <path class="cls-1" d="M628.71,466.34c-.55-.8-1.49-1.18-2.33-1.18-1.51,0-2.75,1.49-2.75,3.53s1.24,3.53,2.75,3.53c.84,0,1.87-.34,2.33-1.18l1.39,1.18c-.9,1.32-2.33,2.18-3.93,2.18-2.77,0-4.98-2.54-4.98-5.71s2.2-5.71,4.98-5.71c1.6,0,3.02.86,3.95,2.18l-1.41,1.18Z"/>
      <path class="cls-1" d="M635.75,467.81v6.36h-2.33v-10.96h.8l.88,1.6c.78-1.09,2-1.83,3.36-1.83.21,0,.67.06.67.06v4.54h-.78l-1.16-2.16c-.84.4-1.45,1.32-1.45,2.39Z"/>
      <path class="cls-1" d="M648.01,472.22c1.24,0,2.21-.73,2.81-1.26l1.22,1.47c-.9,1.11-2.52,1.97-4.24,1.97-3.55,0-5.65-2.54-5.65-5.67s2.18-5.75,5.4-5.75,5.4,2.65,4.83,5.98h-7.68c-.1,1.49,1.03,3.25,3.32,3.25ZM649.86,467.04c0-1.07-.84-1.87-2.29-1.87-.95,0-2.06.46-2.56,1.87h4.85Z"/>
      <path class="cls-1" d="M656.28,465.55v-2.33h2.1v-3.97h2.33v3.97h3.51v2.33h-3.51v4.58c0,1.66.78,2.29,1.72,2.29.5,0,.88-.15,1.34-.34l.27,1.43c-.61.53-1.37.88-2.21.88-1.93,0-3.46-1.68-3.46-4.37v-4.47h-2.1Z"/>
      <path class="cls-1" d="M676.97,474.17l-.88-1.66c-.88,1.18-2.1,1.89-3.51,1.89-2.62,0-4.66-2.54-4.7-5.71-.04-3.17,2.08-5.71,4.7-5.71,1.41,0,2.62.71,3.51,1.89l.88-1.66h.8v10.96h-.8ZM672.87,465.17c-1.43,0-2.56,1.6-2.56,3.53s1.13,3.53,2.56,3.53,2.56-1.6,2.56-3.53-1.13-3.53-2.56-3.53Z"/>
      <path class="cls-1" d="M684.76,467.81v6.36h-2.33v-10.96h.8l.88,1.6c.78-1.09,1.99-1.83,3.36-1.83.21,0,.67.06.67.06v4.54h-.78l-1.15-2.16c-.84.4-1.45,1.32-1.45,2.39Z"/>
      <path class="cls-1" d="M691.4,478.84l2.62-6.49-3.7-9.13h2.48l2.46,6.09,2.44-6.09h2.48l-6.3,15.62h-2.48Z"/>
    </g>
    <rect class="cls-2" x="489.5" y="466.07" width="7.64" height="25.7"/>
  </g>
  <g id="deansoffice">
    <text class="cls-6" transform="translate(328.95 95.32) scale(.94 1)"><tspan x="0" y="0" xml:space="preserve">  </tspan></text>
    <polyline class="cls-2" points="530.73 120.3 530.73 1 393.07 1 393.07 33.55 303.36 33.55 303.36 60.65 215.19 60.65 215.19 120.3"/>
    <polyline class="cls-2" points="215.19 120.26 215.19 133.28 136.1 133.28 136.1 243.41 278.59 243.41 278.59 133.28 489.45 133.28 489.45 248.95 634.93 248.95 634.93 133.64 530.73 133.64 530.73 120.26"/>
    <g>
      <path class="cls-1" d="M300.31,80.36h3.28c3.46,0,6.28,3.13,6.28,7.01s-2.81,6.99-6.28,6.99h-3.28v-14ZM302.64,92.03h.94c2.04,0,3.72-2.1,3.72-4.66s-1.68-4.68-3.72-4.68h-.94v9.34Z"/>
      <path class="cls-1" d="M319.59,92.41c1.24,0,2.21-.74,2.81-1.26l1.22,1.47c-.9,1.11-2.52,1.97-4.24,1.97-3.55,0-5.65-2.54-5.65-5.67s2.18-5.75,5.4-5.75,5.4,2.64,4.83,5.98h-7.68c-.1,1.49,1.03,3.25,3.32,3.25ZM321.44,87.23c0-1.07-.84-1.87-2.29-1.87-.94,0-2.06.46-2.56,1.87h4.85Z"/>
      <path class="cls-1" d="M336.87,94.37l-.88-1.66c-.88,1.18-2.1,1.89-3.51,1.89-2.62,0-4.66-2.54-4.7-5.71-.04-3.17,2.08-5.71,4.7-5.71,1.41,0,2.62.71,3.51,1.89l.88-1.66h.8v10.96h-.8ZM332.77,85.36c-1.43,0-2.56,1.6-2.56,3.53s1.13,3.53,2.56,3.53,2.56-1.6,2.56-3.53-1.13-3.53-2.56-3.53Z"/>
      <path class="cls-1" d="M349.57,94.37v-5.9c0-2-1.09-3.04-2.35-3.04s-2.56,1.15-2.56,2.58v6.36h-2.33v-10.96h.8l.88,1.6c.78-1.09,2.22-1.83,3.59-1.83,2.41,0,4.3,1.99,4.3,5.23v5.96h-2.33Z"/>
      <path class="cls-1" d="M356.82,84.29c1.18-.78,1.76-1.83,1.81-3.13-.78-.19-1.34-.86-1.34-1.68,0-.9.76-1.68,1.7-1.68,1.24,0,1.91,1.09,1.91,2.02,0,2.25-1.49,4.26-3.57,5.27l-.5-.8Z"/>
      <path class="cls-1" d="M368.98,94.64c-1.28,0-2.29-.42-3.51-1.26l.25-1.97c1.43.73,2.37,1.11,3.3,1.11.78,0,1.83-.38,1.83-1.18,0-1.87-5.5-1.18-5.5-4.89,0-1.95,1.83-3.34,4.03-3.34,1.32,0,2.29.4,3.63,1.41l-.69,1.72c-1.05-.57-2-1.03-2.88-1.03-1.05,0-1.7.5-1.7,1.09,0,1.74,5.5,1.3,5.5,4.79,0,2.29-2.06,3.55-4.26,3.55Z"/>
      <path class="cls-1" d="M388.99,80.13c3.15,0,4.91,3.28,4.91,7.24s-1.76,7.22-4.91,7.22-4.89-3.25-4.89-7.22,1.74-7.24,4.89-7.24ZM388.99,92.27c1.57,0,2.44-2.23,2.44-4.89s-.86-4.91-2.44-4.91-2.42,2.23-2.42,4.91.86,4.89,2.42,4.89Z"/>
      <path class="cls-1" d="M406.29,80.63c-.44-.19-1.09-.42-1.81-.42-.94,0-1.72.63-1.72,2.27v.92h3.28v2.33h-3.28v8.63h-2.33v-8.63h-2.56v-2.33h2.56v-1.01c0-2.69,1.53-4.37,3.48-4.37,1.26,0,2.23.38,2.81.71l-.44,1.89Z"/>
      <path class="cls-1" d="M414.44,85.74v8.63h-2.33v-8.63h-2.56v-2.33h2.56v-1.01c0-2.69,1.53-4.37,3.49-4.37,1.26,0,2.22.38,2.81.71l-.44,1.89c-.44-.19-1.09-.42-1.81-.42-.95,0-1.72.63-1.72,2.27v.92h9.57v10.96h-2.33v-8.63h-7.24ZM424.25,79.21c0,.76-.63,1.37-1.41,1.37s-1.39-.61-1.39-1.37.63-1.41,1.39-1.41,1.41.63,1.41,1.41Z"/>
      <path class="cls-1" d="M435.65,86.53c-.54-.8-1.49-1.18-2.33-1.18-1.51,0-2.75,1.49-2.75,3.53s1.24,3.53,2.75,3.53c.84,0,1.87-.34,2.33-1.18l1.39,1.18c-.9,1.32-2.33,2.18-3.93,2.18-2.77,0-4.98-2.54-4.98-5.71s2.2-5.71,4.98-5.71c1.6,0,3.02.86,3.95,2.18l-1.41,1.18Z"/>
      <path class="cls-1" d="M445.63,92.41c1.24,0,2.21-.74,2.81-1.26l1.22,1.47c-.9,1.11-2.52,1.97-4.24,1.97-3.55,0-5.65-2.54-5.65-5.67s2.18-5.75,5.4-5.75,5.4,2.64,4.83,5.98h-7.68c-.1,1.49,1.03,3.25,3.32,3.25ZM447.48,87.23c0-1.07-.84-1.87-2.29-1.87-.94,0-2.06.46-2.56,1.87h4.85Z"/>
    </g>
    <rect class="cls-2" x="287.7" y="116.43" width="7.64" height="25.7" transform="translate(162.24 420.8) rotate(-90)"/>
    <rect class="cls-2" x="429.43" y="116.43" width="7.64" height="25.7" transform="translate(303.97 562.53) rotate(-90)"/>
    <rect class="cls-2" x="472.8" y="116.63" width="7.64" height="25.7" transform="translate(347.15 606.1) rotate(-90)"/>
  </g>
  <g id="gltsc02">
    <g id="gltsc02-2" data-name="gltsc02">
      <rect class="cls-7" x="117.78" y="269.82" width="160.82" height="100.98"/>
      <g>
        <path class="cls-4" d="M134.6,288.04h-1.57v-1.55h3.12v4.66h-.48l-.32-.57c-.57.46-1.27.73-1.96.73-2.25,0-3.78-2.17-3.78-4.82s1.53-4.83,3.78-4.83c1.11,0,2.26.71,2.89,1.79l-.92.87c-.6-.77-1.2-1.11-1.86-1.11-1.18,0-2.17,1.25-2.17,3.28s.99,3.26,2.17,3.26c.38,0,.74-.11,1.11-.36v-1.34Z"/>
        <path class="cls-4" d="M140.66,289.6h2.65v1.55h-4.2v-9.34h1.56v7.79Z"/>
        <path class="cls-4" d="M144.23,283.36v-1.55h6.85v1.55h-2.65v7.79h-1.55v-7.79h-2.65Z"/>
        <path class="cls-4" d="M159.91,291.31c-1.01,0-1.76-.32-2.63-1l.18-1.39c.94.5,1.71.83,2.51.83.7,0,1.6-.38,1.6-1.13,0-1.78-4.41-1.09-4.41-4.22,0-1.62,1.43-2.75,3.08-2.75,1.05,0,1.77.36,2.73,1.12l-.49,1.23c-.66-.43-1.44-.81-2.19-.81-.94,0-1.51.5-1.51,1.06,0,1.67,4.43,1.25,4.43,4.12,0,1.92-1.61,2.93-3.29,2.93Z"/>
        <path class="cls-4" d="M169.33,281.65c1.15,0,2.35.71,3.01,1.79l-.98.87c-.63-.77-1.26-1.11-1.96-1.11-1.23,0-2.3,1.25-2.3,3.28s1.06,3.26,2.3,3.26c.7,0,1.33-.32,1.96-1.11l.98.87c-.66,1.08-1.86,1.79-3.01,1.79-2.35,0-3.94-2.17-3.94-4.82s1.58-4.83,3.94-4.83Z"/>
        <path class="cls-4" d="M178,281.65c2.1,0,3.28,2.19,3.28,4.83s-1.18,4.82-3.28,4.82-3.26-2.17-3.26-4.82,1.16-4.83,3.26-4.83ZM178,289.75c1.05,0,1.62-1.49,1.62-3.26s-.57-3.28-1.62-3.28-1.61,1.49-1.61,3.28.57,3.26,1.61,3.26Z"/>
        <path class="cls-4" d="M188.89,284.76c0-.85-.7-1.55-1.55-1.55s-1.55.7-1.55,1.55v.79h-1.56v-.79c0-1.71,1.4-3.11,3.11-3.11s3.12,1.4,3.12,3.11c0,1.29-.59,2.09-1.48,2.93l-2.02,1.91h3.5v1.55h-6.23v-.56l3.35-3.54c.52-.55,1.32-1.37,1.32-2.28Z"/>
      </g>
    </g>
    <g>
      <path class="cls-5" d="M134.01,333.43c-1.51,0-2.65-.48-3.95-1.49l.27-2.08c1.41.76,2.56,1.24,3.76,1.24,1.05,0,2.39-.57,2.39-1.7,0-2.67-6.61-1.64-6.61-6.32,0-2.44,2.14-4.12,4.62-4.12,1.58,0,2.65.55,4.09,1.68l-.74,1.85c-.99-.65-2.16-1.22-3.28-1.22-1.41,0-2.27.76-2.27,1.6,0,2.5,6.63,1.87,6.63,6.17,0,2.88-2.41,4.39-4.93,4.39Z"/>
      <path class="cls-5" d="M149.47,333.2h-2.33v-7.37c0-.99-.53-1.53-1.16-1.53s-1.18.57-1.18,1.3v7.6h-2.33v-10.96h.8l.61,1.09c.55-.78,1.45-1.32,2.44-1.32s1.78.42,2.35,1.15c.55-.67,1.39-1.15,2.33-1.15,1.76,0,3.15,1.49,3.15,3.84v7.35h-2.33v-7.37c0-.99-.55-1.53-1.18-1.53s-1.18.57-1.18,1.3v7.6Z"/>
      <path class="cls-5" d="M167.36,333.2l-.88-1.66c-.88,1.18-2.1,1.89-3.51,1.89-2.62,0-4.66-2.54-4.7-5.71-.04-3.17,2.08-5.71,4.7-5.71,1.41,0,2.62.71,3.51,1.89l.88-1.66h.8v10.96h-.8ZM163.27,324.19c-1.43,0-2.56,1.6-2.56,3.53s1.13,3.53,2.56,3.53,2.56-1.6,2.56-3.53-1.13-3.53-2.56-3.53Z"/>
      <path class="cls-5" d="M175.15,326.83v6.36h-2.33v-10.96h.8l.88,1.6c.78-1.09,1.99-1.83,3.36-1.83.21,0,.67.06.67.06v4.54h-.78l-1.15-2.16c-.84.4-1.45,1.32-1.45,2.39Z"/>
      <path class="cls-5" d="M181.68,324.57v-2.33h2.1v-3.97h2.33v3.97h3.51v2.33h-3.51v4.58c0,1.66.78,2.29,1.72,2.29.5,0,.88-.15,1.34-.34l.27,1.43c-.61.52-1.37.88-2.21.88-1.93,0-3.46-1.68-3.46-4.37v-4.47h-2.1Z"/>
      <path class="cls-5" d="M136.47,344.16c1.72,0,3.53,1.07,4.51,2.69l-1.47,1.3c-.94-1.15-1.89-1.66-2.94-1.66-1.85,0-3.44,1.87-3.44,4.91s1.6,4.89,3.44,4.89c1.05,0,2-.48,2.94-1.66l1.47,1.3c-.99,1.62-2.79,2.69-4.51,2.69-3.53,0-5.9-3.25-5.9-7.22s2.37-7.24,5.9-7.24Z"/>
      <path class="cls-5" d="M144.81,342.06h2.33v16.33h-2.33v-16.33Z"/>
      <path class="cls-5" d="M160.35,358.4l-.88-1.66c-.88,1.18-2.1,1.89-3.51,1.89-2.62,0-4.66-2.54-4.7-5.71-.04-3.17,2.08-5.71,4.7-5.71,1.41,0,2.62.71,3.51,1.89l.88-1.66h.8v10.96h-.8ZM156.25,349.39c-1.43,0-2.56,1.6-2.56,3.53s1.13,3.53,2.56,3.53,2.56-1.6,2.56-3.53-1.13-3.53-2.56-3.53Z"/>
      <path class="cls-5" d="M169.12,358.67c-1.28,0-2.29-.42-3.51-1.26l.25-1.97c1.43.74,2.37,1.11,3.3,1.11.78,0,1.83-.38,1.83-1.18,0-1.87-5.5-1.18-5.5-4.89,0-1.95,1.83-3.34,4.03-3.34,1.32,0,2.29.4,3.63,1.41l-.69,1.72c-1.05-.57-2-1.03-2.88-1.03-1.05,0-1.7.5-1.7,1.09,0,1.74,5.5,1.3,5.5,4.79,0,2.29-2.06,3.55-4.26,3.55Z"/>
      <path class="cls-5" d="M180.8,358.67c-1.28,0-2.29-.42-3.51-1.26l.25-1.97c1.43.74,2.37,1.11,3.3,1.11.78,0,1.83-.38,1.83-1.18,0-1.87-5.5-1.18-5.5-4.89,0-1.95,1.83-3.34,4.03-3.34,1.32,0,2.29.4,3.63,1.41l-.69,1.72c-1.05-.57-2-1.03-2.88-1.03-1.05,0-1.7.5-1.7,1.09,0,1.74,5.5,1.3,5.5,4.79,0,2.29-2.06,3.55-4.26,3.55Z"/>
      <path class="cls-5" d="M203.14,348.82c0-1.28-1.05-2.33-2.33-2.33s-2.33,1.05-2.33,2.33v1.18h-2.33v-1.18c0-2.56,2.1-4.66,4.66-4.66s4.68,2.1,4.68,4.66c0,1.93-.88,3.13-2.23,4.39l-3.02,2.86h5.25v2.33h-9.34v-.84l5.02-5.31c.78-.82,1.97-2.06,1.97-3.42Z"/>
    </g>
    <g>
      <rect class="cls-7" x="269.95" y="344.1" width="9.64" height="27.7"/>
      <path class="cls-5" d="M278.59,345.1v25.7h-7.64v-25.7h7.64M280.59,343.1h-11.64v29.7h11.64v-29.7h0Z"/>
    </g>
  </g>
  <g id="tanzermac01">
    <g id="tanzermac01-2" data-name="tanzermac01">
      <rect class="cls-7" x="488.46" y="281.92" width="188.79" height="117.05"/>
    </g>
    <g>
      <path class="cls-5" d="M592.4,350.03v-2.33h10.27v2.33h-3.97v11.67h-2.33v-11.67h-3.97Z"/>
      <path class="cls-5" d="M614.26,361.7l-.88-1.66c-.88,1.18-2.1,1.89-3.51,1.89-2.62,0-4.66-2.54-4.7-5.71-.04-3.17,2.08-5.71,4.7-5.71,1.41,0,2.62.71,3.51,1.89l.88-1.66h.8v10.96h-.8ZM610.17,352.69c-1.43,0-2.56,1.6-2.56,3.53s1.13,3.53,2.56,3.53,2.56-1.6,2.56-3.53-1.13-3.53-2.56-3.53Z"/>
      <path class="cls-5" d="M626.97,361.7v-5.9c0-2-1.09-3.04-2.35-3.04s-2.56,1.15-2.56,2.58v6.36h-2.33v-10.96h.8l.88,1.6c.78-1.09,2.23-1.83,3.59-1.83,2.41,0,4.3,1.99,4.3,5.23v5.96h-2.33Z"/>
      <path class="cls-5" d="M633.23,353.07v-2.33h8.1l-4.39,8.63h4.3v2.33h-8.1l4.39-8.63h-4.3Z"/>
      <path class="cls-5" d="M650.68,359.75c1.24,0,2.21-.74,2.81-1.26l1.22,1.47c-.9,1.11-2.52,1.97-4.24,1.97-3.55,0-5.65-2.54-5.65-5.67s2.18-5.75,5.4-5.75,5.4,2.64,4.83,5.98h-7.68c-.1,1.49,1.03,3.26,3.32,3.26ZM652.52,354.56c0-1.07-.84-1.87-2.29-1.87-.95,0-2.06.46-2.56,1.87h4.85Z"/>
      <path class="cls-5" d="M661.74,355.34v6.36h-2.33v-10.96h.8l.88,1.6c.78-1.09,1.99-1.83,3.36-1.83.21,0,.67.06.67.06v4.54h-.78l-1.15-2.16c-.84.4-1.45,1.32-1.45,2.39Z"/>
      <path class="cls-5" d="M605.82,386.9v-8.44l-3.38,6.34h-.46l-3.38-6.34v8.44h-2.23v-14h1.91l3.93,7.37,3.93-7.37h1.91v14h-2.23Z"/>
      <path class="cls-5" d="M615.04,386.9h-2.33v-8.86c0-3.46,2.1-5.38,4.66-5.38s4.68,1.91,4.68,5.38v8.86h-2.33v-4.66h-4.68v4.66ZM619.72,378.04c0-2.06-1.07-3.04-2.35-3.04s-2.33.99-2.33,3.04v1.87h4.68v-1.87Z"/>
      <path class="cls-5" d="M632.38,372.66c1.72,0,3.53,1.07,4.51,2.69l-1.47,1.3c-.95-1.15-1.89-1.66-2.94-1.66-1.85,0-3.44,1.87-3.44,4.91s1.6,4.89,3.44,4.89c1.05,0,1.99-.48,2.94-1.66l1.47,1.3c-.99,1.62-2.79,2.69-4.51,2.69-3.53,0-5.9-3.25-5.9-7.22s2.37-7.24,5.9-7.24Z"/>
      <path class="cls-5" d="M645.38,372.66c3.15,0,4.91,3.28,4.91,7.24s-1.76,7.22-4.91,7.22-4.89-3.25-4.89-7.22,1.74-7.24,4.89-7.24ZM645.38,384.8c1.58,0,2.44-2.23,2.44-4.89s-.86-4.91-2.44-4.91-2.41,2.22-2.41,4.91.86,4.89,2.41,4.89Z"/>
      <path class="cls-5" d="M658.24,377.39l-2.54.95-.52-.97,4.7-4.7h.69v11.91h2.33v2.33h-6.99v-2.33h2.33v-7.18Z"/>
    </g>
    <g>
      <rect class="cls-7" x="487.44" y="372.36" width="9.64" height="27.7"/>
      <path class="cls-5" d="M496.08,373.36v25.7h-7.64v-25.7h7.64M498.08,371.36h-11.64v29.7h11.64v-29.7h0Z"/>
    </g>
  </g>
</svg>