<?xml version="1.0" encoding="UTF-8"?>
<svg id="katman_1" data-name="katman 1" xmlns="http://www.w3.org/2000/svg" viewBox="0 0 841.89 595.28">
  <defs>
    <style>
      .cls-1 {
        stroke-width: 1.82px;
      }

      .cls-1, .cls-2 {
        fill: none;
        stroke: #f08211;
        stroke-miterlimit: 10;
      }

      .cls-3 {
        fill: #f08211;
      }

      .cls-4 {
        fill: #3c3c3b;
      }

      .cls-5, .cls-6 {
        fill: #fff;
      }

      .cls-7 {
        fill: #878787;
      }

      .cls-2 {
        stroke-width: 2px;
      }

      .cls-8 {
        fill: #e73447;
      }

      .cls-6 {
        font-family: Base9SansOT-Reg, 'Base 9 Sans OT';
        font-size: 22.18px;
      }
    </style>
  </defs>
  <rect class="cls-2" x="332.13" y="144.15" width="182.18" height="356.96"/>
  <g>
    <path class="cls-3" d="M75.92,222.96h-27.38v-19.15h3.69v14.32h8.22v-12.33h3.64v12.33h11.83v4.84Z"/>
    <path class="cls-3" d="M75.92,199.12h-27.38v-4.84h23.65v-13.94h3.73v18.77Z"/>
    <path class="cls-3" d="M56.64,154.03h11.18c6.4,0,8.54,5.4,8.54,11.62s-2.15,11.62-8.54,11.62h-11.18c-6.4,0-8.54-5.45-8.54-11.62s2.15-11.62,8.54-11.62ZM57.65,172.42h9.11c4.58,0,5.79-2.8,5.79-6.78s-1.21-6.78-5.79-6.78h-9.11c-4.54,0-5.75,2.8-5.75,6.78s1.21,6.78,5.75,6.78Z"/>
    <path class="cls-3" d="M56.64,123.78h11.18c6.4,0,8.54,5.4,8.54,11.62s-2.15,11.62-8.54,11.62h-11.18c-6.4,0-8.54-5.45-8.54-11.62s2.15-11.62,8.54-11.62ZM57.65,142.17h9.11c4.58,0,5.79-2.8,5.79-6.78s-1.21-6.78-5.79-6.78h-9.11c-4.54,0-5.75,2.8-5.75,6.78s1.21,6.78,5.75,6.78Z"/>
    <path class="cls-3" d="M75.92,98.08l-11.5,6.83v7.02h11.5v4.84h-27.38v-14.41c0-3.94,2.71-6.83,6.07-6.83h3.73c2.63,0,4.86,1.75,5.71,4.41l11.87-7.11v5.26ZM55.59,100.35c-2.27,0-3.36,1.14-3.36,4.12v7.44h8.5v-7.44c0-2.99-1.09-4.12-3.36-4.12h-1.78Z"/>
    <path class="cls-3" d="M54.74,59.15h1.7c2.31,0,4.45,1.23,5.47,4.12,1.13-3.75,3.4-4.84,5.67-4.84h2.02c5.22,0,6.76,5.26,6.76,10.05s-1.54,10.05-6.76,10.05h-2.02c-2.27,0-4.54-1.09-5.67-4.79-1.01,2.84-3.16,4.08-5.47,4.08h-1.7c-3.97,0-6.64-3.22-6.64-9.34s2.67-9.34,6.64-9.34ZM55.18,73h1.13c2.51,0,3.81-1.09,3.89-3.84v-.9c0-2.89-1.26-4.27-3.89-4.27h-1.13c-2.71,0-3.77,1.61-3.77,4.5s1.05,4.5,3.77,4.5ZM67.78,63.28c-2.63,0-3.89,1.47-3.97,4.69v1.04c.08,3.27,1.34,4.69,3.97,4.69h1.42c2.63,0,3.69-1.85,3.69-5.21s-1.05-5.22-3.69-5.22h-1.42Z"/>
  </g>
  <rect class="cls-2" x="524.79" y="291.52" width="209.57" height="96.93"/>
  <rect class="cls-2" x="132.08" y="441.12" width="100.7" height="59.85"/>
  <rect class="cls-2" x="524.79" y="405.05" width="209.57" height="96.77"/>
  <g>
    <path class="cls-4" d="M602.38,455.44h-2.02v-2h4.02v6h-.61l-.41-.74c-.74.59-1.64.94-2.52.94-2.9,0-4.86-2.79-4.86-6.19s1.96-6.21,4.86-6.21c1.42,0,2.9.92,3.71,2.3l-1.19,1.12c-.77-.99-1.55-1.42-2.39-1.42-1.51,0-2.79,1.6-2.79,4.21s1.28,4.2,2.79,4.2c.49,0,.95-.14,1.42-.47v-1.73Z"/>
    <path class="cls-4" d="M610.17,457.44h3.4v2h-5.4v-12.01h2v10.01Z"/>
    <path class="cls-4" d="M614.76,449.43v-2h8.8v2h-3.4v10.01h-2v-10.01h-3.4Z"/>
    <path class="cls-4" d="M632.87,450.55c0-1.84,1.48-3.31,3.29-3.31s3.31,1.48,3.31,3.31c0,.83-.32,1.58-.85,2.18.88.72,1.44,1.8,1.44,3.01,0,2.16-1.75,3.91-3.91,3.91s-3.89-1.75-3.89-3.91c0-1.21.56-2.29,1.42-3.01-.5-.59-.83-1.35-.83-2.18ZM638.07,455.77c0-1.06-.85-1.93-1.91-1.93s-1.89.86-1.89,1.93.83,1.89,1.89,1.89,1.91-.85,1.91-1.89ZM634.85,450.55c0,.72.59,1.3,1.31,1.3s1.33-.58,1.33-1.3-.61-1.33-1.33-1.33-1.31.61-1.31,1.33Z"/>
    <path class="cls-4" d="M648.17,447.23c2.7,0,4.21,2.81,4.21,6.21s-1.51,6.19-4.21,6.19-4.2-2.79-4.2-6.19,1.49-6.21,4.2-6.21ZM648.17,457.64c1.35,0,2.09-1.91,2.09-4.2s-.74-4.21-2.09-4.21-2.07,1.91-2.07,4.21.74,4.2,2.07,4.2Z"/>
    <path class="cls-4" d="M659.18,451.29l-2.18.81-.45-.83,4.03-4.03h.59v10.21h2v2h-6v-2h2v-6.16Z"/>
  </g>
  <g id="glt802">
    <path class="cls-4" d="M601.87,342h-2.02v-2h4.02v6h-.61l-.41-.74c-.74.59-1.64.94-2.52.94-2.9,0-4.86-2.79-4.86-6.19s1.96-6.21,4.86-6.21c1.42,0,2.9.92,3.71,2.3l-1.19,1.12c-.77-.99-1.55-1.42-2.39-1.42-1.51,0-2.79,1.6-2.79,4.21s1.28,4.2,2.79,4.2c.49,0,.95-.14,1.42-.47v-1.73Z"/>
    <path class="cls-4" d="M609.67,344h3.4v2h-5.4v-12.01h2v10.01Z"/>
    <path class="cls-4" d="M614.25,335.98v-2h8.8v2h-3.4v10.01h-2v-10.01h-3.4Z"/>
    <path class="cls-4" d="M632.36,337.1c0-1.84,1.48-3.31,3.29-3.31s3.31,1.48,3.31,3.31c0,.83-.32,1.58-.85,2.18.88.72,1.44,1.8,1.44,3.01,0,2.16-1.75,3.91-3.91,3.91s-3.89-1.75-3.89-3.91c0-1.21.56-2.29,1.42-3.01-.5-.59-.83-1.35-.83-2.18ZM637.57,342.32c0-1.06-.85-1.93-1.91-1.93s-1.89.86-1.89,1.93.83,1.89,1.89,1.89,1.91-.85,1.91-1.89ZM634.34,337.1c0,.72.59,1.3,1.31,1.3s1.33-.58,1.33-1.3-.61-1.33-1.33-1.33-1.31.61-1.31,1.33Z"/>
    <path class="cls-4" d="M647.66,333.79c2.7,0,4.21,2.81,4.21,6.21s-1.51,6.19-4.21,6.19-4.2-2.79-4.2-6.19,1.49-6.21,4.2-6.21ZM647.66,344.19c1.35,0,2.09-1.91,2.09-4.2s-.74-4.21-2.09-4.21-2.07,1.91-2.07,4.21.74,4.2,2.07,4.2Z"/>
    <path class="cls-4" d="M661.67,337.78c0-1.1-.9-2-2-2s-2,.9-2,2v1.01h-2v-1.01c0-2.2,1.8-4,4-4s4.01,1.8,4.01,4c0,1.66-.76,2.68-1.91,3.76l-2.59,2.45h4.5v2h-8.01v-.72l4.3-4.55c.67-.7,1.69-1.76,1.69-2.94Z"/>
  </g>
  <g id="glt803">
    <rect class="cls-2" x="524.82" y="215.48" width="130.1" height="58.88"/>
    <g>
      <path class="cls-4" d="M562.07,246.92h-2.02v-2h4.02v6h-.61l-.41-.74c-.74.59-1.64.94-2.52.94-2.9,0-4.86-2.79-4.86-6.19s1.96-6.21,4.86-6.21c1.42,0,2.9.92,3.71,2.3l-1.19,1.12c-.77-.99-1.55-1.42-2.39-1.42-1.51,0-2.79,1.6-2.79,4.21s1.28,4.2,2.79,4.2c.49,0,.95-.14,1.42-.47v-1.73Z"/>
      <path class="cls-4" d="M569.86,248.92h3.4v2h-5.4v-12.01h2v10.01Z"/>
      <path class="cls-4" d="M574.45,240.91v-2h8.8v2h-3.4v10.01h-2v-10.01h-3.4Z"/>
      <path class="cls-4" d="M592.56,242.02c0-1.84,1.48-3.31,3.29-3.31s3.31,1.48,3.31,3.31c0,.83-.32,1.58-.85,2.18.88.72,1.44,1.8,1.44,3.01,0,2.16-1.75,3.91-3.91,3.91s-3.89-1.75-3.89-3.91c0-1.21.56-2.29,1.42-3.01-.5-.59-.83-1.35-.83-2.18ZM597.76,247.25c0-1.06-.85-1.93-1.91-1.93s-1.89.86-1.89,1.93.83,1.89,1.89,1.89,1.91-.85,1.91-1.89ZM594.54,242.02c0,.72.59,1.3,1.31,1.3s1.33-.58,1.33-1.3-.61-1.33-1.33-1.33-1.31.61-1.31,1.33Z"/>
      <path class="cls-4" d="M607.86,238.71c2.7,0,4.21,2.81,4.21,6.21s-1.51,6.19-4.21,6.19-4.2-2.79-4.2-6.19,1.49-6.21,4.2-6.21ZM607.86,249.12c1.35,0,2.09-1.91,2.09-4.2s-.74-4.21-2.09-4.21-2.07,1.91-2.07,4.21.74,4.2,2.07,4.2Z"/>
      <path class="cls-4" d="M623.88,247.12c0,2.2-1.8,4-4.01,4-1.84,0-3.31-1.21-3.82-2.83l1.89-.67c.22.81.97,1.49,1.93,1.49,1.1,0,2-.9,2-2s-.9-2-2-2h-1.5v-.61l2.65-3.6h-3.24l-.97,1.6h-.59v-3.6h7.87v.99l-2.63,3.53c1.37.63,2.43,1.96,2.43,3.69Z"/>
    </g>
  </g>
  <rect class="cls-2" x="150.13" y="326.29" width="171.91" height="96.95"/>
  <g>
    <path class="cls-4" d="M208.89,376.77h-2.02v-2h4.02v6h-.61l-.41-.74c-.74.59-1.64.94-2.52.94-2.9,0-4.86-2.79-4.86-6.19s1.96-6.21,4.86-6.21c1.42,0,2.9.92,3.71,2.3l-1.19,1.12c-.77-.99-1.55-1.42-2.39-1.42-1.51,0-2.79,1.6-2.79,4.21s1.28,4.2,2.79,4.2c.49,0,.95-.14,1.42-.47v-1.73Z"/>
    <path class="cls-4" d="M216.68,378.77h3.4v2h-5.4v-12.01h2v10.01Z"/>
    <path class="cls-4" d="M221.27,370.76v-2h8.8v2h-3.4v10.01h-2v-10.01h-3.4Z"/>
    <path class="cls-4" d="M239.38,371.87c0-1.84,1.48-3.31,3.29-3.31s3.31,1.48,3.31,3.31c0,.83-.32,1.58-.85,2.18.88.72,1.44,1.8,1.44,3.01,0,2.16-1.75,3.91-3.91,3.91s-3.89-1.75-3.89-3.91c0-1.21.56-2.29,1.42-3.01-.5-.59-.83-1.35-.83-2.18ZM244.58,377.1c0-1.06-.85-1.93-1.91-1.93s-1.89.86-1.89,1.93.83,1.89,1.89,1.89,1.91-.85,1.91-1.89ZM241.36,371.87c0,.72.59,1.3,1.31,1.3s1.33-.58,1.33-1.3-.61-1.33-1.33-1.33-1.31.61-1.31,1.33Z"/>
    <path class="cls-4" d="M253.69,372.61l-2.18.81-.45-.83,4.03-4.03h.59v10.21h2v2h-6v-2h2v-6.16Z"/>
    <path class="cls-4" d="M265.7,372.61l-2.18.81-.45-.83,4.03-4.03h.59v10.21h2v2h-6v-2h2v-6.16Z"/>
  </g>
  <rect class="cls-2" x="151" y="240.4" width="170.17" height="67.87"/>
  <g>
    <path class="cls-4" d="M208.29,276.34h-2.02v-2h4.02v6h-.61l-.41-.74c-.74.59-1.64.94-2.52.94-2.9,0-4.86-2.79-4.86-6.19s1.96-6.21,4.86-6.21c1.42,0,2.9.92,3.71,2.3l-1.19,1.12c-.77-.99-1.55-1.42-2.39-1.42-1.51,0-2.79,1.6-2.79,4.21s1.28,4.2,2.79,4.2c.49,0,.95-.14,1.42-.47v-1.73Z"/>
    <path class="cls-4" d="M216.08,278.34h3.4v2h-5.4v-12.01h2v10.01Z"/>
    <path class="cls-4" d="M220.67,270.33v-2h8.8v2h-3.4v10.01h-2v-10.01h-3.4Z"/>
    <path class="cls-4" d="M238.78,271.44c0-1.84,1.48-3.31,3.29-3.31s3.31,1.48,3.31,3.31c0,.83-.32,1.58-.85,2.18.88.72,1.44,1.8,1.44,3.01,0,2.16-1.75,3.91-3.91,3.91s-3.89-1.75-3.89-3.91c0-1.21.56-2.29,1.42-3.01-.5-.59-.83-1.35-.83-2.18ZM243.98,276.66c0-1.06-.85-1.93-1.91-1.93s-1.89.86-1.89,1.93.83,1.89,1.89,1.89,1.91-.85,1.91-1.89ZM240.76,271.44c0,.72.59,1.3,1.31,1.3s1.33-.58,1.33-1.3-.61-1.33-1.33-1.33-1.31.61-1.31,1.33Z"/>
    <path class="cls-4" d="M253.09,272.18l-2.18.81-.45-.83,4.03-4.03h.59v10.21h2v2h-6v-2h2v-6.16Z"/>
    <path class="cls-4" d="M266.08,268.13c2.7,0,4.21,2.81,4.21,6.21s-1.51,6.19-4.21,6.19-4.2-2.79-4.2-6.19,1.49-6.21,4.2-6.21ZM266.08,278.54c1.35,0,2.09-1.91,2.09-4.2s-.74-4.21-2.09-4.21-2.07,1.91-2.07,4.21.74,4.2,2.07,4.2Z"/>
  </g>
  <text class="cls-6" transform="translate(561.92 164.02)"><tspan x="0" y="0">GLT601</tspan></text>
  <rect class="cls-1" x="524.92" y="154.56" width="128.28" height="48.92"/>
  <g>
    <path class="cls-4" d="M561.36,176.04h-2.02v-2h4.02v6h-.61l-.41-.74c-.74.59-1.64.94-2.52.94-2.9,0-4.86-2.79-4.86-6.19s1.96-6.21,4.86-6.21c1.42,0,2.9.92,3.71,2.3l-1.19,1.12c-.77-.99-1.55-1.42-2.39-1.42-1.51,0-2.79,1.6-2.79,4.21s1.28,4.2,2.79,4.2c.49,0,.95-.14,1.42-.47v-1.73Z"/>
    <path class="cls-4" d="M569.15,178.04h3.4v2h-5.4v-12.01h2v10.01Z"/>
    <path class="cls-4" d="M573.74,170.03v-2h8.8v2h-3.4v10.01h-2v-10.01h-3.4Z"/>
    <path class="cls-4" d="M591.85,171.14c0-1.84,1.48-3.31,3.29-3.31s3.31,1.48,3.31,3.31c0,.83-.32,1.58-.85,2.18.88.72,1.44,1.8,1.44,3.01,0,2.16-1.75,3.91-3.91,3.91s-3.89-1.75-3.89-3.91c0-1.21.56-2.29,1.42-3.01-.5-.59-.83-1.35-.83-2.18ZM597.05,176.37c0-1.06-.85-1.93-1.91-1.93s-1.89.86-1.89,1.93.83,1.89,1.89,1.89,1.91-.85,1.91-1.89ZM593.83,171.14c0,.72.59,1.3,1.31,1.3s1.33-.58,1.33-1.3-.61-1.33-1.33-1.33-1.31.61-1.31,1.33Z"/>
    <path class="cls-4" d="M607.15,167.83c2.7,0,4.21,2.81,4.21,6.21s-1.51,6.19-4.21,6.19-4.2-2.79-4.2-6.19,1.49-6.21,4.2-6.21ZM607.15,178.24c1.35,0,2.09-1.91,2.09-4.2s-.74-4.21-2.09-4.21-2.07,1.91-2.07,4.21.74,4.2,2.07,4.2Z"/>
    <path class="cls-4" d="M614.36,176.26l5.87-8.43h.92v8.21h2.02v2h-2.02v2h-2v-2h-4.79v-1.78ZM619.15,176.04v-3.71l-2.58,3.71h2.58Z"/>
  </g>
  <rect class="cls-2" x="524.92" y="103.26" width="106.71" height="40.84"/>
  <g>
    <path class="cls-4" d="M550.57,125.69h-2.02v-2h4.02v6h-.61l-.41-.74c-.74.59-1.64.94-2.52.94-2.9,0-4.86-2.79-4.86-6.19s1.96-6.21,4.86-6.21c1.42,0,2.9.92,3.71,2.3l-1.19,1.12c-.77-.99-1.55-1.42-2.39-1.42-1.51,0-2.79,1.6-2.79,4.21s1.28,4.2,2.79,4.2c.49,0,.95-.14,1.42-.47v-1.73Z"/>
    <path class="cls-4" d="M558.37,127.69h3.4v2h-5.4v-12.01h2v10.01Z"/>
    <path class="cls-4" d="M562.95,119.68v-2h8.8v2h-3.4v10.01h-2v-10.01h-3.4Z"/>
    <path class="cls-4" d="M581.06,120.79c0-1.84,1.48-3.31,3.29-3.31s3.31,1.48,3.31,3.31c0,.83-.32,1.58-.85,2.18.88.72,1.44,1.8,1.44,3.01,0,2.16-1.75,3.91-3.91,3.91s-3.89-1.75-3.89-3.91c0-1.21.56-2.29,1.42-3.01-.5-.59-.83-1.35-.83-2.18ZM586.27,126.02c0-1.06-.85-1.93-1.91-1.93s-1.89.86-1.89,1.93.83,1.89,1.89,1.89,1.91-.85,1.91-1.89ZM583.04,120.79c0,.72.59,1.3,1.31,1.3s1.33-.58,1.33-1.3-.61-1.33-1.33-1.33-1.31.61-1.31,1.33Z"/>
    <path class="cls-4" d="M596.36,117.48c2.7,0,4.21,2.81,4.21,6.21s-1.51,6.19-4.21,6.19-4.2-2.79-4.2-6.19,1.49-6.21,4.2-6.21ZM596.36,127.89c1.35,0,2.09-1.91,2.09-4.2s-.74-4.21-2.09-4.21-2.07,1.91-2.07,4.21.74,4.2,2.07,4.2Z"/>
    <path class="cls-4" d="M604.97,117.68h7v3.6h-.59l-.95-1.6h-3.44v2.47c.43-.18.92-.25,1.39-.25,2.21,0,4.01,1.8,4.01,4s-1.8,4-4.01,4c-1.8,0-3.31-1.21-3.82-2.83l1.89-.67c.22.81.97,1.49,1.93,1.49,1.1,0,2-.9,2-2s-.9-2-2-2c-.74,0-1.3.38-1.66.88h-1.75v-7.09Z"/>
  </g>
  <rect class="cls-2" x="335.71" y="60.36" width="83.77" height="75.32"/>
  <rect class="cls-2" x="430.35" y="60.36" width="80.88" height="75.32"/>
  <rect class="cls-2" x="151" y="154.17" width="170.17" height="67.87"/>
  <g>
    <path class="cls-4" d="M208.39,190.11h-2.02v-2h4.02v6h-.61l-.41-.74c-.74.59-1.64.94-2.52.94-2.9,0-4.86-2.79-4.86-6.19s1.96-6.21,4.86-6.21c1.42,0,2.9.92,3.71,2.3l-1.19,1.12c-.77-.99-1.55-1.42-2.39-1.42-1.51,0-2.79,1.6-2.79,4.21s1.28,4.2,2.79,4.2c.49,0,.95-.14,1.42-.47v-1.73Z"/>
    <path class="cls-4" d="M216.18,192.11h3.4v2h-5.4v-12.01h2v10.01Z"/>
    <path class="cls-4" d="M220.77,184.1v-2h8.8v2h-3.4v10.01h-2v-10.01h-3.4Z"/>
    <path class="cls-4" d="M238.87,185.21c0-1.84,1.48-3.31,3.29-3.31s3.31,1.48,3.31,3.31c0,.83-.32,1.58-.85,2.18.88.72,1.44,1.8,1.44,3.01,0,2.16-1.75,3.91-3.91,3.91s-3.89-1.75-3.89-3.91c0-1.21.56-2.29,1.42-3.01-.5-.59-.83-1.35-.83-2.18ZM244.08,190.43c0-1.06-.85-1.93-1.91-1.93s-1.89.86-1.89,1.93.83,1.89,1.89,1.89,1.91-.85,1.91-1.89ZM240.86,185.21c0,.72.59,1.3,1.31,1.3s1.33-.58,1.33-1.3-.61-1.33-1.33-1.33-1.31.61-1.31,1.33Z"/>
    <path class="cls-4" d="M254.18,181.9c2.7,0,4.21,2.81,4.21,6.21s-1.51,6.19-4.21,6.19-4.2-2.79-4.2-6.19,1.49-6.21,4.2-6.21ZM254.18,192.31c1.35,0,2.09-1.91,2.09-4.2s-.74-4.21-2.09-4.21-2.07,1.91-2.07,4.21.74,4.2,2.07,4.2Z"/>
    <path class="cls-4" d="M269.15,188.67l-3.82,5.44h-2.45l2.95-4.21c-2.03-.16-3.65-1.91-3.65-4,0-2.2,1.8-4,4-4s3.98,1.8,4.01,4c.02,1.15-.47,1.95-1.04,2.77ZM266.18,183.9c-1.1,0-2,.9-2,2s.9,2.02,2,2.02,2-.9,2-2.02-.9-2-2-2Z"/>
  </g>
  <g>
    <polygon class="cls-3" points="549.57 547.16 535.38 549.09 535.09 546.77 549.27 544.85 549.57 547.16"/>
    <polygon class="cls-3" points="549.06 543.62 534.85 542.15 535.11 539.82 549.32 541.29 549.06 543.62"/>
    <polygon class="cls-3" points="549.41 539.63 535.8 535.39 536.52 533.16 550.13 537.4 549.41 539.63"/>
    <polygon class="cls-3" points="550.9 536.19 539.7 527.37 541.17 525.54 552.37 534.37 550.9 536.19"/>
    <polygon class="cls-3" points="553.59 533.46 545.36 521.82 547.29 520.48 555.51 532.12 553.59 533.46"/>
    <polygon class="cls-3" points="557.21 531.76 552.41 518.34 554.63 517.57 559.43 531 557.21 531.76"/>
    <g>
      <polygon class="cls-3" points="568.95 536.96 582.84 533.51 583.39 535.78 569.5 539.23 568.95 536.96"/>
      <polygon class="cls-3" points="569.85 540.44 584.13 540.35 584.12 542.69 569.84 542.78 569.85 540.44"/>
      <polygon class="cls-3" points="569.92 544.43 583.91 547.17 583.44 549.46 569.45 546.73 569.92 544.43"/>
      <polygon class="cls-3" points="568.82 548.01 580.91 555.57 579.65 557.55 567.56 549.99 568.82 548.01"/>
      <polygon class="cls-3" points="566.45 551.03 575.89 561.7 574.12 563.24 564.67 552.56 566.45 551.03"/>
      <polygon class="cls-3" points="563.03 553.1 569.26 565.93 567.14 566.93 560.91 554.11 563.03 553.1"/>
    </g>
    <g>
      <path class="cls-8" d="M558.27,543v.43s-.53,0-.53,0v.24s.44-.02.44-.02v.41s-.43.01-.43.01l.02.5-.49.03v-1.56s.98-.04.98-.04Z"/>
      <path class="cls-8" d="M558.96,543.03v1.52s-.48.03-.48.03l-.02-1.53.5-.02Z"/>
      <path class="cls-8" d="M559.77,544.08l-.08.02.02.48h-.48s-.02-1.51-.02-1.51l.74-.04.37.06.04.82-.16.08.3.43-.44.2-.29-.54ZM559.65,543.75l.25-.02v-.32s-.26,0-.26,0v.34Z"/>
      <path class="cls-8" d="M561.56,544.57h-.97s0-1.46,0-1.46l.09-.06.84-.02v.39s-.48,0-.48,0v.2s.35,0,.35,0v.36s-.38,0-.38,0v.21s.55-.01.55-.01v.4Z"/>
      <path class="cls-8" d="M557.47,545.47h-.3s0-.45,0-.45l.03-.02h.26s0,.11,0,.11h-.14s0,.06,0,.06h.11s0,.11,0,.11h-.11s0,.06,0,.06h.17s0,.12,0,.12Z"/>
      <path class="cls-8" d="M557.71,545.32l-.04.03v.12s-.17,0-.17,0l.03-.19.08-.05-.08-.05v-.17s.14,0,.14,0v.12s.04.04.04.04l.03-.03v-.12s.15,0,.15,0l-.02.17-.07.05.07.05.03.19h-.16s0-.11,0-.11l-.04-.03Z"/>
      <path class="cls-8" d="M558.29,545.13h-.12s.02.33.02.33h-.15s0-.33,0-.33h-.11s0-.13,0-.13h.35s0,.13,0,.13Z"/>
      <path class="cls-8" d="M558.49,545v.46s-.15,0-.15,0v-.47s.15,0,.15,0Z"/>
      <path class="cls-8" d="M558.94,545.47h-.14s0-.14,0-.14l-.1-.13v.26s-.14,0-.14,0v-.45s.13-.01.13-.01l.11.15v-.15s.14,0,.14,0v.46Z"/>
      <path class="cls-8" d="M559.09,545.01h.26s0,.13,0,.13h-.18v.2h.07s0-.12,0-.12h.14s-.01.26-.01.26h-.33s-.02-.38-.02-.38l.07-.09Z"/>
      <path class="cls-8" d="M559.79,545.01l.02.41-.06.05h-.29s-.03-.02-.03-.02v-.43s.14,0,.14,0v.31s.1-.01.1-.01v-.31s.13,0,.13,0Z"/>
      <path class="cls-8" d="M560.02,545v.46s-.15,0-.15,0v-.47s.15,0,.15,0Z"/>
      <path class="cls-8" d="M560.39,545v.13s-.14,0-.14,0v.03s.15.07.15.07v.23s-.3.03-.3.03v-.15s.15,0,.15,0v-.04s-.16-.09-.16-.09v-.19s.14-.01.14-.01h.16Z"/>
      <path class="cls-8" d="M560.69,545.3h-.09s0,.16,0,.16h-.14v-.45s.14,0,.14,0v.17s.09,0,.09,0v-.18s.15,0,.15,0v.48s-.15,0-.15,0v-.18Z"/>
      <path class="cls-8" d="M561.21,545.47h-.3s0-.45,0-.45l.03-.02h.26s0,.11,0,.11h-.14s0,.06,0,.06h.11s0,.11,0,.11h-.11s0,.06,0,.06h.17s0,.12,0,.12Z"/>
      <path class="cls-8" d="M561.44,545.32h-.02s0,.15,0,.15h-.15s0-.46,0-.46h.23s.11,0,.11,0v.25s-.04.03-.04.03l.09.13-.13.06-.09-.17ZM561.4,545.22h.08s0-.1,0-.1h-.08s0,.1,0,.1Z"/>
    </g>
    <path class="cls-8" d="M555.38,548.33l3.88,2.89c.06.05.15.05.21,0l3.88-2.89c.06-.04.08-.12.06-.19-.02-.07-.09-.12-.16-.12h-1.74v-1.79c0-.1-.08-.17-.17-.17h-3.93c-.1,0-.17.08-.17.17v1.79h-1.74c-.07,0-.14.05-.16.12-.02.07,0,.15.06.19Z"/>
    <path class="cls-8" d="M566.43,537.77s-.08-.05-.14-.05c-.02,0-.03,0-.05,0l-3.1.66c-.05,0-.09.03-.12.08-.03.04-.05.09-.05.14h-3.38c.06-.14.1-.29.1-.44,0-.3-.11-.57-.33-.78-.22-.22-.48-.33-.78-.33s-.57.11-.78.33c-.22.22-.33.48-.33.78,0,.2.06.4.17.6-.26.08-.51.2-.75.36-.24.16-.44.31-.59.46-.15.15-.29.31-.42.48-.13.17-.22.3-.26.37-.04.07-.08.13-.1.18-.06.11-.06.22-.02.34.04.12.11.2.22.26.06.03.13.05.2.05.18,0,.32-.08.39-.24.02-.04.05-.09.1-.17.05-.08.14-.2.28-.37.14-.17.29-.32.46-.46.16-.14.38-.26.63-.37.26-.11.52-.16.8-.16h.22v.77c-.46.14-.83.4-1.12.79-.29.39-.43.83-.43,1.32v.07h4.43v-.07c0-.53-.17-1-.5-1.41-.33-.41-.76-.66-1.27-.77v-.71h3.06c0,.05.02.1.05.14.03.04.07.07.12.08l3.1.66s.03,0,.05,0c.06,0,.1-.02.14-.05.06-.04.08-.1.08-.17v-2.22c0-.07-.03-.13-.08-.17ZM558.89,538.48c-.09.09-.19.13-.31.13s-.22-.04-.31-.13c-.09-.09-.13-.19-.13-.31s.04-.22.13-.31c.09-.09.19-.13.31-.13s.22.04.31.13c.09.09.13.19.13.31s-.04.22-.13.31Z"/>
    <rect class="cls-7" x="332.29" y="531.47" width="83.77" height="30.38"/>
    <rect class="cls-7" x="430.7" y="531.54" width="83.77" height="30.38"/>
    <polygon class="cls-3" points="308.91 552.67 308.91 543.17 296.12 543.17 296.12 533.5 283.33 533.5 283.33 523.83 270.55 523.83 270.55 514.16 257.76 514.16 257.76 523.83 257.76 562.34 283.33 562.34 296.12 562.34 308.69 562.34 321.47 562.34 321.47 552.67 308.91 552.67"/>
  </g>
  <rect class="cls-2" x="151" y="56.15" width="170.17" height="88.43"/>
  <g>
    <path class="cls-4" d="M206.53,102.37h-2.02v-2h4.02v6h-.61l-.41-.74c-.74.59-1.64.94-2.52.94-2.9,0-4.86-2.79-4.86-6.19s1.96-6.21,4.86-6.21c1.42,0,2.9.92,3.71,2.3l-1.19,1.12c-.77-.99-1.55-1.42-2.39-1.42-1.51,0-2.79,1.6-2.79,4.21s1.28,4.2,2.79,4.2c.49,0,.95-.14,1.42-.47v-1.73Z"/>
    <path class="cls-4" d="M214.33,104.37h3.4v2h-5.4v-12.01h2v10.01Z"/>
    <path class="cls-4" d="M218.91,96.35v-2h8.8v2h-3.4v10.01h-2v-10.01h-3.4Z"/>
    <path class="cls-4" d="M237.02,97.47c0-1.84,1.48-3.31,3.29-3.31s3.31,1.48,3.31,3.31c0,.83-.32,1.58-.85,2.18.88.72,1.44,1.8,1.44,3.01,0,2.16-1.75,3.91-3.91,3.91s-3.89-1.75-3.89-3.91c0-1.21.56-2.29,1.42-3.01-.5-.59-.83-1.35-.83-2.18ZM242.23,102.69c0-1.06-.85-1.93-1.91-1.93s-1.89.86-1.89,1.93.83,1.89,1.89,1.89,1.91-.85,1.91-1.89ZM239,97.47c0,.72.59,1.3,1.31,1.3s1.33-.58,1.33-1.3-.61-1.33-1.33-1.33-1.31.61-1.31,1.33Z"/>
    <path class="cls-4" d="M252.32,94.16c2.7,0,4.21,2.81,4.21,6.21s-1.51,6.19-4.21,6.19-4.2-2.79-4.2-6.19,1.49-6.21,4.2-6.21ZM252.32,104.56c1.35,0,2.09-1.91,2.09-4.2s-.74-4.21-2.09-4.21-2.07,1.91-2.07,4.21.74,4.2,2.07,4.2Z"/>
    <path class="cls-4" d="M261.03,97.47c0-1.84,1.48-3.31,3.29-3.31s3.31,1.48,3.31,3.31c0,.83-.32,1.58-.85,2.18.88.72,1.44,1.8,1.44,3.01,0,2.16-1.75,3.91-3.91,3.91s-3.89-1.75-3.89-3.91c0-1.21.56-2.29,1.42-3.01-.5-.59-.83-1.35-.83-2.18ZM266.24,102.69c0-1.06-.85-1.93-1.91-1.93s-1.89.86-1.89,1.93.83,1.89,1.89,1.89,1.91-.85,1.91-1.89ZM263.02,97.47c0,.72.59,1.3,1.31,1.3s1.33-.58,1.33-1.3-.61-1.33-1.33-1.33-1.31.61-1.31,1.33Z"/>
  </g>
  <g>
    <path class="cls-4" d="M147.56,466.94v-2h8.8v2h-3.4v10.01h-2v-10.01h-3.4Z"/>
    <path class="cls-4" d="M163.49,475.28c1.06,0,1.89-.63,2.41-1.08l1.04,1.26c-.77.95-2.16,1.69-3.64,1.69-3.04,0-4.84-2.18-4.84-4.86s1.87-4.93,4.63-4.93,4.63,2.27,4.14,5.13h-6.59c-.09,1.28.88,2.79,2.84,2.79ZM165.07,470.83c0-.92-.72-1.6-1.96-1.6-.81,0-1.76.4-2.2,1.6h4.16Z"/>
    <path class="cls-4" d="M172.97,471.5v5.46h-2v-9.4h.68l.76,1.37c.67-.94,1.71-1.57,2.88-1.57.18,0,.58.05.58.05v3.89h-.67l-.99-1.85c-.72.34-1.24,1.13-1.24,2.05Z"/>
    <path class="cls-4" d="M180.96,471.5v5.46h-2v-9.4h.68l.76,1.37c.67-.94,1.71-1.57,2.88-1.57.18,0,.58.05.58.05v3.89h-.67l-.99-1.85c-.72.34-1.24,1.13-1.24,2.05Z"/>
    <path class="cls-4" d="M194.29,476.95l-.76-1.42c-.76,1.01-1.8,1.62-3.01,1.62-2.25,0-4-2.18-4.03-4.9-.04-2.72,1.78-4.9,4.03-4.9,1.21,0,2.25.61,3.01,1.62l.76-1.42h.68v9.4h-.68ZM190.77,469.23c-1.22,0-2.2,1.37-2.2,3.03s.97,3.02,2.2,3.02,2.2-1.37,2.2-3.02-.97-3.03-2.2-3.03Z"/>
    <path class="cls-4" d="M204.94,470.24c-.47-.68-1.28-1.01-2-1.01-1.3,0-2.36,1.28-2.36,3.03s1.06,3.02,2.36,3.02c.72,0,1.6-.29,2-1.01l1.19,1.01c-.77,1.13-2,1.87-3.37,1.87-2.38,0-4.27-2.18-4.27-4.9s1.89-4.9,4.27-4.9c1.37,0,2.59.74,3.38,1.87l-1.21,1.01Z"/>
    <path class="cls-4" d="M213.49,475.28c1.06,0,1.89-.63,2.41-1.08l1.04,1.26c-.77.95-2.16,1.69-3.64,1.69-3.04,0-4.84-2.18-4.84-4.86s1.87-4.93,4.63-4.93,4.63,2.27,4.14,5.13h-6.59c-.09,1.28.88,2.79,2.84,2.79ZM215.07,470.83c0-.92-.72-1.6-1.96-1.6-.81,0-1.76.4-2.2,1.6h4.16Z"/>
  </g>
  <g>
    <path class="cls-4" d="M370.74,89.23h-2.02v-2h4.02v6h-.61l-.41-.74c-.74.59-1.64.94-2.52.94-2.9,0-4.86-2.79-4.86-6.19s1.96-6.21,4.86-6.21c1.42,0,2.9.92,3.71,2.3l-1.19,1.12c-.77-.99-1.55-1.42-2.39-1.42-1.51,0-2.79,1.6-2.79,4.21s1.28,4.2,2.79,4.2c.49,0,.95-.14,1.42-.47v-1.73Z"/>
    <path class="cls-4" d="M378.54,91.23h3.4v2h-5.4v-12.01h2v10.01Z"/>
    <path class="cls-4" d="M383.13,83.21v-2h8.8v2h-3.4v10.01h-2v-10.01h-3.4Z"/>
    <path class="cls-4" d="M362.23,105.93c0-1.84,1.48-3.31,3.29-3.31s3.31,1.48,3.31,3.31c0,.83-.32,1.58-.85,2.18.88.72,1.44,1.8,1.44,3.01,0,2.16-1.75,3.91-3.91,3.91s-3.89-1.75-3.89-3.91c0-1.21.56-2.29,1.42-3.01-.5-.59-.83-1.35-.83-2.18ZM367.43,111.15c0-1.06-.85-1.93-1.91-1.93s-1.89.86-1.89,1.93.83,1.89,1.89,1.89,1.91-.85,1.91-1.89ZM364.21,105.93c0,.72.59,1.3,1.31,1.3s1.33-.58,1.33-1.3-.61-1.33-1.33-1.33-1.31.61-1.31,1.33Z"/>
    <path class="cls-4" d="M377.53,102.62c2.7,0,4.21,2.81,4.21,6.21s-1.51,6.19-4.21,6.19-4.19-2.79-4.19-6.19,1.49-6.21,4.19-6.21ZM377.53,113.03c1.35,0,2.09-1.91,2.09-4.19s-.74-4.21-2.09-4.21-2.07,1.91-2.07,4.21.74,4.19,2.07,4.19Z"/>
    <path class="cls-4" d="M384.94,104.82v-2h8.61v.97l-5.49,11.04h-2.12l4.97-10.01h-5.96Z"/>
  </g>
  <g>
    <path class="cls-4" d="M463.95,89.23h-2.02v-2h4.02v6h-.61l-.41-.74c-.74.59-1.64.94-2.52.94-2.9,0-4.86-2.79-4.86-6.19s1.96-6.21,4.86-6.21c1.42,0,2.9.92,3.71,2.3l-1.19,1.12c-.77-.99-1.55-1.42-2.39-1.42-1.51,0-2.79,1.6-2.79,4.21s1.28,4.2,2.79,4.2c.49,0,.95-.14,1.42-.47v-1.73Z"/>
    <path class="cls-4" d="M471.74,91.23h3.4v2h-5.4v-12.01h2v10.01Z"/>
    <path class="cls-4" d="M476.33,83.21v-2h8.8v2h-3.4v10.01h-2v-10.01h-3.4Z"/>
    <path class="cls-4" d="M455.43,105.93c0-1.84,1.48-3.31,3.29-3.31s3.31,1.48,3.31,3.31c0,.83-.32,1.58-.85,2.18.88.72,1.44,1.8,1.44,3.01,0,2.16-1.75,3.91-3.91,3.91s-3.89-1.75-3.89-3.91c0-1.21.56-2.29,1.42-3.01-.5-.59-.83-1.35-.83-2.18ZM460.63,111.15c0-1.06-.85-1.93-1.91-1.93s-1.89.86-1.89,1.93.83,1.89,1.89,1.89,1.91-.85,1.91-1.89ZM457.41,105.93c0,.72.59,1.3,1.31,1.3s1.33-.58,1.33-1.3-.61-1.33-1.33-1.33-1.31.61-1.31,1.33Z"/>
    <path class="cls-4" d="M470.73,102.62c2.7,0,4.21,2.81,4.21,6.21s-1.51,6.19-4.21,6.19-4.19-2.79-4.19-6.19,1.49-6.21,4.19-6.21ZM470.73,113.03c1.35,0,2.09-1.91,2.09-4.19s-.74-4.21-2.09-4.21-2.07,1.91-2.07,4.21.74,4.19,2.07,4.19Z"/>
    <path class="cls-4" d="M483.6,102.82h2.45l-2.97,4.23c2.05.16,3.67,1.89,3.67,3.98,0,2.2-1.8,4-4.02,4s-3.98-1.8-4-4c-.02-1.13.47-1.94,1.04-2.75l3.82-5.46ZM482.74,109.03c-1.1,0-2,.9-2,2s.9,2,2,2,2-.9,2-2-.9-2-2-2Z"/>
  </g>
  <rect class="cls-2" x="402.92" y="119.01" width="7.64" height="25.7" transform="translate(538.61 -274.88) rotate(90)"/>
  <rect class="cls-2" x="439.42" y="119.01" width="7.64" height="25.7" transform="translate(575.1 -311.37) rotate(90)"/>
  <rect class="cls-2" x="534.07" y="127.44" width="7.64" height="25.7" transform="translate(678.17 -397.6) rotate(90)"/>
  <rect class="cls-2" x="534.07" y="145.67" width="7.64" height="25.7" transform="translate(696.41 -379.36) rotate(90)"/>
  <polygon class="cls-2" points="322.04 481.02 264.54 480.89 264.59 500.84 242.68 500.97 242.68 441.26 322.04 441.26 322.04 481.02"/>
  <rect class="cls-2" x="289.88" y="464.35" width="7.64" height="25.7" transform="translate(770.9 183.5) rotate(90)"/>
  <g>
    <path class="cls-4" d="M258.66,456.27c2.7,0,4.21,2.81,4.21,6.21s-1.51,6.19-4.21,6.19-4.2-2.79-4.2-6.19,1.49-6.21,4.2-6.21ZM258.66,466.68c1.35,0,2.09-1.91,2.09-4.2s-.74-4.21-2.09-4.21-2.07,1.91-2.07,4.21.74,4.2,2.07,4.2Z"/>
    <path class="cls-4" d="M273.49,456.7c-.38-.16-.94-.36-1.55-.36-.81,0-1.48.54-1.48,1.94v.79h2.81v2h-2.81v7.4h-2v-7.4h-2.2v-2h2.2v-.86c0-2.3,1.31-3.75,2.99-3.75,1.08,0,1.91.32,2.41.61l-.38,1.62Z"/>
    <path class="cls-4" d="M280.48,461.08v7.4h-2v-7.4h-2.2v-2h2.2v-.86c0-2.3,1.31-3.75,2.99-3.75,1.08,0,1.91.32,2.41.61l-.38,1.62c-.38-.16-.94-.36-1.55-.36-.81,0-1.48.54-1.48,1.94v.79h8.21v9.4h-2v-7.4h-6.21ZM288.88,455.48c0,.65-.54,1.17-1.21,1.17s-1.19-.52-1.19-1.17.54-1.21,1.19-1.21,1.21.54,1.21,1.21Z"/>
    <path class="cls-4" d="M298.66,461.76c-.47-.68-1.28-1.01-2-1.01-1.3,0-2.36,1.28-2.36,3.03s1.06,3.02,2.36,3.02c.72,0,1.6-.29,2-1.01l1.19,1.01c-.77,1.13-2,1.87-3.37,1.87-2.38,0-4.27-2.18-4.27-4.9s1.89-4.9,4.27-4.9c1.37,0,2.59.74,3.38,1.87l-1.21,1.01Z"/>
    <path class="cls-4" d="M307.21,466.8c1.06,0,1.89-.63,2.41-1.08l1.04,1.26c-.77.95-2.16,1.69-3.64,1.69-3.04,0-4.84-2.18-4.84-4.86s1.87-4.93,4.63-4.93,4.63,2.27,4.14,5.13h-6.59c-.09,1.28.88,2.79,2.84,2.79ZM308.79,462.36c0-.92-.72-1.6-1.96-1.6-.81,0-1.76.4-2.2,1.6h4.16Z"/>
  </g>
  <rect class="cls-2" x="225.14" y="455.46" width="7.64" height="25.7" transform="translate(457.92 936.62) rotate(180)"/>
  <rect class="cls-2" x="314.4" y="397.54" width="7.64" height="25.7" transform="translate(636.45 820.77) rotate(180)"/>
  <rect class="cls-2" x="314.4" y="326.33" width="7.64" height="25.7" transform="translate(636.45 678.36) rotate(180)"/>
  <rect class="cls-2" x="313.53" y="282.49" width="7.64" height="25.7" transform="translate(634.7 590.68) rotate(180)"/>
  <rect class="cls-2" x="304.5" y="145.11" width="7.64" height="25.7" transform="translate(150.36 466.29) rotate(-90)"/>
  <rect class="cls-2" x="304.5" y="127.9" width="7.64" height="25.7" transform="translate(167.56 449.07) rotate(-90)"/>
  <g>
    <rect class="cls-5" x="295.37" y="143.65" width="45.96" height="10.99"/>
    <path class="cls-3" d="M340.83,144.15v9.99h-44.96v-9.99h44.96M341.83,143.15h-46.96v11.99h46.96v-11.99h0Z"/>
  </g>
  <rect class="cls-5" x="342.42" y="135.91" width="17.83" height="36.27" transform="translate(197.29 505.37) rotate(-90)"/>
  <g>
    <rect class="cls-5" x="504.35" y="143.62" width="46.87" height="11.57"/>
    <path class="cls-3" d="M550.74,144.11v10.6h-45.89v-10.6h45.89M551.71,143.13h-47.85v12.55h47.85v-12.55h0Z"/>
  </g>
  <rect class="cls-5" x="483.93" y="134.12" width="18.22" height="40.41" transform="translate(338.71 647.37) rotate(-90)"/>
  <rect class="cls-2" x="524.82" y="291.52" width="7.64" height="25.7" transform="translate(1057.28 608.75) rotate(180)"/>
  <rect class="cls-2" x="524.82" y="362.46" width="7.64" height="25.7" transform="translate(1057.28 750.62) rotate(180)"/>
  <rect class="cls-2" x="524.82" y="419.78" width="7.64" height="25.7" transform="translate(1057.28 865.26) rotate(180)"/>
  <rect class="cls-2" x="524.82" y="457.66" width="7.64" height="25.7" transform="translate(1057.28 941.02) rotate(180)"/>
  <rect class="cls-2" x="524.82" y="248.38" width="7.64" height="25.7" transform="translate(1057.28 522.45) rotate(180)"/>
</svg>