<?xml version="1.0" encoding="UTF-8"?>
<svg id="katman_1" data-name="katman 1" xmlns="http://www.w3.org/2000/svg" viewBox="0 0 630.15 509.71">
  <defs>
    <style>
      .cls-1 {
        font-size: 14px;
      }

      .cls-1, .cls-2, .cls-3, .cls-4 {
        fill: #fff;
      }

      .cls-2 {
        font-size: 22.18px;
      }

      .cls-3 {
        font-size: 22.54px;
      }

      .cls-5 {
        fill: #f4f4f4;
      }

      .cls-6 {
        stroke-width: 2px;
      }

      .cls-6, .cls-7, .cls-8 {
        fill: none;
        stroke: #a5d8dc;
        stroke-miterlimit: 10;
      }

      .cls-7 {
        stroke-width: 2.02px;
      }

      .cls-8 {
        stroke-width: 2.01px;
      }

      .cls-9 {
        fill: #878787;
      }

      .cls-10 {
        fill: #a5d8dc;
      }

      .cls-11 {
        fill: #e73447;
      }
    </style>
  </defs>
  <rect class="cls-7" x="292.98" y="110.4" width="179.93" height="340.19"/>
  <polygon class="cls-10" points="507.04 489.94 492.86 491.86 492.56 489.55 506.75 487.62 507.04 489.94"/>
  <polygon class="cls-10" points="506.53 486.39 492.32 484.93 492.59 482.6 506.8 484.07 506.53 486.39"/>
  <polygon class="cls-10" points="506.89 482.41 493.28 478.17 494 475.94 507.61 480.18 506.89 482.41"/>
  <polygon class="cls-10" points="508.37 478.97 497.18 470.14 498.65 468.32 509.85 477.14 508.37 478.97"/>
  <polygon class="cls-10" points="511.06 476.24 502.84 464.59 504.76 463.26 512.99 474.9 511.06 476.24"/>
  <polygon class="cls-10" points="514.69 474.54 509.89 461.12 512.11 460.35 516.9 473.77 514.69 474.54"/>
  <g>
    <polygon class="cls-10" points="526.43 479.74 540.32 476.29 540.87 478.56 526.98 482.01 526.43 479.74"/>
    <polygon class="cls-10" points="527.32 483.21 541.61 483.12 541.6 485.46 527.31 485.55 527.32 483.21"/>
    <polygon class="cls-10" points="527.4 487.21 541.39 489.94 540.92 492.24 526.93 489.51 527.4 487.21"/>
    <polygon class="cls-10" points="526.3 490.79 538.39 498.35 537.12 500.32 525.04 492.77 526.3 490.79"/>
    <polygon class="cls-10" points="523.92 493.8 533.37 504.48 531.6 506.01 522.15 495.34 523.92 493.8"/>
    <polygon class="cls-10" points="520.51 495.88 526.74 508.7 524.62 509.71 518.39 496.88 520.51 495.88"/>
  </g>
  <g>
    <path class="cls-11" d="M515.75,485.78v.43s-.53,0-.53,0v.24s.44-.02.44-.02v.41s-.43.01-.43.01l.02.5-.49.03v-1.56s.98-.04.98-.04Z"/>
    <path class="cls-11" d="M516.44,485.8v1.52s-.48.03-.48.03l-.02-1.53.5-.02Z"/>
    <path class="cls-11" d="M517.25,486.86l-.08.02.02.48h-.48s-.02-1.51-.02-1.51l.74-.04.37.06.04.82-.16.08.3.43-.44.2-.29-.54ZM517.12,486.52l.25-.02v-.32s-.26,0-.26,0v.34Z"/>
    <path class="cls-11" d="M519.04,487.34h-.97s0-1.46,0-1.46l.09-.06.84-.02v.39s-.48,0-.48,0v.2s.35,0,.35,0v.36s-.38,0-.38,0v.21s.55-.01.55-.01v.4Z"/>
    <path class="cls-11" d="M514.95,488.25h-.3s0-.45,0-.45l.03-.02h.26s0,.11,0,.11h-.14s0,.06,0,.06h.11s0,.11,0,.11h-.11s0,.06,0,.06h.17s0,.12,0,.12Z"/>
    <path class="cls-11" d="M515.18,488.1l-.04.03v.12s-.17,0-.17,0l.03-.19.08-.05-.08-.05v-.17s.14,0,.14,0v.12s.04.04.04.04l.03-.03v-.12s.15,0,.15,0l-.02.17-.07.05.07.05.03.19h-.16s0-.11,0-.11l-.04-.03Z"/>
    <path class="cls-11" d="M515.77,487.91h-.12s.02.33.02.33h-.15s0-.33,0-.33h-.11s0-.13,0-.13h.35s0,.13,0,.13Z"/>
    <path class="cls-11" d="M515.96,487.78v.46s-.15,0-.15,0v-.47s.15,0,.15,0Z"/>
    <path class="cls-11" d="M516.42,488.24h-.14s0-.14,0-.14l-.1-.13v.26s-.14,0-.14,0v-.45s.13-.01.13-.01l.11.15v-.15s.14,0,.14,0v.46Z"/>
    <path class="cls-11" d="M516.56,487.78h.26s0,.13,0,.13h-.18v.2h.07s0-.12,0-.12h.14s-.01.26-.01.26h-.33s-.02-.38-.02-.38l.07-.09Z"/>
    <path class="cls-11" d="M517.27,487.78l.02.41-.06.05h-.29s-.03-.02-.03-.02v-.43s.14,0,.14,0v.31s.1-.01.1-.01v-.31s.13,0,.13,0Z"/>
    <path class="cls-11" d="M517.5,487.78v.46s-.15,0-.15,0v-.47s.15,0,.15,0Z"/>
    <path class="cls-11" d="M517.86,487.78v.13s-.14,0-.14,0v.03s.15.07.15.07v.23s-.3.03-.3.03v-.15s.15,0,.15,0v-.04s-.16-.09-.16-.09v-.19s.14-.01.14-.01h.16Z"/>
    <path class="cls-11" d="M518.17,488.08h-.09s0,.16,0,.16h-.14v-.45s.14,0,.14,0v.17s.09,0,.09,0v-.18s.15,0,.15,0v.48s-.15,0-.15,0v-.18Z"/>
    <path class="cls-11" d="M518.69,488.25h-.3s0-.45,0-.45l.03-.02h.26s0,.11,0,.11h-.14s0,.06,0,.06h.11s0,.11,0,.11h-.11s0,.06,0,.06h.17s0,.12,0,.12Z"/>
    <path class="cls-11" d="M518.91,488.1h-.02s0,.15,0,.15h-.15s0-.46,0-.46h.23s.11,0,.11,0v.25s-.04.03-.04.03l.09.13-.13.06-.09-.17ZM518.88,488h.08s0-.1,0-.1h-.08s0,.1,0,.1Z"/>
  </g>
  <path class="cls-11" d="M512.85,491.11l3.88,2.89c.06.05.15.05.21,0l3.88-2.89c.06-.04.08-.12.06-.19-.02-.07-.09-.12-.16-.12h-1.74v-1.79c0-.1-.08-.17-.17-.17h-3.93c-.1,0-.17.08-.17.17v1.79h-1.74c-.07,0-.14.05-.16.12-.02.07,0,.15.06.19Z"/>
  <path class="cls-11" d="M523.9,480.55s-.08-.05-.14-.05c-.02,0-.03,0-.05,0l-3.1.66c-.05,0-.09.03-.12.08-.03.04-.05.09-.05.14h-3.38c.06-.14.1-.29.1-.44,0-.3-.11-.57-.33-.78-.22-.22-.48-.33-.78-.33s-.57.11-.78.33c-.22.22-.33.48-.33.78,0,.2.06.4.17.6-.26.08-.51.2-.75.36-.24.16-.44.31-.59.46-.15.15-.29.31-.42.48-.13.17-.22.3-.26.37-.04.07-.08.13-.1.18-.06.11-.06.22-.02.34.04.12.11.2.22.26.06.03.13.05.2.05.18,0,.32-.08.39-.24.02-.04.05-.09.1-.17.05-.08.14-.2.28-.37.14-.17.29-.32.46-.46.16-.14.38-.26.63-.37.26-.11.52-.16.8-.16h.22v.77c-.46.14-.83.4-1.12.79-.29.39-.43.83-.43,1.32v.07h4.43v-.07c0-.53-.17-1-.5-1.41-.33-.41-.76-.66-1.27-.77v-.71h3.06c0,.05.02.1.05.14.03.04.07.07.12.08l3.1.66s.03,0,.05,0c.06,0,.1-.02.14-.05.06-.04.08-.1.08-.17v-2.22c0-.07-.03-.13-.08-.17ZM516.37,481.25c-.09.09-.19.13-.31.13s-.22-.04-.31-.13c-.09-.09-.13-.19-.13-.31s.04-.22.13-.31c.09-.09.19-.13.31-.13s.22.04.31.13c.09.09.13.19.13.31s-.04.22-.13.31Z"/>
  <g>
    <path class="cls-10" d="M27.44,167.41H.44v-18.89h3.64v14.12h8.11v-12.16h3.6v12.16h11.66v4.77Z"/>
    <path class="cls-10" d="M27.44,143.89H.44v-4.77h23.33v-13.75h3.68v18.52Z"/>
    <path class="cls-10" d="M8.43,99.41h11.03c6.31,0,8.43,5.33,8.43,11.46s-2.12,11.46-8.43,11.46h-11.03c-6.31,0-8.43-5.38-8.43-11.46s2.12-11.46,8.43-11.46ZM9.43,117.55h8.99c4.51,0,5.71-2.76,5.71-6.69s-1.2-6.69-5.71-6.69h-8.99c-4.47,0-5.67,2.76-5.67,6.69s1.2,6.69,5.67,6.69Z"/>
    <path class="cls-10" d="M8.43,69.57h11.03c6.31,0,8.43,5.33,8.43,11.46s-2.12,11.46-8.43,11.46h-11.03c-6.31,0-8.43-5.38-8.43-11.46s2.12-11.46,8.43-11.46ZM9.43,87.72h8.99c4.51,0,5.71-2.76,5.71-6.69s-1.2-6.69-5.71-6.69h-8.99c-4.47,0-5.67,2.76-5.67,6.69s1.2,6.69,5.67,6.69Z"/>
    <path class="cls-10" d="M27.44,44.22l-11.35,6.73v6.92h11.35v4.77H.44v-14.22c0-3.88,2.68-6.73,5.99-6.73h3.67c2.6,0,4.79,1.73,5.63,4.35l11.7-7.02v5.19ZM7.39,46.47c-2.24,0-3.32,1.12-3.32,4.07v7.34h8.39v-7.34c0-2.95-1.08-4.07-3.32-4.07h-1.76Z"/>
    <path class="cls-10" d="M35.51,25.94L12.14,13.35v14.5h-3.64V8.12h3.08l23.93,12.44v5.38Z"/>
  </g>
  <rect class="cls-6" x="485.39" y="21.52" width="92.64" height="75.32"/>
  <rect class="cls-10" x="180.44" y="390.75" width="100.7" height="59.85"/>
  <rect class="cls-8" x="292.98" y="1.01" width="178.97" height="95.83"/>
  <text class="cls-3" transform="translate(499.56 224.51)"><tspan x="0" y="0">GLT ANIM.</tspan></text>
  <text class="cls-2" transform="translate(364.48 63.23)"><tspan x="0" y="0">GLT601</tspan></text>
  <text class="cls-1" transform="translate(197.51 426.98)"><tspan x="0" y="0">TERRACE</tspan></text>
  <g id="glt701">
    <rect class="cls-10" x="484.75" y="353.83" width="145.39" height="96.77"/>
    <g>
      <path class="cls-4" d="M521.19,404.89h-2.69v-2.67h5.35v7.99h-.82l-.55-.98c-.98.79-2.18,1.25-3.36,1.25-3.86,0-6.48-3.72-6.48-8.26s2.62-8.28,6.48-8.28c1.9,0,3.86,1.22,4.94,3.07l-1.58,1.49c-1.03-1.32-2.06-1.9-3.19-1.9-2.02,0-3.72,2.14-3.72,5.62s1.7,5.59,3.72,5.59c.65,0,1.27-.19,1.9-.62v-2.3Z"/>
      <path class="cls-4" d="M531.58,407.55h4.54v2.66h-7.2v-16.01h2.66v13.35Z"/>
      <path class="cls-4" d="M537.7,396.87v-2.67h11.74v2.67h-4.54v13.34h-2.67v-13.34h-4.54Z"/>
      <path class="cls-4" d="M560.11,396.87v-2.67h11.47v1.3l-7.32,14.71h-2.83l6.62-13.34h-7.94Z"/>
      <path class="cls-4" d="M582.24,393.94c3.6,0,5.62,3.74,5.62,8.28s-2.02,8.26-5.62,8.26-5.59-3.72-5.59-8.26,1.99-8.28,5.59-8.28ZM582.24,407.81c1.8,0,2.78-2.54,2.78-5.59s-.98-5.62-2.78-5.62-2.76,2.54-2.76,5.62.98,5.59,2.76,5.59Z"/>
      <path class="cls-4" d="M596.93,399.34l-2.9,1.08-.6-1.1,5.38-5.38h.79v13.61h2.66v2.66h-7.99v-2.66h2.66v-8.21Z"/>
    </g>
  </g>
  <g id="glt702">
    <rect class="cls-10" x="484.75" y="235.28" width="145.39" height="96.93"/>
    <g>
      <path class="cls-4" d="M520.52,286.42h-2.69v-2.67h5.35v7.99h-.82l-.55-.98c-.98.79-2.18,1.25-3.36,1.25-3.86,0-6.48-3.72-6.48-8.26s2.62-8.28,6.48-8.28c1.9,0,3.86,1.22,4.94,3.07l-1.58,1.49c-1.03-1.32-2.06-1.9-3.19-1.9-2.02,0-3.72,2.14-3.72,5.62s1.7,5.59,3.72,5.59c.65,0,1.27-.19,1.9-.62v-2.3Z"/>
      <path class="cls-4" d="M530.91,289.09h4.54v2.66h-7.2v-16.01h2.66v13.35Z"/>
      <path class="cls-4" d="M537.03,278.41v-2.67h11.74v2.67h-4.54v13.34h-2.67v-13.34h-4.54Z"/>
      <path class="cls-4" d="M559.44,278.41v-2.67h11.47v1.3l-7.32,14.71h-2.83l6.62-13.34h-7.94Z"/>
      <path class="cls-4" d="M581.57,275.48c3.6,0,5.62,3.74,5.62,8.28s-2.02,8.26-5.62,8.26-5.59-3.72-5.59-8.26,1.99-8.28,5.59-8.28ZM581.57,289.35c1.8,0,2.78-2.54,2.78-5.59s-.98-5.62-2.78-5.62-2.76,2.54-2.76,5.62.98,5.59,2.76,5.59Z"/>
      <path class="cls-4" d="M600.24,280.81c0-1.46-1.2-2.66-2.66-2.66s-2.67,1.2-2.67,2.66v1.34h-2.66v-1.34c0-2.93,2.4-5.33,5.33-5.33s5.35,2.4,5.35,5.33c0,2.21-1.01,3.58-2.54,5.02l-3.46,3.26h6v2.66h-10.68v-.96l5.74-6.07c.89-.94,2.26-2.35,2.26-3.91Z"/>
    </g>
  </g>
  <g id="glt703">
    <rect class="cls-10" x="484.75" y="114.43" width="145.39" height="103.26"/>
    <g>
      <path class="cls-4" d="M520.38,168.74h-2.69v-2.67h5.35v7.99h-.82l-.55-.98c-.98.79-2.18,1.25-3.36,1.25-3.86,0-6.48-3.72-6.48-8.26s2.62-8.28,6.48-8.28c1.9,0,3.86,1.22,4.94,3.07l-1.58,1.49c-1.03-1.32-2.06-1.9-3.19-1.9-2.02,0-3.72,2.14-3.72,5.62s1.7,5.59,3.72,5.59c.65,0,1.27-.19,1.9-.62v-2.3Z"/>
      <path class="cls-4" d="M530.77,171.4h4.54v2.66h-7.2v-16.01h2.66v13.35Z"/>
      <path class="cls-4" d="M536.89,160.72v-2.67h11.74v2.67h-4.54v13.34h-2.67v-13.34h-4.54Z"/>
      <path class="cls-4" d="M559.31,160.72v-2.67h11.47v1.3l-7.32,14.71h-2.83l6.62-13.34h-7.94Z"/>
      <path class="cls-4" d="M581.44,157.79c3.6,0,5.62,3.74,5.62,8.28s-2.02,8.26-5.62,8.26-5.59-3.72-5.59-8.26,1.99-8.28,5.59-8.28ZM581.44,171.67c1.8,0,2.78-2.54,2.78-5.59s-.98-5.62-2.78-5.62-2.76,2.54-2.76,5.62.98,5.59,2.76,5.59Z"/>
      <path class="cls-4" d="M602.8,169c0,2.93-2.4,5.33-5.35,5.33-2.45,0-4.42-1.61-5.09-3.77l2.52-.89c.29,1.08,1.3,1.99,2.57,1.99,1.46,0,2.66-1.2,2.66-2.66s-1.2-2.66-2.66-2.66h-1.99v-.82l3.53-4.8h-4.32l-1.3,2.14h-.79v-4.8h10.49v1.32l-3.5,4.71c1.82.84,3.24,2.62,3.24,4.92Z"/>
    </g>
  </g>
  <g id="glt705">
    <rect class="cls-10" x="120" y="275.86" width="160.82" height="96.95"/>
    <g>
      <path class="cls-4" d="M163.47,327.01h-2.69v-2.67h5.35v7.99h-.82l-.55-.98c-.98.79-2.18,1.25-3.36,1.25-3.86,0-6.48-3.72-6.48-8.26s2.62-8.28,6.48-8.28c1.9,0,3.86,1.22,4.94,3.07l-1.58,1.49c-1.03-1.32-2.06-1.9-3.19-1.9-2.02,0-3.72,2.14-3.72,5.62s1.7,5.59,3.72,5.59c.65,0,1.27-.19,1.9-.62v-2.3Z"/>
      <path class="cls-4" d="M173.87,329.67h4.54v2.66h-7.2v-16.01h2.66v13.35Z"/>
      <path class="cls-4" d="M179.98,318.99v-2.67h11.74v2.67h-4.54v13.34h-2.67v-13.34h-4.54Z"/>
      <path class="cls-4" d="M202.4,318.99v-2.67h11.47v1.3l-7.32,14.71h-2.83l6.62-13.34h-7.94Z"/>
      <path class="cls-4" d="M224.53,316.06c3.6,0,5.62,3.74,5.62,8.28s-2.02,8.26-5.62,8.26-5.59-3.72-5.59-8.26,1.99-8.28,5.59-8.28ZM224.53,329.93c1.8,0,2.78-2.54,2.78-5.59s-.98-5.62-2.78-5.62-2.76,2.54-2.76,5.62.98,5.59,2.76,5.59Z"/>
      <path class="cls-4" d="M236,316.32h9.34v4.8h-.79l-1.27-2.14h-4.58v3.29c.58-.24,1.22-.34,1.85-.34,2.95,0,5.35,2.4,5.35,5.33s-2.4,5.33-5.35,5.33c-2.4,0-4.42-1.61-5.09-3.77l2.52-.89c.29,1.08,1.3,1.99,2.57,1.99,1.46,0,2.66-1.2,2.66-2.66s-1.2-2.66-2.66-2.66c-.98,0-1.73.5-2.21,1.18h-2.33v-9.46Z"/>
    </g>
  </g>
  <g id="glt704">
    <rect class="cls-10" x="121.75" y="169.48" width="159.07" height="88.43"/>
    <g>
      <path class="cls-4" d="M164.35,216.38h-2.69v-2.67h5.35v7.99h-.82l-.55-.98c-.98.79-2.18,1.25-3.36,1.25-3.86,0-6.48-3.72-6.48-8.26s2.62-8.28,6.48-8.28c1.9,0,3.86,1.22,4.94,3.07l-1.58,1.49c-1.03-1.32-2.06-1.9-3.19-1.9-2.02,0-3.72,2.14-3.72,5.62s1.7,5.59,3.72,5.59c.65,0,1.27-.19,1.9-.62v-2.3Z"/>
      <path class="cls-4" d="M174.74,219.04h4.54v2.66h-7.2v-16.01h2.66v13.35Z"/>
      <path class="cls-4" d="M180.86,208.36v-2.67h11.74v2.67h-4.54v13.34h-2.67v-13.34h-4.54Z"/>
      <path class="cls-4" d="M203.28,208.36v-2.67h11.47v1.3l-7.32,14.71h-2.83l6.62-13.34h-7.94Z"/>
      <path class="cls-4" d="M225.4,205.43c3.6,0,5.62,3.74,5.62,8.28s-2.02,8.26-5.62,8.26-5.59-3.72-5.59-8.26,1.99-8.28,5.59-8.28ZM225.4,219.3c1.8,0,2.78-2.54,2.78-5.59s-.98-5.62-2.78-5.62-2.76,2.54-2.76,5.62.98,5.59,2.76,5.59Z"/>
      <path class="cls-4" d="M235.03,216.66l7.82-11.23h1.22v10.95h2.69v2.66h-2.69v2.66h-2.66v-2.66h-6.38v-2.38ZM241.41,216.38v-4.94l-3.43,4.94h3.43Z"/>
    </g>
  </g>
  <rect class="cls-9" x="291.73" y="474.61" width="83.77" height="30.38"/>
  <rect class="cls-9" x="390.14" y="474.67" width="83.77" height="30.38"/>
  <g>
    <rect class="cls-10" x="217.2" y="457.29" width="12.79" height="9.67"/>
    <rect class="cls-10" x="242.77" y="476.63" width="12.79" height="9.67"/>
    <rect class="cls-10" x="229.98" y="466.96" width="12.79" height="9.67"/>
    <rect class="cls-10" x="255.56" y="486.3" width="12.79" height="9.67"/>
    <rect class="cls-10" x="268.12" y="495.81" width="12.79" height="9.67"/>
    <rect class="cls-10" x="217.2" y="466.96" width="25.57" height="38.51"/>
    <rect class="cls-10" x="242.77" y="486.3" width="12.79" height="19.17"/>
    <rect class="cls-10" x="255.56" y="495.97" width="12.57" height="9.5"/>
  </g>
  <g id="gltmac03">
    <g id="maclab3">
      <rect class="cls-10" x="149.76" y="70.67" width="130.99" height="80.36"/>
      <g>
        <path class="cls-4" d="M174.01,136.34v-8.44l-3.38,6.34h-.46l-3.38-6.34v8.44h-2.23v-14h1.91l3.93,7.37,3.93-7.37h1.91v14h-2.23Z"/>
        <path class="cls-4" d="M183.23,136.34h-2.33v-8.86c0-3.46,2.1-5.38,4.66-5.38s4.68,1.91,4.68,5.38v8.86h-2.33v-4.66h-4.68v4.66ZM187.91,127.48c0-2.06-1.07-3.04-2.35-3.04s-2.33.99-2.33,3.04v1.87h4.68v-1.87Z"/>
        <path class="cls-4" d="M200.58,122.1c1.72,0,3.53,1.07,4.51,2.69l-1.47,1.3c-.94-1.15-1.89-1.66-2.94-1.66-1.85,0-3.44,1.87-3.44,4.91s1.6,4.89,3.44,4.89c1.05,0,1.99-.48,2.94-1.66l1.47,1.3c-.99,1.62-2.79,2.69-4.51,2.69-3.53,0-5.9-3.25-5.9-7.22s2.37-7.24,5.9-7.24Z"/>
        <path class="cls-4" d="M218.24,134.01h3.97v2.33h-6.3v-14h2.33v11.67Z"/>
        <path class="cls-4" d="M227.56,136.34h-2.33v-8.86c0-3.46,2.1-5.38,4.66-5.38s4.68,1.91,4.68,5.38v8.86h-2.33v-4.66h-4.68v4.66ZM232.24,127.48c0-2.06-1.07-3.04-2.35-3.04s-2.33.99-2.33,3.04v1.87h4.68v-1.87Z"/>
        <path class="cls-4" d="M239.24,122.33h4.89c2.06,0,3.74,1.68,3.74,3.74,0,.97-.29,1.68-.82,2.31,1.07.82,1.76,1.99,1.76,3.53,0,2.46-1.99,4.43-4.43,4.43h-5.14v-14ZM241.57,127.48h2.56c.78,0,1.41-.63,1.41-1.41s-.63-1.41-1.41-1.41h-2.56v2.81ZM241.57,134.01h2.81c1.15,0,2.1-.94,2.1-2.1s-.94-2.1-2.1-2.1h-2.81v4.2Z"/>
        <path class="cls-4" d="M269.58,131.91c0,2.56-2.1,4.66-4.68,4.66-2.14,0-3.86-1.41-4.45-3.3l2.2-.78c.25.94,1.13,1.74,2.25,1.74,1.28,0,2.33-1.05,2.33-2.33s-1.05-2.33-2.33-2.33h-1.74v-.71l3.09-4.2h-3.78l-1.13,1.87h-.69v-4.2h9.18v1.15l-3.07,4.12c1.6.73,2.83,2.29,2.83,4.3Z"/>
      </g>
    </g>
    <g>
      <path class="cls-5" d="M168.82,91.23h-1.57v-1.55h3.12v4.66h-.48l-.32-.57c-.57.46-1.27.73-1.96.73-2.25,0-3.78-2.17-3.78-4.82s1.53-4.83,3.78-4.83c1.11,0,2.26.71,2.89,1.79l-.92.87c-.6-.77-1.21-1.11-1.86-1.11-1.18,0-2.17,1.25-2.17,3.28s.99,3.26,2.17,3.26c.38,0,.74-.11,1.11-.36v-1.34Z"/>
      <path class="cls-5" d="M174.88,92.78h2.65v1.55h-4.2v-9.34h1.56v7.79Z"/>
      <path class="cls-5" d="M178.45,86.55v-1.56h6.85v1.56h-2.65v7.79h-1.55v-7.79h-2.65Z"/>
      <path class="cls-5" d="M198.29,94.34v-5.63l-2.26,4.23h-.31l-2.26-4.23v5.63h-1.48v-9.34h1.27l2.62,4.92,2.62-4.92h1.27v9.34h-1.48Z"/>
      <path class="cls-5" d="M204.43,94.34h-1.56v-5.91c0-2.31,1.4-3.59,3.11-3.59s3.12,1.27,3.12,3.59v5.91h-1.55v-3.11h-3.12v3.11ZM207.55,88.43c0-1.37-.71-2.03-1.57-2.03s-1.55.66-1.55,2.03v1.25h3.12v-1.25Z"/>
      <path class="cls-5" d="M216,84.84c1.15,0,2.35.71,3.01,1.79l-.98.87c-.63-.77-1.26-1.11-1.96-1.11-1.23,0-2.3,1.25-2.3,3.28s1.06,3.26,2.3,3.26c.7,0,1.33-.32,1.96-1.11l.98.87c-.66,1.08-1.86,1.79-3.01,1.79-2.35,0-3.94-2.17-3.94-4.82s1.58-4.83,3.94-4.83Z"/>
      <path class="cls-5" d="M224.66,84.84c2.1,0,3.28,2.19,3.28,4.83s-1.18,4.82-3.28,4.82-3.26-2.17-3.26-4.82,1.16-4.83,3.26-4.83ZM224.66,92.94c1.05,0,1.62-1.48,1.62-3.26s-.57-3.28-1.62-3.28-1.61,1.48-1.61,3.28.57,3.26,1.61,3.26Z"/>
      <path class="cls-5" d="M237.12,91.38c0,1.71-1.4,3.11-3.12,3.11-1.43,0-2.58-.94-2.97-2.2l1.47-.52c.17.63.76,1.16,1.5,1.16.85,0,1.55-.7,1.55-1.55s-.7-1.55-1.55-1.55h-1.16v-.48l2.06-2.8h-2.52l-.76,1.25h-.46v-2.8h6.12v.77l-2.05,2.75c1.06.49,1.89,1.53,1.89,2.87Z"/>
    </g>
  </g>
</svg>