<?xml version="1.0" encoding="UTF-8"?>
<svg id="katman_1" data-name="katman 1" xmlns="http://www.w3.org/2000/svg" viewBox="0 0 841.9 595.3">
  <defs>
    <style>
      .cls-1 {
        fill: #3c3c3b;
      }

      .cls-2 {
        font-size: 21px;
      }

      .cls-2, .cls-3, .cls-4 {
        fill: #fff;
      }

      .cls-5 {
        fill: #2d3f3e;
      }

      .cls-6 {
        stroke-width: 1.9px;
      }

      .cls-6, .cls-7, .cls-3, .cls-8, .cls-9, .cls-10, .cls-11 {
        stroke-miterlimit: 10;
      }

      .cls-6, .cls-7, .cls-8, .cls-9, .cls-10, .cls-11 {
        fill: none;
      }

      .cls-6, .cls-9, .cls-10, .cls-11 {
        stroke: #2d3f3d;
      }

      .cls-7 {
        stroke-width: 3px;
      }

      .cls-7, .cls-3, .cls-8 {
        stroke: #2d3f3e;
      }

      .cls-3, .cls-8, .cls-9 {
        stroke-width: 2px;
      }

      .cls-12 {
        fill: #e52629;
      }

      .cls-13 {
        fill: #878787;
      }

      .cls-14 {
        fill: #706f6f;
      }

      .cls-10 {
        stroke-width: 2px;
      }

      .cls-11 {
        stroke-width: 2px;
      }

      .cls-15 {
        fill: #dadada;
        font-size: 14px;
      }
    </style>
  </defs>
  <rect class="cls-7" x="341.6" y="129" width="178.4" height="373"/>
  <g>
    <path class="cls-5" d="M52.1,224.1h-26.8v-18.8h3.6v14h8.1v-12.1h3.6v12.1h11.6v4.7Z"/>
    <path class="cls-5" d="M52.1,200.7h-26.8v-4.7h23.2v-13.7h3.6v18.4Z"/>
    <path class="cls-5" d="M33.2,156.6h10.9c6.3,0,8.4,5.3,8.4,11.4s-2.1,11.4-8.4,11.4h-10.9c-6.3,0-8.4-5.3-8.4-11.4s2.1-11.4,8.4-11.4ZM34.2,174.6h8.9c4.5,0,5.7-2.7,5.7-6.6s-1.2-6.6-5.7-6.6h-8.9c-4.4,0-5.6,2.7-5.6,6.6s1.2,6.6,5.6,6.6Z"/>
    <path class="cls-5" d="M33.2,126.9h10.9c6.3,0,8.4,5.3,8.4,11.4s-2.1,11.4-8.4,11.4h-10.9c-6.3,0-8.4-5.3-8.4-11.4s2.1-11.4,8.4-11.4ZM34.2,145h8.9c4.5,0,5.7-2.7,5.7-6.6s-1.2-6.6-5.7-6.6h-8.9c-4.4,0-5.6,2.7-5.6,6.6s1.2,6.6,5.6,6.6Z"/>
    <path class="cls-5" d="M52.1,101.8l-11.3,6.7v6.9h11.3v4.7h-26.8v-14.1c0-3.9,2.7-6.7,6-6.7h3.7c2.6,0,4.8,1.7,5.6,4.3l11.6-7v5.2ZM32.2,104c-2.2,0-3.3,1.1-3.3,4v7.3h8.3v-7.3c0-2.9-1.1-4-3.3-4h-1.7Z"/>
    <path class="cls-5" d="M43,84.2h-3.6v-13.1h3.6v13.1Z"/>
    <path class="cls-5" d="M48.4,49.1h3.6v19.1h-3.5l-5.6-9.7c-1.2-2-1.9-3.4-4-3.4h-.6c-1.3,0-1.8.5-1.8,2.5s.5,8.8.5,8.8h-3.8s-.5-6.1-.5-9.2.9-6.9,4.2-6.9h2.4c2.1,0,3.7,1.3,5.2,3.9l3.7,6.5h.2v-11.7Z"/>
  </g>
  <rect class="cls-8" x="531.1" y="367.9" width="149.2" height="27.9"/>
  <rect class="cls-9" x="341.4" y="128.6" width="79.5" height="74.2"/>
  <rect class="cls-9" x="172.6" y="29.7" width="351" height="82.8"/>
  <path class="cls-5" d="M746.5,368.6v189.4h-59.4v-189.4h59.4M748.5,366.6h-63.4v193.4h63.4v-193.4h0Z"/>
  <rect class="cls-10" x="341.3" y="203.4" width="79.7" height="74.2"/>
  <rect class="cls-8" x="341.4" y="277.5" width="79.5" height="74.2"/>
  <rect class="cls-6" x="88.6" y="160.8" width="108.8" height="220"/>
  <g>
    <rect class="cls-13" x="339.7" y="529.5" width="83.8" height="30.4"/>
    <rect class="cls-13" x="438.1" y="529.6" width="83.8" height="30.4"/>
    <g>
      <polygon class="cls-5" points="531.5 546.8 531.8 549.1 546 547.2 545.7 544.8 531.5 546.8"/>
      <polygon class="cls-5" points="545.7 541.3 531.5 539.8 531.2 542.2 545.4 543.6 545.7 541.3"/>
      <polygon class="cls-5" points="532.2 535.4 545.8 539.6 546.5 537.4 532.9 533.2 532.2 535.4"/>
      <polygon class="cls-5" points="536.1 527.4 547.3 536.2 548.8 534.4 537.6 525.5 536.1 527.4"/>
      <polygon class="cls-5" points="541.7 521.8 550 533.5 551.9 532.1 543.7 520.5 541.7 521.8"/>
      <polygon class="cls-5" points="548.8 518.3 553.6 531.8 555.8 531 551 517.6 548.8 518.3"/>
      <polygon class="cls-5" points="579.8 535.8 579.2 533.5 565.3 537 565.9 539.2 579.8 535.8"/>
      <polygon class="cls-5" points="566.2 540.4 566.2 542.8 580.5 542.7 580.5 540.3 566.2 540.4"/>
      <polygon class="cls-5" points="565.8 546.7 579.8 549.5 580.3 547.2 566.3 544.4 565.8 546.7"/>
      <polygon class="cls-5" points="563.9 550 576 557.5 577.3 555.6 565.2 548 563.9 550"/>
      <polygon class="cls-5" points="561.1 552.6 570.5 563.2 572.3 561.7 562.8 551 561.1 552.6"/>
      <polygon class="cls-5" points="557.3 554.1 563.5 566.9 565.6 565.9 559.4 553.1 557.3 554.1"/>
    </g>
    <g>
      <path class="cls-12" d="M554.7,543v.4s-.5,0-.5,0v.2s.4,0,.4,0v.4s-.4,0-.4,0v.5s-.5,0-.5,0v-1.6s1,0,1,0Z"/>
      <path class="cls-12" d="M555.3,543v1.5s-.5,0-.5,0v-1.5s.5,0,.5,0Z"/>
      <path class="cls-12" d="M556.2,544.1h0s0,.5,0,.5h-.5s0-1.5,0-1.5h.7s.4,0,.4,0v.8s-.1,0-.1,0l.3.4-.4.2-.3-.5ZM556,543.7h.3s0-.3,0-.3h-.3s0,.3,0,.3Z"/>
      <path class="cls-12" d="M557.9,544.6h-1s0-1.5,0-1.5h0c0,0,.8,0,.8,0v.4s-.5,0-.5,0v.2s.4,0,.4,0v.4s-.4,0-.4,0v.2s.5,0,.5,0v.4Z"/>
      <path class="cls-12" d="M553.9,545.5h-.3s0-.4,0-.4h0s.3,0,.3,0h0c0,.1-.1.1-.1.1h0c0,0,.1,0,.1,0h0c0,.1-.1.1-.1.1h0c0,0,.2,0,.2,0h0Z"/>
      <path class="cls-12" d="M554.1,545.3h0s0,.2,0,.2h-.2s0-.2,0-.2h0s0,0,0,0v-.2s.1,0,.1,0h0c0,.1,0,.2,0,.2h0s0-.1,0-.1h.1s0,.2,0,.2h0s0,0,0,0v.2s-.1,0-.1,0h0c0-.1,0-.2,0-.2Z"/>
      <path class="cls-12" d="M554.7,545.1h-.1s0,.3,0,.3h-.1s0-.3,0-.3h-.1s0-.1,0-.1h.4s0,.1,0,.1Z"/>
      <path class="cls-12" d="M554.9,545v.5s-.1,0-.1,0v-.5s.1,0,.1,0Z"/>
      <path class="cls-12" d="M555.3,545.5h-.1s0-.1,0-.1h-.1c0-.1,0,.1,0,.1h-.1s0-.4,0-.4h.1s.1.1.1.1h0c0-.1.1-.2.1-.2v.5Z"/>
      <path class="cls-12" d="M555.5,545h.3s0,.1,0,.1h-.2v.2h0s0-.1,0-.1h.1s0,.3,0,.3h-.3s0-.4,0-.4h0Z"/>
      <path class="cls-12" d="M556.2,545v.4s0,0,0,0h-.3s0,0,0,0v-.4s.1,0,.1,0v.3s0,0,0,0v-.3s.1,0,.1,0Z"/>
      <path class="cls-12" d="M556.4,545v.5s-.1,0-.1,0v-.5s.1,0,.1,0Z"/>
      <path class="cls-12" d="M556.8,545h0c0,.1-.1.1-.1.1h0s.2.1.2.1v.2s-.3,0-.3,0v-.2s.2,0,.2,0h0s-.2-.1-.2-.1v-.2s.1,0,.1,0h.2Z"/>
      <path class="cls-12" d="M557.1,545.3h0s0,.2,0,.2h-.1v-.5s.1,0,.1,0v.2s0,0,0,0v-.2s.1,0,.1,0v.5s-.1,0-.1,0v-.2Z"/>
      <path class="cls-12" d="M557.6,545.5h-.3s0-.4,0-.4h0s.3,0,.3,0h0c0,.1-.1.1-.1.1h0c0,0,.1,0,.1,0h0c0,.1-.1.1-.1.1h0c0,0,.2,0,.2,0h0Z"/>
      <path class="cls-12" d="M557.8,545.3h0s0,.2,0,.2h-.1s0-.5,0-.5h.2s.1,0,.1,0v.3s0,0,0,0h0c0,.1-.1.2-.1.2v-.2ZM557.8,545.2h0s0-.1,0-.1h0s0,.1,0,.1Z"/>
    </g>
    <path class="cls-12" d="M551.8,548.3l3.9,2.9c0,0,.1,0,.2,0l3.9-2.9c0,0,0-.1,0-.2,0,0,0-.1-.2-.1h-1.7v-1.8c0,0,0-.2-.2-.2h-3.9c0,0-.2,0-.2.2v1.8h-1.7c0,0-.1,0-.2.1,0,0,0,.1,0,.2Z"/>
    <path class="cls-12" d="M562.8,537.8s0,0-.1,0,0,0,0,0l-3.1.7c0,0,0,0-.1,0,0,0,0,0,0,.1h-3.4c0-.1,0-.3,0-.4,0-.3-.1-.6-.3-.8-.2-.2-.5-.3-.8-.3s-.6.1-.8.3c-.2.2-.3.5-.3.8s0,.4.2.6c-.3,0-.5.2-.8.4-.2.2-.4.3-.6.5-.2.2-.3.3-.4.5-.1.2-.2.3-.3.4,0,0,0,.1-.1.2,0,.1,0,.2,0,.3,0,.1.1.2.2.3,0,0,.1,0,.2,0,.2,0,.3,0,.4-.2,0,0,0,0,0-.2,0,0,.1-.2.3-.4.1-.2.3-.3.5-.5.2-.1.4-.3.6-.4.3-.1.5-.2.8-.2h.2v.8c-.5.1-.8.4-1.1.8-.3.4-.4.8-.4,1.3h0c0,0,4.4,0,4.4,0h0c0-.6-.2-1.1-.5-1.5-.3-.4-.8-.7-1.3-.8v-.7h3.1c0,0,0,0,0,.1,0,0,0,0,.1,0l3.1.7s0,0,0,0c0,0,.1,0,.1,0,0,0,0,0,0-.2v-2.2c0,0,0-.1,0-.2ZM555.3,538.5c0,0-.2.1-.3.1s-.2,0-.3-.1c0,0-.1-.2-.1-.3s0-.2.1-.3c0,0,.2-.1.3-.1s.2,0,.3.1c0,0,.1.2.1.3s0,.2-.1.3Z"/>
    <polygon class="cls-5" points="312.5 550.7 312.5 541.2 299.7 541.2 299.7 531.5 286.9 531.5 286.9 521.8 274.2 521.8 274.2 512.1 261.4 512.1 261.4 521.8 261.4 560.3 286.9 560.3 299.7 560.3 312.3 560.3 325.1 560.3 325.1 550.7 312.5 550.7"/>
  </g>
  <g id="tvstudio">
    <rect class="cls-9" x="207.9" y="127.8" width="123.2" height="252.4"/>
    <g>
      <path class="cls-1" d="M220.7,335.5v-2h8.8v2h-3.4v10h-2v-10h-3.4Z"/>
      <path class="cls-1" d="M235.3,345.7h-.4l-4.8-12.2h2.2l2.8,7.3,2.8-7.3h2.2l-4.8,12.2Z"/>
      <path class="cls-1" d="M224.9,367.3c-1.3,0-2.3-.4-3.4-1.3l.2-1.8c1.2.6,2.2,1.1,3.2,1.1s2.1-.5,2.1-1.5c0-2.3-5.7-1.4-5.7-5.4s1.8-3.5,4-3.5,2.3.5,3.5,1.4l-.6,1.6c-.8-.6-1.9-1-2.8-1s-1.9.6-1.9,1.4c0,2.1,5.7,1.6,5.7,5.3s-2.1,3.8-4.2,3.8Z"/>
      <path class="cls-1" d="M231.7,359.7v-2h1.8v-3.4h2v3.4h3v2h-3v3.9c0,1.4.7,2,1.5,2s.8-.1,1.2-.3l.2,1.2c-.5.5-1.2.8-1.9.8-1.7,0-3-1.4-3-3.7v-3.8h-1.8Z"/>
      <path class="cls-1" d="M249.4,367.1l-.8-1.4c-.7,1-1.9,1.6-3.1,1.6-2.1,0-3.7-1.7-3.7-4.5v-5.1h2v5.1c0,1.7.9,2.6,2,2.6s2.2-1,2.2-2.2v-5.5h2v9.4h-.7Z"/>
      <path class="cls-1" d="M261.5,367.1l-.8-1.4c-.8,1-1.8,1.6-3,1.6-2.2,0-4-2.2-4-4.9s1.8-4.9,4-4.9,1.8.4,2.4,1v-5.4h2v14h-.7ZM257.9,359.4c-1.2,0-2.2,1.4-2.2,3s1,3,2.2,3,2.2-1.4,2.2-3-1-3-2.2-3Z"/>
      <path class="cls-1" d="M268.3,354.1c0,.6-.5,1.2-1.2,1.2s-1.2-.5-1.2-1.2.5-1.2,1.2-1.2,1.2.5,1.2,1.2ZM266.1,357.7h2v9.4h-2v-9.4Z"/>
      <path class="cls-1" d="M280.6,362.4c0,2.7-2,4.9-4.5,4.9s-4.5-2.2-4.5-4.9,2-4.9,4.5-4.9,4.5,2.2,4.5,4.9ZM273.7,362.4c0,1.7,1.1,3,2.4,3s2.4-1.4,2.4-3-1.1-3-2.4-3-2.4,1.4-2.4,3Z"/>
    </g>
  </g>
  <g>
    <path class="cls-1" d="M349.4,310.5h3.7v1.2h-2.4v1.5h2.4v1.2h-2.4v2.2h2.4v1.2h-3.7v-7.3Z"/>
    <path class="cls-1" d="M359.2,320.3v-2.9c-.4.4-.9.6-1.5.6-1.4,0-2.5-1.3-2.5-3s1.1-3,2.5-3,1.4.4,1.8,1l.5-.9h.4v8.2h-1.2ZM357.8,313.2c-.7,0-1.3.8-1.3,1.8s.6,1.8,1.3,1.8,1.3-.8,1.3-1.8-.6-1.8-1.3-1.8Z"/>
    <path class="cls-1" d="M367.3,317.9l-.5-.8c-.4.6-1.2,1-1.9,1-1.3,0-2.2-1-2.2-2.7v-3.1h1.2v3.1c0,1,.6,1.6,1.2,1.6s1.4-.6,1.4-1.3v-3.3h1.2v5.7h-.4Z"/>
    <path class="cls-1" d="M371.5,309.9c0,.4-.3.7-.7.7s-.7-.3-.7-.7.3-.7.7-.7.7.3.7.7ZM370.2,312.1h1.2v5.7h-1.2v-5.7Z"/>
    <path class="cls-1" d="M376.6,318c-.6,0-1.1-.2-1.5-.6v2.9h-1.2v-8.2h.4l.5.9c.5-.6,1.1-1,1.8-1,1.4,0,2.5,1.3,2.5,3s-1.1,3-2.5,3ZM376.4,313.2c-.7,0-1.3.8-1.3,1.8s.6,1.8,1.3,1.8,1.3-.8,1.3-1.8-.6-1.8-1.3-1.8Z"/>
    <path class="cls-1" d="M384.9,317.9h-1.2v-3.9c0-.5-.3-.8-.6-.8s-.6.3-.6.7v4h-1.2v-5.7h.4l.3.6c.3-.4.8-.7,1.3-.7s.9.2,1.2.6c.3-.4.7-.6,1.2-.6.9,0,1.7.8,1.7,2v3.9h-1.2v-3.9c0-.5-.3-.8-.6-.8s-.6.3-.6.7v4Z"/>
    <path class="cls-1" d="M392.5,316.9c.6,0,1.2-.4,1.5-.7l.6.8c-.5.6-1.3,1-2.2,1-1.9,0-3-1.3-3-3s1.1-3,2.8-3,2.8,1.4,2.5,3.1h-4c0,.8.5,1.7,1.7,1.7ZM393.5,314.1c0-.6-.4-1-1.2-1s-1.1.2-1.3,1h2.5Z"/>
    <path class="cls-1" d="M400.9,317.9v-3.1c0-1-.6-1.6-1.2-1.6s-1.3.6-1.3,1.4v3.3h-1.2v-5.7h.4l.5.8c.4-.6,1.2-1,1.9-1,1.3,0,2.3,1,2.3,2.7v3.1h-1.2Z"/>
    <path class="cls-1" d="M404.2,313.4v-1.2h1.1v-2.1h1.2v2.1h1.8v1.2h-1.8v2.4c0,.9.4,1.2.9,1.2s.5,0,.7-.2v.7c-.2.3-.6.5-1,.5-1,0-1.8-.9-1.8-2.3v-2.3h-1.1Z"/>
    <path class="cls-1" d="M349.4,323.7h2.6c1.1,0,2,.9,2,2s-.2.9-.4,1.2c.6.4.9,1,.9,1.8,0,1.3-1,2.3-2.3,2.3h-2.7v-7.3ZM350.6,326.4h1.3c.4,0,.7-.3.7-.7s-.3-.7-.7-.7h-1.3v1.5ZM350.6,329.9h1.5c.6,0,1.1-.5,1.1-1.1s-.5-1.1-1.1-1.1h-1.5v2.2Z"/>
    <path class="cls-1" d="M361.9,328.2c0,1.7-1.2,3-2.7,3s-2.7-1.3-2.7-3,1.2-3,2.7-3,2.7,1.3,2.7,3ZM357.7,328.2c0,1,.6,1.8,1.5,1.8s1.5-.8,1.5-1.8-.6-1.8-1.5-1.8-1.5.8-1.5,1.8Z"/>
    <path class="cls-1" d="M365.3,327.8v3.3h-1.2v-5.7h.4l.5.8c.4-.6,1-1,1.8-1s.4,0,.4,0v2.4h-.4l-.6-1.1c-.4.2-.8.7-.8,1.3Z"/>
    <path class="cls-1" d="M370.2,327.8v3.3h-1.2v-5.7h.4l.5.8c.4-.6,1-1,1.8-1s.4,0,.4,0v2.4h-.4l-.6-1.1c-.4.2-.8.7-.8,1.3Z"/>
    <path class="cls-1" d="M379,328.2c0,1.7-1.2,3-2.7,3s-2.7-1.3-2.7-3,1.2-3,2.7-3,2.7,1.3,2.7,3ZM374.8,328.2c0,1,.6,1.8,1.5,1.8s1.5-.8,1.5-1.8-.6-1.8-1.5-1.8-1.5.8-1.5,1.8Z"/>
    <path class="cls-1" d="M387,325.3h1.3l-2.4,5.9h-.4l-1.3-3.1-1.3,3.1h-.4l-2.4-5.9h1.3l1.3,3.2.8-2-.5-1.1h1.3l1.3,3.2,1.3-3.2Z"/>
    <path class="cls-1" d="M391.1,323.1c0,.4-.3.7-.7.7s-.7-.3-.7-.7.3-.7.7-.7.7.3.7.7ZM389.7,325.3h1.2v5.7h-1.2v-5.7Z"/>
    <path class="cls-1" d="M397.2,331.1v-3.1c0-1-.6-1.6-1.2-1.6s-1.3.6-1.3,1.4v3.3h-1.2v-5.7h.4l.5.8c.4-.6,1.2-1,1.9-1,1.3,0,2.3,1,2.3,2.7v3.1h-1.2Z"/>
    <path class="cls-1" d="M403,333.5c-1,0-1.9-.6-2.3-1.2l.7-.7c.5.5.9.8,1.7.8s1.3-.5,1.3-1.6v-.2c-.4.4-.9.6-1.5.6-1.4,0-2.5-1.3-2.5-3s1.1-3,2.5-3,1.4.4,1.8,1l.5-.9h.4v5.4c0,1.8-1.2,2.8-2.6,2.8ZM403.1,326.4c-.7,0-1.3.8-1.3,1.8s.6,1.8,1.3,1.8,1.3-.8,1.3-1.8-.6-1.8-1.3-1.8Z"/>
    <path class="cls-1" d="M351.8,336.8c1.7,0,2.6,1.7,2.6,3.8s-.9,3.8-2.6,3.8-2.6-1.7-2.6-3.8.9-3.8,2.6-3.8ZM351.8,343.2c.8,0,1.3-1.2,1.3-2.6s-.5-2.6-1.3-2.6-1.3,1.2-1.3,2.6.5,2.6,1.3,2.6Z"/>
    <path class="cls-1" d="M360.9,337.1c-.2,0-.6-.2-.9-.2s-.9.3-.9,1.2v.5h1.7v1.2h-1.7v4.5h-1.2v-4.5h-1.3v-1.2h1.3v-.5c0-1.4.8-2.3,1.8-2.3s1.2.2,1.5.4l-.2,1Z"/>
    <path class="cls-1" d="M365.2,339.8v4.5h-1.2v-4.5h-1.3v-1.2h1.3v-.5c0-1.4.8-2.3,1.8-2.3s1.2.2,1.5.4l-.2,1c-.2,0-.6-.2-.9-.2s-.9.3-.9,1.2v.5h5v5.7h-1.2v-4.5h-3.8ZM370.3,336.3c0,.4-.3.7-.7.7s-.7-.3-.7-.7.3-.7.7-.7.7.3.7.7Z"/>
    <path class="cls-1" d="M376.3,340.2c-.3-.4-.8-.6-1.2-.6-.8,0-1.4.8-1.4,1.8s.6,1.8,1.4,1.8,1-.2,1.2-.6l.7.6c-.5.7-1.2,1.1-2.1,1.1-1.5,0-2.6-1.3-2.6-3s1.2-3,2.6-3,1.6.5,2.1,1.1l-.7.6Z"/>
    <path class="cls-1" d="M381.5,343.3c.6,0,1.2-.4,1.5-.7l.6.8c-.5.6-1.3,1-2.2,1-1.9,0-3-1.3-3-3s1.1-3,2.8-3,2.8,1.4,2.5,3.1h-4c0,.8.5,1.7,1.7,1.7ZM382.5,340.5c0-.6-.4-1-1.2-1s-1.1.2-1.3,1h2.5Z"/>
  </g>
  <g>
    <path class="cls-1" d="M349.4,236.3h3.7v1.2h-2.4v1.5h2.4v1.2h-2.4v2.2h2.4v1.2h-3.7v-7.3Z"/>
    <path class="cls-1" d="M359.2,246.1v-2.9c-.4.4-.9.6-1.5.6-1.4,0-2.5-1.3-2.5-3s1.1-3,2.5-3,1.4.4,1.8,1l.5-.9h.4v8.2h-1.2ZM357.9,238.9c-.7,0-1.3.8-1.3,1.8s.6,1.8,1.3,1.8,1.3-.8,1.3-1.8-.6-1.8-1.3-1.8Z"/>
    <path class="cls-1" d="M367.4,243.6l-.5-.8c-.4.6-1.2,1-1.9,1-1.3,0-2.2-1-2.2-2.7v-3.1h1.2v3.1c0,1,.6,1.6,1.2,1.6s1.4-.6,1.4-1.3v-3.3h1.2v5.7h-.4Z"/>
    <path class="cls-1" d="M371.6,235.7c0,.4-.3.7-.7.7s-.7-.3-.7-.7.3-.7.7-.7.7.3.7.7ZM370.2,237.9h1.2v5.7h-1.2v-5.7Z"/>
    <path class="cls-1" d="M376.6,243.8c-.6,0-1.1-.2-1.5-.6v2.9h-1.2v-8.2h.4l.5.9c.5-.6,1.1-1,1.8-1,1.4,0,2.5,1.3,2.5,3s-1.1,3-2.5,3ZM376.4,238.9c-.7,0-1.3.8-1.3,1.8s.6,1.8,1.3,1.8,1.3-.8,1.3-1.8-.6-1.8-1.3-1.8Z"/>
    <path class="cls-1" d="M384.9,243.6h-1.2v-3.9c0-.5-.3-.8-.6-.8s-.6.3-.6.7v4h-1.2v-5.7h.4l.3.6c.3-.4.8-.7,1.3-.7s.9.2,1.2.6c.3-.4.7-.6,1.2-.6.9,0,1.7.8,1.7,2v3.9h-1.2v-3.9c0-.5-.3-.8-.6-.8s-.6.3-.6.7v4Z"/>
    <path class="cls-1" d="M392.5,242.6c.6,0,1.2-.4,1.5-.7l.6.8c-.5.6-1.3,1-2.2,1-1.9,0-3-1.3-3-3s1.1-3,2.8-3,2.8,1.4,2.5,3.1h-4c0,.8.5,1.7,1.7,1.7ZM393.5,239.9c0-.6-.4-1-1.2-1s-1.1.2-1.3,1h2.5Z"/>
    <path class="cls-1" d="M400.9,243.6v-3.1c0-1-.6-1.6-1.2-1.6s-1.3.6-1.3,1.4v3.3h-1.2v-5.7h.4l.5.8c.4-.6,1.2-1,1.9-1,1.3,0,2.3,1,2.3,2.7v3.1h-1.2Z"/>
    <path class="cls-1" d="M404.2,239.1v-1.2h1.1v-2.1h1.2v2.1h1.8v1.2h-1.8v2.4c0,.9.4,1.2.9,1.2s.5,0,.7-.2v.7c-.2.3-.6.5-1,.5-1,0-1.8-.9-1.8-2.3v-2.3h-1.1Z"/>
    <path class="cls-1" d="M349.4,249.5h2.6c1.1,0,2,.9,2,2s-.2.9-.4,1.2c.6.4.9,1,.9,1.8,0,1.3-1,2.3-2.3,2.3h-2.7v-7.3ZM350.6,252.2h1.3c.4,0,.7-.3.7-.7s-.3-.7-.7-.7h-1.3v1.5ZM350.6,255.6h1.5c.6,0,1.1-.5,1.1-1.1s-.5-1.1-1.1-1.1h-1.5v2.2Z"/>
    <path class="cls-1" d="M361.9,254c0,1.7-1.2,3-2.7,3s-2.7-1.3-2.7-3,1.2-3,2.7-3,2.7,1.3,2.7,3ZM357.8,254c0,1,.6,1.8,1.5,1.8s1.5-.8,1.5-1.8-.6-1.8-1.5-1.8-1.5.8-1.5,1.8Z"/>
    <path class="cls-1" d="M365.3,253.5v3.3h-1.2v-5.7h.4l.5.8c.4-.6,1-1,1.8-1s.4,0,.4,0v2.4h-.4l-.6-1.1c-.4.2-.8.7-.8,1.3Z"/>
    <path class="cls-1" d="M370.2,253.5v3.3h-1.2v-5.7h.4l.5.8c.4-.6,1-1,1.8-1s.4,0,.4,0v2.4h-.4l-.6-1.1c-.4.2-.8.7-.8,1.3Z"/>
    <path class="cls-1" d="M379.1,254c0,1.7-1.2,3-2.7,3s-2.7-1.3-2.7-3,1.2-3,2.7-3,2.7,1.3,2.7,3ZM374.9,254c0,1,.6,1.8,1.5,1.8s1.5-.8,1.5-1.8-.6-1.8-1.5-1.8-1.5.8-1.5,1.8Z"/>
    <path class="cls-1" d="M387,251.1h1.3l-2.4,5.9h-.4l-1.3-3.1-1.3,3.1h-.4l-2.4-5.9h1.3l1.3,3.2.8-2-.5-1.1h1.3l1.3,3.2,1.3-3.2Z"/>
    <path class="cls-1" d="M391.1,248.9c0,.4-.3.7-.7.7s-.7-.3-.7-.7.3-.7.7-.7.7.3.7.7ZM389.8,251.1h1.2v5.7h-1.2v-5.7Z"/>
    <path class="cls-1" d="M397.2,256.8v-3.1c0-1-.6-1.6-1.2-1.6s-1.3.6-1.3,1.4v3.3h-1.2v-5.7h.4l.5.8c.4-.6,1.2-1,1.9-1,1.3,0,2.3,1,2.3,2.7v3.1h-1.2Z"/>
    <path class="cls-1" d="M403.1,259.3c-1,0-1.9-.6-2.3-1.2l.7-.7c.5.5.9.8,1.7.8s1.3-.5,1.3-1.6v-.2c-.4.4-.9.6-1.5.6-1.4,0-2.5-1.3-2.5-3s1.1-3,2.5-3,1.4.4,1.8,1l.5-.9h.4v5.4c0,1.8-1.2,2.8-2.6,2.8ZM403.1,252.1c-.7,0-1.3.8-1.3,1.8s.6,1.8,1.3,1.8,1.3-.8,1.3-1.8-.6-1.8-1.3-1.8Z"/>
    <path class="cls-1" d="M351.9,262.6c1.7,0,2.6,1.7,2.6,3.8s-.9,3.8-2.6,3.8-2.6-1.7-2.6-3.8.9-3.8,2.6-3.8ZM351.9,268.9c.8,0,1.3-1.2,1.3-2.6s-.5-2.6-1.3-2.6-1.3,1.2-1.3,2.6.5,2.6,1.3,2.6Z"/>
    <path class="cls-1" d="M360.9,262.8c-.2,0-.6-.2-.9-.2s-.9.3-.9,1.2v.5h1.7v1.2h-1.7v4.5h-1.2v-4.5h-1.3v-1.2h1.3v-.5c0-1.4.8-2.3,1.8-2.3s1.2.2,1.5.4l-.2,1Z"/>
    <path class="cls-1" d="M365.2,265.5v4.5h-1.2v-4.5h-1.3v-1.2h1.3v-.5c0-1.4.8-2.3,1.8-2.3s1.2.2,1.5.4l-.2,1c-.2,0-.6-.2-.9-.2s-.9.3-.9,1.2v.5h5v5.7h-1.2v-4.5h-3.8ZM370.3,262.1c0,.4-.3.7-.7.7s-.7-.3-.7-.7.3-.7.7-.7.7.3.7.7Z"/>
    <path class="cls-1" d="M376.3,265.9c-.3-.4-.8-.6-1.2-.6-.8,0-1.4.8-1.4,1.8s.6,1.8,1.4,1.8,1-.2,1.2-.6l.7.6c-.5.7-1.2,1.1-2.1,1.1-1.5,0-2.6-1.3-2.6-3s1.2-3,2.6-3,1.6.5,2.1,1.1l-.7.6Z"/>
    <path class="cls-1" d="M381.5,269c.6,0,1.2-.4,1.5-.7l.6.8c-.5.6-1.3,1-2.2,1-1.9,0-3-1.3-3-3s1.1-3,2.8-3,2.8,1.4,2.5,3.1h-4c0,.8.5,1.7,1.7,1.7ZM382.5,266.3c0-.6-.4-1-1.2-1s-1.1.2-1.3,1h2.5Z"/>
  </g>
  <g>
    <path class="cls-1" d="M349.4,161.7h3.7v1.2h-2.4v1.5h2.4v1.2h-2.4v2.2h2.4v1.2h-3.7v-7.3Z"/>
    <path class="cls-1" d="M359.2,171.5v-2.9c-.4.4-.9.6-1.5.6-1.4,0-2.5-1.3-2.5-3s1.1-3,2.5-3,1.4.4,1.8,1l.5-.9h.4v8.2h-1.2ZM357.9,164.3c-.7,0-1.3.8-1.3,1.8s.6,1.8,1.3,1.8,1.3-.8,1.3-1.8-.6-1.8-1.3-1.8Z"/>
    <path class="cls-1" d="M367.4,169l-.5-.8c-.4.6-1.2,1-1.9,1-1.3,0-2.2-1-2.2-2.7v-3.1h1.2v3.1c0,1,.6,1.6,1.2,1.6s1.4-.6,1.4-1.3v-3.3h1.2v5.7h-.4Z"/>
    <path class="cls-1" d="M371.6,161.1c0,.4-.3.7-.7.7s-.7-.3-.7-.7.3-.7.7-.7.7.3.7.7ZM370.2,163.3h1.2v5.7h-1.2v-5.7Z"/>
    <path class="cls-1" d="M376.6,169.1c-.6,0-1.1-.2-1.5-.6v2.9h-1.2v-8.2h.4l.5.9c.5-.6,1.1-1,1.8-1,1.4,0,2.5,1.3,2.5,3s-1.1,3-2.5,3ZM376.4,164.3c-.7,0-1.3.8-1.3,1.8s.6,1.8,1.3,1.8,1.3-.8,1.3-1.8-.6-1.8-1.3-1.8Z"/>
    <path class="cls-1" d="M384.9,169h-1.2v-3.9c0-.5-.3-.8-.6-.8s-.6.3-.6.7v4h-1.2v-5.7h.4l.3.6c.3-.4.8-.7,1.3-.7s.9.2,1.2.6c.3-.4.7-.6,1.2-.6.9,0,1.7.8,1.7,2v3.9h-1.2v-3.9c0-.5-.3-.8-.6-.8s-.6.3-.6.7v4Z"/>
    <path class="cls-1" d="M392.5,168c.6,0,1.2-.4,1.5-.7l.6.8c-.5.6-1.3,1-2.2,1-1.9,0-3-1.3-3-3s1.1-3,2.8-3,2.8,1.4,2.5,3.1h-4c0,.8.5,1.7,1.7,1.7ZM393.5,165.3c0-.6-.4-1-1.2-1s-1.1.2-1.3,1h2.5Z"/>
    <path class="cls-1" d="M400.9,169v-3.1c0-1-.6-1.6-1.2-1.6s-1.3.6-1.3,1.4v3.3h-1.2v-5.7h.4l.5.8c.4-.6,1.2-1,1.9-1,1.3,0,2.3,1,2.3,2.7v3.1h-1.2Z"/>
    <path class="cls-1" d="M404.2,164.5v-1.2h1.1v-2.1h1.2v2.1h1.8v1.2h-1.8v2.4c0,.9.4,1.2.9,1.2s.5,0,.7-.2v.7c-.2.3-.6.5-1,.5-1,0-1.8-.9-1.8-2.3v-2.3h-1.1Z"/>
    <path class="cls-1" d="M349.4,174.9h2.6c1.1,0,2,.9,2,2s-.2.9-.4,1.2c.6.4.9,1,.9,1.8,0,1.3-1,2.3-2.3,2.3h-2.7v-7.3ZM350.7,177.6h1.3c.4,0,.7-.3.7-.7s-.3-.7-.7-.7h-1.3v1.5ZM350.7,181h1.5c.6,0,1.1-.5,1.1-1.1s-.5-1.1-1.1-1.1h-1.5v2.2Z"/>
    <path class="cls-1" d="M362,179.3c0,1.7-1.2,3-2.7,3s-2.7-1.3-2.7-3,1.2-3,2.7-3,2.7,1.3,2.7,3ZM357.8,179.3c0,1,.6,1.8,1.5,1.8s1.5-.8,1.5-1.8-.6-1.8-1.5-1.8-1.5.8-1.5,1.8Z"/>
    <path class="cls-1" d="M365.3,178.9v3.3h-1.2v-5.7h.4l.5.8c.4-.6,1-1,1.8-1s.4,0,.4,0v2.4h-.4l-.6-1.1c-.4.2-.8.7-.8,1.3Z"/>
    <path class="cls-1" d="M370.2,178.9v3.3h-1.2v-5.7h.4l.5.8c.4-.6,1-1,1.8-1s.4,0,.4,0v2.4h-.4l-.6-1.1c-.4.2-.8.7-.8,1.3Z"/>
    <path class="cls-1" d="M379.1,179.3c0,1.7-1.2,3-2.7,3s-2.7-1.3-2.7-3,1.2-3,2.7-3,2.7,1.3,2.7,3ZM374.9,179.3c0,1,.6,1.8,1.5,1.8s1.5-.8,1.5-1.8-.6-1.8-1.5-1.8-1.5.8-1.5,1.8Z"/>
    <path class="cls-1" d="M387,176.5h1.3l-2.4,5.9h-.4l-1.3-3.1-1.3,3.1h-.4l-2.4-5.9h1.3l1.3,3.2.8-2-.5-1.1h1.3l1.3,3.2,1.3-3.2Z"/>
    <path class="cls-1" d="M391.1,174.3c0,.4-.3.7-.7.7s-.7-.3-.7-.7.3-.7.7-.7.7.3.7.7ZM389.8,176.5h1.2v5.7h-1.2v-5.7Z"/>
    <path class="cls-1" d="M397.2,182.2v-3.1c0-1-.6-1.6-1.2-1.6s-1.3.6-1.3,1.4v3.3h-1.2v-5.7h.4l.5.8c.4-.6,1.2-1,1.9-1,1.3,0,2.3,1,2.3,2.7v3.1h-1.2Z"/>
    <path class="cls-1" d="M403.1,184.7c-1,0-1.9-.6-2.3-1.2l.7-.7c.5.5.9.8,1.7.8s1.3-.5,1.3-1.6v-.2c-.4.4-.9.6-1.5.6-1.4,0-2.5-1.3-2.5-3s1.1-3,2.5-3,1.4.4,1.8,1l.5-.9h.4v5.4c0,1.8-1.2,2.8-2.6,2.8ZM403.1,177.5c-.7,0-1.3.8-1.3,1.8s.6,1.8,1.3,1.8,1.3-.8,1.3-1.8-.6-1.8-1.3-1.8Z"/>
    <path class="cls-1" d="M351.9,187.9c1.7,0,2.6,1.7,2.6,3.8s-.9,3.8-2.6,3.8-2.6-1.7-2.6-3.8.9-3.8,2.6-3.8ZM351.9,194.3c.8,0,1.3-1.2,1.3-2.6s-.5-2.6-1.3-2.6-1.3,1.2-1.3,2.6.5,2.6,1.3,2.6Z"/>
    <path class="cls-1" d="M360.9,188.2c-.2,0-.6-.2-.9-.2s-.9.3-.9,1.2v.5h1.7v1.2h-1.7v4.5h-1.2v-4.5h-1.3v-1.2h1.3v-.5c0-1.4.8-2.3,1.8-2.3s1.2.2,1.5.4l-.2,1Z"/>
    <path class="cls-1" d="M365.2,190.9v4.5h-1.2v-4.5h-1.3v-1.2h1.3v-.5c0-1.4.8-2.3,1.8-2.3s1.2.2,1.5.4l-.2,1c-.2,0-.6-.2-.9-.2s-.9.3-.9,1.2v.5h5v5.7h-1.2v-4.5h-3.8ZM370.3,187.5c0,.4-.3.7-.7.7s-.7-.3-.7-.7.3-.7.7-.7.7.3.7.7Z"/>
    <path class="cls-1" d="M376.3,191.3c-.3-.4-.8-.6-1.2-.6-.8,0-1.4.8-1.4,1.8s.6,1.8,1.4,1.8,1-.2,1.2-.6l.7.6c-.5.7-1.2,1.1-2.1,1.1-1.5,0-2.6-1.3-2.6-3s1.2-3,2.6-3,1.6.5,2.1,1.1l-.7.6Z"/>
    <path class="cls-1" d="M381.5,194.4c.6,0,1.2-.4,1.5-.7l.6.8c-.5.6-1.3,1-2.2,1-1.9,0-3-1.3-3-3s1.1-3,2.8-3,2.8,1.4,2.5,3.1h-4c0,.8.5,1.7,1.7,1.7ZM382.5,191.7c0-.6-.4-1-1.2-1s-1.1.2-1.3,1h2.5Z"/>
  </g>
  <g id="gltedit1">
    <rect class="cls-8" x="532.4" y="309" width="71" height="47.9"/>
    <g>
      <path class="cls-14" d="M579.5,329.5h-1.6v-1.6h3.1v4.7h-.5l-.3-.6c-.6.5-1.3.7-2,.7-2.3,0-3.8-2.2-3.8-4.8s1.5-4.8,3.8-4.8,2.3.7,2.9,1.8l-.9.9c-.6-.8-1.2-1.1-1.9-1.1-1.2,0-2.2,1.2-2.2,3.3s1,3.3,2.2,3.3.7-.1,1.1-.4v-1.3Z"/>
      <path class="cls-14" d="M585.6,331.1h2.6v1.6h-4.2v-9.3h1.6v7.8Z"/>
      <path class="cls-14" d="M589.1,324.9v-1.6h6.8v1.6h-2.6v7.8h-1.6v-7.8h-2.6Z"/>
      <path class="cls-14" d="M551.3,340.1h4.7v1.6h-3.1v1.9h3.1v1.6h-3.1v2.8h3.1v1.6h-4.7v-9.3Z"/>
      <path class="cls-14" d="M559.1,340.1h2.2c2.3,0,4.2,2.1,4.2,4.7s-1.9,4.7-4.2,4.7h-2.2v-9.3ZM560.7,347.9h.6c1.4,0,2.5-1.4,2.5-3.1s-1.1-3.1-2.5-3.1h-.6v6.2Z"/>
      <path class="cls-14" d="M570,341.7h-1.6v-1.6h4.7v1.6h-1.6v6.2h1.6v1.6h-4.7v-1.6h1.6v-6.2Z"/>
      <path class="cls-14" d="M575.1,341.7v-1.6h6.8v1.6h-2.6v7.8h-1.6v-7.8h-2.6Z"/>
      <path class="cls-14" d="M591,343.1l-1.7.6-.4-.6,3.1-3.1h.5v7.9h1.6v1.6h-4.7v-1.6h1.6v-4.8Z"/>
    </g>
    <rect class="cls-3" x="586.7" y="300" width="7.6" height="25.7" transform="translate(903.4 -277.7) rotate(90)"/>
  </g>
  <g id="gltedit2">
    <rect class="cls-8" x="608.2" y="309" width="71" height="47.9"/>
    <g>
      <path class="cls-14" d="M655.3,329.6h-1.6v-1.6h3.1v4.7h-.5l-.3-.6c-.6.5-1.3.7-2,.7-2.3,0-3.8-2.2-3.8-4.8s1.5-4.8,3.8-4.8,2.3.7,2.9,1.8l-.9.9c-.6-.8-1.2-1.1-1.9-1.1-1.2,0-2.2,1.2-2.2,3.3s1,3.3,2.2,3.3.7-.1,1.1-.4v-1.3Z"/>
      <path class="cls-14" d="M661.3,331.2h2.6v1.6h-4.2v-9.3h1.6v7.8Z"/>
      <path class="cls-14" d="M664.9,324.9v-1.6h6.8v1.6h-2.6v7.8h-1.6v-7.8h-2.6Z"/>
      <path class="cls-14" d="M627.1,340.2h4.7v1.6h-3.1v1.9h3.1v1.6h-3.1v2.8h3.1v1.6h-4.7v-9.3Z"/>
      <path class="cls-14" d="M634.9,340.2h2.2c2.3,0,4.2,2.1,4.2,4.7s-1.9,4.7-4.2,4.7h-2.2v-9.3ZM636.4,348h.6c1.4,0,2.5-1.4,2.5-3.1s-1.1-3.1-2.5-3.1h-.6v6.2Z"/>
      <path class="cls-14" d="M645.8,341.7h-1.6v-1.6h4.7v1.6h-1.6v6.2h1.6v1.6h-4.7v-1.6h1.6v-6.2Z"/>
      <path class="cls-14" d="M650.9,341.7v-1.6h6.8v1.6h-2.6v7.8h-1.6v-7.8h-2.6Z"/>
      <path class="cls-14" d="M669.1,343.1c0-.9-.7-1.6-1.6-1.6s-1.6.7-1.6,1.6v.8h-1.6v-.8c0-1.7,1.4-3.1,3.1-3.1s3.1,1.4,3.1,3.1-.6,2.1-1.5,2.9l-2,1.9h3.5v1.6h-6.2v-.6l3.3-3.5c.5-.5,1.3-1.4,1.3-2.3Z"/>
    </g>
    <rect class="cls-3" x="617.2" y="300" width="7.6" height="25.7" transform="translate(933.8 -308.2) rotate(90)"/>
  </g>
  <g id="gltedit3">
    <rect class="cls-8" x="684.6" y="254.8" width="63.9" height="102.2"/>
    <g>
      <path class="cls-14" d="M724.9,329.5h-1.6v-1.6h3.1v4.7h-.5l-.3-.6c-.6.5-1.3.7-2,.7-2.3,0-3.8-2.2-3.8-4.8s1.5-4.8,3.8-4.8,2.3.7,2.9,1.8l-.9.9c-.6-.8-1.2-1.1-1.9-1.1-1.2,0-2.2,1.2-2.2,3.3s1,3.3,2.2,3.3.7-.1,1.1-.4v-1.3Z"/>
      <path class="cls-14" d="M730.9,331h2.6v1.6h-4.2v-9.3h1.6v7.8Z"/>
      <path class="cls-14" d="M734.5,324.8v-1.6h6.8v1.6h-2.6v7.8h-1.6v-7.8h-2.6Z"/>
      <path class="cls-14" d="M696.7,340h4.7v1.6h-3.1v1.9h3.1v1.6h-3.1v2.8h3.1v1.6h-4.7v-9.3Z"/>
      <path class="cls-14" d="M704.5,340h2.2c2.3,0,4.2,2.1,4.2,4.7s-1.9,4.7-4.2,4.7h-2.2v-9.3ZM706,347.8h.6c1.4,0,2.5-1.4,2.5-3.1s-1.1-3.1-2.5-3.1h-.6v6.2Z"/>
      <path class="cls-14" d="M715.4,341.6h-1.6v-1.6h4.7v1.6h-1.6v6.2h1.6v1.6h-4.7v-1.6h1.6v-6.2Z"/>
      <path class="cls-14" d="M720.5,341.6v-1.6h6.8v1.6h-2.6v7.8h-1.6v-7.8h-2.6Z"/>
      <path class="cls-14" d="M740.3,346.4c0,1.7-1.4,3.1-3.1,3.1s-2.6-.9-3-2.2l1.5-.5c.2.6.8,1.2,1.5,1.2s1.6-.7,1.6-1.6-.7-1.6-1.6-1.6h-1.2v-.5l2.1-2.8h-2.5l-.8,1.2h-.5v-2.8h6.1v.8l-2,2.7c1.1.5,1.9,1.5,1.9,2.9Z"/>
    </g>
    <rect class="cls-3" x="684.6" y="254.8" width="7.6" height="25.7" transform="translate(1376.8 535.3) rotate(180)"/>
  </g>
  <g id="gltmovie">
    <rect class="cls-8" x="529.8" y="60.3" width="218.7" height="174.5"/>
    <g>
      <path class="cls-14" d="M609.8,149.1h-1.6v-1.6h3.1v4.7h-.5l-.3-.6c-.6.5-1.3.7-2,.7-2.3,0-3.8-2.2-3.8-4.8s1.5-4.8,3.8-4.8,2.3.7,2.9,1.8l-.9.9c-.6-.8-1.2-1.1-1.9-1.1-1.2,0-2.2,1.2-2.2,3.3s1,3.3,2.2,3.3.7-.1,1.1-.4v-1.3Z"/>
      <path class="cls-14" d="M615.9,150.7h2.6v1.6h-4.2v-9.3h1.6v7.8Z"/>
      <path class="cls-14" d="M619.5,144.4v-1.6h6.8v1.6h-2.6v7.8h-1.6v-7.8h-2.6Z"/>
      <path class="cls-14" d="M639.3,152.2v-5.6l-2.3,4.2h-.3l-2.3-4.2v5.6h-1.5v-9.3h1.3l2.6,4.9,2.6-4.9h1.3v9.3h-1.5Z"/>
      <path class="cls-14" d="M647,142.7c2.1,0,3.3,2.2,3.3,4.8s-1.2,4.8-3.3,4.8-3.3-2.2-3.3-4.8,1.2-4.8,3.3-4.8ZM647,150.8c1.1,0,1.6-1.5,1.6-3.3s-.6-3.3-1.6-3.3-1.6,1.5-1.6,3.3.6,3.3,1.6,3.3Z"/>
      <path class="cls-14" d="M655.7,152.4h-.3l-3.7-9.5h1.7l2.2,5.6,2.2-5.6h1.7l-3.7,9.5Z"/>
      <path class="cls-14" d="M662.6,144.4h-1.6v-1.6h4.7v1.6h-1.6v6.2h1.6v1.6h-4.7v-1.6h1.6v-6.2Z"/>
      <path class="cls-14" d="M668.8,142.9h4.7v1.6h-3.1v1.9h3.1v1.6h-3.1v2.8h3.1v1.6h-4.7v-9.3Z"/>
    </g>
    <rect class="cls-3" x="529.8" y="209" width="7.6" height="25.7" transform="translate(1067.3 443.8) rotate(180)"/>
  </g>
  <rect class="cls-4" x="517.2" y="254.8" width="7.6" height="25.7" transform="translate(1042.1 535.3) rotate(180)"/>
  <g id="gltdark">
    <g id="gltdark-2" data-name="gltdark">
      <rect class="cls-5" x="613.6" y="484.7" width="62.2" height="75.3"/>
      <rect class="cls-5" x="530.4" y="429" width="145.4" height="74.5"/>
    </g>
    <text class="cls-2" transform="translate(539.9 491.3)"><tspan x="0" y="0">Darkroom</tspan></text>
    <text class="cls-15" transform="translate(604.2 450.2)"><tspan x="0" y="0">GLTDARK</tspan></text>
    <g>
      <rect class="cls-5" x="542.6" y="428" width="27.7" height="9.6"/>
      <path class="cls-4" d="M569.3,429v7.6h-25.7v-7.6h25.7M571.3,427h-29.7v11.6h29.7v-11.6h0Z"/>
    </g>
  </g>
  <rect class="cls-4" x="516.3" y="398.6" width="7.6" height="25.7" transform="translate(1040.2 822.9) rotate(180)"/>
  <rect class="cls-3" x="412.3" y="203.5" width="7.6" height="25.7" transform="translate(832.2 432.7) rotate(180)"/>
  <rect class="cls-3" x="413.2" y="130.1" width="7.6" height="25.7" transform="translate(834.1 285.9) rotate(180)"/>
  <rect class="cls-3" x="413.3" y="277.7" width="7.6" height="25.7" transform="translate(834.3 581) rotate(180)"/>
  <rect class="cls-3" x="551.9" y="379" width="7.6" height="25.7" transform="translate(947.7 -163.9) rotate(90)"/>
  <rect class="cls-3" x="323.5" y="354.2" width="7.6" height="25.7" transform="translate(654.7 734.1) rotate(180)"/>
  <g id="gltfocus">
    <g id="gltfocus-2" data-name="gltfocus">
      <rect class="cls-11" x="73.4" y="392.5" width="123.4" height="166.3"/>
      <g>
        <path class="cls-14" d="M91.2,525.9h-1.6v-1.6h3.1v4.7h-.5l-.3-.6c-.6.5-1.3.7-2,.7-2.3,0-3.8-2.2-3.8-4.8s1.5-4.8,3.8-4.8,2.3.7,2.9,1.8l-.9.9c-.6-.8-1.2-1.1-1.9-1.1-1.2,0-2.2,1.2-2.2,3.3s1,3.3,2.2,3.3.7-.1,1.1-.4v-1.3Z"/>
        <path class="cls-14" d="M97.3,527.4h2.6v1.6h-4.2v-9.3h1.6v7.8Z"/>
        <path class="cls-14" d="M100.9,521.2v-1.6h6.8v1.6h-2.6v7.8h-1.6v-7.8h-2.6Z"/>
        <path class="cls-14" d="M86.4,536.5h5v1.6h-3.4v1.9h3.4v1.6h-3.4v4.4h-1.6v-9.3Z"/>
        <path class="cls-14" d="M97.3,536.3c2.1,0,3.3,2.2,3.3,4.8s-1.2,4.8-3.3,4.8-3.3-2.2-3.3-4.8,1.2-4.8,3.3-4.8ZM97.3,544.4c1.1,0,1.6-1.5,1.6-3.3s-.6-3.3-1.6-3.3-1.6,1.5-1.6,3.3.6,3.3,1.6,3.3Z"/>
        <path class="cls-14" d="M107.3,536.3c1.1,0,2.4.7,3,1.8l-1,.9c-.6-.8-1.3-1.1-2-1.1-1.2,0-2.3,1.2-2.3,3.3s1.1,3.3,2.3,3.3,1.3-.3,2-1.1l1,.9c-.7,1.1-1.9,1.8-3,1.8-2.4,0-3.9-2.2-3.9-4.8s1.6-4.8,3.9-4.8Z"/>
        <path class="cls-14" d="M114.4,536.5v5.9c0,1.4.7,2,1.6,2s1.6-.7,1.6-2v-5.9h1.6v5.9c0,2.3-1.4,3.6-3.1,3.6s-3.1-1.3-3.1-3.6v-5.9h1.6Z"/>
        <path class="cls-14" d="M124.3,545.9c-1,0-1.8-.3-2.6-1l.2-1.4c.9.5,1.7.8,2.5.8s1.6-.4,1.6-1.1c0-1.8-4.4-1.1-4.4-4.2s1.4-2.7,3.1-2.7,1.8.4,2.7,1.1l-.5,1.2c-.7-.4-1.4-.8-2.2-.8s-1.5.5-1.5,1.1c0,1.7,4.4,1.2,4.4,4.1s-1.6,2.9-3.3,2.9Z"/>
      </g>
    </g>
    <rect class="cls-3" x="189.1" y="488.3" width="7.6" height="25.7" transform="translate(385.9 1002.3) rotate(180)"/>
  </g>
  <rect class="cls-8" x="196.8" y="488.3" width="39.7" height="34.6" transform="translate(433.2 1011.2) rotate(180)"/>
  <g id="gltcep">
    <rect class="cls-9" x="210.7" y="392.5" width="123.4" height="95.7"/>
    <g>
      <path class="cls-14" d="M251.4,441.9h-1.6v-1.6h3.1v4.7h-.5l-.3-.6c-.6.5-1.3.7-2,.7-2.3,0-3.8-2.2-3.8-4.8s1.5-4.8,3.8-4.8,2.3.7,2.9,1.8l-.9.9c-.6-.8-1.2-1.1-1.9-1.1-1.2,0-2.2,1.2-2.2,3.3s1,3.3,2.2,3.3.7-.1,1.1-.4v-1.3Z"/>
      <path class="cls-14" d="M257.5,443.5h2.6v1.6h-4.2v-9.3h1.6v7.8Z"/>
      <path class="cls-14" d="M261,437.2v-1.6h6.8v1.6h-2.6v7.8h-1.6v-7.8h-2.6Z"/>
      <path class="cls-14" d="M278.4,435.5c1.1,0,2.4.7,3,1.8l-1,.9c-.6-.8-1.3-1.1-2-1.1-1.2,0-2.3,1.2-2.3,3.3s1.1,3.3,2.3,3.3,1.3-.3,2-1.1l1,.9c-.7,1.1-1.9,1.8-3,1.8-2.4,0-3.9-2.2-3.9-4.8s1.6-4.8,3.9-4.8Z"/>
      <path class="cls-14" d="M283.9,435.7h4.7v1.6h-3.1v1.9h3.1v1.6h-3.1v2.8h3.1v1.6h-4.7v-9.3Z"/>
      <path class="cls-14" d="M298.2,438.8c0,1.7-1.4,3.1-3.1,3.1h-1.9v3.1h-1.6v-9.3h3.4c1.7,0,3.1,1.4,3.1,3.1ZM296.7,438.8c0-.9-.7-1.6-1.6-1.6h-1.9v3.1h1.9c.9,0,1.6-.7,1.6-1.6Z"/>
    </g>
    <rect class="cls-3" x="326.4" y="403.3" width="7.6" height="25.7" transform="translate(660.4 832.3) rotate(180)"/>
    <rect class="cls-3" x="219.8" y="471.5" width="7.6" height="25.7" transform="translate(-260.8 707.9) rotate(-90)"/>
  </g>
  <rect class="cls-3" x="189.7" y="355.1" width="7.6" height="25.7" transform="translate(387 735.8) rotate(180)"/>
</svg>