<?xml version="1.0" encoding="UTF-8"?>
<svg id="katman_1" data-name="katman 1" xmlns="http://www.w3.org/2000/svg" viewBox="0 0 645.11 529.87">
  <defs>
    <style>
      .cls-1 {
        font-size: 22.18px;
      }

      .cls-1, .cls-2, .cls-3, .cls-4 {
        fill: #fff;
      }

      .cls-2 {
        font-size: 22.54px;
      }

      .cls-5 {
        fill: #888989;
        font-size: 18px;
      }

      .cls-6 {
        fill: #f4f4f4;
      }

      .cls-7 {
        fill: #e52629;
      }

      .cls-8, .cls-9 {
        fill: none;
      }

      .cls-8, .cls-9, .cls-4 {
        stroke: #a5d8dc;
        stroke-miterlimit: 10;
      }

      .cls-8, .cls-4 {
        stroke-width: 2px;
      }

      .cls-9 {
        stroke-width: 2.01px;
      }

      .cls-10 {
        fill: #878787;
      }

      .cls-11 {
        fill: #a5d8dc;
      }
    </style>
  </defs>
  <path class="cls-11" d="M470.89,112.42v336.15h-175.89V112.42h175.89M472.91,110.4h-179.93v340.19h179.93V110.4h0Z"/>
  <g>
    <path class="cls-11" d="M27.44,180.75H.44v-18.89h3.64v14.12h8.11v-12.16h3.6v12.16h11.66v4.77Z"/>
    <path class="cls-11" d="M27.44,157.23H.44v-4.77h23.33v-13.75h3.68v18.52Z"/>
    <path class="cls-11" d="M8.43,112.75h11.03c6.31,0,8.43,5.33,8.43,11.46s-2.12,11.46-8.43,11.46h-11.03c-6.31,0-8.43-5.38-8.43-11.46s2.12-11.46,8.43-11.46ZM9.43,130.9h8.99c4.51,0,5.71-2.76,5.71-6.69s-1.2-6.69-5.71-6.69h-8.99c-4.47,0-5.67,2.76-5.67,6.69s1.2,6.69,5.67,6.69Z"/>
    <path class="cls-11" d="M8.43,82.91h11.03c6.31,0,8.43,5.33,8.43,11.46s-2.12,11.46-8.43,11.46h-11.03c-6.31,0-8.43-5.38-8.43-11.46s2.12-11.46,8.43-11.46ZM9.43,101.06h8.99c4.51,0,5.71-2.76,5.71-6.69s-1.2-6.69-5.71-6.69h-8.99c-4.47,0-5.67,2.76-5.67,6.69s1.2,6.69,5.67,6.69Z"/>
    <path class="cls-11" d="M27.44,57.57l-11.35,6.73v6.92h11.35v4.77H.44v-14.22c0-3.88,2.68-6.73,5.99-6.73h3.67c2.6,0,4.79,1.73,5.63,4.35l11.7-7.02v5.19ZM7.39,59.81c-2.24,0-3.32,1.12-3.32,4.07v7.34h8.39v-7.34c0-2.95-1.08-4.07-3.32-4.07h-1.76Z"/>
    <path class="cls-11" d="M35.51,39.28l-23.37-12.58v14.5h-3.64v-19.74h3.08l23.93,12.44v5.38Z"/>
  </g>
  <rect class="cls-8" x="485.39" y="21.52" width="92.64" height="75.32"/>
  <rect class="cls-9" x="292.98" y="1.01" width="178.97" height="95.83"/>
  <text class="cls-2" transform="translate(499.56 224.51)"><tspan x="0" y="0">GLT ANIM.</tspan></text>
  <text class="cls-1" transform="translate(364.48 63.23)"><tspan x="0" y="0">GLT601</tspan></text>
  <g id="glt701">
    <rect class="cls-11" x="484.75" y="344.4" width="160.36" height="106.19"/>
    <g>
      <path class="cls-3" d="M524.94,400.44h-2.97v-2.92h5.9v8.77h-.9l-.61-1.08c-1.09.87-2.41,1.37-3.71,1.37-4.26,0-7.15-4.08-7.15-9.06s2.89-9.09,7.15-9.09c2.09,0,4.26,1.34,5.45,3.37l-1.75,1.63c-1.14-1.45-2.28-2.08-3.52-2.08-2.22,0-4.1,2.34-4.1,6.16s1.88,6.14,4.1,6.14c.72,0,1.4-.21,2.09-.68v-2.53Z"/>
      <path class="cls-3" d="M536.4,403.36h5v2.92h-7.94v-17.57h2.94v14.65Z"/>
      <path class="cls-3" d="M543.15,391.64v-2.92h12.95v2.92h-5v14.64h-2.94v-14.64h-5Z"/>
      <path class="cls-3" d="M567.87,391.64v-2.92h12.65v1.42l-8.07,16.15h-3.12l7.31-14.64h-8.76Z"/>
      <path class="cls-3" d="M592.28,388.42c3.97,0,6.19,4.11,6.19,9.09s-2.22,9.06-6.19,9.06-6.17-4.08-6.17-9.06,2.2-9.09,6.17-9.09ZM592.28,403.65c1.99,0,3.07-2.79,3.07-6.14s-1.09-6.16-3.07-6.16-3.04,2.79-3.04,6.16,1.09,6.14,3.04,6.14Z"/>
      <path class="cls-3" d="M608.48,394.35l-3.2,1.19-.66-1.21,5.93-5.9h.87v14.93h2.94v2.92h-8.82v-2.92h2.94v-9.01Z"/>
    </g>
  </g>
  <g id="glt702">
    <rect class="cls-11" x="484.75" y="230.42" width="160.36" height="107.77"/>
  </g>
  <g id="glt703">
    <rect class="cls-11" x="484.75" y="114.43" width="160.36" height="110.33"/>
  </g>
  <g>
    <path class="cls-3" d="M520.38,168.74h-2.69v-2.67h5.35v7.99h-.82l-.55-.98c-.98.79-2.18,1.25-3.36,1.25-3.86,0-6.48-3.72-6.48-8.26s2.62-8.28,6.48-8.28c1.9,0,3.86,1.22,4.94,3.07l-1.58,1.49c-1.03-1.32-2.06-1.9-3.19-1.9-2.02,0-3.72,2.14-3.72,5.62s1.7,5.59,3.72,5.59c.65,0,1.27-.19,1.9-.62v-2.3Z"/>
    <path class="cls-3" d="M530.77,171.4h4.54v2.66h-7.2v-16.01h2.66v13.35Z"/>
    <path class="cls-3" d="M536.89,160.72v-2.67h11.74v2.67h-4.54v13.34h-2.67v-13.34h-4.54Z"/>
    <path class="cls-3" d="M559.31,160.72v-2.67h11.47v1.3l-7.32,14.71h-2.83l6.62-13.34h-7.94Z"/>
    <path class="cls-3" d="M581.44,157.79c3.6,0,5.62,3.74,5.62,8.28s-2.02,8.26-5.62,8.26-5.59-3.72-5.59-8.26,1.99-8.28,5.59-8.28ZM581.44,171.67c1.8,0,2.78-2.54,2.78-5.59s-.98-5.62-2.78-5.62-2.76,2.54-2.76,5.62.98,5.59,2.76,5.59Z"/>
    <path class="cls-3" d="M602.8,169c0,2.93-2.4,5.33-5.35,5.33-2.45,0-4.42-1.61-5.09-3.77l2.52-.89c.29,1.08,1.3,1.99,2.57,1.99,1.46,0,2.66-1.2,2.66-2.66s-1.2-2.66-2.66-2.66h-1.99v-.82l3.53-4.8h-4.32l-1.3,2.14h-.79v-4.8h10.49v1.32l-3.5,4.71c1.82.84,3.24,2.62,3.24,4.92Z"/>
  </g>
  <g>
    <path class="cls-3" d="M520.52,286.42h-2.69v-2.67h5.35v7.99h-.82l-.55-.98c-.98.79-2.18,1.25-3.36,1.25-3.86,0-6.48-3.72-6.48-8.26s2.62-8.28,6.48-8.28c1.9,0,3.86,1.22,4.94,3.07l-1.58,1.49c-1.03-1.32-2.06-1.9-3.19-1.9-2.02,0-3.72,2.14-3.72,5.62s1.7,5.59,3.72,5.59c.65,0,1.27-.19,1.9-.62v-2.3Z"/>
    <path class="cls-3" d="M530.91,289.09h4.54v2.66h-7.2v-16.01h2.66v13.35Z"/>
    <path class="cls-3" d="M537.03,278.41v-2.67h11.74v2.67h-4.54v13.34h-2.67v-13.34h-4.54Z"/>
    <path class="cls-3" d="M559.44,278.41v-2.67h11.47v1.3l-7.32,14.71h-2.83l6.62-13.34h-7.94Z"/>
    <path class="cls-3" d="M581.57,275.48c3.6,0,5.62,3.74,5.62,8.28s-2.02,8.26-5.62,8.26-5.59-3.72-5.59-8.26,1.99-8.28,5.59-8.28ZM581.57,289.35c1.8,0,2.78-2.54,2.78-5.59s-.98-5.62-2.78-5.62-2.76,2.54-2.76,5.62.98,5.59,2.76,5.59Z"/>
    <path class="cls-3" d="M600.24,280.81c0-1.46-1.2-2.66-2.66-2.66s-2.67,1.2-2.67,2.66v1.34h-2.66v-1.34c0-2.93,2.4-5.33,5.33-5.33s5.35,2.4,5.35,5.33c0,2.21-1.01,3.58-2.54,5.02l-3.46,3.26h6v2.66h-10.68v-.96l5.74-6.07c.89-.94,2.26-2.35,2.26-3.91Z"/>
  </g>
  <g>
    <rect class="cls-11" x="485.62" y="191.08" width="9.64" height="27.7"/>
    <path class="cls-3" d="M494.26,192.08v25.7h-7.64v-25.7h7.64M496.26,190.08h-11.64v29.7h11.64v-29.7h0Z"/>
  </g>
  <g id="gltmac03">
    <g id="maclab3">
      <rect class="cls-11" x="149.25" y="54.23" width="130.99" height="80.36"/>
    </g>
    <g>
      <path class="cls-6" d="M168.31,74.79h-1.57v-1.55h3.12v4.66h-.48l-.32-.57c-.57.46-1.27.73-1.96.73-2.25,0-3.78-2.17-3.78-4.82s1.53-4.83,3.78-4.83c1.11,0,2.26.71,2.89,1.79l-.92.87c-.6-.77-1.21-1.11-1.86-1.11-1.18,0-2.17,1.25-2.17,3.28s.99,3.26,2.17,3.26c.38,0,.74-.11,1.11-.36v-1.34Z"/>
      <path class="cls-6" d="M174.37,76.35h2.65v1.55h-4.2v-9.34h1.56v7.79Z"/>
      <path class="cls-6" d="M177.94,70.11v-1.56h6.85v1.56h-2.65v7.79h-1.55v-7.79h-2.65Z"/>
      <path class="cls-6" d="M197.78,77.9v-5.63l-2.26,4.23h-.31l-2.26-4.23v5.63h-1.48v-9.34h1.27l2.62,4.92,2.62-4.92h1.27v9.34h-1.48Z"/>
      <path class="cls-6" d="M203.92,77.9h-1.56v-5.91c0-2.31,1.4-3.59,3.11-3.59s3.12,1.27,3.12,3.59v5.91h-1.55v-3.11h-3.12v3.11ZM207.05,71.99c0-1.37-.71-2.03-1.57-2.03s-1.55.66-1.55,2.03v1.25h3.12v-1.25Z"/>
      <path class="cls-6" d="M215.49,68.4c1.15,0,2.35.71,3.01,1.79l-.98.87c-.63-.77-1.26-1.11-1.96-1.11-1.23,0-2.3,1.25-2.3,3.28s1.06,3.26,2.3,3.26c.7,0,1.33-.32,1.96-1.11l.98.87c-.66,1.08-1.86,1.79-3.01,1.79-2.35,0-3.94-2.17-3.94-4.82s1.58-4.83,3.94-4.83Z"/>
      <path class="cls-6" d="M224.15,68.4c2.1,0,3.28,2.19,3.28,4.83s-1.18,4.82-3.28,4.82-3.26-2.17-3.26-4.82,1.16-4.83,3.26-4.83ZM224.15,76.5c1.05,0,1.62-1.48,1.62-3.26s-.57-3.28-1.62-3.28-1.61,1.48-1.61,3.28.57,3.26,1.61,3.26Z"/>
      <path class="cls-6" d="M236.62,74.95c0,1.71-1.4,3.11-3.12,3.11-1.43,0-2.58-.94-2.97-2.2l1.47-.52c.17.63.76,1.16,1.5,1.16.85,0,1.55-.7,1.55-1.55s-.7-1.55-1.55-1.55h-1.16v-.48l2.06-2.8h-2.52l-.76,1.25h-.46v-2.8h6.12v.77l-2.05,2.75c1.06.49,1.89,1.53,1.89,2.87Z"/>
    </g>
    <g>
      <path class="cls-3" d="M170.51,122.66v-8.44l-3.38,6.34h-.46l-3.38-6.34v8.44h-2.23v-14h1.91l3.93,7.37,3.93-7.37h1.91v14h-2.23Z"/>
      <path class="cls-3" d="M185.95,122.66l-.88-1.66c-.88,1.18-2.1,1.89-3.51,1.89-2.62,0-4.66-2.54-4.7-5.71-.04-3.17,2.08-5.71,4.7-5.71,1.41,0,2.62.71,3.51,1.89l.88-1.66h.8v10.96h-.8ZM181.86,113.65c-1.43,0-2.56,1.6-2.56,3.53s1.13,3.53,2.56,3.53,2.56-1.6,2.56-3.53-1.13-3.53-2.56-3.53Z"/>
      <path class="cls-3" d="M198.38,114.83c-.55-.8-1.49-1.18-2.33-1.18-1.51,0-2.75,1.49-2.75,3.53s1.24,3.53,2.75,3.53c.84,0,1.87-.34,2.33-1.18l1.39,1.18c-.9,1.32-2.33,2.18-3.93,2.18-2.77,0-4.98-2.54-4.98-5.71s2.2-5.71,4.98-5.71c1.6,0,3.02.86,3.95,2.18l-1.41,1.18Z"/>
      <path class="cls-3" d="M212.41,120.33h3.97v2.33h-6.3v-14h2.33v11.67Z"/>
      <path class="cls-3" d="M227.95,122.66l-.88-1.66c-.88,1.18-2.1,1.89-3.51,1.89-2.62,0-4.66-2.54-4.7-5.71-.04-3.17,2.08-5.71,4.7-5.71,1.41,0,2.62.71,3.51,1.89l.88-1.66h.8v10.96h-.8ZM223.85,113.65c-1.43,0-2.56,1.6-2.56,3.53s1.13,3.53,2.56,3.53,2.56-1.6,2.56-3.53-1.13-3.53-2.56-3.53Z"/>
      <path class="cls-3" d="M234.21,122.66h-.8v-16.33h2.33v6.28c.8-.71,1.78-1.13,2.86-1.13,2.6,0,4.7,2.54,4.7,5.71s-2.1,5.71-4.7,5.71c-1.41,0-2.65-.71-3.51-1.89l-.88,1.66ZM235.74,117.18c0,1.93,1.15,3.53,2.56,3.53s2.56-1.6,2.56-3.53-1.13-3.53-2.56-3.53-2.56,1.6-2.56,3.53Z"/>
      <path class="cls-3" d="M263.75,118.23c0,2.56-2.1,4.66-4.68,4.66-2.14,0-3.86-1.41-4.45-3.3l2.2-.78c.25.95,1.13,1.74,2.25,1.74,1.28,0,2.33-1.05,2.33-2.33s-1.05-2.33-2.33-2.33h-1.74v-.71l3.09-4.2h-3.78l-1.13,1.87h-.69v-4.2h9.18v1.16l-3.07,4.12c1.6.74,2.83,2.29,2.83,4.3Z"/>
    </g>
    <g>
      <rect class="cls-11" x="271.16" y="74.72" width="9.64" height="27.7"/>
      <path class="cls-3" d="M279.8,75.72v25.7h-7.64v-25.7h7.64M281.8,73.72h-11.64v29.7h11.64v-29.7h0Z"/>
    </g>
  </g>
  <g>
    <rect class="cls-10" x="291.73" y="492.49" width="83.77" height="30.38"/>
    <rect class="cls-10" x="390.14" y="492.56" width="83.77" height="30.38"/>
    <g>
      <polygon class="cls-11" points="483.49 509.72 483.78 512.03 497.97 510.11 497.67 507.79 483.49 509.72"/>
      <polygon class="cls-11" points="497.72 504.24 483.51 502.77 483.25 505.1 497.46 506.56 497.72 504.24"/>
      <polygon class="cls-11" points="484.21 498.34 497.82 502.58 498.54 500.35 484.93 496.11 484.21 498.34"/>
      <polygon class="cls-11" points="488.11 490.31 499.3 499.14 500.77 497.31 489.58 488.49 488.11 490.31"/>
      <polygon class="cls-11" points="493.76 484.76 501.99 496.4 503.92 495.07 495.69 483.43 493.76 484.76"/>
      <polygon class="cls-11" points="500.81 481.29 505.61 494.71 507.83 493.94 503.03 480.52 500.81 481.29"/>
      <polygon class="cls-11" points="531.79 498.73 531.25 496.46 517.35 499.91 517.9 502.18 531.79 498.73"/>
      <polygon class="cls-11" points="518.25 503.38 518.24 505.72 532.52 505.63 532.53 503.29 518.25 503.38"/>
      <polygon class="cls-11" points="517.85 509.67 531.84 512.41 532.31 510.11 518.32 507.38 517.85 509.67"/>
      <polygon class="cls-11" points="515.96 512.94 528.05 520.49 529.31 518.52 517.22 510.96 515.96 512.94"/>
      <polygon class="cls-11" points="513.08 515.51 522.52 526.18 524.29 524.65 514.85 513.97 513.08 515.51"/>
      <polygon class="cls-11" points="509.31 517.05 515.54 529.87 517.66 528.87 511.43 516.05 509.31 517.05"/>
    </g>
    <g>
      <path class="cls-7" d="M506.67,505.94v.43s-.53,0-.53,0v.24s.44-.02.44-.02v.41s-.43.01-.43.01l.02.5-.49.03v-1.56s.98-.04.98-.04Z"/>
      <path class="cls-7" d="M507.36,505.97v1.52s-.48.03-.48.03l-.02-1.53.5-.02Z"/>
      <path class="cls-7" d="M508.17,507.03l-.08.02.02.48h-.48s-.02-1.51-.02-1.51l.74-.04.37.06.04.82-.16.08.3.43-.44.2-.29-.54ZM508.05,506.69l.25-.02v-.32s-.26,0-.26,0v.34Z"/>
      <path class="cls-7" d="M509.96,507.51h-.97s0-1.46,0-1.46l.09-.06.84-.02v.39s-.48,0-.48,0v.2s.35,0,.35,0v.36s-.38,0-.38,0v.21s.55-.01.55-.01v.4Z"/>
      <path class="cls-7" d="M505.87,508.42h-.3s0-.45,0-.45l.03-.02h.26s0,.11,0,.11h-.14s0,.06,0,.06h.11s0,.11,0,.11h-.11s0,.06,0,.06h.17s0,.12,0,.12Z"/>
      <path class="cls-7" d="M506.11,508.27l-.04.03v.12s-.17,0-.17,0l.03-.19.08-.05-.08-.05v-.17s.14,0,.14,0v.12s.04.04.04.04l.03-.03v-.12s.15,0,.15,0l-.02.17-.07.05.07.05.03.19h-.16s0-.11,0-.11l-.04-.03Z"/>
      <path class="cls-7" d="M506.69,508.08h-.12s.02.33.02.33h-.15s0-.33,0-.33h-.11s0-.13,0-.13h.35s0,.13,0,.13Z"/>
      <path class="cls-7" d="M506.89,507.95v.46s-.15,0-.15,0v-.47s.15,0,.15,0Z"/>
      <path class="cls-7" d="M507.34,508.41h-.14s0-.14,0-.14l-.1-.13v.26s-.14,0-.14,0v-.45s.13-.01.13-.01l.11.15v-.15s.14,0,.14,0v.46Z"/>
      <path class="cls-7" d="M507.49,507.95h.26s0,.13,0,.13h-.18v.2h.07s0-.12,0-.12h.14s-.01.26-.01.26h-.33s-.02-.38-.02-.38l.07-.09Z"/>
      <path class="cls-7" d="M508.19,507.95l.02.41-.06.05h-.29s-.03-.02-.03-.02v-.43s.14,0,.14,0v.31s.1-.01.1-.01v-.31s.13,0,.13,0Z"/>
      <path class="cls-7" d="M508.42,507.95v.46s-.15,0-.15,0v-.47s.15,0,.15,0Z"/>
      <path class="cls-7" d="M508.79,507.95v.13s-.14,0-.14,0v.03s.15.07.15.07v.23s-.3.03-.3.03v-.15s.15,0,.15,0v-.04s-.16-.09-.16-.09v-.19s.14-.01.14-.01h.16Z"/>
      <path class="cls-7" d="M509.09,508.25h-.09s0,.16,0,.16h-.14v-.45s.14,0,.14,0v.17s.09,0,.09,0v-.18s.15,0,.15,0v.48s-.15,0-.15,0v-.18Z"/>
      <path class="cls-7" d="M509.61,508.42h-.3s0-.45,0-.45l.03-.02h.26s0,.11,0,.11h-.14s0,.06,0,.06h.11s0,.11,0,.11h-.11s0,.06,0,.06h.17s0,.12,0,.12Z"/>
      <path class="cls-7" d="M509.84,508.27h-.02s0,.15,0,.15h-.15s0-.46,0-.46h.23s.11,0,.11,0v.25s-.04.03-.04.03l.09.13-.13.06-.09-.17ZM509.8,508.17h.08s0-.1,0-.1h-.08s0,.1,0,.1Z"/>
    </g>
    <path class="cls-7" d="M503.78,511.28l3.88,2.89c.06.05.15.05.21,0l3.88-2.89c.06-.04.08-.12.06-.19-.02-.07-.09-.12-.16-.12h-1.74v-1.79c0-.1-.08-.17-.17-.17h-3.93c-.1,0-.17.08-.17.17v1.79h-1.74c-.07,0-.14.05-.16.12-.02.07,0,.15.06.19Z"/>
    <path class="cls-7" d="M514.83,500.72s-.08-.05-.14-.05c-.02,0-.03,0-.05,0l-3.1.66c-.05,0-.09.03-.12.08-.03.04-.05.09-.05.14h-3.38c.06-.14.1-.29.1-.44,0-.3-.11-.57-.33-.78-.22-.22-.48-.33-.78-.33s-.57.11-.78.33c-.22.22-.33.48-.33.78,0,.2.06.4.17.6-.26.08-.51.2-.75.36-.24.16-.44.31-.59.46-.15.15-.29.31-.42.48-.13.17-.22.3-.26.37-.04.07-.08.13-.1.18-.06.11-.06.22-.02.34.04.12.11.2.22.26.06.03.13.05.2.05.18,0,.32-.08.39-.24.02-.04.05-.09.1-.17.05-.08.14-.2.28-.37.14-.17.29-.32.46-.46.16-.14.38-.26.63-.37.26-.11.52-.16.8-.16h.22v.77c-.46.14-.83.4-1.12.79-.29.39-.43.83-.43,1.32v.07h4.43v-.07c0-.53-.17-1-.5-1.41-.33-.41-.76-.66-1.27-.77v-.71h3.06c0,.05.02.1.05.14.03.04.07.07.12.08l3.1.66s.03,0,.05,0c.06,0,.1-.02.14-.05.06-.04.08-.1.08-.17v-2.22c0-.07-.03-.13-.08-.17ZM507.29,501.42c-.09.09-.19.13-.31.13s-.22-.04-.31-.13c-.09-.09-.13-.19-.13-.31s.04-.22.13-.31c.09-.09.19-.13.31-.13s.22.04.31.13c.09.09.13.19.13.31s-.04.22-.13.31Z"/>
    <polygon class="cls-11" points="264.53 513.61 264.53 504.1 251.75 504.1 251.75 494.43 238.96 494.43 238.96 484.76 226.17 484.76 226.17 475.09 213.39 475.09 213.39 484.76 213.39 523.28 238.96 523.28 251.75 523.28 264.31 523.28 277.1 523.28 277.1 513.61 264.53 513.61"/>
  </g>
  <path class="cls-11" d="M278.82,388.63v59.96h-98.42v-59.96h98.42M280.82,386.63h-102.42v63.96h102.42v-63.96h0Z"/>
  <text class="cls-5" transform="translate(193.9 425.64)"><tspan x="0" y="0">Terrace</tspan></text>
  <rect class="cls-4" x="485.39" y="50.26" width="7.64" height="25.7"/>
  <rect class="cls-4" x="413.94" y="79.54" width="7.64" height="25.7" transform="translate(510.16 -325.37) rotate(90)"/>
  <rect class="cls-4" x="327.92" y="80.09" width="7.64" height="25.7" transform="translate(424.68 -238.81) rotate(90)"/>
  <rect class="cls-4" x="272.16" y="423.62" width="7.64" height="25.7" transform="translate(551.96 872.93) rotate(180)"/>
  <g>
    <rect class="cls-11" x="485.62" y="223.01" width="27.7" height="9.64"/>
    <path class="cls-3" d="M512.32,224.01v7.64h-25.7v-7.64h25.7M514.32,222.01h-29.7v11.64h29.7v-11.64h0Z"/>
  </g>
  <g>
    <rect class="cls-11" x="485.62" y="236.88" width="9.64" height="27.7"/>
    <path class="cls-3" d="M494.26,237.88v25.7h-7.64v-25.7h7.64M496.26,235.88h-11.64v29.7h11.64v-29.7h0Z"/>
  </g>
  <g>
    <rect class="cls-11" x="485.62" y="304.3" width="9.64" height="27.7"/>
    <path class="cls-3" d="M494.26,305.3v25.7h-7.64v-25.7h7.64M496.26,303.3h-11.64v29.7h11.64v-29.7h0Z"/>
  </g>
  <g>
    <rect class="cls-11" x="485.62" y="336.23" width="27.7" height="9.64"/>
    <path class="cls-3" d="M512.32,337.23v7.64h-25.7v-7.64h25.7M514.32,335.23h-29.7v11.64h29.7v-11.64h0Z"/>
  </g>
  <g>
    <rect class="cls-11" x="485.62" y="350.1" width="9.64" height="27.7"/>
    <path class="cls-3" d="M494.26,351.1v25.7h-7.64v-25.7h7.64M496.26,349.1h-11.64v29.7h11.64v-29.7h0Z"/>
  </g>
  <g>
    <rect class="cls-11" x="485.62" y="114.06" width="9.64" height="27.7"/>
    <path class="cls-3" d="M494.26,115.06v25.7h-7.64v-25.7h7.64M496.26,113.06h-11.64v29.7h11.64v-29.7h0Z"/>
  </g>
  <g>
    <rect class="cls-11" x="271.16" y="168.59" width="9.64" height="27.7"/>
    <path class="cls-3" d="M279.8,169.59v25.7h-7.64v-25.7h7.64M281.8,167.59h-11.64v29.7h11.64v-29.7h0Z"/>
  </g>
  <g>
    <g id="glt703-2" data-name="glt703">
      <rect class="cls-11" x="121.58" y="144.18" width="160.36" height="110.33"/>
    </g>
    <g>
      <path class="cls-3" d="M165.7,201.82h-2.69v-2.67h5.35v7.99h-.82l-.55-.98c-.98.79-2.18,1.25-3.36,1.25-3.86,0-6.48-3.72-6.48-8.26s2.62-8.28,6.48-8.28c1.9,0,3.86,1.22,4.94,3.07l-1.58,1.49c-1.03-1.32-2.06-1.9-3.19-1.9-2.02,0-3.72,2.14-3.72,5.62s1.7,5.59,3.72,5.59c.65,0,1.27-.19,1.9-.62v-2.3Z"/>
      <path class="cls-3" d="M176.09,204.48h4.54v2.66h-7.2v-16.01h2.66v13.35Z"/>
      <path class="cls-3" d="M182.21,193.8v-2.67h11.74v2.67h-4.54v13.34h-2.67v-13.34h-4.54Z"/>
      <path class="cls-3" d="M204.63,193.8v-2.67h11.47v1.3l-7.32,14.71h-2.83l6.62-13.34h-7.94Z"/>
      <path class="cls-3" d="M226.76,190.87c3.6,0,5.62,3.74,5.62,8.28s-2.02,8.26-5.62,8.26-5.59-3.72-5.59-8.26,1.99-8.28,5.59-8.28ZM226.76,204.74c1.8,0,2.78-2.54,2.78-5.59s-.98-5.62-2.78-5.62-2.76,2.54-2.76,5.62.98,5.59,2.76,5.59Z"/>
      <path class="cls-3" d="M236.38,202.1l7.82-11.23h1.22v10.95h2.69v2.66h-2.69v2.66h-2.66v-2.66h-6.38v-2.38ZM242.77,201.82v-4.94l-3.43,4.94h3.43Z"/>
    </g>
  </g>
  <g>
    <g id="glt703-3" data-name="glt703">
      <rect class="cls-11" x="121.58" y="260.87" width="160.36" height="110.33"/>
    </g>
    <g>
      <path class="cls-3" d="M164.19,319.78h-2.69v-2.67h5.35v7.99h-.82l-.55-.98c-.98.79-2.18,1.25-3.36,1.25-3.86,0-6.48-3.72-6.48-8.26s2.62-8.28,6.48-8.28c1.9,0,3.86,1.22,4.94,3.07l-1.58,1.49c-1.03-1.32-2.06-1.9-3.19-1.9-2.02,0-3.72,2.14-3.72,5.62s1.7,5.59,3.72,5.59c.65,0,1.27-.19,1.9-.62v-2.3Z"/>
      <path class="cls-3" d="M174.58,322.44h4.54v2.66h-7.2v-16.01h2.66v13.35Z"/>
      <path class="cls-3" d="M180.7,311.76v-2.67h11.74v2.67h-4.54v13.34h-2.67v-13.34h-4.54Z"/>
      <path class="cls-3" d="M203.12,311.76v-2.67h11.47v1.3l-7.32,14.71h-2.83l6.62-13.34h-7.94Z"/>
      <path class="cls-3" d="M225.25,308.83c3.6,0,5.62,3.74,5.62,8.28s-2.02,8.26-5.62,8.26-5.59-3.72-5.59-8.26,1.99-8.28,5.59-8.28ZM225.25,322.71c1.8,0,2.78-2.54,2.78-5.59s-.98-5.62-2.78-5.62-2.76,2.54-2.76,5.62.98,5.59,2.76,5.59Z"/>
      <path class="cls-3" d="M236.72,309.1h9.34v4.8h-.79l-1.27-2.14h-4.58v3.29c.58-.24,1.22-.34,1.85-.34,2.95,0,5.35,2.4,5.35,5.33s-2.4,5.33-5.35,5.33c-2.4,0-4.42-1.61-5.09-3.77l2.52-.89c.29,1.08,1.3,1.99,2.57,1.99,1.46,0,2.66-1.2,2.66-2.66s-1.2-2.66-2.66-2.66c-.98,0-1.73.5-2.21,1.18h-2.33v-9.46Z"/>
    </g>
  </g>
  <g>
    <rect class="cls-11" x="271.6" y="144.79" width="9.64" height="27.7"/>
    <path class="cls-3" d="M280.24,145.79v25.7h-7.64v-25.7h7.64M282.24,143.79h-11.64v29.7h11.64v-29.7h0Z"/>
  </g>
  <g>
    <rect class="cls-11" x="271.6" y="226.11" width="9.64" height="27.7"/>
    <path class="cls-3" d="M280.24,227.11v25.7h-7.64v-25.7h7.64M282.24,225.11h-11.64v29.7h11.64v-29.7h0Z"/>
  </g>
  <g>
    <rect class="cls-11" x="271.6" y="260.45" width="9.64" height="27.7"/>
    <path class="cls-3" d="M280.24,261.45v25.7h-7.64v-25.7h7.64M282.24,259.45h-11.64v29.7h11.64v-29.7h0Z"/>
  </g>
  <g>
    <rect class="cls-11" x="271.6" y="342.73" width="9.64" height="27.7"/>
    <path class="cls-3" d="M280.24,343.73v25.7h-7.64v-25.7h7.64M282.24,341.73h-11.64v29.7h11.64v-29.7h0Z"/>
  </g>
</svg>