<?xml version="1.0" encoding="UTF-8"?>
<svg id="katman_1" data-name="katman 1" xmlns="http://www.w3.org/2000/svg" viewBox="0 0 693.38 514.46">
  <defs>
    <style>
      .cls-1 {
        fill: #f08211;
      }

      .cls-2 {
        fill: #3c3c3b;
      }

      .cls-3 {
        fill: #fff;
        font-size: 22.18px;
      }

      .cls-4 {
        stroke-width: 3px;
      }

      .cls-4, .cls-5 {
        fill: none;
        stroke: #f08211;
        stroke-miterlimit: 10;
      }

      .cls-6 {
        fill: #878787;
      }

      .cls-5 {
        stroke-width: 2px;
      }

      .cls-7 {
        fill: #e73447;
      }
    </style>
  </defs>
  <rect class="cls-5" x="289.66" y="115.16" width="182.18" height="340.19"/>
  <polygon class="cls-1" points="506.93 494.7 492.75 496.62 492.45 494.31 506.64 492.38 506.93 494.7"/>
  <polygon class="cls-1" points="506.42 491.15 492.21 489.69 492.48 487.36 506.69 488.83 506.42 491.15"/>
  <polygon class="cls-1" points="506.78 487.17 493.17 482.93 493.89 480.7 507.5 484.94 506.78 487.17"/>
  <polygon class="cls-1" points="508.26 483.73 497.07 474.9 498.54 473.08 509.74 481.9 508.26 483.73"/>
  <polygon class="cls-1" points="510.95 480.99 502.73 469.35 504.65 468.02 512.88 479.66 510.95 480.99"/>
  <polygon class="cls-1" points="514.58 479.3 509.78 465.88 512 465.11 516.79 478.53 514.58 479.3"/>
  <g>
    <polygon class="cls-1" points="526.32 484.5 540.21 481.05 540.76 483.32 526.87 486.77 526.32 484.5"/>
    <polygon class="cls-1" points="527.21 487.97 541.5 487.88 541.49 490.22 527.2 490.31 527.21 487.97"/>
    <polygon class="cls-1" points="527.29 491.97 541.28 494.7 540.81 497 526.82 494.27 527.29 491.97"/>
    <polygon class="cls-1" points="526.19 495.55 538.28 503.11 537.01 505.08 524.93 497.53 526.19 495.55"/>
    <polygon class="cls-1" points="523.81 498.56 533.26 509.24 531.49 510.77 522.04 500.1 523.81 498.56"/>
    <polygon class="cls-1" points="520.4 500.64 526.63 513.46 524.51 514.46 518.28 501.64 520.4 500.64"/>
  </g>
  <g>
    <path class="cls-7" d="M515.64,490.53v.43s-.53,0-.53,0v.24s.44-.02.44-.02v.41s-.43.01-.43.01l.02.5-.49.03v-1.56s.98-.04.98-.04Z"/>
    <path class="cls-7" d="M516.33,490.56v1.52s-.48.03-.48.03l-.02-1.53.5-.02Z"/>
    <path class="cls-7" d="M517.14,491.62l-.08.02.02.48h-.48s-.02-1.51-.02-1.51l.74-.04.37.06.04.82-.16.08.3.43-.44.2-.29-.54ZM517.01,491.28l.25-.02v-.32s-.26,0-.26,0v.34Z"/>
    <path class="cls-7" d="M518.93,492.1h-.97s0-1.46,0-1.46l.09-.06.84-.02v.39s-.48,0-.48,0v.2s.35,0,.35,0v.36s-.38,0-.38,0v.21s.55-.01.55-.01v.4Z"/>
    <path class="cls-7" d="M514.84,493.01h-.3s0-.45,0-.45l.03-.02h.26s0,.11,0,.11h-.14s0,.06,0,.06h.11s0,.11,0,.11h-.11s0,.06,0,.06h.17s0,.12,0,.12Z"/>
    <path class="cls-7" d="M515.07,492.86l-.04.03v.12s-.17,0-.17,0l.03-.19.08-.05-.08-.05v-.17s.14,0,.14,0v.12s.04.04.04.04l.03-.03v-.12s.15,0,.15,0l-.02.17-.07.05.07.05.03.19h-.16s0-.11,0-.11l-.04-.03Z"/>
    <path class="cls-7" d="M515.66,492.67h-.12s.02.33.02.33h-.15s0-.33,0-.33h-.11s0-.13,0-.13h.35s0,.13,0,.13Z"/>
    <path class="cls-7" d="M515.85,492.54v.46s-.15,0-.15,0v-.47s.15,0,.15,0Z"/>
    <path class="cls-7" d="M516.31,493h-.14s0-.14,0-.14l-.1-.13v.26s-.14,0-.14,0v-.45s.13-.01.13-.01l.11.15v-.15s.14,0,.14,0v.46Z"/>
    <path class="cls-7" d="M516.45,492.54h.26s0,.13,0,.13h-.18v.2h.07s0-.12,0-.12h.14s-.01.26-.01.26h-.33s-.02-.38-.02-.38l.07-.09Z"/>
    <path class="cls-7" d="M517.16,492.54l.02.41-.06.05h-.29s-.03-.02-.03-.02v-.43s.14,0,.14,0v.31s.1-.01.1-.01v-.31s.13,0,.13,0Z"/>
    <path class="cls-7" d="M517.39,492.54v.46s-.15,0-.15,0v-.47s.15,0,.15,0Z"/>
    <path class="cls-7" d="M517.75,492.54v.13s-.14,0-.14,0v.03s.15.07.15.07v.23s-.3.03-.3.03v-.15s.15,0,.15,0v-.04s-.16-.09-.16-.09v-.19s.14-.01.14-.01h.16Z"/>
    <path class="cls-7" d="M518.06,492.84h-.09s0,.16,0,.16h-.14v-.45s.14,0,.14,0v.17s.09,0,.09,0v-.18s.15,0,.15,0v.48s-.15,0-.15,0v-.18Z"/>
    <path class="cls-7" d="M518.58,493.01h-.3s0-.45,0-.45l.03-.02h.26s0,.11,0,.11h-.14s0,.06,0,.06h.11s0,.11,0,.11h-.11s0,.06,0,.06h.17s0,.12,0,.12Z"/>
    <path class="cls-7" d="M518.8,492.86h-.02s0,.15,0,.15h-.15s0-.46,0-.46h.23s.11,0,.11,0v.25s-.04.03-.04.03l.09.13-.13.06-.09-.17ZM518.77,492.76h.08s0-.1,0-.1h-.08s0,.1,0,.1Z"/>
  </g>
  <path class="cls-7" d="M512.74,495.87l3.88,2.89c.06.05.15.05.21,0l3.88-2.89c.06-.04.08-.12.06-.19-.02-.07-.09-.12-.16-.12h-1.74v-1.79c0-.1-.08-.17-.17-.17h-3.93c-.1,0-.17.08-.17.17v1.79h-1.74c-.07,0-.14.05-.16.12-.02.07,0,.15.06.19Z"/>
  <path class="cls-7" d="M523.79,485.31s-.08-.05-.14-.05c-.02,0-.03,0-.05,0l-3.1.66c-.05,0-.09.03-.12.08-.03.04-.05.09-.05.14h-3.38c.06-.14.1-.29.1-.44,0-.3-.11-.57-.33-.78-.22-.22-.48-.33-.78-.33s-.57.11-.78.33c-.22.22-.33.48-.33.78,0,.2.06.4.17.6-.26.08-.51.2-.75.36-.24.16-.44.31-.59.46-.15.15-.29.31-.42.48-.13.17-.22.3-.26.37-.04.07-.08.13-.1.18-.06.11-.06.22-.02.34.04.12.11.2.22.26.06.03.13.05.2.05.18,0,.32-.08.39-.24.02-.04.05-.09.1-.17.05-.08.14-.2.28-.37.14-.17.29-.32.46-.46.16-.14.38-.26.63-.37.26-.11.52-.16.8-.16h.22v.77c-.46.14-.83.4-1.12.79-.29.39-.43.83-.43,1.32v.07h4.43v-.07c0-.53-.17-1-.5-1.41-.33-.41-.76-.66-1.27-.77v-.71h3.06c0,.05.02.1.05.14.03.04.07.07.12.08l3.1.66s.03,0,.05,0c.06,0,.1-.02.14-.05.06-.04.08-.1.08-.17v-2.22c0-.07-.03-.13-.08-.17ZM516.26,486.01c-.09.09-.19.13-.31.13s-.22-.04-.31-.13c-.09-.09-.13-.19-.13-.31s.04-.22.13-.31c.09-.09.19-.13.31-.13s.22.04.31.13c.09.09.13.19.13.31s-.04.22-.13.31Z"/>
  <g>
    <path class="cls-1" d="M27.82,177.32H.45v-19.15h3.69v14.32h8.22v-12.33h3.64v12.33h11.83v4.84Z"/>
    <path class="cls-1" d="M27.82,153.48H.45v-4.84h23.65v-13.94h3.73v18.77Z"/>
    <path class="cls-1" d="M8.54,108.39h11.18c6.4,0,8.54,5.4,8.54,11.62s-2.15,11.62-8.54,11.62h-11.18c-6.4,0-8.54-5.45-8.54-11.62s2.15-11.62,8.54-11.62ZM9.56,126.78h9.11c4.58,0,5.79-2.8,5.79-6.78s-1.21-6.78-5.79-6.78h-9.11c-4.54,0-5.75,2.8-5.75,6.78s1.21,6.78,5.75,6.78Z"/>
    <path class="cls-1" d="M8.54,78.14h11.18c6.4,0,8.54,5.4,8.54,11.62s-2.15,11.62-8.54,11.62h-11.18c-6.4,0-8.54-5.45-8.54-11.62s2.15-11.62,8.54-11.62ZM9.56,96.53h9.11c4.58,0,5.79-2.8,5.79-6.78s-1.21-6.78-5.79-6.78h-9.11c-4.54,0-5.75,2.8-5.75,6.78s1.21,6.78,5.75,6.78Z"/>
    <path class="cls-1" d="M27.82,52.44l-11.5,6.83v7.02h11.5v4.84H.45v-14.41c0-3.94,2.71-6.83,6.07-6.83h3.73c2.63,0,4.86,1.75,5.71,4.41l11.87-7.11v5.26ZM7.49,54.71c-2.27,0-3.36,1.14-3.36,4.12v7.44h8.5v-7.44c0-2.99-1.09-4.12-3.36-4.12h-1.78Z"/>
    <path class="cls-1" d="M6.64,13.51h1.7c2.31,0,4.45,1.23,5.47,4.12,1.13-3.75,3.4-4.84,5.67-4.84h2.02c5.22,0,6.76,5.26,6.76,10.05s-1.54,10.05-6.76,10.05h-2.02c-2.27,0-4.54-1.09-5.67-4.79-1.01,2.84-3.16,4.08-5.47,4.08h-1.7c-3.97,0-6.64-3.22-6.64-9.34s2.67-9.34,6.64-9.34ZM7.09,27.36h1.13c2.51,0,3.81-1.09,3.89-3.84v-.9c0-2.89-1.26-4.27-3.89-4.27h-1.13c-2.71,0-3.77,1.61-3.77,4.5s1.05,4.5,3.77,4.5ZM19.68,17.64c-2.63,0-3.89,1.47-3.97,4.69v1.04c.08,3.27,1.34,4.69,3.97,4.69h1.42c2.63,0,3.69-1.85,3.69-5.21s-1.05-5.22-3.69-5.22h-1.42Z"/>
  </g>
  <rect class="cls-4" x="482.31" y="245.77" width="209.57" height="96.93"/>
  <rect class="cls-4" x="178.09" y="396.39" width="100.7" height="59.85"/>
  <g>
    <path class="cls-2" d="M199.18,423.2v-1.55h6.83v1.55h-2.64v7.76h-1.55v-7.76h-2.64Z"/>
    <path class="cls-2" d="M208.03,421.65h4.65v1.55h-3.1v1.87h3.1v1.55h-3.1v2.79h3.1v1.55h-4.65v-9.31Z"/>
    <path class="cls-2" d="M222.71,430.97h-1.9l-2.23-3.1h-1.23v3.1h-1.55v-9.31h3.03c1.7,0,3.1,1.4,3.1,3.11,0,1.19-.68,2.25-1.69,2.75l2.47,3.45ZM220.37,424.77c0-.87-.7-1.56-1.55-1.56h-1.48v3.11h1.48c.85,0,1.55-.7,1.55-1.55Z"/>
    <path class="cls-2" d="M232.02,430.97h-1.9l-2.23-3.1h-1.23v3.1h-1.55v-9.31h3.03c1.7,0,3.1,1.4,3.1,3.11,0,1.19-.68,2.25-1.69,2.75l2.47,3.45ZM229.69,424.77c0-.87-.7-1.56-1.55-1.56h-1.48v3.11h1.48c.85,0,1.55-.7,1.55-1.55Z"/>
    <path class="cls-2" d="M235.97,430.97h-1.55v-5.89c0-2.3,1.4-3.57,3.1-3.57s3.11,1.27,3.11,3.57v5.89h-1.55v-3.1h-3.11v3.1ZM239.09,425.07c0-1.37-.71-2.02-1.56-2.02s-1.55.66-1.55,2.02v1.24h3.11v-1.24Z"/>
    <path class="cls-2" d="M247.51,421.5c1.15,0,2.35.71,3,1.79l-.98.87c-.63-.77-1.26-1.1-1.95-1.1-1.23,0-2.29,1.24-2.29,3.27s1.06,3.25,2.29,3.25c.7,0,1.33-.32,1.95-1.1l.98.87c-.66,1.08-1.86,1.79-3,1.79-2.35,0-3.92-2.16-3.92-4.8s1.58-4.82,3.92-4.82Z"/>
    <path class="cls-2" d="M253.05,421.65h4.65v1.55h-3.1v1.87h3.1v1.55h-3.1v2.79h3.1v1.55h-4.65v-9.31Z"/>
  </g>
  <rect class="cls-4" x="482.31" y="359.3" width="209.57" height="96.77"/>
  <g>
    <path class="cls-2" d="M559.9,409.69h-2.02v-2h4.02v6h-.61l-.41-.74c-.74.59-1.64.94-2.52.94-2.9,0-4.86-2.79-4.86-6.19s1.96-6.21,4.86-6.21c1.42,0,2.9.92,3.71,2.3l-1.19,1.12c-.77-.99-1.55-1.42-2.39-1.42-1.51,0-2.79,1.6-2.79,4.21s1.28,4.2,2.79,4.2c.49,0,.95-.14,1.42-.47v-1.73Z"/>
    <path class="cls-2" d="M567.69,411.69h3.4v2h-5.4v-12.01h2v10.01Z"/>
    <path class="cls-2" d="M572.28,403.68v-2h8.8v2h-3.4v10.01h-2v-10.01h-3.4Z"/>
    <path class="cls-2" d="M590.39,404.79c0-1.84,1.48-3.31,3.29-3.31s3.31,1.48,3.31,3.31c0,.83-.32,1.58-.85,2.18.88.72,1.44,1.8,1.44,3.01,0,2.16-1.75,3.91-3.91,3.91s-3.89-1.75-3.89-3.91c0-1.21.56-2.29,1.42-3.01-.5-.59-.83-1.35-.83-2.18ZM595.6,410.02c0-1.06-.85-1.93-1.91-1.93s-1.89.86-1.89,1.93.83,1.89,1.89,1.89,1.91-.85,1.91-1.89ZM592.37,404.79c0,.72.59,1.3,1.31,1.3s1.33-.58,1.33-1.3-.61-1.33-1.33-1.33-1.31.61-1.31,1.33Z"/>
    <path class="cls-2" d="M605.69,401.48c2.7,0,4.21,2.81,4.21,6.21s-1.51,6.19-4.21,6.19-4.2-2.79-4.2-6.19,1.49-6.21,4.2-6.21ZM605.69,411.89c1.35,0,2.09-1.91,2.09-4.2s-.74-4.21-2.09-4.21-2.07,1.91-2.07,4.21.74,4.2,2.07,4.2Z"/>
    <path class="cls-2" d="M616.71,405.53l-2.18.81-.45-.83,4.03-4.03h.59v10.21h2v2h-6v-2h2v-6.16Z"/>
  </g>
  <g id="glt802">
    <path class="cls-2" d="M559.4,296.24h-2.02v-2h4.02v6h-.61l-.41-.74c-.74.59-1.64.94-2.52.94-2.9,0-4.86-2.79-4.86-6.19s1.96-6.21,4.86-6.21c1.42,0,2.9.92,3.71,2.3l-1.19,1.12c-.77-.99-1.55-1.42-2.39-1.42-1.51,0-2.79,1.6-2.79,4.21s1.28,4.2,2.79,4.2c.49,0,.95-.14,1.42-.47v-1.73Z"/>
    <path class="cls-2" d="M567.19,298.24h3.4v2h-5.4v-12.01h2v10.01Z"/>
    <path class="cls-2" d="M571.78,290.23v-2h8.8v2h-3.4v10.01h-2v-10.01h-3.4Z"/>
    <path class="cls-2" d="M589.89,291.35c0-1.84,1.48-3.31,3.29-3.31s3.31,1.48,3.31,3.31c0,.83-.32,1.58-.85,2.18.88.72,1.44,1.8,1.44,3.01,0,2.16-1.75,3.91-3.91,3.91s-3.89-1.75-3.89-3.91c0-1.21.56-2.29,1.42-3.01-.5-.59-.83-1.35-.83-2.18ZM595.09,296.57c0-1.06-.85-1.93-1.91-1.93s-1.89.86-1.89,1.93.83,1.89,1.89,1.89,1.91-.85,1.91-1.89ZM591.87,291.35c0,.72.59,1.3,1.31,1.3s1.33-.58,1.33-1.3-.61-1.33-1.33-1.33-1.31.61-1.31,1.33Z"/>
    <path class="cls-2" d="M605.19,288.03c2.7,0,4.21,2.81,4.21,6.21s-1.51,6.19-4.21,6.19-4.2-2.79-4.2-6.19,1.49-6.21,4.2-6.21ZM605.19,298.44c1.35,0,2.09-1.91,2.09-4.2s-.74-4.21-2.09-4.21-2.07,1.91-2.07,4.21.74,4.2,2.07,4.2Z"/>
    <path class="cls-2" d="M619.19,292.03c0-1.1-.9-2-2-2s-2,.9-2,2v1.01h-2v-1.01c0-2.2,1.8-4,4-4s4.01,1.8,4.01,4c0,1.66-.76,2.68-1.91,3.76l-2.59,2.45h4.5v2h-8.01v-.72l4.3-4.55c.67-.7,1.69-1.76,1.69-2.94Z"/>
  </g>
  <g id="glt803">
    <rect class="cls-4" x="482.34" y="169.72" width="130.1" height="58.88"/>
    <g>
      <path class="cls-2" d="M519.59,201.17h-2.02v-2h4.02v6h-.61l-.41-.74c-.74.59-1.64.94-2.52.94-2.9,0-4.86-2.79-4.86-6.19s1.96-6.21,4.86-6.21c1.42,0,2.9.92,3.71,2.3l-1.19,1.12c-.77-.99-1.55-1.42-2.39-1.42-1.51,0-2.79,1.6-2.79,4.21s1.28,4.2,2.79,4.2c.49,0,.95-.14,1.42-.47v-1.73Z"/>
      <path class="cls-2" d="M527.39,203.17h3.4v2h-5.4v-12.01h2v10.01Z"/>
      <path class="cls-2" d="M531.97,195.15v-2h8.8v2h-3.4v10.01h-2v-10.01h-3.4Z"/>
      <path class="cls-2" d="M550.08,196.27c0-1.84,1.48-3.31,3.29-3.31s3.31,1.48,3.31,3.31c0,.83-.32,1.58-.85,2.18.88.72,1.44,1.8,1.44,3.01,0,2.16-1.75,3.91-3.91,3.91s-3.89-1.75-3.89-3.91c0-1.21.56-2.29,1.42-3.01-.5-.59-.83-1.35-.83-2.18ZM555.29,201.49c0-1.06-.85-1.93-1.91-1.93s-1.89.86-1.89,1.93.83,1.89,1.89,1.89,1.91-.85,1.91-1.89ZM552.06,196.27c0,.72.59,1.3,1.31,1.3s1.33-.58,1.33-1.3-.61-1.33-1.33-1.33-1.31.61-1.31,1.33Z"/>
      <path class="cls-2" d="M565.38,192.96c2.7,0,4.21,2.81,4.21,6.21s-1.51,6.19-4.21,6.19-4.2-2.79-4.2-6.19,1.49-6.21,4.2-6.21ZM565.38,203.36c1.35,0,2.09-1.91,2.09-4.2s-.74-4.21-2.09-4.21-2.07,1.91-2.07,4.21.74,4.2,2.07,4.2Z"/>
      <path class="cls-2" d="M581.4,201.37c0,2.2-1.8,4-4.01,4-1.84,0-3.31-1.21-3.82-2.83l1.89-.67c.22.81.97,1.49,1.93,1.49,1.1,0,2-.9,2-2s-.9-2-2-2h-1.5v-.61l2.65-3.6h-3.24l-.97,1.6h-.59v-3.6h7.87v.99l-2.63,3.53c1.37.63,2.43,1.96,2.43,3.69Z"/>
    </g>
  </g>
  <rect class="cls-4" x="107.65" y="280.54" width="171.91" height="96.95"/>
  <g>
    <path class="cls-2" d="M166.41,331.02h-2.02v-2h4.02v6h-.61l-.41-.74c-.74.59-1.64.94-2.52.94-2.9,0-4.86-2.79-4.86-6.19s1.96-6.21,4.86-6.21c1.42,0,2.9.92,3.71,2.3l-1.19,1.12c-.77-.99-1.55-1.42-2.39-1.42-1.51,0-2.79,1.6-2.79,4.21s1.28,4.2,2.79,4.2c.49,0,.95-.14,1.42-.47v-1.73Z"/>
    <path class="cls-2" d="M174.21,333.02h3.4v2h-5.4v-12.01h2v10.01Z"/>
    <path class="cls-2" d="M178.8,325v-2h8.8v2h-3.4v10.01h-2v-10.01h-3.4Z"/>
    <path class="cls-2" d="M196.9,326.12c0-1.84,1.48-3.31,3.29-3.31s3.31,1.48,3.31,3.31c0,.83-.32,1.58-.85,2.18.88.72,1.44,1.8,1.44,3.01,0,2.16-1.75,3.91-3.91,3.91s-3.89-1.75-3.89-3.91c0-1.21.56-2.29,1.42-3.01-.5-.59-.83-1.35-.83-2.18ZM202.11,331.34c0-1.06-.85-1.93-1.91-1.93s-1.89.86-1.89,1.93.83,1.89,1.89,1.89,1.91-.85,1.91-1.89ZM198.88,326.12c0,.72.59,1.3,1.31,1.3s1.33-.58,1.33-1.3-.61-1.33-1.33-1.33-1.31.61-1.31,1.33Z"/>
    <path class="cls-2" d="M211.21,326.86l-2.18.81-.45-.83,4.03-4.03h.59v10.21h2v2h-6v-2h2v-6.16Z"/>
    <path class="cls-2" d="M223.22,326.86l-2.18.81-.45-.83,4.03-4.03h.59v10.21h2v2h-6v-2h2v-6.16Z"/>
  </g>
  <rect class="cls-4" x="108.53" y="194.64" width="170.17" height="67.87"/>
  <g>
    <path class="cls-2" d="M165.81,230.59h-2.02v-2h4.02v6h-.61l-.41-.74c-.74.59-1.64.94-2.52.94-2.9,0-4.86-2.79-4.86-6.19s1.96-6.21,4.86-6.21c1.42,0,2.9.92,3.71,2.3l-1.19,1.12c-.77-.99-1.55-1.42-2.39-1.42-1.51,0-2.79,1.6-2.79,4.21s1.28,4.2,2.79,4.2c.49,0,.95-.14,1.42-.47v-1.73Z"/>
    <path class="cls-2" d="M173.6,232.58h3.4v2h-5.4v-12.01h2v10.01Z"/>
    <path class="cls-2" d="M178.19,224.57v-2h8.8v2h-3.4v10.01h-2v-10.01h-3.4Z"/>
    <path class="cls-2" d="M196.3,225.69c0-1.84,1.48-3.31,3.29-3.31s3.31,1.48,3.31,3.31c0,.83-.32,1.58-.85,2.18.88.72,1.44,1.8,1.44,3.01,0,2.16-1.75,3.91-3.91,3.91s-3.89-1.75-3.89-3.91c0-1.21.56-2.29,1.42-3.01-.5-.59-.83-1.35-.83-2.18ZM201.5,230.91c0-1.06-.85-1.93-1.91-1.93s-1.89.86-1.89,1.93.83,1.89,1.89,1.89,1.91-.85,1.91-1.89ZM198.28,225.69c0,.72.59,1.3,1.31,1.3s1.33-.58,1.33-1.3-.61-1.33-1.33-1.33-1.31.61-1.31,1.33Z"/>
    <path class="cls-2" d="M210.61,226.43l-2.18.81-.45-.83,4.03-4.03h.59v10.21h2v2h-6v-2h2v-6.16Z"/>
    <path class="cls-2" d="M223.61,222.38c2.7,0,4.21,2.81,4.21,6.21s-1.51,6.19-4.21,6.19-4.2-2.79-4.2-6.19,1.49-6.21,4.2-6.21ZM223.61,232.78c1.35,0,2.09-1.91,2.09-4.2s-.74-4.21-2.09-4.21-2.07,1.91-2.07,4.21.74,4.2,2.07,4.2Z"/>
  </g>
  <text class="cls-3" transform="translate(519.35 117.82)"><tspan x="0" y="0">GLT601</tspan></text>
  <rect class="cls-4" x="482.34" y="98.4" width="128.28" height="58.88"/>
  <g>
    <path class="cls-2" d="M518.78,129.84h-2.02v-2h4.02v6h-.61l-.41-.74c-.74.59-1.64.94-2.52.94-2.9,0-4.86-2.79-4.86-6.19s1.96-6.21,4.86-6.21c1.42,0,2.9.92,3.71,2.3l-1.19,1.12c-.77-.99-1.55-1.42-2.39-1.42-1.51,0-2.79,1.6-2.79,4.21s1.28,4.2,2.79,4.2c.49,0,.95-.14,1.42-.47v-1.73Z"/>
    <path class="cls-2" d="M526.58,131.84h3.4v2h-5.4v-12.01h2v10.01Z"/>
    <path class="cls-2" d="M531.16,123.83v-2h8.8v2h-3.4v10.01h-2v-10.01h-3.4Z"/>
    <path class="cls-2" d="M549.27,124.94c0-1.84,1.48-3.31,3.29-3.31s3.31,1.48,3.31,3.31c0,.83-.32,1.58-.85,2.18.88.72,1.44,1.8,1.44,3.01,0,2.16-1.75,3.91-3.91,3.91s-3.89-1.75-3.89-3.91c0-1.21.56-2.29,1.42-3.01-.5-.59-.83-1.35-.83-2.18ZM554.48,130.17c0-1.06-.85-1.93-1.91-1.93s-1.89.86-1.89,1.93.83,1.89,1.89,1.89,1.91-.85,1.91-1.89ZM551.25,124.94c0,.72.59,1.3,1.31,1.3s1.33-.58,1.33-1.3-.61-1.33-1.33-1.33-1.31.61-1.31,1.33Z"/>
    <path class="cls-2" d="M564.57,121.63c2.7,0,4.21,2.81,4.21,6.21s-1.51,6.19-4.21,6.19-4.2-2.79-4.2-6.19,1.49-6.21,4.2-6.21ZM564.57,132.04c1.35,0,2.09-1.91,2.09-4.2s-.74-4.21-2.09-4.21-2.07,1.91-2.07,4.21.74,4.2,2.07,4.2Z"/>
    <path class="cls-2" d="M571.79,130.06l5.87-8.43h.92v8.21h2.02v2h-2.02v2h-2v-2h-4.79v-1.78ZM576.58,129.84v-3.71l-2.58,3.71h2.58Z"/>
  </g>
  <rect class="cls-4" x="482.23" y="44.35" width="106.71" height="40.84"/>
  <g>
    <path class="cls-2" d="M507.88,66.78h-2.02v-2h4.02v6h-.61l-.41-.74c-.74.59-1.64.94-2.52.94-2.9,0-4.86-2.79-4.86-6.19s1.96-6.21,4.86-6.21c1.42,0,2.9.92,3.71,2.3l-1.19,1.12c-.77-.99-1.55-1.42-2.39-1.42-1.51,0-2.79,1.6-2.79,4.21s1.28,4.2,2.79,4.2c.49,0,.95-.14,1.42-.47v-1.73Z"/>
    <path class="cls-2" d="M515.67,68.78h3.4v2h-5.4v-12.01h2v10.01Z"/>
    <path class="cls-2" d="M520.26,60.76v-2h8.8v2h-3.4v10.01h-2v-10.01h-3.4Z"/>
    <path class="cls-2" d="M538.37,61.88c0-1.84,1.48-3.31,3.29-3.31s3.31,1.48,3.31,3.31c0,.83-.32,1.58-.85,2.18.88.72,1.44,1.8,1.44,3.01,0,2.16-1.75,3.91-3.91,3.91s-3.89-1.75-3.89-3.91c0-1.21.56-2.29,1.42-3.01-.5-.59-.83-1.35-.83-2.18ZM543.57,67.1c0-1.06-.85-1.93-1.91-1.93s-1.89.86-1.89,1.93.83,1.89,1.89,1.89,1.91-.85,1.91-1.89ZM540.35,61.88c0,.72.59,1.3,1.31,1.3s1.33-.58,1.33-1.3-.61-1.33-1.33-1.33-1.31.61-1.31,1.33Z"/>
    <path class="cls-2" d="M553.67,58.57c2.7,0,4.21,2.81,4.21,6.21s-1.51,6.19-4.21,6.19-4.2-2.79-4.2-6.19,1.49-6.21,4.2-6.21ZM553.67,68.97c1.35,0,2.09-1.91,2.09-4.2s-.74-4.21-2.09-4.21-2.07,1.91-2.07,4.21.74,4.2,2.07,4.2Z"/>
    <path class="cls-2" d="M562.27,58.76h7v3.6h-.59l-.95-1.6h-3.44v2.47c.43-.18.92-.25,1.39-.25,2.21,0,4.01,1.8,4.01,4s-1.8,4-4.01,4c-1.8,0-3.31-1.21-3.82-2.83l1.89-.67c.22.81.97,1.49,1.93,1.49,1.1,0,2-.9,2-2s-.9-2-2-2c-.74,0-1.3.38-1.66.88h-1.75v-7.09Z"/>
  </g>
  <rect class="cls-4" x="289.66" y="19.79" width="83.77" height="75.32"/>
  <g>
    <path class="cls-2" d="M303.84,59.46h-2.02v-2h4.02v6h-.61l-.41-.74c-.74.59-1.64.94-2.52.94-2.9,0-4.86-2.79-4.86-6.19s1.96-6.21,4.86-6.21c1.42,0,2.9.92,3.71,2.3l-1.19,1.12c-.77-.99-1.55-1.42-2.39-1.42-1.51,0-2.79,1.6-2.79,4.21s1.28,4.2,2.79,4.2c.49,0,.95-.14,1.42-.47v-1.73Z"/>
    <path class="cls-2" d="M311.64,61.46h3.4v2h-5.4v-12.01h2v10.01Z"/>
    <path class="cls-2" d="M316.22,53.45v-2h8.8v2h-3.4v10.01h-2v-10.01h-3.4Z"/>
    <path class="cls-2" d="M334.33,54.56c0-1.84,1.48-3.31,3.29-3.31s3.31,1.48,3.31,3.31c0,.83-.32,1.58-.85,2.18.88.72,1.44,1.8,1.44,3.01,0,2.16-1.75,3.91-3.91,3.91s-3.89-1.75-3.89-3.91c0-1.21.56-2.29,1.42-3.01-.5-.59-.83-1.35-.83-2.18ZM339.54,59.78c0-1.06-.85-1.93-1.91-1.93s-1.89.86-1.89,1.93.83,1.89,1.89,1.89,1.91-.85,1.91-1.89ZM336.31,54.56c0,.72.59,1.3,1.31,1.3s1.33-.58,1.33-1.3-.61-1.33-1.33-1.33-1.31.61-1.31,1.33Z"/>
    <path class="cls-2" d="M349.63,51.25c2.7,0,4.21,2.81,4.21,6.21s-1.51,6.19-4.21,6.19-4.2-2.79-4.2-6.19,1.49-6.21,4.2-6.21ZM349.63,61.66c1.35,0,2.09-1.91,2.09-4.2s-.74-4.21-2.09-4.21-2.07,1.91-2.07,4.21.74,4.2,2.07,4.2Z"/>
    <path class="cls-2" d="M357.05,53.45v-2h8.61v.97l-5.49,11.04h-2.12l4.97-10.01h-5.96Z"/>
  </g>
  <rect class="cls-4" x="390.83" y="19.79" width="80.88" height="75.32"/>
  <g>
    <path class="cls-2" d="M403.57,59.46h-2.02v-2h4.02v6h-.61l-.41-.74c-.74.59-1.64.94-2.52.94-2.9,0-4.86-2.79-4.86-6.19s1.96-6.21,4.86-6.21c1.42,0,2.9.92,3.71,2.3l-1.19,1.12c-.77-.99-1.55-1.42-2.39-1.42-1.51,0-2.79,1.6-2.79,4.21s1.28,4.2,2.79,4.2c.49,0,.95-.14,1.42-.47v-1.73Z"/>
    <path class="cls-2" d="M411.36,61.46h3.4v2h-5.4v-12.01h2v10.01Z"/>
    <path class="cls-2" d="M415.95,53.45v-2h8.8v2h-3.4v10.01h-2v-10.01h-3.4Z"/>
    <path class="cls-2" d="M434.06,54.56c0-1.84,1.48-3.31,3.29-3.31s3.31,1.48,3.31,3.31c0,.83-.32,1.58-.85,2.18.88.72,1.44,1.8,1.44,3.01,0,2.16-1.75,3.91-3.91,3.91s-3.89-1.75-3.89-3.91c0-1.21.56-2.29,1.42-3.01-.5-.59-.83-1.35-.83-2.18ZM439.26,59.78c0-1.06-.85-1.93-1.91-1.93s-1.89.86-1.89,1.93.83,1.89,1.89,1.89,1.91-.85,1.91-1.89ZM436.04,54.56c0,.72.59,1.3,1.31,1.3s1.33-.58,1.33-1.3-.61-1.33-1.33-1.33-1.31.61-1.31,1.33Z"/>
    <path class="cls-2" d="M449.36,51.25c2.7,0,4.21,2.81,4.21,6.21s-1.51,6.19-4.21,6.19-4.2-2.79-4.2-6.19,1.49-6.21,4.2-6.21ZM449.36,61.66c1.35,0,2.09-1.91,2.09-4.2s-.74-4.21-2.09-4.21-2.07,1.91-2.07,4.21.74,4.2,2.07,4.2Z"/>
    <path class="cls-2" d="M462.23,51.45h2.45l-2.97,4.23c2.05.16,3.67,1.89,3.67,3.98,0,2.2-1.8,4-4.02,4s-3.98-1.8-4-4c-.02-1.13.47-1.94,1.04-2.75l3.82-5.46ZM461.36,57.66c-1.1,0-2,.9-2,2s.9,2,2,2,2-.9,2-2-.9-2-2-2Z"/>
  </g>
  <rect class="cls-4" x="108.53" y="108.41" width="170.17" height="67.87"/>
  <g>
    <path class="cls-2" d="M165.91,144.36h-2.02v-2h4.02v6h-.61l-.41-.74c-.74.59-1.64.94-2.52.94-2.9,0-4.86-2.79-4.86-6.19s1.96-6.21,4.86-6.21c1.42,0,2.9.92,3.71,2.3l-1.19,1.12c-.77-.99-1.55-1.42-2.39-1.42-1.51,0-2.79,1.6-2.79,4.21s1.28,4.2,2.79,4.2c.49,0,.95-.14,1.42-.47v-1.73Z"/>
    <path class="cls-2" d="M173.7,146.35h3.4v2h-5.4v-12.01h2v10.01Z"/>
    <path class="cls-2" d="M178.29,138.34v-2h8.8v2h-3.4v10.01h-2v-10.01h-3.4Z"/>
    <path class="cls-2" d="M196.4,139.46c0-1.84,1.48-3.31,3.29-3.31s3.31,1.48,3.31,3.31c0,.83-.32,1.58-.85,2.18.88.72,1.44,1.8,1.44,3.01,0,2.16-1.75,3.91-3.91,3.91s-3.89-1.75-3.89-3.91c0-1.21.56-2.29,1.42-3.01-.5-.59-.83-1.35-.83-2.18ZM201.6,144.68c0-1.06-.85-1.93-1.91-1.93s-1.89.86-1.89,1.93.83,1.89,1.89,1.89,1.91-.85,1.91-1.89ZM198.38,139.46c0,.72.59,1.3,1.31,1.3s1.33-.58,1.33-1.3-.61-1.33-1.33-1.33-1.31.61-1.31,1.33Z"/>
    <path class="cls-2" d="M211.7,136.15c2.7,0,4.21,2.81,4.21,6.21s-1.51,6.19-4.21,6.19-4.2-2.79-4.2-6.19,1.49-6.21,4.2-6.21ZM211.7,146.55c1.35,0,2.09-1.91,2.09-4.2s-.74-4.21-2.09-4.21-2.07,1.91-2.07,4.21.74,4.2,2.07,4.2Z"/>
    <path class="cls-2" d="M226.68,142.92l-3.82,5.44h-2.45l2.95-4.21c-2.03-.16-3.65-1.91-3.65-4,0-2.2,1.8-4,4-4s3.98,1.8,4.01,4c.02,1.15-.47,1.95-1.04,2.77ZM223.71,138.14c-1.1,0-2,.9-2,2s.9,2.02,2,2.02,2-.9,2-2.02-.9-2-2-2Z"/>
  </g>
  <rect class="cls-6" x="289.66" y="479.01" width="83.77" height="30.38"/>
  <rect class="cls-6" x="388.07" y="479.07" width="83.77" height="30.38"/>
  <g>
    <rect class="cls-1" x="215.13" y="461.69" width="12.79" height="9.67"/>
    <rect class="cls-1" x="240.7" y="481.03" width="12.79" height="9.67"/>
    <rect class="cls-1" x="227.91" y="471.36" width="12.79" height="9.67"/>
    <rect class="cls-1" x="253.49" y="490.7" width="12.79" height="9.67"/>
    <rect class="cls-1" x="266.05" y="500.21" width="12.79" height="9.67"/>
    <rect class="cls-1" x="215.13" y="471.36" width="25.57" height="38.51"/>
    <rect class="cls-1" x="240.7" y="490.7" width="12.79" height="19.17"/>
    <rect class="cls-1" x="253.49" y="500.37" width="12.57" height="9.5"/>
  </g>
  <rect class="cls-4" x="108.08" y="1.5" width="170.17" height="88.43"/>
  <g>
    <path class="cls-2" d="M165.52,47.72h-2.02v-2h4.02v6h-.61l-.41-.74c-.74.59-1.64.94-2.52.94-2.9,0-4.86-2.79-4.86-6.19s1.96-6.21,4.86-6.21c1.42,0,2.9.92,3.71,2.3l-1.19,1.12c-.77-.99-1.55-1.42-2.39-1.42-1.51,0-2.79,1.6-2.79,4.21s1.28,4.2,2.79,4.2c.49,0,.95-.14,1.42-.47v-1.73Z"/>
    <path class="cls-2" d="M173.31,49.72h3.4v2h-5.4v-12.01h2v10.01Z"/>
    <path class="cls-2" d="M177.9,41.71v-2h8.8v2h-3.4v10.01h-2v-10.01h-3.4Z"/>
    <path class="cls-2" d="M196.01,42.82c0-1.84,1.48-3.31,3.29-3.31s3.31,1.48,3.31,3.31c0,.83-.32,1.58-.85,2.18.88.72,1.44,1.8,1.44,3.01,0,2.16-1.75,3.91-3.91,3.91s-3.89-1.75-3.89-3.91c0-1.21.56-2.29,1.42-3.01-.5-.59-.83-1.35-.83-2.18ZM201.21,48.05c0-1.06-.85-1.93-1.91-1.93s-1.89.86-1.89,1.93.83,1.89,1.89,1.89,1.91-.85,1.91-1.89ZM197.99,42.82c0,.72.59,1.3,1.31,1.3s1.33-.58,1.33-1.3-.61-1.33-1.33-1.33-1.31.61-1.31,1.33Z"/>
    <path class="cls-2" d="M211.31,39.51c2.7,0,4.21,2.81,4.21,6.21s-1.51,6.19-4.21,6.19-4.2-2.79-4.2-6.19,1.49-6.21,4.2-6.21ZM211.31,49.92c1.35,0,2.09-1.91,2.09-4.2s-.74-4.21-2.09-4.21-2.07,1.91-2.07,4.21.74,4.2,2.07,4.2Z"/>
    <path class="cls-2" d="M220.02,42.82c0-1.84,1.48-3.31,3.29-3.31s3.31,1.48,3.31,3.31c0,.83-.32,1.58-.85,2.18.88.72,1.44,1.8,1.44,3.01,0,2.16-1.75,3.91-3.91,3.91s-3.89-1.75-3.89-3.91c0-1.21.56-2.29,1.42-3.01-.5-.59-.83-1.35-.83-2.18ZM225.22,48.05c0-1.06-.85-1.93-1.91-1.93s-1.89.86-1.89,1.93.83,1.89,1.89,1.89,1.91-.85,1.91-1.89ZM222,42.82c0,.72.59,1.3,1.31,1.3s1.33-.58,1.33-1.3-.61-1.33-1.33-1.33-1.31.61-1.31,1.33Z"/>
  </g>
</svg>