<?xml version="1.0" encoding="UTF-8"?>
<svg id="katman_1" data-name="katman 1" xmlns="http://www.w3.org/2000/svg" xmlns:xlink="http://www.w3.org/1999/xlink" viewBox="0 0 759.29 505.06">
  <defs>
    <style>
      .cls-1 {
        fill: #3c3c3b;
      }

      .cls-2 {
        stroke-width: 1.79px;
      }

      .cls-2, .cls-3, .cls-4, .cls-5, .cls-6, .cls-7, .cls-8, .cls-9, .cls-10, .cls-11 {
        stroke-miterlimit: 10;
      }

      .cls-2, .cls-3, .cls-4, .cls-5, .cls-6, .cls-9, .cls-10 {
        stroke: #2d54a1;
      }

      .cls-2, .cls-3, .cls-4, .cls-5, .cls-6, .cls-9, .cls-10, .cls-11 {
        fill: none;
      }

      .cls-12 {
        fill: #f6f6f6;
      }

      .cls-3 {
        stroke-width: 2.17px;
      }

      .cls-4 {
        stroke-width: 2.11px;
      }

      .cls-5 {
        stroke-width: 2.08px;
      }

      .cls-6 {
        stroke-width: 2px;
      }

      .cls-7 {
        stroke-width: 2.81px;
      }

      .cls-7, .cls-8 {
        stroke: #2954a1;
      }

      .cls-7, .cls-8, .cls-13 {
        fill: #fff;
      }

      .cls-8 {
        stroke-width: 3px;
      }

      .cls-14 {
        fill: #1d1d1b;
      }

      .cls-15 {
        fill: #e52629;
      }

      .cls-16 {
        fill: #dadada;
      }

      .cls-10 {
        stroke-width: 4px;
      }

      .cls-17 {
        fill: #878787;
      }

      .cls-18 {
        fill: #706f6f;
      }

      .cls-19 {
        fill: #2954a1;
      }

      .cls-20 {
        fill: #2d54a1;
      }

      .cls-21 {
        fill: #ececec;
      }

      .cls-11 {
        stroke: #dadada;
        stroke-width: .66px;
      }
    </style>
    <symbol id="aquarium_class" data-name="aquarium class" viewBox="0 0 148.55 110.13">
      <rect class="cls-20" width="148.55" height="110.13"/>
    </symbol>
    <symbol id="glt_vr" data-name="glt vr" viewBox="0 0 174.62 160.79">
      <g>
        <rect class="cls-20" x="79.31" width="95.31" height="160.79"/>
        <rect class="cls-20" width="82.2" height="160.79"/>
      </g>
    </symbol>
  </defs>
  <rect class="cls-17" x="274.66" y="467.67" width="83.77" height="30.38"/>
  <rect class="cls-17" x="373.07" y="467.74" width="83.77" height="30.38"/>
  <rect class="cls-10" x="276.69" y="105.35" width="176.37" height="340.19"/>
  <rect class="cls-6" x="324.83" y="15.67" width="128.67" height="71.5"/>
  <rect class="cls-2" x="471.51" y="25.58" width="173.36" height="61.32"/>
  <polygon class="cls-20" points="480.9 485.29 466.71 487.21 466.42 484.9 480.6 482.97 480.9 485.29"/>
  <polygon class="cls-20" points="480.38 481.74 466.18 480.28 466.44 477.95 480.65 479.42 480.38 481.74"/>
  <polygon class="cls-20" points="480.74 477.76 467.13 473.52 467.85 471.29 481.46 475.53 480.74 477.76"/>
  <polygon class="cls-20" points="482.23 474.32 471.03 465.49 472.5 463.67 483.7 472.49 482.23 474.32"/>
  <polygon class="cls-20" points="484.92 471.59 476.69 459.95 478.62 458.61 486.84 470.25 484.92 471.59"/>
  <polygon class="cls-20" points="488.54 469.89 483.74 456.47 485.96 455.7 490.76 469.12 488.54 469.89"/>
  <g>
    <polygon class="cls-20" points="500.28 475.09 514.17 471.64 514.72 473.91 500.83 477.36 500.28 475.09"/>
    <polygon class="cls-20" points="501.18 478.56 515.46 478.47 515.45 480.81 501.17 480.9 501.18 478.56"/>
    <polygon class="cls-20" points="501.25 482.56 515.24 485.29 514.77 487.59 500.78 484.86 501.25 482.56"/>
    <polygon class="cls-20" points="500.15 486.14 512.24 493.7 510.98 495.67 498.89 488.12 500.15 486.14"/>
    <polygon class="cls-20" points="497.78 489.15 507.22 499.83 505.45 501.36 496 490.69 497.78 489.15"/>
    <polygon class="cls-20" points="494.36 491.23 500.59 504.05 498.47 505.06 492.24 492.23 494.36 491.23"/>
  </g>
  <g>
    <path class="cls-15" d="M489.6,481.13v.43s-.53,0-.53,0v.24s.44-.02.44-.02v.41s-.43.01-.43.01l.02.5-.49.03v-1.56s.98-.04.98-.04Z"/>
    <path class="cls-15" d="M490.29,481.16v1.52s-.48.03-.48.03l-.02-1.53.5-.02Z"/>
    <path class="cls-15" d="M491.1,482.21l-.08.02.02.48h-.48s-.02-1.51-.02-1.51l.74-.04.37.06.04.82-.16.08.3.43-.44.2-.29-.54ZM490.98,481.87l.25-.02v-.32s-.26,0-.26,0v.34Z"/>
    <path class="cls-15" d="M492.89,482.69h-.97s0-1.46,0-1.46l.09-.06.84-.02v.39s-.48,0-.48,0v.2s.35,0,.35,0v.36s-.38,0-.38,0v.21s.55-.01.55-.01v.4Z"/>
    <path class="cls-15" d="M488.8,483.6h-.3s0-.45,0-.45l.03-.02h.26s0,.11,0,.11h-.14s0,.06,0,.06h.11s0,.11,0,.11h-.11s0,.06,0,.06h.17s0,.12,0,.12Z"/>
    <path class="cls-15" d="M489.04,483.45l-.04.03v.12s-.17,0-.17,0l.03-.19.08-.05-.08-.05v-.17s.14,0,.14,0v.12s.04.04.04.04l.03-.03v-.12s.15,0,.15,0l-.02.17-.07.05.07.05.03.19h-.16s0-.11,0-.11l-.04-.03Z"/>
    <path class="cls-15" d="M489.62,483.26h-.12s.02.33.02.33h-.15s0-.33,0-.33h-.11s0-.13,0-.13h.35s0,.13,0,.13Z"/>
    <path class="cls-15" d="M489.82,483.13v.46s-.15,0-.15,0v-.47s.15,0,.15,0Z"/>
    <path class="cls-15" d="M490.27,483.59h-.14s0-.14,0-.14l-.1-.13v.26s-.14,0-.14,0v-.45s.13-.01.13-.01l.11.15v-.15s.14,0,.14,0v.46Z"/>
    <path class="cls-15" d="M490.42,483.13h.26s0,.13,0,.13h-.18v.2h.07s0-.12,0-.12h.14s-.01.26-.01.26h-.33s-.02-.38-.02-.38l.07-.09Z"/>
    <path class="cls-15" d="M491.12,483.13l.02.41-.06.05h-.29s-.03-.02-.03-.02v-.43s.14,0,.14,0v.31s.1-.01.1-.01v-.31s.13,0,.13,0Z"/>
    <path class="cls-15" d="M491.35,483.13v.46s-.15,0-.15,0v-.47s.15,0,.15,0Z"/>
    <path class="cls-15" d="M491.72,483.13v.13s-.14,0-.14,0v.03s.15.07.15.07v.23s-.3.03-.3.03v-.15s.15,0,.15,0v-.04s-.16-.09-.16-.09v-.19s.14-.01.14-.01h.16Z"/>
    <path class="cls-15" d="M492.02,483.43h-.09s0,.16,0,.16h-.14v-.45s.14,0,.14,0v.17s.09,0,.09,0v-.18s.15,0,.15,0v.48s-.15,0-.15,0v-.18Z"/>
    <path class="cls-15" d="M492.54,483.6h-.3s0-.45,0-.45l.03-.02h.26s0,.11,0,.11h-.14s0,.06,0,.06h.11s0,.11,0,.11h-.11s0,.06,0,.06h.17s0,.12,0,.12Z"/>
    <path class="cls-15" d="M492.77,483.45h-.02s0,.15,0,.15h-.15s0-.46,0-.46h.23s.11,0,.11,0v.25s-.04.03-.04.03l.09.13-.13.06-.09-.17ZM492.73,483.35h.08s0-.1,0-.1h-.08s0,.1,0,.1Z"/>
  </g>
  <path class="cls-15" d="M486.71,486.46l3.88,2.89c.06.05.15.05.21,0l3.88-2.89c.06-.04.08-.12.06-.19-.02-.07-.09-.12-.16-.12h-1.74v-1.79c0-.1-.08-.17-.17-.17h-3.93c-.1,0-.17.08-.17.17v1.79h-1.74c-.07,0-.14.05-.16.12-.02.07,0,.15.06.19Z"/>
  <path class="cls-15" d="M497.76,475.9s-.08-.05-.14-.05c-.02,0-.03,0-.05,0l-3.1.66c-.05,0-.09.03-.12.08-.03.04-.05.09-.05.14h-3.38c.06-.14.1-.29.1-.44,0-.3-.11-.57-.33-.78-.22-.22-.48-.33-.78-.33s-.57.11-.78.33c-.22.22-.33.48-.33.78,0,.2.06.4.17.6-.26.08-.51.2-.75.36-.24.16-.44.31-.59.46-.15.15-.29.31-.42.48-.13.17-.22.3-.26.37-.04.07-.08.13-.1.18-.06.11-.06.22-.02.34.04.12.11.2.22.26.06.03.13.05.2.05.18,0,.32-.08.39-.24.02-.04.05-.09.1-.17.05-.08.14-.2.28-.37.14-.17.29-.32.46-.46.16-.14.38-.26.63-.37.26-.11.52-.16.8-.16h.22v.77c-.46.14-.83.4-1.12.79-.29.39-.43.83-.43,1.32v.07h4.43v-.07c0-.53-.17-1-.5-1.41-.33-.41-.76-.66-1.27-.77v-.71h3.06c0,.05.02.1.05.14.03.04.07.07.12.08l3.1.66s.03,0,.05,0c.06,0,.1-.02.14-.05.06-.04.08-.1.08-.17v-2.22c0-.07-.03-.13-.08-.17ZM490.22,476.6c-.09.09-.19.13-.31.13s-.22-.04-.31-.13c-.09-.09-.13-.19-.13-.31s.04-.22.13-.31c.09-.09.19-.13.31-.13s.22.04.31.13c.09.09.13.19.13.31s-.04.22-.13.31Z"/>
  <rect class="cls-5" x="129.49" y="222.09" width="130.54" height="110.07"/>
  <g>
    <path class="cls-20" d="M29.67,166.3H2.53v-18.99h3.65v14.2h8.15v-12.22h3.61v12.22h11.73v4.79Z"/>
    <path class="cls-20" d="M29.67,142.65H2.53v-4.8h23.45v-13.82h3.69v18.62Z"/>
    <path class="cls-20" d="M10.56,97.94h11.08c6.34,0,8.47,5.36,8.47,11.52s-2.13,11.52-8.47,11.52h-11.08c-6.34,0-8.47-5.41-8.47-11.52s2.13-11.52,8.47-11.52ZM11.56,116.18h9.04c4.54,0,5.74-2.77,5.74-6.72s-1.2-6.72-5.74-6.72h-9.04c-4.5,0-5.7,2.77-5.7,6.72s1.2,6.72,5.7,6.72Z"/>
    <path class="cls-20" d="M10.56,67.95h11.08c6.34,0,8.47,5.36,8.47,11.52s-2.13,11.52-8.47,11.52h-11.08c-6.34,0-8.47-5.41-8.47-11.52s2.13-11.52,8.47-11.52ZM11.56,86.19h9.04c4.54,0,5.74-2.77,5.74-6.72s-1.2-6.72-5.74-6.72h-9.04c-4.5,0-5.7,2.77-5.7,6.72s1.2,6.72,5.7,6.72Z"/>
    <path class="cls-20" d="M29.67,42.47l-11.4,6.77v6.96h11.4v4.79H2.53v-14.29c0-3.9,2.69-6.77,6.02-6.77h3.69c2.61,0,4.82,1.74,5.66,4.37l11.77-7.05v5.22ZM9.52,44.73c-2.25,0-3.33,1.13-3.33,4.09v7.38h8.43v-7.38c0-2.96-1.08-4.09-3.33-4.09h-1.77Z"/>
    <path class="cls-20" d="M29.67,6.79h8.11v4.79h-8.11v14.38h-3.57l-15.46-14.67v-4.51h15.34V1.85h3.69v4.94ZM16.5,11.58l9.48,8.93v-8.93h-9.48Z"/>
  </g>
  <rect class="cls-6" x="527.11" y="437.68" width="229.22" height="56.89"/>
  <rect class="cls-9" x="721.97" y="482.37" width="34.25" height="11.68"/>
  <rect class="cls-6" x="129.49" y="332.17" width="115.22" height="79.71"/>
  <g>
    <path class="cls-1" d="M143.64,360.96h4.89c2.06,0,3.74,1.68,3.74,3.74,0,.96-.29,1.68-.82,2.31,1.07.82,1.76,2,1.76,3.53,0,2.46-2,4.43-4.43,4.43h-5.14v-14ZM145.97,366.11h2.56c.78,0,1.41-.63,1.41-1.41s-.63-1.41-1.41-1.41h-2.56v2.81ZM145.97,372.64h2.81c1.16,0,2.1-.94,2.1-2.1s-.94-2.1-2.1-2.1h-2.81v4.2Z"/>
    <path class="cls-1" d="M159.97,360.96v8.88c0,2.04,1.05,3.02,2.33,3.02s2.35-.99,2.35-3.02v-8.88h2.33v8.88c0,3.44-2.1,5.35-4.68,5.35s-4.66-1.91-4.66-5.35v-8.88h2.33Z"/>
    <path class="cls-1" d="M178.89,370.31h-2.35v-2.33h4.68v6.99h-.71l-.48-.86c-.86.69-1.91,1.09-2.94,1.09-3.38,0-5.67-3.25-5.67-7.22s2.29-7.24,5.67-7.24c1.66,0,3.38,1.07,4.33,2.69l-1.39,1.3c-.9-1.16-1.81-1.66-2.79-1.66-1.76,0-3.25,1.87-3.25,4.91s1.49,4.89,3.25,4.89c.57,0,1.11-.17,1.66-.55v-2.02Z"/>
    <path class="cls-1" d="M145.97,400.17h-2.33v-14h2.33v6.45l4.62-6.45h2.86l-4.91,6.84,5.14,7.16h-2.86l-4.85-6.76v6.76Z"/>
    <path class="cls-1" d="M159.97,388.49h-2.33v-2.33h6.99v2.33h-2.33v9.34h2.33v2.33h-6.99v-2.33h2.33v-9.34Z"/>
    <path class="cls-1" d="M167.68,388.49v-2.33h10.27v2.33h-3.97v11.67h-2.33v-11.67h-3.97Z"/>
    <path class="cls-1" d="M186.66,385.93c1.72,0,3.53,1.07,4.51,2.69l-1.47,1.3c-.94-1.15-1.89-1.66-2.94-1.66-1.85,0-3.44,1.87-3.44,4.91s1.6,4.89,3.44,4.89c1.05,0,2-.48,2.94-1.66l1.47,1.3c-.99,1.62-2.79,2.69-4.51,2.69-3.53,0-5.9-3.25-5.9-7.22s2.37-7.24,5.9-7.24Z"/>
    <path class="cls-1" d="M202.01,391.31v-5.14h2.33v14h-2.33v-6.53h-4.68v6.53h-2.33v-14h2.33v5.14h4.68Z"/>
    <path class="cls-1" d="M209.01,386.16h6.99v2.33h-4.66v2.81h4.66v2.33h-4.66v4.2h4.66v2.33h-6.99v-14Z"/>
    <path class="cls-1" d="M227.93,386.16h2.1v14h-1.76l-5.48-8.94v8.94h-2.1v-14h1.74l5.5,8.94v-8.94Z"/>
  </g>
  <polygon class="cls-20" points="247.46 488.79 247.46 479.28 234.67 479.28 234.67 469.61 221.89 469.61 221.89 459.94 209.1 459.94 209.1 450.27 196.31 450.27 196.31 459.94 196.31 498.46 221.89 498.46 234.67 498.46 247.24 498.46 260.03 498.46 260.03 488.79 247.46 488.79"/>
  <line class="cls-9" x1="1.34" y1="451.11" x2="1.34" y2="450.39"/>
  <g>
    <path class="cls-1" d="M15.6,464.43h7.99v2.67h-5.33v3.22h5.33v2.66h-5.33v4.8h5.33v2.66h-7.99v-16.01Z"/>
    <path class="cls-1" d="M36.94,471.9v2.69h-7.99v-2.69h7.99Z"/>
    <path class="cls-1" d="M45.96,480.71c-1.73,0-3.02-.55-4.51-1.7l.31-2.38c1.61.86,2.93,1.42,4.3,1.42,1.2,0,2.74-.65,2.74-1.94,0-3.05-7.56-1.87-7.56-7.22,0-2.78,2.45-4.7,5.28-4.7,1.8,0,3.02.62,4.68,1.92l-.84,2.11c-1.13-.74-2.47-1.39-3.74-1.39-1.61,0-2.59.86-2.59,1.82,0,2.86,7.58,2.14,7.58,7.06,0,3.29-2.76,5.02-5.64,5.02Z"/>
    <path class="cls-1" d="M66.84,469.78c0,2.93-2.4,5.33-5.33,5.33h-3.22v5.33h-2.66v-16.01h5.88c2.93,0,5.33,2.4,5.33,5.35ZM64.18,469.78c0-1.49-1.2-2.69-2.66-2.69h-3.22v5.35h3.22c1.46,0,2.66-1.2,2.66-2.66Z"/>
    <path class="cls-1" d="M76.97,464.17c3.6,0,5.62,3.74,5.62,8.28s-2.02,8.26-5.62,8.26-5.59-3.72-5.59-8.26,1.99-8.28,5.59-8.28ZM76.97,478.04c1.8,0,2.78-2.54,2.78-5.59s-.98-5.62-2.78-5.62-2.76,2.54-2.76,5.62.98,5.59,2.76,5.59Z"/>
    <path class="cls-1" d="M99.53,480.44h-3.26l-3.84-5.33h-2.11v5.33h-2.66v-16.01h5.21c2.93,0,5.33,2.4,5.33,5.35,0,2.04-1.18,3.86-2.9,4.73l4.25,5.93ZM95.52,469.78c0-1.49-1.2-2.69-2.66-2.69h-2.54v5.35h2.54c1.46,0,2.66-1.2,2.66-2.66Z"/>
  </g>
  <g>
    <path class="cls-18" d="M20.59,382.36h-1.57v-1.55h3.12v4.67h-.48l-.32-.57c-.57.46-1.27.73-1.96.73-2.25,0-3.78-2.17-3.78-4.82s1.53-4.83,3.78-4.83c1.11,0,2.26.71,2.89,1.79l-.92.87c-.6-.77-1.2-1.11-1.86-1.11-1.18,0-2.17,1.25-2.17,3.28s1,3.26,2.17,3.26c.38,0,.74-.11,1.11-.36v-1.34Z"/>
    <path class="cls-18" d="M26.65,383.91h2.65v1.55h-4.2v-9.34h1.55v7.79Z"/>
    <path class="cls-18" d="M30.21,377.68v-1.56h6.85v1.56h-2.65v7.79h-1.55v-7.79h-2.65Z"/>
    <path class="cls-18" d="M43.14,382.52l4.57-6.56h.71v6.39h1.57v1.56h-1.57v1.55h-1.56v-1.55h-3.73v-1.39ZM46.86,382.36v-2.88l-2,2.88h2Z"/>
    <path class="cls-18" d="M55.43,379.12l-1.7.63-.35-.64,3.14-3.14h.46v7.94h1.55v1.55h-4.67v-1.55h1.56v-4.79Z"/>
    <path class="cls-18" d="M61.97,377.68v-1.56h6.7v.76l-4.27,8.59h-1.65l3.87-7.79h-4.64Z"/>
  </g>
  <g>
    <path class="cls-1" d="M596.71,469.4h-2.19v-2.19h6.58v2.19h-2.19v8.79h2.19v2.19h-6.58v-2.19h2.19v-8.79Z"/>
    <path class="cls-1" d="M603.96,469.4v-2.19h9.66v2.19h-3.73v10.98h-2.19v-10.98h-3.73Z"/>
    <path class="cls-1" d="M627.44,466.99c2.96,0,4.62,3.08,4.62,6.81s-1.66,6.79-4.62,6.79-4.6-3.06-4.6-6.79,1.64-6.81,4.6-6.81ZM627.44,478.4c1.48,0,2.29-2.09,2.29-4.6s-.81-4.62-2.29-4.62-2.27,2.09-2.27,4.62.81,4.6,2.27,4.6Z"/>
    <path class="cls-1" d="M636.23,467.2h7.03v2.19h-4.84v2.65h4.84v2.19h-4.84v6.14h-2.19v-13.17Z"/>
    <path class="cls-1" d="M647.21,467.2h7.03v2.19h-4.84v2.65h4.84v2.19h-4.84v6.14h-2.19v-13.17Z"/>
    <path class="cls-1" d="M660.39,469.4h-2.19v-2.19h6.58v2.19h-2.19v8.79h2.19v2.19h-6.58v-2.19h2.19v-8.79Z"/>
    <path class="cls-1" d="M674.51,466.99c1.62,0,3.32,1.01,4.25,2.53l-1.38,1.22c-.89-1.09-1.78-1.56-2.77-1.56-1.74,0-3.24,1.76-3.24,4.62s1.5,4.6,3.24,4.6c.99,0,1.88-.45,2.77-1.56l1.38,1.22c-.93,1.52-2.63,2.53-4.25,2.53-3.32,0-5.55-3.06-5.55-6.79s2.23-6.81,5.55-6.81Z"/>
    <path class="cls-1" d="M682.35,467.2h6.58v2.19h-4.39v2.65h4.39v2.19h-4.39v3.95h4.39v2.19h-6.58v-13.17Z"/>
  </g>
  <g id="gltaqua">
    <g>
      <use width="148.55" height="110.13" transform="translate(45.4 103.16) scale(1.44 1)" xlink:href="#aquarium_class"/>
      <g>
        <path class="cls-13" d="M62.09,170.2h-2.51v-10.13c0-3.96,2.26-6.14,5.01-6.14s5.03,2.18,5.03,6.14v10.13h-2.51v-5.33h-5.03v5.33ZM67.12,160.07c0-2.35-1.15-3.48-2.53-3.48s-2.5,1.13-2.5,3.48v2.14h5.03v-2.14Z"/>
        <path class="cls-13" d="M83.26,173.13c.65,0,1.53-.5,2.03-.96l.61,1.82c-.9.98-1.78,1.54-3.11,1.54-2.62,0-3.95-1.75-4.31-5.23-2.64-.77-4.08-4.13-4.08-8.09,0-4.54,1.87-8.28,5.26-8.28s5.28,3.74,5.28,8.28c0,3.89-1.38,7.2-3.95,8.04.2,1.9.81,2.88,2.28,2.88ZM79.65,167.8c1.69,0,2.62-2.54,2.62-5.59s-.93-5.62-2.62-5.62-2.6,2.54-2.6,5.62.93,5.59,2.6,5.59Z"/>
        <path class="cls-13" d="M92.2,154.19v10.15c0,2.33,1.13,3.46,2.5,3.46s2.53-1.13,2.53-3.46v-10.15h2.51v10.15c0,3.94-2.26,6.12-5.03,6.12s-5.01-2.18-5.01-6.12v-10.15h2.51Z"/>
        <path class="cls-13" d="M107.26,170.2h-2.51v-10.13c0-3.96,2.26-6.14,5.01-6.14s5.03,2.18,5.03,6.14v10.13h-2.51v-5.33h-5.03v5.33ZM112.29,160.07c0-2.35-1.15-3.48-2.53-3.48s-2.5,1.13-2.5,3.48v2.14h5.03v-2.14Z"/>
        <path class="cls-13" d="M130.98,170.2h-3.07l-3.61-5.33h-1.99v5.33h-2.51v-16.01h4.9c2.75,0,5.01,2.4,5.01,5.35,0,2.04-1.11,3.86-2.73,4.73l3.99,5.93ZM127.22,159.55c0-1.49-1.13-2.69-2.5-2.69h-2.39v5.35h2.39c1.38,0,2.5-1.2,2.5-2.66Z"/>
        <path class="cls-13" d="M137.38,156.86h-2.51v-2.66h7.52v2.66h-2.5v10.68h2.5v2.66h-7.52v-2.66h2.51v-10.68Z"/>
        <path class="cls-13" d="M149.93,154.19v10.15c0,2.33,1.13,3.46,2.5,3.46s2.53-1.13,2.53-3.46v-10.15h2.51v10.15c0,3.94-2.26,6.12-5.03,6.12s-5.01-2.18-5.01-6.12v-10.15h2.51Z"/>
        <path class="cls-13" d="M172.63,170.2v-9.65l-3.63,7.25h-.5l-3.63-7.25v9.65h-2.39v-16.01h2.05l4.22,8.42,4.22-8.42h2.05v16.01h-2.39Z"/>
        <path class="cls-13" d="M65.68,182.73c1.85,0,3.79,1.22,4.85,3.07l-1.58,1.49c-1.02-1.32-2.03-1.9-3.16-1.9-1.99,0-3.7,2.14-3.7,5.62s1.71,5.59,3.7,5.59c1.13,0,2.14-.55,3.16-1.9l1.58,1.49c-1.06,1.85-3,3.07-4.85,3.07-3.79,0-6.34-3.72-6.34-8.26s2.55-8.28,6.34-8.28Z"/>
        <path class="cls-13" d="M77.15,196.34h4.27v2.66h-6.77v-16.01h2.51v13.35Z"/>
        <path class="cls-13" d="M87.17,199h-2.51v-10.13c0-3.96,2.26-6.14,5.01-6.14s5.03,2.18,5.03,6.14v10.13h-2.51v-5.33h-5.03v5.33ZM92.2,188.87c0-2.35-1.15-3.48-2.53-3.48s-2.5,1.13-2.5,3.48v2.14h5.03v-2.14Z"/>
        <path class="cls-13" d="M103.18,199.27c-1.62,0-2.84-.55-4.24-1.7l.29-2.38c1.51.86,2.75,1.42,4.04,1.42,1.13,0,2.57-.65,2.57-1.94,0-3.05-7.11-1.87-7.11-7.22,0-2.78,2.3-4.7,4.96-4.7,1.69,0,2.84.62,4.4,1.92l-.79,2.11c-1.06-.74-2.32-1.39-3.52-1.39-1.51,0-2.44.86-2.44,1.82,0,2.86,7.13,2.14,7.13,7.06,0,3.29-2.6,5.02-5.3,5.02Z"/>
        <path class="cls-13" d="M115.73,199.27c-1.62,0-2.84-.55-4.24-1.7l.29-2.38c1.51.86,2.75,1.42,4.04,1.42,1.13,0,2.57-.65,2.57-1.94,0-3.05-7.11-1.87-7.11-7.22,0-2.78,2.3-4.7,4.96-4.7,1.69,0,2.84.62,4.4,1.92l-.79,2.11c-1.06-.74-2.32-1.39-3.52-1.39-1.51,0-2.44.86-2.44,1.82,0,2.86,7.13,2.14,7.13,7.06,0,3.29-2.6,5.02-5.3,5.02Z"/>
      </g>
      <g>
        <path class="cls-21" d="M62.92,125.28h-1.57v-1.55h3.12v4.66h-.48l-.32-.57c-.57.46-1.27.73-1.96.73-2.25,0-3.78-2.17-3.78-4.82s1.53-4.83,3.78-4.83c1.11,0,2.26.71,2.89,1.79l-.92.87c-.6-.77-1.21-1.11-1.86-1.11-1.18,0-2.17,1.25-2.17,3.28s.99,3.26,2.17,3.26c.38,0,.74-.11,1.11-.36v-1.34Z"/>
        <path class="cls-21" d="M68.98,126.83h2.65v1.55h-4.2v-9.34h1.56v7.79Z"/>
        <path class="cls-21" d="M72.55,120.6v-1.56h6.85v1.56h-2.65v7.79h-1.55v-7.79h-2.65Z"/>
        <path class="cls-21" d="M85.47,125.44l4.57-6.56h.71v6.39h1.57v1.56h-1.57v1.55h-1.55v-1.55h-3.73v-1.39ZM89.2,125.28v-2.89l-2,2.89h2Z"/>
        <path class="cls-21" d="M97.76,122.04l-1.69.63-.35-.64,3.14-3.14h.46v7.94h1.56v1.55h-4.66v-1.55h1.55v-4.79Z"/>
        <path class="cls-21" d="M111,125.43c0,1.71-1.4,3.11-3.12,3.11-1.43,0-2.58-.94-2.97-2.2l1.47-.52c.17.63.76,1.16,1.5,1.16.85,0,1.55-.7,1.55-1.55s-.7-1.55-1.55-1.55h-1.16v-.48l2.06-2.8h-2.52l-.76,1.25h-.46v-2.8h6.12v.77l-2.05,2.75c1.06.49,1.89,1.53,1.89,2.87Z"/>
        <path class="cls-21" d="M118.23,119.04h1.47l-5.06,9.34h-1.48l5.07-9.34Z"/>
        <path class="cls-21" d="M131.38,125.28h-1.57v-1.55h3.12v4.66h-.48l-.32-.57c-.57.46-1.27.73-1.96.73-2.25,0-3.78-2.17-3.78-4.82s1.53-4.83,3.78-4.83c1.11,0,2.26.71,2.89,1.79l-.92.87c-.6-.77-1.21-1.11-1.86-1.11-1.18,0-2.17,1.25-2.17,3.28s.99,3.26,2.17,3.26c.38,0,.74-.11,1.11-.36v-1.34Z"/>
        <path class="cls-21" d="M137.44,126.83h2.65v1.55h-4.2v-9.34h1.56v7.79Z"/>
        <path class="cls-21" d="M141.01,120.6v-1.56h6.85v1.56h-2.65v7.79h-1.55v-7.79h-2.65Z"/>
        <path class="cls-21" d="M151.44,128.38h-1.56v-5.91c0-2.31,1.4-3.59,3.11-3.59s3.12,1.27,3.12,3.59v5.91h-1.55v-3.11h-3.12v3.11ZM154.56,122.47c0-1.37-.71-2.03-1.57-2.03s-1.55.66-1.55,2.03v1.25h3.12v-1.25Z"/>
        <path class="cls-21" d="M164.57,130.09c.41,0,.95-.29,1.26-.56l.38,1.06c-.56.57-1.11.9-1.93.9-1.62,0-2.45-1.02-2.68-3.05-1.64-.45-2.54-2.41-2.54-4.72,0-2.65,1.16-4.83,3.26-4.83s3.28,2.19,3.28,4.83c0,2.27-.85,4.2-2.45,4.69.13,1.11.5,1.68,1.42,1.68ZM162.33,126.98c1.05,0,1.62-1.48,1.62-3.26s-.57-3.28-1.62-3.28-1.61,1.48-1.61,3.28.57,3.26,1.61,3.26Z"/>
        <path class="cls-21" d="M170.12,119.04v5.93c0,1.36.7,2.02,1.55,2.02s1.57-.66,1.57-2.02v-5.93h1.55v5.93c0,2.3-1.4,3.57-3.12,3.57s-3.11-1.27-3.11-3.57v-5.93h1.56Z"/>
        <path class="cls-21" d="M179.45,128.38h-1.56v-5.91c0-2.31,1.4-3.59,3.11-3.59s3.12,1.27,3.12,3.59v5.91h-1.55v-3.11h-3.12v3.11ZM182.58,122.47c0-1.37-.71-2.03-1.57-2.03s-1.55.66-1.55,2.03v1.25h3.12v-1.25Z"/>
      </g>
    </g>
  </g>
  <rect class="cls-6" x="150.98" y="1" width="158.06" height="86.01"/>
  <rect class="cls-3" x="276.69" y="361.74" width="176.37" height="83.8"/>
  <g id="gltvr">
    <g>
      <use width="174.62" height="160.79" transform="translate(470.88 98.03) scale(1 1.57)" xlink:href="#glt_vr"/>
      <g>
        <path class="cls-16" d="M583.15,127.65h-1.57v-1.55h3.12v4.66h-.48l-.32-.57c-.57.46-1.27.73-1.96.73-2.25,0-3.78-2.17-3.78-4.82s1.53-4.83,3.78-4.83c1.11,0,2.26.71,2.89,1.79l-.92.87c-.6-.77-1.2-1.11-1.86-1.11-1.18,0-2.17,1.25-2.17,3.28s1,3.26,2.17,3.26c.38,0,.74-.11,1.11-.36v-1.34Z"/>
        <path class="cls-16" d="M589.21,129.21h2.65v1.55h-4.2v-9.34h1.55v7.79Z"/>
        <path class="cls-16" d="M592.78,122.97v-1.55h6.85v1.55h-2.65v7.79h-1.55v-7.79h-2.65Z"/>
        <path class="cls-16" d="M605.7,127.82l4.57-6.56h.71v6.39h1.57v1.55h-1.57v1.55h-1.56v-1.55h-3.73v-1.39ZM609.43,127.65v-2.89l-2,2.89h2Z"/>
        <path class="cls-16" d="M618.77,121.27c2.1,0,3.28,2.19,3.28,4.83s-1.18,4.82-3.28,4.82-3.26-2.17-3.26-4.82,1.16-4.83,3.26-4.83ZM618.77,129.36c1.05,0,1.62-1.49,1.62-3.26s-.57-3.28-1.62-3.28-1.61,1.49-1.61,3.28.57,3.26,1.61,3.26Z"/>
        <path class="cls-16" d="M625.54,123.84c0-1.43,1.15-2.58,2.56-2.58s2.58,1.15,2.58,2.58c0,.64-.25,1.23-.66,1.7.69.56,1.12,1.4,1.12,2.34,0,1.68-1.36,3.04-3.04,3.04s-3.03-1.36-3.03-3.04c0-.94.43-1.78,1.11-2.34-.39-.46-.64-1.05-.64-1.7ZM629.59,127.91c0-.83-.66-1.5-1.49-1.5s-1.47.67-1.47,1.5.64,1.47,1.47,1.47,1.49-.66,1.49-1.47ZM627.08,123.84c0,.56.46,1.01,1.02,1.01s1.04-.45,1.04-1.01-.48-1.04-1.04-1.04-1.02.48-1.02,1.04Z"/>
      </g>
      <g>
        <path class="cls-16" d="M583.24,333.73h-1.57v-1.56h3.12v4.66h-.48l-.32-.57c-.57.46-1.27.73-1.96.73-2.25,0-3.78-2.17-3.78-4.82s1.53-4.83,3.78-4.83c1.11,0,2.26.71,2.89,1.79l-.92.87c-.6-.77-1.2-1.11-1.86-1.11-1.18,0-2.17,1.25-2.17,3.28s1,3.26,2.17,3.26c.38,0,.74-.11,1.11-.36v-1.34Z"/>
        <path class="cls-16" d="M589.3,335.28h2.65v1.55h-4.2v-9.34h1.55v7.79Z"/>
        <path class="cls-16" d="M592.86,329.05v-1.56h6.85v1.56h-2.65v7.79h-1.55v-7.79h-2.65Z"/>
        <path class="cls-16" d="M605.79,333.89l4.57-6.56h.71v6.39h1.57v1.55h-1.57v1.55h-1.56v-1.55h-3.73v-1.39ZM609.51,333.73v-2.89l-2,2.89h2Z"/>
        <path class="cls-16" d="M618.85,327.34c2.1,0,3.28,2.19,3.28,4.83s-1.18,4.82-3.28,4.82-3.26-2.17-3.26-4.82,1.16-4.83,3.26-4.83ZM618.85,335.44c1.05,0,1.62-1.49,1.62-3.26s-.57-3.28-1.62-3.28-1.61,1.48-1.61,3.28.57,3.26,1.61,3.26Z"/>
        <path class="cls-16" d="M628.86,327.49h1.91l-2.31,3.29c1.6.13,2.86,1.47,2.86,3.1,0,1.71-1.4,3.11-3.12,3.11s-3.1-1.4-3.11-3.11c-.01-.88.36-1.51.81-2.14l2.97-4.24ZM628.19,332.33c-.85,0-1.55.7-1.55,1.55s.7,1.56,1.55,1.56,1.56-.7,1.56-1.56-.7-1.55-1.56-1.55Z"/>
      </g>
      <line class="cls-11" x1="622.32" y1="223.72" x2="645.57" y2="223.72"/>
      <g>
        <path class="cls-12" d="M545.39,226.4h-2.69v-2.66h5.35v7.99h-.82l-.55-.98c-.98.79-2.18,1.25-3.36,1.25-3.86,0-6.48-3.72-6.48-8.26s2.62-8.28,6.48-8.28c1.9,0,3.86,1.22,4.94,3.07l-1.58,1.49c-1.03-1.32-2.06-1.9-3.19-1.9-2.02,0-3.72,2.14-3.72,5.62s1.7,5.59,3.72,5.59c.65,0,1.27-.19,1.9-.62v-2.3Z"/>
        <path class="cls-12" d="M555.78,229.06h4.54v2.66h-7.2v-16.01h2.66v13.35Z"/>
        <path class="cls-12" d="M561.9,218.38v-2.66h11.74v2.66h-4.54v13.35h-2.67v-13.35h-4.54Z"/>
        <path class="cls-12" d="M589.38,231.99h-.53l-6.41-16.27h2.88l3.79,9.67,3.79-9.67h2.88l-6.41,16.27Z"/>
        <path class="cls-12" d="M610.33,231.73h-3.26l-3.84-5.33h-2.11v5.33h-2.66v-16.01h5.21c2.93,0,5.33,2.4,5.33,5.35,0,2.04-1.18,3.86-2.9,4.73l4.25,5.93ZM606.33,221.07c0-1.49-1.2-2.69-2.66-2.69h-2.54v5.35h2.54c1.46,0,2.66-1.2,2.66-2.66Z"/>
      </g>
    </g>
  </g>
  <rect class="cls-6" x="471.94" y="361.96" width="138.04" height="60.14"/>
  <rect class="cls-6" x="629.94" y="361.74" width="128.35" height="60.14"/>
  <g>
    <path class="cls-1" d="M363.73,275.52h3.74c3.96,0,7.18,3.58,7.18,8.02s-3.22,7.99-7.18,7.99h-3.74v-16.01ZM366.4,288.87h1.08c2.33,0,4.25-2.4,4.25-5.33s-1.92-5.35-4.25-5.35h-1.08v10.68Z"/>
    <path class="cls-1" d="M379.74,275.52h7.99v2.66h-5.33v3.22h5.33v2.66h-5.33v4.8h5.33v2.66h-7.99v-16.01Z"/>
    <path class="cls-1" d="M403.89,291.53v-9.65l-3.86,7.25h-.53l-3.87-7.25v9.65h-2.54v-16.01h2.18l4.49,8.42,4.49-8.42h2.18v16.01h-2.54Z"/>
    <path class="cls-1" d="M417.09,275.26c3.6,0,5.62,3.74,5.62,8.28s-2.02,8.26-5.62,8.26-5.59-3.72-5.59-8.26,1.99-8.28,5.59-8.28ZM417.09,289.13c1.8,0,2.78-2.54,2.78-5.59s-.98-5.62-2.78-5.62-2.76,2.54-2.76,5.62.98,5.59,2.76,5.59Z"/>
    <path class="cls-1" d="M434.85,275.52h2.52l-8.66,16.01h-2.54l8.69-16.01Z"/>
    <path class="cls-1" d="M316.53,320.6h-.55l-5.59-16.27h2.71l3.14,9.31,2.11-6.26-1.03-3.05h2.71l3.14,9.31,3.14-9.31h2.74l-5.62,16.27h-.53l-3.19-9.31-3.19,9.31Z"/>
    <path class="cls-1" d="M337.05,304.06c3.6,0,5.62,3.74,5.62,8.28s-2.02,8.26-5.62,8.26-5.59-3.72-5.59-8.26,1.99-8.28,5.59-8.28ZM337.05,317.93c1.8,0,2.78-2.54,2.78-5.59s-.98-5.62-2.78-5.62-2.76,2.54-2.76,5.62.98,5.59,2.76,5.59Z"/>
    <path class="cls-1" d="M359.61,320.33h-3.26l-3.84-5.33h-2.11v5.33h-2.66v-16.01h5.21c2.93,0,5.33,2.4,5.33,5.35,0,2.04-1.18,3.86-2.9,4.73l4.25,5.93ZM355.6,309.68c0-1.49-1.2-2.69-2.66-2.69h-2.54v5.35h2.54c1.46,0,2.66-1.2,2.66-2.66Z"/>
    <path class="cls-1" d="M366.4,320.33h-2.66v-16.01h2.66v7.37l5.28-7.37h3.26l-5.62,7.83,5.88,8.18h-3.26l-5.54-7.73v7.73Z"/>
    <path class="cls-1" d="M383.41,320.6c-1.73,0-3.02-.55-4.51-1.7l.31-2.38c1.61.86,2.93,1.42,4.3,1.42,1.2,0,2.74-.65,2.74-1.94,0-3.05-7.56-1.87-7.56-7.22,0-2.78,2.45-4.7,5.28-4.7,1.8,0,3.02.62,4.68,1.92l-.84,2.11c-1.13-.74-2.47-1.39-3.74-1.39-1.61,0-2.59.86-2.59,1.82,0,2.86,7.58,2.14,7.58,7.06,0,3.29-2.76,5.02-5.64,5.02Z"/>
    <path class="cls-1" d="M401.1,310.21v-5.88h2.66v16.01h-2.66v-7.46h-5.35v7.46h-2.66v-16.01h2.66v5.88h5.35Z"/>
    <path class="cls-1" d="M414.42,304.06c3.6,0,5.62,3.74,5.62,8.28s-2.02,8.26-5.62,8.26-5.59-3.72-5.59-8.26,1.99-8.28,5.59-8.28ZM414.42,317.93c1.8,0,2.78-2.54,2.78-5.59s-.98-5.62-2.78-5.62-2.76,2.54-2.76,5.62.98,5.59,2.76,5.59Z"/>
    <path class="cls-1" d="M436.31,309.68c0,2.93-2.4,5.33-5.33,5.33h-3.22v5.33h-2.66v-16.01h5.88c2.93,0,5.33,2.4,5.33,5.35ZM433.65,309.68c0-1.49-1.2-2.69-2.66-2.69h-3.22v5.35h3.22c1.46,0,2.66-1.2,2.66-2.66Z"/>
    <path class="cls-1" d="M382.41,349.13h-2.66v-10.13c0-3.96,2.4-6.14,5.33-6.14s5.35,2.18,5.35,6.14v10.13h-2.66v-5.33h-5.35v5.33ZM387.76,339c0-2.35-1.22-3.48-2.69-3.48s-2.67,1.13-2.67,3.48v2.14h5.35v-2.14Z"/>
    <path class="cls-1" d="M407.63,349.13h-3.26l-3.84-5.33h-2.11v5.33h-2.66v-16.01h5.21c2.93,0,5.33,2.4,5.33,5.35,0,2.04-1.18,3.86-2.9,4.73l4.25,5.93ZM403.62,338.48c0-1.49-1.2-2.69-2.66-2.69h-2.54v5.35h2.54c1.46,0,2.66-1.2,2.66-2.66Z"/>
    <path class="cls-1" d="M411.76,333.12h7.99v2.67h-5.33v3.22h5.33v2.66h-5.33v4.8h5.33v2.66h-7.99v-16.01Z"/>
    <path class="cls-1" d="M427.77,349.13h-2.66v-10.13c0-3.96,2.4-6.14,5.33-6.14s5.35,2.18,5.35,6.14v10.13h-2.66v-5.33h-5.35v5.33ZM433.12,339c0-2.35-1.22-3.48-2.69-3.48s-2.67,1.13-2.67,3.48v2.14h5.35v-2.14Z"/>
  </g>
  <g>
    <path class="cls-18" d="M620.1,454.77h-1.57v-1.55h3.12v4.66h-.48l-.32-.57c-.57.46-1.27.73-1.96.73-2.25,0-3.78-2.17-3.78-4.82s1.53-4.83,3.78-4.83c1.11,0,2.26.71,2.89,1.79l-.92.87c-.6-.77-1.2-1.11-1.86-1.11-1.18,0-2.17,1.25-2.17,3.28s1,3.26,2.17,3.26c.38,0,.74-.11,1.11-.36v-1.34Z"/>
    <path class="cls-18" d="M626.16,456.33h2.65v1.55h-4.2v-9.34h1.55v7.79Z"/>
    <path class="cls-18" d="M629.73,450.1v-1.55h6.85v1.55h-2.65v7.79h-1.55v-7.79h-2.65Z"/>
    <path class="cls-18" d="M642.65,454.94l4.57-6.56h.71v6.39h1.57v1.55h-1.57v1.55h-1.56v-1.55h-3.73v-1.39ZM646.38,454.77v-2.89l-2,2.89h2Z"/>
    <path class="cls-18" d="M655.71,448.39c2.1,0,3.28,2.19,3.28,4.83s-1.18,4.82-3.28,4.82-3.26-2.17-3.26-4.82,1.16-4.83,3.26-4.83ZM655.71,456.48c1.05,0,1.62-1.49,1.62-3.26s-.57-3.28-1.62-3.28-1.61,1.49-1.61,3.28.57,3.26,1.61,3.26Z"/>
    <path class="cls-18" d="M668.18,454.93c0,1.71-1.4,3.11-3.12,3.11-1.43,0-2.58-.94-2.97-2.2l1.47-.52c.17.63.76,1.16,1.5,1.16.85,0,1.56-.7,1.56-1.56s-.7-1.55-1.56-1.55h-1.16v-.48l2.06-2.8h-2.52l-.76,1.25h-.46v-2.8h6.12v.77l-2.04,2.75c1.06.49,1.89,1.53,1.89,2.87Z"/>
  </g>
  <g>
    <rect class="cls-6" x="659.16" y="230.31" width="68.71" height="119.77"/>
    <g>
      <path class="cls-18" d="M688.54,283.36h-1.57v-1.55h3.12v4.66h-.48l-.32-.57c-.57.46-1.27.73-1.96.73-2.25,0-3.78-2.17-3.78-4.82s1.53-4.83,3.78-4.83c1.11,0,2.26.71,2.89,1.79l-.92.87c-.6-.77-1.2-1.11-1.86-1.11-1.18,0-2.17,1.25-2.17,3.28s1,3.26,2.17,3.26c.38,0,.74-.11,1.11-.36v-1.34Z"/>
      <path class="cls-18" d="M694.6,284.92h2.65v1.55h-4.2v-9.34h1.55v7.79Z"/>
      <path class="cls-18" d="M698.17,278.68v-1.55h6.85v1.55h-2.65v7.79h-1.55v-7.79h-2.65Z"/>
      <path class="cls-18" d="M680.75,300.33l4.57-6.56h.71v6.39h1.57v1.55h-1.57v1.55h-1.56v-1.55h-3.73v-1.39ZM684.48,300.16v-2.89l-2,2.89h2Z"/>
      <path class="cls-18" d="M693.82,293.77c2.1,0,3.28,2.19,3.28,4.83s-1.18,4.82-3.28,4.82-3.26-2.17-3.26-4.82,1.16-4.83,3.26-4.83ZM693.82,301.87c1.05,0,1.62-1.49,1.62-3.26s-.57-3.28-1.62-3.28-1.61,1.49-1.61,3.28.57,3.26,1.61,3.26Z"/>
      <path class="cls-18" d="M699.58,295.48v-1.55h6.7v.76l-4.27,8.59h-1.65l3.87-7.79h-4.64Z"/>
    </g>
  </g>
  <g>
    <path class="cls-18" d="M536.57,57.81h-1.57v-1.55h3.12v4.66h-.48l-.32-.57c-.57.46-1.27.73-1.96.73-2.25,0-3.78-2.17-3.78-4.82s1.53-4.83,3.78-4.83c1.11,0,2.26.71,2.89,1.79l-.92.87c-.6-.77-1.2-1.11-1.86-1.11-1.18,0-2.17,1.25-2.17,3.28s1,3.26,2.17,3.26c.38,0,.74-.11,1.11-.36v-1.34Z"/>
    <path class="cls-18" d="M542.63,59.36h2.65v1.55h-4.2v-9.34h1.55v7.79Z"/>
    <path class="cls-18" d="M546.19,53.13v-1.55h6.85v1.55h-2.65v7.79h-1.55v-7.79h-2.65Z"/>
    <path class="cls-18" d="M559.12,57.98l4.57-6.56h.71v6.39h1.57v1.55h-1.57v1.55h-1.56v-1.55h-3.73v-1.39ZM562.84,57.81v-2.89l-2,2.89h2Z"/>
    <path class="cls-18" d="M571.41,54.57l-1.7.63-.35-.64,3.14-3.14h.46v7.94h1.55v1.55h-4.67v-1.55h1.56v-4.79Z"/>
    <path class="cls-18" d="M581.52,51.42c2.1,0,3.28,2.19,3.28,4.83s-1.18,4.82-3.28,4.82-3.26-2.17-3.26-4.82,1.16-4.83,3.26-4.83ZM581.52,59.52c1.05,0,1.62-1.49,1.62-3.26s-.57-3.28-1.62-3.28-1.61,1.49-1.61,3.28.57,3.26,1.61,3.26Z"/>
  </g>
  <g>
    <path class="cls-18" d="M368.02,52.98h-1.57v-1.55h3.12v4.66h-.48l-.32-.57c-.57.46-1.27.73-1.96.73-2.25,0-3.78-2.17-3.78-4.82s1.53-4.83,3.78-4.83c1.11,0,2.26.71,2.89,1.79l-.92.87c-.6-.77-1.2-1.11-1.86-1.11-1.18,0-2.17,1.25-2.17,3.28s1,3.26,2.17,3.26c.38,0,.74-.11,1.11-.36v-1.34Z"/>
    <path class="cls-18" d="M374.08,54.54h2.65v1.55h-4.2v-9.34h1.55v7.79Z"/>
    <path class="cls-18" d="M377.64,48.3v-1.55h6.85v1.55h-2.65v7.79h-1.55v-7.79h-2.65Z"/>
    <path class="cls-18" d="M390.57,53.15l4.57-6.56h.71v6.39h1.57v1.55h-1.57v1.55h-1.56v-1.55h-3.73v-1.39ZM394.29,52.98v-2.89l-2,2.89h2Z"/>
    <path class="cls-18" d="M402.86,49.75l-1.7.63-.35-.64,3.14-3.14h.46v7.94h1.55v1.55h-4.67v-1.55h1.56v-4.79Z"/>
    <path class="cls-18" d="M412.2,49.75l-1.7.63-.35-.64,3.14-3.14h.46v7.94h1.55v1.55h-4.67v-1.55h1.56v-4.79Z"/>
  </g>
  <g>
    <path class="cls-18" d="M208.47,45.56h-1.57v-1.55h3.12v4.66h-.48l-.32-.57c-.57.46-1.27.73-1.96.73-2.25,0-3.78-2.17-3.78-4.82s1.53-4.83,3.78-4.83c1.11,0,2.26.71,2.89,1.79l-.92.87c-.6-.77-1.2-1.11-1.86-1.11-1.18,0-2.17,1.25-2.17,3.28s1,3.26,2.17,3.26c.38,0,.74-.11,1.11-.36v-1.34Z"/>
    <path class="cls-18" d="M214.53,47.12h2.65v1.55h-4.2v-9.34h1.55v7.79Z"/>
    <path class="cls-18" d="M218.1,40.89v-1.55h6.85v1.55h-2.65v7.79h-1.55v-7.79h-2.65Z"/>
    <path class="cls-18" d="M231.02,45.73l4.57-6.56h.71v6.39h1.57v1.55h-1.57v1.55h-1.56v-1.55h-3.73v-1.39ZM234.75,45.56v-2.89l-2,2.89h2Z"/>
    <path class="cls-18" d="M243.32,42.33l-1.7.63-.35-.64,3.14-3.14h.46v7.94h1.55v1.55h-4.67v-1.55h1.56v-4.79Z"/>
    <path class="cls-18" d="M254.98,42.29c0-.85-.7-1.55-1.56-1.55s-1.55.7-1.55,1.55v.79h-1.55v-.79c0-1.71,1.4-3.11,3.11-3.11s3.12,1.4,3.12,3.11c0,1.29-.59,2.09-1.48,2.93l-2.02,1.91h3.5v1.55h-6.23v-.56l3.35-3.54c.52-.55,1.32-1.37,1.32-2.28Z"/>
  </g>
  <g>
    <rect class="cls-6" x="2.35" y="222.09" width="116.19" height="100.98"/>
    <g>
      <path class="cls-18" d="M38.9,274.14h-1.57v-1.55h3.12v4.66h-.48l-.32-.57c-.57.46-1.27.73-1.96.73-2.25,0-3.78-2.17-3.78-4.82s1.53-4.83,3.78-4.83c1.11,0,2.26.71,2.89,1.79l-.92.87c-.6-.77-1.2-1.11-1.86-1.11-1.18,0-2.17,1.25-2.17,3.28s1,3.26,2.17,3.26c.38,0,.74-.11,1.11-.36v-1.34Z"/>
      <path class="cls-18" d="M44.96,275.7h2.65v1.55h-4.2v-9.34h1.55v7.79Z"/>
      <path class="cls-18" d="M48.53,269.47v-1.55h6.85v1.55h-2.65v7.79h-1.55v-7.79h-2.65Z"/>
      <path class="cls-18" d="M61.45,274.31l4.57-6.56h.71v6.39h1.57v1.55h-1.57v1.55h-1.56v-1.55h-3.73v-1.39ZM65.18,274.14v-2.89l-2,2.89h2Z"/>
      <path class="cls-18" d="M73.75,270.91l-1.7.63-.35-.64,3.14-3.14h.46v7.94h1.55v1.55h-4.67v-1.55h1.56v-4.79Z"/>
      <path class="cls-18" d="M81.21,267.91h5.45v2.8h-.46l-.74-1.25h-2.68v1.92c.34-.14.71-.2,1.08-.2,1.72,0,3.12,1.4,3.12,3.11s-1.4,3.11-3.12,3.11c-1.4,0-2.58-.94-2.97-2.2l1.47-.52c.17.63.76,1.16,1.5,1.16.85,0,1.56-.7,1.56-1.56s-.7-1.55-1.56-1.55c-.57,0-1.01.29-1.29.69h-1.36v-5.52Z"/>
    </g>
  </g>
  <g>
    <path class="cls-18" d="M388.46,392.97h-1.57v-1.55h3.12v4.66h-.48l-.32-.57c-.57.46-1.27.73-1.96.73-2.25,0-3.78-2.17-3.78-4.82s1.53-4.83,3.78-4.83c1.11,0,2.26.71,2.89,1.79l-.92.87c-.6-.77-1.2-1.11-1.86-1.11-1.18,0-2.17,1.25-2.17,3.28s1,3.26,2.17,3.26c.38,0,.74-.11,1.11-.37v-1.34Z"/>
    <path class="cls-18" d="M394.52,394.53h2.65v1.55h-4.2v-9.34h1.55v7.79Z"/>
    <path class="cls-18" d="M398.09,388.29v-1.55h6.85v1.55h-2.65v7.79h-1.55v-7.79h-2.65Z"/>
    <path class="cls-18" d="M411.01,393.14l4.57-6.56h.71v6.39h1.57v1.55h-1.57v1.55h-1.56v-1.55h-3.73v-1.39ZM414.74,392.97v-2.89l-2,2.89h2Z"/>
    <path class="cls-18" d="M423.31,389.73l-1.7.63-.35-.64,3.14-3.14h.46v7.94h1.55v1.55h-4.67v-1.55h1.56v-4.79Z"/>
    <path class="cls-18" d="M430.85,389.16c0-1.43,1.15-2.58,2.56-2.58s2.58,1.15,2.58,2.58c0,.64-.25,1.23-.66,1.7.69.56,1.12,1.4,1.12,2.34,0,1.68-1.36,3.04-3.04,3.04s-3.03-1.36-3.03-3.04c0-.94.43-1.78,1.11-2.34-.39-.46-.64-1.05-.64-1.7ZM434.9,393.22c0-.83-.66-1.5-1.49-1.5s-1.47.67-1.47,1.5.64,1.47,1.47,1.47,1.49-.66,1.49-1.47ZM432.39,389.16c0,.56.46,1.01,1.02,1.01s1.04-.45,1.04-1.01-.48-1.04-1.04-1.04-1.02.48-1.02,1.04Z"/>
  </g>
  <g>
    <path class="cls-18" d="M519.41,393.46h-1.57v-1.55h3.12v4.66h-.48l-.32-.57c-.57.46-1.27.73-1.96.73-2.25,0-3.78-2.17-3.78-4.82s1.53-4.83,3.78-4.83c1.11,0,2.26.71,2.89,1.79l-.92.87c-.6-.77-1.2-1.11-1.86-1.11-1.18,0-2.17,1.25-2.17,3.28s1,3.26,2.17,3.26c.38,0,.74-.11,1.11-.36v-1.34Z"/>
    <path class="cls-18" d="M525.47,395.01h2.65v1.55h-4.2v-9.34h1.55v7.79Z"/>
    <path class="cls-18" d="M529.04,388.78v-1.55h6.85v1.55h-2.65v7.79h-1.55v-7.79h-2.65Z"/>
    <path class="cls-18" d="M541.96,393.62l4.57-6.56h.71v6.39h1.57v1.55h-1.57v1.55h-1.56v-1.55h-3.73v-1.39ZM545.69,393.46v-2.89l-2,2.89h2Z"/>
    <path class="cls-18" d="M555.03,387.07c2.1,0,3.28,2.19,3.28,4.83s-1.18,4.82-3.28,4.82-3.26-2.17-3.26-4.82,1.16-4.83,3.26-4.83ZM555.03,395.17c1.05,0,1.62-1.49,1.62-3.26s-.57-3.28-1.62-3.28-1.61,1.49-1.61,3.28.57,3.26,1.61,3.26Z"/>
    <path class="cls-18" d="M560.64,393.62l4.57-6.56h.71v6.39h1.57v1.55h-1.57v1.55h-1.56v-1.55h-3.73v-1.39ZM564.36,393.46v-2.89l-2,2.89h2Z"/>
  </g>
  <g>
    <g>
      <path class="cls-1" d="M743.63,388.61h3.66v1.22h-2.44v1.47h2.44v1.22h-2.44v2.2h2.44v1.22h-3.66v-7.34Z"/>
      <path class="cls-1" d="M713.05,401.69c1.65,0,2.58,1.72,2.58,3.8s-.92,3.78-2.58,3.78-2.56-1.71-2.56-3.78.91-3.8,2.56-3.8ZM713.05,408.05c.83,0,1.28-1.17,1.28-2.56s-.45-2.58-1.28-2.58-1.26,1.17-1.26,2.58.45,2.56,1.26,2.56Z"/>
      <path class="cls-1" d="M717.94,401.81h3.92v1.22h-2.7v1.47h2.7v1.22h-2.7v3.42h-1.22v-7.34Z"/>
      <path class="cls-1" d="M724.06,401.81h3.92v1.22h-2.7v1.47h2.7v1.22h-2.7v3.42h-1.22v-7.34Z"/>
      <path class="cls-1" d="M731.39,403.03h-1.22v-1.22h3.66v1.22h-1.22v4.9h1.22v1.22h-3.66v-1.22h1.22v-4.9Z"/>
      <path class="cls-1" d="M739.26,401.69c.9,0,1.85.56,2.37,1.41l-.77.68c-.5-.6-.99-.87-1.54-.87-.97,0-1.8.98-1.8,2.58s.84,2.56,1.8,2.56c.55,0,1.04-.25,1.54-.87l.77.68c-.52.85-1.46,1.41-2.37,1.41-1.85,0-3.09-1.71-3.09-3.78s1.24-3.8,3.09-3.8Z"/>
      <path class="cls-1" d="M743.63,401.81h3.66v1.22h-2.44v1.47h2.44v1.22h-2.44v2.2h2.44v1.22h-3.66v-7.34Z"/>
      <g>
        <path class="cls-1" d="M656.55,395.95h-1.22v-4.64c0-1.82,1.1-2.82,2.44-2.82s2.45,1,2.45,2.82v4.64h-1.22v-2.44h-2.45v2.44ZM659,391.31c0-1.08-.56-1.6-1.23-1.6s-1.22.52-1.22,1.6v.98h2.45v-.98Z"/>
        <path class="cls-1" d="M662.66,388.61h1.72c1.82,0,3.29,1.64,3.29,3.67s-1.47,3.66-3.29,3.66h-1.72v-7.34ZM663.89,394.73h.5c1.07,0,1.95-1.1,1.95-2.44s-.88-2.45-1.95-2.45h-.5v4.9Z"/>
        <path class="cls-1" d="M674.95,395.95v-4.42l-1.77,3.32h-.24l-1.77-3.32v4.42h-1.17v-7.34h1l2.06,3.86,2.06-3.86h1v7.34h-1.17Z"/>
        <path class="cls-1" d="M679.78,389.83h-1.22v-1.22h3.66v1.22h-1.22v4.9h1.22v1.22h-3.66v-1.22h1.22v-4.9Z"/>
        <path class="cls-1" d="M688.47,388.61h1.1v7.34h-.92l-2.87-4.69v4.69h-1.1v-7.34h.91l2.88,4.69v-4.69Z"/>
        <path class="cls-1" d="M693.23,389.83h-1.22v-1.22h3.66v1.22h-1.22v4.9h1.22v1.22h-3.66v-1.22h1.22v-4.9Z"/>
        <path class="cls-1" d="M699.81,396.07c-.79,0-1.39-.25-2.07-.78l.14-1.09c.74.4,1.34.65,1.97.65.55,0,1.25-.3,1.25-.89,0-1.4-3.46-.86-3.46-3.31,0-1.28,1.12-2.16,2.42-2.16.83,0,1.39.29,2.15.88l-.38.97c-.52-.34-1.13-.64-1.72-.64-.74,0-1.19.4-1.19.84,0,1.31,3.48.98,3.48,3.23,0,1.51-1.27,2.3-2.59,2.3Z"/>
        <path class="cls-1" d="M703.39,389.83v-1.22h5.38v1.22h-2.08v6.12h-1.22v-6.12h-2.08Z"/>
        <path class="cls-1" d="M715.81,395.95h-1.5l-1.76-2.44h-.97v2.44h-1.22v-7.34h2.39c1.34,0,2.44,1.1,2.44,2.45,0,.94-.54,1.77-1.33,2.17l1.95,2.72ZM713.97,391.07c0-.68-.55-1.23-1.22-1.23h-1.17v2.45h1.17c.67,0,1.22-.55,1.22-1.22Z"/>
        <path class="cls-1" d="M718.92,395.95h-1.22v-4.64c0-1.82,1.1-2.82,2.44-2.82s2.45,1,2.45,2.82v4.64h-1.22v-2.44h-2.45v2.44ZM721.37,391.31c0-1.08-.56-1.6-1.23-1.6s-1.22.52-1.22,1.6v.98h2.45v-.98Z"/>
        <path class="cls-1" d="M724.18,389.83v-1.22h5.38v1.22h-2.08v6.12h-1.22v-6.12h-2.08Z"/>
        <path class="cls-1" d="M732.37,389.83h-1.22v-1.22h3.66v1.22h-1.22v4.9h1.22v1.22h-3.66v-1.22h1.22v-4.9Z"/>
        <path class="cls-1" d="M739.22,396.07h-.24l-2.94-7.46h1.32l1.74,4.43,1.74-4.43h1.32l-2.94,7.46Z"/>
      </g>
    </g>
    <g>
      <path class="cls-18" d="M709.19,379.43h-1.25v-1.24h2.49v3.71h-.38l-.26-.46c-.46.37-1.01.58-1.56.58-1.79,0-3.01-1.73-3.01-3.83s1.22-3.85,3.01-3.85c.88,0,1.8.57,2.3,1.43l-.74.69c-.48-.61-.96-.88-1.48-.88-.94,0-1.73.99-1.73,2.61s.79,2.6,1.73,2.6c.3,0,.59-.09.88-.29v-1.07Z"/>
      <path class="cls-18" d="M714.01,380.67h2.11v1.24h-3.34v-7.43h1.24v6.2Z"/>
      <path class="cls-18" d="M716.85,375.71v-1.24h5.45v1.24h-2.11v6.2h-1.24v-6.2h-2.11Z"/>
      <path class="cls-18" d="M727.13,379.56l3.63-5.22h.57v5.08h1.25v1.24h-1.25v1.24h-1.24v-1.24h-2.96v-1.1ZM730.1,379.43v-2.3l-1.59,2.3h1.59Z"/>
      <path class="cls-18" d="M737.53,374.35c1.67,0,2.61,1.74,2.61,3.85s-.94,3.83-2.61,3.83-2.6-1.73-2.6-3.83.93-3.85,2.6-3.85ZM737.53,380.79c.84,0,1.29-1.18,1.29-2.6s-.46-2.61-1.29-2.61-1.28,1.18-1.28,2.61.46,2.6,1.28,2.6Z"/>
      <path class="cls-18" d="M742.85,374.47h4.34v2.23h-.37l-.59-.99h-2.13v1.53c.27-.11.57-.16.86-.16,1.37,0,2.49,1.12,2.49,2.47s-1.11,2.48-2.49,2.48c-1.11,0-2.05-.75-2.36-1.75l1.17-.41c.13.5.6.93,1.19.93.68,0,1.24-.56,1.24-1.24s-.56-1.24-1.24-1.24c-.46,0-.8.23-1.03.55h-1.08v-4.39Z"/>
    </g>
  </g>
  <g>
    <path class="cls-18" d="M532.63,489.83h-.89v-.89h1.78v2.66h-.27l-.18-.33c-.33.26-.73.42-1.12.42-1.29,0-2.16-1.24-2.16-2.75s.87-2.76,2.16-2.76c.63,0,1.29.41,1.65,1.02l-.53.5c-.34-.44-.69-.63-1.06-.63-.67,0-1.24.71-1.24,1.87s.57,1.86,1.24,1.86c.22,0,.42-.06.63-.21v-.77Z"/>
    <path class="cls-18" d="M536.1,490.72h1.51v.89h-2.4v-5.33h.89v4.45Z"/>
    <path class="cls-18" d="M538.14,487.16v-.89h3.91v.89h-1.51v4.45h-.89v-4.45h-1.51Z"/>
    <path class="cls-18" d="M545.52,489.93l2.61-3.74h.41v3.65h.9v.89h-.9v.89h-.89v-.89h-2.13v-.79ZM547.65,489.83v-1.65l-1.14,1.65h1.14Z"/>
    <path class="cls-18" d="M552.99,486.19c1.2,0,1.87,1.25,1.87,2.76s-.67,2.75-1.87,2.75-1.86-1.24-1.86-2.75.66-2.76,1.86-2.76ZM552.99,490.81c.6,0,.93-.85.93-1.86s-.33-1.87-.93-1.87-.92.85-.92,1.87.33,1.86.92,1.86Z"/>
    <path class="cls-18" d="M557.88,487.99l-.97.36-.2-.37,1.79-1.79h.26v4.53h.89v.89h-2.66v-.89h.89v-2.73Z"/>
  </g>
  <g>
    <path class="cls-18" d="M726.78,489.74h-.9v-.89h1.78v2.66h-.27l-.18-.33c-.33.26-.73.42-1.12.42-1.29,0-2.16-1.24-2.16-2.75s.87-2.76,2.16-2.76c.63,0,1.29.41,1.65,1.02l-.53.5c-.34-.44-.69-.63-1.06-.63-.67,0-1.24.71-1.24,1.87s.57,1.86,1.24,1.86c.22,0,.42-.06.63-.21v-.77Z"/>
    <path class="cls-18" d="M730.25,490.63h1.51v.89h-2.4v-5.33h.89v4.45Z"/>
    <path class="cls-18" d="M732.29,487.07v-.89h3.91v.89h-1.51v4.45h-.89v-4.45h-1.51Z"/>
    <path class="cls-18" d="M739.67,489.84l2.61-3.74h.41v3.65h.9v.89h-.9v.89h-.89v-.89h-2.13v-.79ZM741.8,489.74v-1.65l-1.14,1.65h1.14Z"/>
    <path class="cls-18" d="M747.14,486.1c1.2,0,1.87,1.25,1.87,2.76s-.67,2.75-1.87,2.75-1.86-1.24-1.86-2.75.66-2.76,1.86-2.76ZM747.14,490.72c.6,0,.93-.85.93-1.86s-.33-1.87-.93-1.87-.92.85-.92,1.87.33,1.86.92,1.86Z"/>
    <path class="cls-18" d="M753.36,487.87c0-.49-.4-.89-.89-.89s-.89.4-.89.89v.45h-.89v-.45c0-.97.8-1.77,1.77-1.77s1.78.8,1.78,1.77c0,.74-.34,1.19-.85,1.67l-1.15,1.09h2v.89h-3.56v-.32l1.91-2.02c.3-.31.75-.78.75-1.3Z"/>
  </g>
  <g>
    <path class="cls-1" d="M145.46,259.21h2.5c2.64,0,4.79,2.38,4.79,5.35s-2.15,5.33-4.79,5.33h-2.5v-10.68ZM147.23,268.11h.72c1.55,0,2.83-1.6,2.83-3.55s-1.28-3.57-2.83-3.57h-.72v7.12Z"/>
    <path class="cls-1" d="M156.13,259.21h5.33v1.78h-3.55v2.14h3.55v1.78h-3.55v3.2h3.55v1.78h-5.33v-10.68Z"/>
    <path class="cls-1" d="M172.23,269.89v-6.43l-2.58,4.83h-.35l-2.58-4.83v6.43h-1.7v-10.68h1.46l2.99,5.62,2.99-5.62h1.46v10.68h-1.7Z"/>
    <path class="cls-1" d="M181.03,259.04c2.4,0,3.75,2.5,3.75,5.52s-1.34,5.51-3.75,5.51-3.73-2.48-3.73-5.51,1.33-5.52,3.73-5.52ZM181.03,268.29c1.2,0,1.86-1.7,1.86-3.73s-.66-3.75-1.86-3.75-1.84,1.7-1.84,3.75.66,3.73,1.84,3.73Z"/>
    <path class="cls-1" d="M192.87,259.21h1.68l-5.78,10.68h-1.7l5.79-10.68Z"/>
    <path class="cls-1" d="M147.78,289.27h-.37l-3.73-10.85h1.81l2.1,6.21,1.41-4.18-.69-2.03h1.81l2.1,6.21,2.1-6.21h1.82l-3.75,10.85h-.35l-2.13-6.21-2.13,6.21Z"/>
    <path class="cls-1" d="M161.46,278.24c2.4,0,3.75,2.5,3.75,5.52s-1.34,5.51-3.75,5.51-3.73-2.48-3.73-5.51,1.33-5.52,3.73-5.52ZM161.46,287.49c1.2,0,1.86-1.7,1.86-3.73s-.66-3.75-1.86-3.75-1.84,1.7-1.84,3.75.66,3.73,1.84,3.73Z"/>
    <path class="cls-1" d="M176.5,289.09h-2.18l-2.56-3.55h-1.41v3.55h-1.78v-10.68h3.47c1.95,0,3.55,1.6,3.55,3.57,0,1.36-.78,2.58-1.94,3.15l2.83,3.95ZM173.83,281.98c0-.99-.8-1.79-1.78-1.79h-1.7v3.57h1.7c.98,0,1.78-.8,1.78-1.78Z"/>
    <path class="cls-1" d="M181.02,289.09h-1.78v-10.68h1.78v4.91l3.52-4.91h2.18l-3.75,5.22,3.92,5.46h-2.18l-3.7-5.15v5.15Z"/>
    <path class="cls-1" d="M192.37,289.27c-1.15,0-2.02-.37-3.01-1.14l.21-1.58c1.07.58,1.95.94,2.87.94.8,0,1.82-.43,1.82-1.3,0-2.03-5.04-1.25-5.04-4.82,0-1.86,1.63-3.14,3.52-3.14,1.2,0,2.02.42,3.12,1.28l-.56,1.41c-.75-.5-1.65-.93-2.5-.93-1.07,0-1.73.58-1.73,1.22,0,1.9,5.06,1.42,5.06,4.71,0,2.19-1.84,3.34-3.76,3.34Z"/>
    <path class="cls-1" d="M204.16,282.34v-3.92h1.78v10.68h-1.78v-4.98h-3.57v4.98h-1.78v-10.68h1.78v3.92h3.57Z"/>
    <path class="cls-1" d="M213.04,278.24c2.4,0,3.75,2.5,3.75,5.52s-1.34,5.51-3.75,5.51-3.73-2.48-3.73-5.51,1.33-5.52,3.73-5.52ZM213.04,287.49c1.2,0,1.86-1.7,1.86-3.73s-.66-3.75-1.86-3.75-1.84,1.7-1.84,3.75.66,3.73,1.84,3.73Z"/>
    <path class="cls-1" d="M227.63,281.98c0,1.95-1.6,3.55-3.55,3.55h-2.14v3.55h-1.78v-10.68h3.92c1.95,0,3.55,1.6,3.55,3.57ZM225.86,281.98c0-.99-.8-1.79-1.78-1.79h-2.14v3.57h2.14c.98,0,1.78-.8,1.78-1.78Z"/>
    <path class="cls-1" d="M147.23,308.29h-1.78v-6.75c0-2.64,1.6-4.1,3.55-4.1s3.57,1.46,3.57,4.1v6.75h-1.78v-3.55h-3.57v3.55ZM150.8,301.54c0-1.57-.82-2.32-1.79-2.32s-1.78.75-1.78,2.32v1.42h3.57v-1.42Z"/>
    <path class="cls-1" d="M164.05,308.29h-2.18l-2.56-3.55h-1.41v3.55h-1.78v-10.68h3.47c1.95,0,3.55,1.6,3.55,3.57,0,1.36-.78,2.58-1.94,3.15l2.83,3.95ZM161.38,301.18c0-.99-.8-1.79-1.78-1.79h-1.7v3.57h1.7c.98,0,1.78-.8,1.78-1.78Z"/>
    <path class="cls-1" d="M166.8,297.61h5.33v1.78h-3.55v2.14h3.55v1.78h-3.55v3.2h3.55v1.78h-5.33v-10.68Z"/>
    <path class="cls-1" d="M177.47,308.29h-1.78v-6.75c0-2.64,1.6-4.1,3.55-4.1s3.57,1.46,3.57,4.1v6.75h-1.78v-3.55h-3.57v3.55ZM181.04,301.54c0-1.57-.82-2.32-1.79-2.32s-1.78.75-1.78,2.32v1.42h3.57v-1.42Z"/>
  </g>
  <g>
    <path class="cls-18" d="M149.34,347.41h-1.79v-1.78h3.57v5.33h-.54l-.37-.66c-.66.53-1.46.83-2.24.83-2.58,0-4.32-2.48-4.32-5.51s1.74-5.52,4.32-5.52c1.26,0,2.58.82,3.3,2.05l-1.06.99c-.69-.88-1.38-1.26-2.13-1.26-1.34,0-2.48,1.42-2.48,3.75s1.14,3.73,2.48,3.73c.43,0,.85-.13,1.26-.42v-1.54Z"/>
    <path class="cls-18" d="M159.82,345.26v1.79h-5.33v-1.79h5.33Z"/>
    <path class="cls-18" d="M162.68,347.6l5.22-7.49h.82v7.3h1.79v1.78h-1.79v1.78h-1.78v-1.78h-4.26v-1.58ZM166.93,347.41v-3.3l-2.29,3.3h2.29Z"/>
    <path class="cls-18" d="M176.73,343.71l-1.94.72-.4-.74,3.59-3.59h.53v9.08h1.78v1.78h-5.33v-1.78h1.78v-5.47Z"/>
    <path class="cls-18" d="M191.85,347.59c0,1.95-1.6,3.55-3.57,3.55-1.63,0-2.95-1.07-3.39-2.51l1.68-.59c.19.72.86,1.33,1.71,1.33.98,0,1.78-.8,1.78-1.78s-.8-1.78-1.78-1.78h-1.33v-.54l2.35-3.2h-2.88l-.86,1.42h-.53v-3.2h6.99v.88l-2.34,3.14c1.22.56,2.16,1.75,2.16,3.28Z"/>
  </g>
  <g>
    <path class="cls-14" d="M309.5,420.15c.98,0,2.02.61,2.58,1.54l-.84.74c-.54-.66-1.08-.95-1.68-.95-1.06,0-1.97,1.07-1.97,2.81s.91,2.79,1.97,2.79c.6,0,1.14-.28,1.68-.95l.84.74c-.56.92-1.6,1.54-2.58,1.54-2.01,0-3.37-1.86-3.37-4.13s1.36-4.14,3.37-4.14Z"/>
    <path class="cls-14" d="M316.93,420.15c1.8,0,2.81,1.87,2.81,4.14s-1.01,4.13-2.81,4.13-2.79-1.86-2.79-4.13,1-4.14,2.79-4.14ZM316.93,427.08c.9,0,1.39-1.27,1.39-2.79s-.49-2.81-1.39-2.81-1.38,1.27-1.38,2.81.49,2.79,1.38,2.79Z"/>
    <path class="cls-14" d="M326.4,420.28h1.2v8h-1.01l-3.13-5.11v5.11h-1.2v-8h1l3.14,5.11v-5.11Z"/>
    <path class="cls-14" d="M332.11,428.41c-.86,0-1.51-.28-2.25-.85l.16-1.19c.8.43,1.46.71,2.15.71.6,0,1.37-.32,1.37-.97,0-1.52-3.78-.94-3.78-3.61,0-1.39,1.22-2.35,2.64-2.35.9,0,1.51.31,2.34.96l-.42,1.05c-.56-.37-1.23-.7-1.87-.7-.8,0-1.3.43-1.3.91,0,1.43,3.79,1.07,3.79,3.53,0,1.64-1.38,2.51-2.82,2.51Z"/>
    <path class="cls-14" d="M338.27,420.28v5.07c0,1.16.6,1.73,1.33,1.73s1.34-.56,1.34-1.73v-5.07h1.33v5.07c0,1.97-1.2,3.06-2.67,3.06s-2.66-1.09-2.66-3.06v-5.07h1.33Z"/>
    <path class="cls-14" d="M346.28,426.95h2.27v1.33h-3.6v-8h1.33v6.67Z"/>
    <path class="cls-14" d="M349.34,421.61v-1.33h5.86v1.33h-2.27v6.67h-1.33v-6.67h-2.27Z"/>
    <path class="cls-14" d="M358.28,421.61h-1.33v-1.33h3.99v1.33h-1.33v5.34h1.33v1.33h-3.99v-1.33h1.33v-5.34Z"/>
    <path class="cls-14" d="M367.76,420.28h1.2v8h-1.01l-3.13-5.11v5.11h-1.2v-8h1l3.14,5.11v-5.11Z"/>
    <path class="cls-14" d="M375.76,425.62h-1.34v-1.33h2.67v3.99h-.41l-.28-.49c-.49.4-1.09.62-1.68.62-1.93,0-3.24-1.86-3.24-4.13s1.31-4.14,3.24-4.14c.95,0,1.93.61,2.47,1.54l-.79.74c-.52-.66-1.03-.95-1.6-.95-1.01,0-1.86,1.07-1.86,2.81s.85,2.79,1.86,2.79c.32,0,.64-.1.95-.31v-1.15Z"/>
    <path class="cls-14" d="M384.95,428.28h-1.33v-5.06c0-1.98,1.2-3.07,2.66-3.07s2.67,1.09,2.67,3.07v5.06h-1.33v-2.66h-2.67v2.66ZM387.63,423.22c0-1.18-.61-1.74-1.34-1.74s-1.33.56-1.33,1.74v1.07h2.67v-1.07Z"/>
    <path class="cls-14" d="M395.76,420.28h1.2v8h-1.01l-3.13-5.11v5.11h-1.2v-8h1l3.14,5.11v-5.11Z"/>
    <path class="cls-14" d="M399.63,420.28h1.87c1.98,0,3.59,1.79,3.59,4.01s-1.61,3.99-3.59,3.99h-1.87v-8ZM400.96,426.95h.54c1.16,0,2.12-1.2,2.12-2.66s-.96-2.67-2.12-2.67h-.54v5.34Z"/>
    <path class="cls-14" d="M415.64,423.22v-2.94h1.33v8h-1.33v-3.73h-2.67v3.73h-1.33v-8h1.33v2.94h2.67Z"/>
    <path class="cls-14" d="M420.97,428.28h-1.33v-5.06c0-1.98,1.2-3.07,2.66-3.07s2.67,1.09,2.67,3.07v5.06h-1.33v-2.66h-2.67v2.66ZM423.64,423.22c0-1.18-.61-1.74-1.34-1.74s-1.33.56-1.33,1.74v1.07h2.67v-1.07Z"/>
    <path class="cls-14" d="M428.97,426.95h2.27v1.33h-3.6v-8h1.33v6.67Z"/>
    <path class="cls-14" d="M434.3,426.95h2.27v1.33h-3.6v-8h1.33v6.67Z"/>
  </g>
  <g>
    <path class="cls-18" d="M388.7,124.05h-1.57v-1.55h3.12v4.66h-.48l-.32-.57c-.57.46-1.27.73-1.96.73-2.25,0-3.78-2.17-3.78-4.82s1.53-4.83,3.78-4.83c1.11,0,2.26.71,2.89,1.79l-.92.87c-.6-.77-1.2-1.11-1.86-1.11-1.18,0-2.17,1.25-2.17,3.28s1,3.26,2.17,3.26c.38,0,.74-.11,1.11-.36v-1.34Z"/>
    <path class="cls-18" d="M394.76,125.6h2.65v1.55h-4.2v-9.34h1.55v7.79Z"/>
    <path class="cls-18" d="M398.33,119.37v-1.55h6.85v1.55h-2.65v7.79h-1.55v-7.79h-2.65Z"/>
    <path class="cls-18" d="M411.25,124.22l4.57-6.56h.71v6.39h1.57v1.55h-1.57v1.55h-1.56v-1.55h-3.73v-1.39ZM414.98,124.05v-2.89l-2,2.89h2Z"/>
    <path class="cls-18" d="M423.55,120.81l-1.7.63-.35-.64,3.14-3.14h.46v7.94h1.55v1.55h-4.67v-1.55h1.56v-4.79Z"/>
    <path class="cls-18" d="M429.93,124.22l4.57-6.56h.71v6.39h1.57v1.55h-1.57v1.55h-1.56v-1.55h-3.73v-1.39ZM433.66,124.05v-2.89l-2,2.89h2Z"/>
  </g>
  <g>
    <path class="cls-18" d="M150.03,243.25h-1.57v-1.55h3.12v4.67h-.48l-.32-.57c-.57.46-1.27.73-1.96.73-2.25,0-3.78-2.17-3.78-4.82s1.53-4.83,3.78-4.83c1.11,0,2.26.71,2.89,1.79l-.92.87c-.6-.77-1.2-1.11-1.86-1.11-1.18,0-2.17,1.25-2.17,3.28s.99,3.26,2.17,3.26c.38,0,.74-.11,1.11-.36v-1.34Z"/>
    <path class="cls-18" d="M156.09,244.81h2.65v1.55h-4.2v-9.34h1.56v7.79Z"/>
    <path class="cls-18" d="M159.66,238.57v-1.56h6.85v1.56h-2.65v7.79h-1.55v-7.79h-2.65Z"/>
    <path class="cls-18" d="M172.58,243.42l4.57-6.56h.71v6.39h1.57v1.56h-1.57v1.55h-1.55v-1.55h-3.73v-1.39ZM176.3,243.25v-2.88l-2,2.88h2Z"/>
    <path class="cls-18" d="M184.87,240.01l-1.69.63-.35-.64,3.14-3.14h.46v7.94h1.56v1.55h-4.66v-1.55h1.55v-4.79Z"/>
    <path class="cls-18" d="M195.65,237.02h1.9l-2.31,3.29c1.6.13,2.86,1.47,2.86,3.1,0,1.71-1.4,3.11-3.12,3.11s-3.1-1.4-3.11-3.11c-.01-.88.36-1.51.81-2.14l2.97-4.25ZM194.98,241.85c-.85,0-1.55.7-1.55,1.55s.7,1.55,1.55,1.55,1.55-.7,1.55-1.55-.7-1.55-1.55-1.55Z"/>
  </g>
  <g>
    <rect class="cls-6" x="659.16" y="99.1" width="68.71" height="118.91"/>
    <g>
      <path class="cls-18" d="M686.21,151.72h-1.57v-1.55h3.12v4.66h-.48l-.32-.57c-.57.46-1.27.73-1.96.73-2.25,0-3.78-2.17-3.78-4.82s1.53-4.83,3.78-4.83c1.11,0,2.26.71,2.89,1.79l-.92.87c-.6-.77-1.2-1.11-1.86-1.11-1.18,0-2.17,1.25-2.17,3.28s1,3.26,2.17,3.26c.38,0,.74-.11,1.11-.36v-1.34Z"/>
      <path class="cls-18" d="M692.27,153.28h2.65v1.55h-4.2v-9.34h1.55v7.79Z"/>
      <path class="cls-18" d="M695.84,147.04v-1.56h6.85v1.56h-2.65v7.79h-1.55v-7.79h-2.65Z"/>
      <path class="cls-18" d="M680.75,168.69l4.57-6.56h.71v6.39h1.57v1.56h-1.57v1.55h-1.56v-1.55h-3.73v-1.39ZM684.48,168.52v-2.89l-2,2.89h2Z"/>
      <path class="cls-18" d="M693.82,162.13c2.1,0,3.28,2.19,3.28,4.83s-1.18,4.82-3.28,4.82-3.26-2.17-3.26-4.82,1.16-4.83,3.26-4.83ZM693.82,170.23c1.05,0,1.62-1.48,1.62-3.26s-.57-3.28-1.62-3.28-1.61,1.48-1.61,3.28.57,3.26,1.61,3.26Z"/>
      <path class="cls-18" d="M705.46,167.4l-2.97,4.23h-1.9l2.3-3.28c-1.58-.13-2.84-1.48-2.84-3.11,0-1.71,1.4-3.11,3.11-3.11s3.1,1.4,3.12,3.11c.01.9-.36,1.51-.81,2.16ZM703.15,163.69c-.85,0-1.55.7-1.55,1.56s.7,1.57,1.55,1.57,1.56-.7,1.56-1.57-.7-1.56-1.56-1.56Z"/>
    </g>
  </g>
  <rect class="cls-9" x="527.71" y="482.81" width="34.25" height="11.68"/>
  <g>
    <rect class="cls-19" x="476.21" y="342.01" width="47.86" height="10.64"/>
    <path class="cls-13" d="M522.57,343.51v7.64h-44.86v-7.64h44.86M525.57,340.51h-50.86v13.64h50.86v-13.64h0Z"/>
  </g>
  <g>
    <rect class="cls-13" x="472.27" y="74.82" width="47.86" height="10.64"/>
    <path class="cls-19" d="M518.63,76.32v7.64h-44.86v-7.64h44.86M521.63,73.32h-50.86v13.64h50.86v-13.64h0Z"/>
  </g>
  <g>
    <rect class="cls-19" x="250.89" y="146.54" width="10.64" height="47.86"/>
    <path class="cls-13" d="M260.03,148.04v44.86h-7.64v-44.86h7.64M263.03,145.04h-13.64v50.86h13.64v-50.86h0Z"/>
  </g>
  <g>
    <rect class="cls-19" x="195.03" y="204.15" width="47.86" height="10.64"/>
    <path class="cls-13" d="M241.39,205.65v7.64h-44.86v-7.64h44.86M244.39,202.65h-50.86v13.64h50.86v-13.64h0Z"/>
  </g>
  <rect class="cls-8" x="187.77" y="357.34" width="19.32" height="158.15" transform="translate(-238.98 633.84) rotate(-90)"/>
  <g>
    <rect class="cls-13" x="248.81" y="283.33" width="10.64" height="47.86"/>
    <path class="cls-19" d="M257.95,284.83v44.86h-7.64v-44.86h7.64M260.95,281.83h-13.64v50.86h13.64v-50.86h0Z"/>
  </g>
  <g>
    <rect class="cls-13" x="248.81" y="222.58" width="10.64" height="47.86"/>
    <path class="cls-19" d="M257.95,224.08v44.86h-7.64v-44.86h7.64M260.95,221.08h-13.64v50.86h13.64v-50.86h0Z"/>
  </g>
  <g>
    <rect class="cls-13" x="630.08" y="393.28" width="5.36" height="25.08"/>
    <path class="cls-19" d="M634.67,394.05v23.54h-3.82v-23.54h3.82M636.21,392.51h-6.89v26.62h6.89v-26.62h0Z"/>
  </g>
  <rect class="cls-7" x="485.92" y="405.31" width="7.95" height="73.52" transform="translate(47.82 931.96) rotate(-90)"/>
  <g>
    <rect class="cls-13" x="325.16" y="74.99" width="42.62" height="11.62"/>
    <path class="cls-19" d="M366.65,76.12v9.37h-40.37v-9.37h40.37M368.9,73.87h-44.86v13.87h44.86v-13.87h0Z"/>
  </g>
  <g>
    <rect class="cls-13" x="299.96" y="44.56" width="9.08" height="30.4"/>
    <path class="cls-19" d="M308.04,45.56v28.4h-7.08v-28.4h7.08M310.04,43.56h-11.08v32.4h11.08v-32.4h0Z"/>
  </g>
  <g>
    <rect class="cls-13" x="659.39" y="99.38" width="9.64" height="46.86"/>
    <path class="cls-19" d="M668.03,100.38v44.86h-7.64v-44.86h7.64M670.03,98.38h-11.64v48.86h11.64v-48.86h0Z"/>
  </g>
  <g>
    <rect class="cls-13" x="659.23" y="302.97" width="9.64" height="46.86"/>
    <path class="cls-19" d="M667.87,303.97v44.86h-7.64v-44.86h7.64M669.87,301.97h-11.64v48.86h11.64v-48.86h0Z"/>
  </g>
  <rect class="cls-4" x="1.05" y="359.31" width="116.48" height="139.15"/>
  <g>
    <rect class="cls-13" x="106.98" y="222.58" width="10.64" height="47.86"/>
    <path class="cls-19" d="M116.11,224.08v44.86h-7.64v-44.86h7.64M119.11,221.08h-13.64v50.86h13.64v-50.86h0Z"/>
  </g>
  <g>
    <rect class="cls-13" x="472.14" y="393.28" width="5.36" height="25.08"/>
    <path class="cls-19" d="M476.73,394.05v23.54h-3.82v-23.54h3.82M478.26,392.51h-6.89v26.62h6.89v-26.62h0Z"/>
  </g>
  <g>
    <rect class="cls-19" x="476.09" y="211.54" width="47.86" height="10.64"/>
    <path class="cls-13" d="M522.45,213.04v7.64h-44.86v-7.64h44.86M525.45,210.04h-50.86v13.64h50.86v-13.64h0Z"/>
  </g>
</svg>