<?xml version="1.0" encoding="UTF-8"?>
<svg id="katman_1" data-name="katman 1" xmlns="http://www.w3.org/2000/svg" viewBox="0 0 841.9 595.3">
  <defs>
    <style>
      .cls-1 {
        stroke-width: 3px;
      }

      .cls-1, .cls-2 {
        fill: none;
      }

      .cls-1, .cls-2, .cls-3 {
        stroke: #e888b7;
        stroke-miterlimit: 10;
      }

      .cls-4 {
        fill: #e888b7;
      }

      .cls-2, .cls-3 {
        stroke-width: 2px;
      }

      .cls-5 {
        fill: #e52629;
      }

      .cls-6 {
        fill: #dadada;
      }

      .cls-3, .cls-7 {
        fill: #fff;
      }

      .cls-8 {
        fill: #878787;
      }
    </style>
  </defs>
  <rect class="cls-1" x="290.4" y="160.8" width="229.5" height="340.2"/>
  <g>
    <path class="cls-4" d="M82.7,257.8h-33.7v-23.6h4.5v17.6h10.1v-15.2h4.5v15.2h14.6v6Z"/>
    <path class="cls-4" d="M82.7,228.5h-33.7v-6h29.1v-17.2h4.6v23.1Z"/>
    <path class="cls-4" d="M58.9,172.9h13.8c7.9,0,10.5,6.7,10.5,14.3s-2.6,14.3-10.5,14.3h-13.8c-7.9,0-10.5-6.7-10.5-14.3s2.6-14.3,10.5-14.3ZM60.2,195.6h11.2c5.6,0,7.1-3.4,7.1-8.4s-1.5-8.4-7.1-8.4h-11.2c-5.6,0-7.1,3.4-7.1,8.4s1.5,8.4,7.1,8.4Z"/>
    <path class="cls-4" d="M58.9,135.6h13.8c7.9,0,10.5,6.7,10.5,14.3s-2.6,14.3-10.5,14.3h-13.8c-7.9,0-10.5-6.7-10.5-14.3s2.6-14.3,10.5-14.3ZM60.2,158.3h11.2c5.6,0,7.1-3.4,7.1-8.4s-1.5-8.4-7.1-8.4h-11.2c-5.6,0-7.1,3.4-7.1,8.4s1.5,8.4,7.1,8.4Z"/>
    <path class="cls-4" d="M82.7,104l-14.2,8.4v8.6h14.2v6h-33.7v-17.8c0-4.8,3.3-8.4,7.5-8.4h4.6c3.2,0,6,2.2,7,5.4l14.6-8.8v6.5ZM57.6,106.8c-2.8,0-4.1,1.4-4.1,5.1v9.2h10.5v-9.2c0-3.7-1.3-5.1-4.1-5.1h-2.2Z"/>
    <path class="cls-4" d="M78.1,58.3h4.6v24.1h-4.3l-7-12.2c-1.4-2.5-2.4-4.3-5.1-4.3h-.7c-1.6,0-2.3.6-2.3,3.2s.6,11,.6,11h-4.8s-.6-7.7-.6-11.5,1.1-8.6,5.3-8.6h3c2.6,0,4.7,1.6,6.5,4.8l4.6,8.2h.2v-14.7Z"/>
  </g>
  <rect class="cls-2" x="530.4" y="285.7" width="145.4" height="96.9"/>
  <rect class="cls-2" x="163" y="172.9" width="106.4" height="121.1"/>
  <rect class="cls-2" x="250.5" y="64.7" width="90.9" height="84.1"/>
  <rect class="cls-3" x="467.2" y="159.8" width="145.4" height="103.3"/>
  <rect class="cls-2" x="354.8" y="87.3" width="93.2" height="61.5"/>
  <g>
    <rect class="cls-8" x="339.7" y="529.5" width="83.8" height="30.4"/>
    <rect class="cls-8" x="438.1" y="529.6" width="83.8" height="30.4"/>
    <g>
      <polygon class="cls-4" points="531.5 546.8 531.8 549.1 546 547.2 545.7 544.8 531.5 546.8"/>
      <polygon class="cls-4" points="545.7 541.3 531.5 539.8 531.2 542.2 545.4 543.6 545.7 541.3"/>
      <polygon class="cls-4" points="532.2 535.4 545.8 539.6 546.5 537.4 532.9 533.2 532.2 535.4"/>
      <polygon class="cls-4" points="536.1 527.4 547.3 536.2 548.8 534.4 537.6 525.5 536.1 527.4"/>
      <polygon class="cls-4" points="541.7 521.8 550 533.5 551.9 532.1 543.7 520.5 541.7 521.8"/>
      <polygon class="cls-4" points="548.8 518.3 553.6 531.8 555.8 531 551 517.6 548.8 518.3"/>
      <polygon class="cls-4" points="579.8 535.8 579.2 533.5 565.3 537 565.9 539.2 579.8 535.8"/>
      <polygon class="cls-4" points="566.2 540.4 566.2 542.8 580.5 542.7 580.5 540.3 566.2 540.4"/>
      <polygon class="cls-4" points="565.8 546.7 579.8 549.5 580.3 547.2 566.3 544.4 565.8 546.7"/>
      <polygon class="cls-4" points="563.9 550 576 557.5 577.3 555.6 565.2 548 563.9 550"/>
      <polygon class="cls-4" points="561.1 552.6 570.5 563.2 572.3 561.7 562.8 551 561.1 552.6"/>
      <polygon class="cls-4" points="557.3 554.1 563.5 566.9 565.6 565.9 559.4 553.1 557.3 554.1"/>
    </g>
    <g>
      <path class="cls-5" d="M554.7,543v.4s-.5,0-.5,0v.2s.4,0,.4,0v.4s-.4,0-.4,0v.5s-.5,0-.5,0v-1.6s1,0,1,0Z"/>
      <path class="cls-5" d="M555.3,543v1.5s-.5,0-.5,0v-1.5s.5,0,.5,0Z"/>
      <path class="cls-5" d="M556.2,544.1h0s0,.5,0,.5h-.5s0-1.5,0-1.5h.7s.4,0,.4,0v.8s-.1,0-.1,0l.3.4-.4.2-.3-.5ZM556,543.7h.3s0-.3,0-.3h-.3s0,.3,0,.3Z"/>
      <path class="cls-5" d="M557.9,544.6h-1s0-1.5,0-1.5h0c0,0,.8,0,.8,0v.4s-.5,0-.5,0v.2s.4,0,.4,0v.4s-.4,0-.4,0v.2s.5,0,.5,0v.4Z"/>
      <path class="cls-5" d="M553.9,545.5h-.3s0-.4,0-.4h0s.3,0,.3,0h0c0,.1-.1.1-.1.1h0c0,0,.1,0,.1,0h0c0,.1-.1.1-.1.1h0c0,0,.2,0,.2,0h0Z"/>
      <path class="cls-5" d="M554.1,545.3h0s0,.2,0,.2h-.2s0-.2,0-.2h0s0,0,0,0v-.2s.1,0,.1,0h0c0,.1,0,.2,0,.2h0s0-.1,0-.1h.1s0,.2,0,.2h0s0,0,0,0v.2s-.1,0-.1,0h0c0-.1,0-.2,0-.2Z"/>
      <path class="cls-5" d="M554.7,545.1h-.1s0,.3,0,.3h-.1s0-.3,0-.3h-.1s0-.1,0-.1h.4s0,.1,0,.1Z"/>
      <path class="cls-5" d="M554.9,545v.5s-.1,0-.1,0v-.5s.1,0,.1,0Z"/>
      <path class="cls-5" d="M555.3,545.5h-.1s0-.1,0-.1h-.1c0-.1,0,.1,0,.1h-.1s0-.4,0-.4h.1s.1.1.1.1h0c0-.1.1-.2.1-.2v.5Z"/>
      <path class="cls-5" d="M555.5,545h.3s0,.1,0,.1h-.2v.2h0s0-.1,0-.1h.1s0,.3,0,.3h-.3s0-.4,0-.4h0Z"/>
      <path class="cls-5" d="M556.2,545v.4s0,0,0,0h-.3s0,0,0,0v-.4s.1,0,.1,0v.3s0,0,0,0v-.3s.1,0,.1,0Z"/>
      <path class="cls-5" d="M556.4,545v.5s-.1,0-.1,0v-.5s.1,0,.1,0Z"/>
      <path class="cls-5" d="M556.8,545h0c0,.1-.1.1-.1.1h0s.2.1.2.1v.2s-.3,0-.3,0v-.2s.2,0,.2,0h0s-.2-.1-.2-.1v-.2s.1,0,.1,0h.2Z"/>
      <path class="cls-5" d="M557.1,545.3h0s0,.2,0,.2h-.1v-.5s.1,0,.1,0v.2s0,0,0,0v-.2s.1,0,.1,0v.5s-.1,0-.1,0v-.2Z"/>
      <path class="cls-5" d="M557.6,545.5h-.3s0-.4,0-.4h0s.3,0,.3,0h0c0,.1-.1.1-.1.1h0c0,0,.1,0,.1,0h0c0,.1-.1.1-.1.1h0c0,0,.2,0,.2,0h0Z"/>
      <path class="cls-5" d="M557.8,545.3h0s0,.2,0,.2h-.1s0-.5,0-.5h.2s.1,0,.1,0v.3s0,0,0,0h0c0,.1-.1.2-.1.2v-.2ZM557.8,545.2h0s0-.1,0-.1h0s0,.1,0,.1Z"/>
    </g>
    <path class="cls-5" d="M551.8,548.3l3.9,2.9c0,0,.1,0,.2,0l3.9-2.9c0,0,0-.1,0-.2,0,0,0-.1-.2-.1h-1.7v-1.8c0,0,0-.2-.2-.2h-3.9c0,0-.2,0-.2.2v1.8h-1.7c0,0-.1,0-.2.1,0,0,0,.1,0,.2Z"/>
    <path class="cls-5" d="M562.8,537.8s0,0-.1,0,0,0,0,0l-3.1.7c0,0,0,0-.1,0,0,0,0,0,0,.1h-3.4c0-.1,0-.3,0-.4,0-.3-.1-.6-.3-.8-.2-.2-.5-.3-.8-.3s-.6.1-.8.3c-.2.2-.3.5-.3.8s0,.4.2.6c-.3,0-.5.2-.8.4-.2.2-.4.3-.6.5-.2.2-.3.3-.4.5-.1.2-.2.3-.3.4,0,0,0,.1-.1.2,0,.1,0,.2,0,.3,0,.1.1.2.2.3,0,0,.1,0,.2,0,.2,0,.3,0,.4-.2,0,0,0,0,0-.2,0,0,.1-.2.3-.4.1-.2.3-.3.5-.5.2-.1.4-.3.6-.4.3-.1.5-.2.8-.2h.2v.8c-.5.1-.8.4-1.1.8-.3.4-.4.8-.4,1.3h0c0,0,4.4,0,4.4,0h0c0-.6-.2-1.1-.5-1.5-.3-.4-.8-.7-1.3-.8v-.7h3.1c0,0,0,0,0,.1,0,0,0,0,.1,0l3.1.7s0,0,0,0c0,0,.1,0,.1,0,0,0,0,0,0-.2v-2.2c0,0,0-.1,0-.2ZM555.3,538.5c0,0-.2.1-.3.1s-.2,0-.3-.1c0,0-.1-.2-.1-.3s0-.2.1-.3c0,0,.2-.1.3-.1s.2,0,.3.1c0,0,.1.2.1.3s0,.2-.1.3Z"/>
    <polygon class="cls-4" points="312.5 550.7 312.5 541.2 299.7 541.2 299.7 531.5 286.9 531.5 286.9 521.8 274.2 521.8 274.2 512.1 261.4 512.1 261.4 521.8 261.4 560.3 286.9 560.3 299.7 560.3 312.3 560.3 325.1 560.3 325.1 550.7 312.5 550.7"/>
  </g>
  <g id="gltsc03">
    <g id="gltsc03-2" data-name="gltsc03">
      <rect class="cls-4" x="146.9" y="406.6" width="123.4" height="94.3"/>
    </g>
    <g>
      <path class="cls-6" d="M183,455.3h-1.6v-1.6h3.1v4.7h-.5l-.3-.6c-.6.5-1.3.7-2,.7-2.3,0-3.8-2.2-3.8-4.8s1.5-4.8,3.8-4.8,2.3.7,2.9,1.8l-.9.9c-.6-.8-1.2-1.1-1.9-1.1-1.2,0-2.2,1.2-2.2,3.3s1,3.3,2.2,3.3.7-.1,1.1-.4v-1.3Z"/>
      <path class="cls-6" d="M189.1,456.8h2.6v1.6h-4.2v-9.3h1.6v7.8Z"/>
      <path class="cls-6" d="M192.6,450.6v-1.6h6.8v1.6h-2.6v7.8h-1.6v-7.8h-2.6Z"/>
      <path class="cls-6" d="M208.3,458.5c-1,0-1.8-.3-2.6-1l.2-1.4c.9.5,1.7.8,2.5.8s1.6-.4,1.6-1.1c0-1.8-4.4-1.1-4.4-4.2s1.4-2.7,3.1-2.7,1.8.4,2.7,1.1l-.5,1.2c-.7-.4-1.4-.8-2.2-.8s-1.5.5-1.5,1.1c0,1.7,4.4,1.2,4.4,4.1s-1.6,2.9-3.3,2.9Z"/>
      <path class="cls-6" d="M217.8,448.9c1.1,0,2.4.7,3,1.8l-1,.9c-.6-.8-1.3-1.1-2-1.1-1.2,0-2.3,1.2-2.3,3.3s1.1,3.3,2.3,3.3,1.3-.3,2-1.1l1,.9c-.7,1.1-1.9,1.8-3,1.8-2.4,0-3.9-2.2-3.9-4.8s1.6-4.8,3.9-4.8Z"/>
      <path class="cls-6" d="M226.4,448.9c2.1,0,3.3,2.2,3.3,4.8s-1.2,4.8-3.3,4.8-3.3-2.2-3.3-4.8,1.2-4.8,3.3-4.8ZM226.4,457c1.1,0,1.6-1.5,1.6-3.3s-.6-3.3-1.6-3.3-1.6,1.5-1.6,3.3.6,3.3,1.6,3.3Z"/>
      <path class="cls-6" d="M238.9,455.4c0,1.7-1.4,3.1-3.1,3.1s-2.6-.9-3-2.2l1.5-.5c.2.6.8,1.2,1.5,1.2s1.6-.7,1.6-1.6-.7-1.6-1.6-1.6h-1.2v-.5l2.1-2.8h-2.5l-.8,1.2h-.5v-2.8h6.1v.8l-2,2.7c1.1.5,1.9,1.5,1.9,2.9Z"/>
    </g>
    <g>
      <rect class="cls-4" x="260.9" y="405.2" width="9.6" height="27.7"/>
      <path class="cls-7" d="M269.5,406.2v25.7h-7.6v-25.7h7.6M271.5,404.2h-11.6v29.7h11.6v-29.7h0Z"/>
    </g>
  </g>
  <g id="gltsc01">
    <g id="gltsc01-2" data-name="gltsc01">
      <rect class="cls-4" x="109.4" y="304.9" width="160.8" height="91.6"/>
    </g>
    <g>
      <path class="cls-6" d="M164.6,352.5h-1.6v-1.6h3.1v4.7h-.5l-.3-.6c-.6.5-1.3.7-2,.7-2.3,0-3.8-2.2-3.8-4.8s1.5-4.8,3.8-4.8,2.3.7,2.9,1.8l-.9.9c-.6-.8-1.2-1.1-1.9-1.1-1.2,0-2.2,1.2-2.2,3.3s1,3.3,2.2,3.3.7-.1,1.1-.4v-1.3Z"/>
      <path class="cls-6" d="M170.7,354.1h2.6v1.6h-4.2v-9.3h1.6v7.8Z"/>
      <path class="cls-6" d="M174.3,347.8v-1.6h6.8v1.6h-2.6v7.8h-1.6v-7.8h-2.6Z"/>
      <path class="cls-6" d="M189.9,355.8c-1,0-1.8-.3-2.6-1l.2-1.4c.9.5,1.7.8,2.5.8s1.6-.4,1.6-1.1c0-1.8-4.4-1.1-4.4-4.2s1.4-2.7,3.1-2.7,1.8.4,2.7,1.1l-.5,1.2c-.7-.4-1.4-.8-2.2-.8s-1.5.5-1.5,1.1c0,1.7,4.4,1.2,4.4,4.1s-1.6,2.9-3.3,2.9Z"/>
      <path class="cls-6" d="M199.4,346.1c1.1,0,2.4.7,3,1.8l-1,.9c-.6-.8-1.3-1.1-2-1.1-1.2,0-2.3,1.2-2.3,3.3s1.1,3.3,2.3,3.3,1.3-.3,2-1.1l1,.9c-.7,1.1-1.9,1.8-3,1.8-2.4,0-3.9-2.2-3.9-4.8s1.6-4.8,3.9-4.8Z"/>
      <path class="cls-6" d="M208,346.1c2.1,0,3.3,2.2,3.3,4.8s-1.2,4.8-3.3,4.8-3.3-2.2-3.3-4.8,1.2-4.8,3.3-4.8ZM208,354.2c1.1,0,1.6-1.5,1.6-3.3s-.6-3.3-1.6-3.3-1.6,1.5-1.6,3.3.6,3.3,1.6,3.3Z"/>
      <path class="cls-6" d="M216.6,349.3l-1.7.6-.4-.6,3.1-3.1h.5v7.9h1.6v1.6h-4.7v-1.6h1.6v-4.8Z"/>
    </g>
    <g>
      <rect class="cls-4" x="261.6" y="311.9" width="9.6" height="27.7"/>
      <path class="cls-7" d="M270.2,312.9v25.7h-7.6v-25.7h7.6M272.2,310.9h-11.6v29.7h11.6v-29.7h0Z"/>
    </g>
  </g>
  <g id="gltbug">
    <g id="gltbug-2" data-name="gltbug">
      <rect class="cls-4" x="530.4" y="406.1" width="145.4" height="96.8"/>
    </g>
    <g>
      <path class="cls-6" d="M581.4,456h-1.6v-1.6h3.1v4.7h-.5l-.3-.6c-.6.5-1.3.7-2,.7-2.3,0-3.8-2.2-3.8-4.8s1.5-4.8,3.8-4.8,2.3.7,2.9,1.8l-.9.9c-.6-.8-1.2-1.1-1.9-1.1-1.2,0-2.2,1.2-2.2,3.3s1,3.3,2.2,3.3.7-.1,1.1-.4v-1.3Z"/>
      <path class="cls-6" d="M587.4,457.6h2.6v1.6h-4.2v-9.3h1.6v7.8Z"/>
      <path class="cls-6" d="M591,451.3v-1.6h6.8v1.6h-2.6v7.8h-1.6v-7.8h-2.6Z"/>
      <path class="cls-6" d="M604.5,449.8h3.3c1.4,0,2.5,1.1,2.5,2.5s-.2,1.1-.5,1.5c.7.5,1.2,1.3,1.2,2.4,0,1.6-1.3,3-3,3h-3.4v-9.3ZM606.1,453.2h1.7c.5,0,.9-.4.9-.9s-.4-.9-.9-.9h-1.7v1.9ZM606.1,457.6h1.9c.8,0,1.4-.6,1.4-1.4s-.6-1.4-1.4-1.4h-1.9v2.8Z"/>
      <path class="cls-6" d="M615.4,449.8v5.9c0,1.4.7,2,1.6,2s1.6-.7,1.6-2v-5.9h1.6v5.9c0,2.3-1.4,3.6-3.1,3.6s-3.1-1.3-3.1-3.6v-5.9h1.6Z"/>
      <path class="cls-6" d="M628,456h-1.6v-1.6h3.1v4.7h-.5l-.3-.6c-.6.5-1.3.7-2,.7-2.3,0-3.8-2.2-3.8-4.8s1.5-4.8,3.8-4.8,2.3.7,2.9,1.8l-.9.9c-.6-.8-1.2-1.1-1.9-1.1-1.2,0-2.2,1.2-2.2,3.3s1,3.3,2.2,3.3.7-.1,1.1-.4v-1.3Z"/>
    </g>
    <g>
      <rect class="cls-4" x="529.4" y="405.1" width="9.6" height="27.7"/>
      <path class="cls-7" d="M538,406.1v25.7h-7.6v-25.7h7.6M540,404.1h-11.6v29.7h11.6v-29.7h0Z"/>
    </g>
  </g>
  <rect class="cls-2" x="396.6" y="132.2" width="7.6" height="25.7" transform="translate(545.4 -255.4) rotate(90)"/>
  <rect class="cls-2" x="299.4" y="132.2" width="7.6" height="25.7" transform="translate(448.3 -158.2) rotate(90)"/>
  <rect class="cls-2" x="261.7" y="173" width="7.6" height="25.7" transform="translate(531 371.6) rotate(180)"/>
  <rect class="cls-3" x="530.6" y="356.8" width="7.6" height="25.7"/>
  <rect class="cls-3" x="483.4" y="255.4" width="25.7" height="7.6"/>
  <rect class="cls-3" x="467.2" y="111.2" width="92.6" height="75.3"/>
  <rect class="cls-3" x="467.2" y="160.8" width="7.6" height="25.7"/>
</svg>