<?xml version="1.0" encoding="UTF-8"?>
<svg id="katman_1" data-name="katman 1" xmlns="http://www.w3.org/2000/svg" viewBox="0 0 714.47 552.11">
  <defs>
    <style>
      .cls-1 {
        fill: #3c3c3b;
      }

      .cls-2 {
        fill: none;
        stroke: #b6373d;
        stroke-miterlimit: 10;
        stroke-width: 2px;
      }

      .cls-3 {
        fill: #e52629;
      }

      .cls-4 {
        fill: #dadada;
      }

      .cls-5 {
        fill: #fff;
      }

      .cls-6 {
        font-family: ArialRoundedMTBold, 'Arial Rounded MT Bold';
        font-size: 20.69px;
      }

      .cls-6, .cls-7 {
        fill: #b6373d;
      }

      .cls-8 {
        fill: #878787;
      }
    </style>
  </defs>
  <rect class="cls-2" x="295.26" y="153.08" width="182.09" height="340.19"/>
  <rect class="cls-2" x="489.45" y="412.74" width="224.02" height="79.05"/>
  <path class="cls-7" d="M293.61,385.18v107.1h-88.4v-107.1h88.4M295.61,383.18h-92.4v111.1h92.4v-111.1h0Z"/>
  <g id="tanzermac01">
    <rect class="cls-7" x="488.46" y="281.92" width="188.79" height="117.05"/>
    <g>
      <path class="cls-5" d="M587.83,347.81v-2.33h10.27v2.33h-3.97v11.67h-2.33v-11.67h-3.97Z"/>
      <path class="cls-5" d="M603.47,359.48h-2.33v-8.86c0-3.46,2.1-5.38,4.66-5.38s4.68,1.91,4.68,5.38v8.86h-2.33v-4.66h-4.68v4.66ZM608.16,350.62c0-2.06-1.07-3.04-2.35-3.04s-2.33.99-2.33,3.04v1.87h4.68v-1.87Z"/>
      <path class="cls-5" d="M622.39,345.48h2.1v14h-1.76l-5.48-8.94v8.94h-2.1v-14h1.74l5.5,8.94v-8.94Z"/>
      <path class="cls-5" d="M628.92,347.81v-2.33h7.52l-4.24,11.67h4.2v2.33h-7.54l4.24-11.67h-4.18Z"/>
      <path class="cls-5" d="M640.83,345.48h6.99v2.33h-4.66v2.81h4.66v2.33h-4.66v4.2h4.66v2.33h-6.99v-14Z"/>
      <path class="cls-5" d="M662.9,359.48h-2.86l-3.36-4.66h-1.85v4.66h-2.33v-14h4.56c2.56,0,4.66,2.1,4.66,4.68,0,1.79-1.03,3.38-2.54,4.14l3.72,5.19ZM659.4,350.16c0-1.3-1.05-2.35-2.33-2.35h-2.23v4.68h2.23c1.28,0,2.33-1.05,2.33-2.33Z"/>
      <path class="cls-5" d="M603.6,384.68v-8.44l-3.38,6.34h-.46l-3.38-6.34v8.44h-2.23v-14h1.91l3.93,7.37,3.93-7.37h1.91v14h-2.22Z"/>
      <path class="cls-5" d="M612.82,384.68h-2.33v-8.86c0-3.46,2.1-5.38,4.66-5.38s4.68,1.91,4.68,5.38v8.86h-2.33v-4.66h-4.68v4.66ZM617.5,375.82c0-2.06-1.07-3.04-2.35-3.04s-2.33.99-2.33,3.04v1.87h4.68v-1.87Z"/>
      <path class="cls-5" d="M630.16,370.45c1.72,0,3.53,1.07,4.51,2.69l-1.47,1.3c-.95-1.16-1.89-1.66-2.94-1.66-1.85,0-3.44,1.87-3.44,4.91s1.6,4.89,3.44,4.89c1.05,0,1.99-.48,2.94-1.66l1.47,1.3c-.99,1.62-2.79,2.69-4.51,2.69-3.53,0-5.9-3.25-5.9-7.22s2.37-7.24,5.9-7.24Z"/>
      <path class="cls-5" d="M643.16,370.45c3.15,0,4.91,3.28,4.91,7.24s-1.76,7.22-4.91,7.22-4.89-3.25-4.89-7.22,1.74-7.24,4.89-7.24ZM643.16,382.58c1.57,0,2.44-2.23,2.44-4.89s-.86-4.91-2.44-4.91-2.42,2.23-2.42,4.91.86,4.89,2.42,4.89Z"/>
      <path class="cls-5" d="M656.01,375.17l-2.54.94-.52-.97,4.7-4.7h.69v11.9h2.33v2.33h-6.99v-2.33h2.33v-7.18Z"/>
    </g>
  </g>
  <g>
    <path class="cls-1" d="M620.15,437.95h6.93v2.3h-4.77v2.77h4.77v2.3h-4.77v6.44h-2.16v-13.8Z"/>
    <path class="cls-1" d="M633.13,451.76h-2.16v-8.73c0-3.41,1.95-5.3,4.32-5.3s4.34,1.88,4.34,5.3v8.73h-2.16v-4.59h-4.34v4.59ZM637.47,443.02c0-2.03-.99-3-2.18-3s-2.16.97-2.16,3v1.84h4.34v-1.84Z"/>
    <path class="cls-1" d="M649.21,437.73c1.6,0,3.27,1.05,4.19,2.65l-1.36,1.28c-.88-1.14-1.75-1.63-2.73-1.63-1.71,0-3.19,1.84-3.19,4.84s1.48,4.82,3.19,4.82c.97,0,1.85-.48,2.73-1.63l1.36,1.28c-.92,1.59-2.59,2.65-4.19,2.65-3.27,0-5.47-3.21-5.47-7.12s2.2-7.14,5.47-7.14Z"/>
    <path class="cls-1" d="M659.09,437.95v8.75c0,2.01.97,2.98,2.16,2.98s2.18-.97,2.18-2.98v-8.75h2.16v8.75c0,3.39-1.95,5.28-4.34,5.28s-4.32-1.88-4.32-5.28v-8.75h2.16Z"/>
    <path class="cls-1" d="M672.07,449.46h3.68v2.3h-5.84v-13.8h2.16v11.5Z"/>
    <path class="cls-1" d="M677.04,440.25v-2.3h9.52v2.3h-3.68v11.5h-2.16v-11.5h-3.68Z"/>
    <path class="cls-1" d="M687.21,437.95h2.49l2.92,5.67,2.92-5.67h2.49l-4.34,8.28v5.52h-2.16v-5.52l-4.32-8.28Z"/>
    <path class="cls-1" d="M597.14,476.81c-1.4,0-2.45-.48-3.66-1.47l.25-2.05c1.3.75,2.38,1.22,3.49,1.22.97,0,2.22-.56,2.22-1.68,0-2.63-6.13-1.61-6.13-6.23,0-2.4,1.99-4.05,4.28-4.05,1.46,0,2.45.54,3.8,1.66l-.68,1.82c-.92-.64-2.01-1.2-3.04-1.2-1.3,0-2.1.75-2.1,1.57,0,2.46,6.15,1.84,6.15,6.08,0,2.83-2.24,4.32-4.58,4.32Z"/>
    <path class="cls-1" d="M604.99,462.78h6.48v2.3h-4.32v2.77h4.32v2.3h-4.32v4.14h4.32v2.3h-6.48v-13.8Z"/>
    <path class="cls-1" d="M621.06,462.56c1.6,0,3.27,1.05,4.19,2.65l-1.36,1.28c-.88-1.14-1.75-1.63-2.73-1.63-1.71,0-3.19,1.84-3.19,4.84s1.48,4.82,3.19,4.82c.97,0,1.85-.48,2.73-1.63l1.36,1.28c-.92,1.59-2.59,2.65-4.19,2.65-3.27,0-5.47-3.21-5.47-7.12s2.2-7.14,5.47-7.14Z"/>
    <path class="cls-1" d="M638.43,476.59h-2.65l-3.12-4.59h-1.71v4.59h-2.16v-13.8h4.22c2.38,0,4.32,2.07,4.32,4.61,0,1.76-.95,3.33-2.36,4.08l3.45,5.11ZM635.17,467.4c0-1.28-.97-2.32-2.16-2.32h-2.06v4.61h2.06c1.19,0,2.16-1.03,2.16-2.3Z"/>
    <path class="cls-1" d="M641.77,462.78h6.48v2.3h-4.32v2.77h4.32v2.3h-4.32v4.14h4.32v2.3h-6.48v-13.8Z"/>
    <path class="cls-1" d="M651.07,465.08v-2.3h9.52v2.3h-3.68v11.5h-2.16v-11.5h-3.68Z"/>
    <path class="cls-1" d="M665.57,476.59h-2.16v-8.73c0-3.41,1.95-5.3,4.32-5.3s4.34,1.88,4.34,5.3v8.73h-2.16v-4.59h-4.34v4.59ZM669.92,467.85c0-2.03-.99-3-2.18-3s-2.16.97-2.16,3v1.84h4.34v-1.84Z"/>
    <path class="cls-1" d="M686.03,476.59h-2.65l-3.12-4.59h-1.71v4.59h-2.16v-13.8h4.23c2.38,0,4.32,2.07,4.32,4.61,0,1.76-.95,3.33-2.36,4.08l3.45,5.11ZM682.78,467.4c0-1.28-.97-2.32-2.16-2.32h-2.06v4.61h2.06c1.19,0,2.16-1.03,2.16-2.3Z"/>
    <path class="cls-1" d="M687.21,462.78h2.49l2.92,5.67,2.92-5.67h2.49l-4.34,8.28v5.52h-2.16v-5.52l-4.32-8.28Z"/>
  </g>
  <g>
    <path class="cls-1" d="M28.61,514.4h7.99v2.67h-5.33v3.22h5.33v2.66h-5.33v4.8h5.33v2.66h-7.99v-16.01Z"/>
    <path class="cls-1" d="M45.63,530.67c-1.73,0-3.02-.55-4.51-1.7l.31-2.38c1.61.86,2.93,1.42,4.3,1.42,1.2,0,2.74-.65,2.74-1.94,0-3.05-7.56-1.87-7.56-7.22,0-2.78,2.45-4.7,5.28-4.7,1.8,0,3.02.62,4.68,1.92l-.84,2.11c-1.13-.74-2.47-1.39-3.74-1.39-1.61,0-2.59.86-2.59,1.82,0,2.86,7.58,2.14,7.58,7.06,0,3.29-2.76,5.02-5.64,5.02Z"/>
    <path class="cls-1" d="M66.51,519.75c0,2.93-2.4,5.33-5.33,5.33h-3.22v5.33h-2.66v-16.01h5.88c2.93,0,5.33,2.4,5.33,5.35ZM63.85,519.75c0-1.49-1.2-2.69-2.66-2.69h-3.22v5.35h3.22c1.46,0,2.66-1.2,2.66-2.66Z"/>
    <path class="cls-1" d="M76.64,514.13c3.6,0,5.62,3.74,5.62,8.28s-2.02,8.26-5.62,8.26-5.59-3.72-5.59-8.26,1.99-8.28,5.59-8.28ZM76.64,528.01c1.8,0,2.78-2.54,2.78-5.59s-.98-5.62-2.78-5.62-2.76,2.54-2.76,5.62.98,5.59,2.76,5.59Z"/>
    <path class="cls-1" d="M99.2,530.41h-3.26l-3.84-5.33h-2.11v5.33h-2.66v-16.01h5.21c2.93,0,5.33,2.4,5.33,5.35,0,2.04-1.18,3.86-2.9,4.73l4.25,5.93ZM95.19,519.75c0-1.49-1.2-2.69-2.66-2.69h-2.54v5.35h2.54c1.46,0,2.66-1.2,2.66-2.66Z"/>
  </g>
  <text class="cls-6" transform="translate(328.95 95.32) scale(.94 1)"><tspan x="0" y="0" xml:space="preserve">  </tspan></text>
  <g>
    <path class="cls-1" d="M310.98,80.95h3.36c3.55,0,6.44,3.21,6.44,7.2s-2.89,7.17-6.44,7.17h-3.36v-14.37ZM313.38,92.93h.97c2.09,0,3.81-2.15,3.81-4.78s-1.72-4.8-3.81-4.8h-.97v9.59Z"/>
    <path class="cls-1" d="M325.35,80.95h7.17v2.39h-4.78v2.89h4.78v2.39h-4.78v4.31h4.78v2.39h-7.17v-14.37Z"/>
    <path class="cls-1" d="M339.72,95.32h-2.39v-9.09c0-3.56,2.15-5.52,4.78-5.52s4.8,1.96,4.8,5.52v9.09h-2.39v-4.78h-4.8v4.78ZM344.53,86.23c0-2.11-1.1-3.12-2.41-3.12s-2.39,1.01-2.39,3.12v1.92h4.8v-1.92Z"/>
    <path class="cls-1" d="M359.13,80.95h2.16v14.37h-1.81l-5.62-9.18v9.18h-2.15v-14.37h1.79l5.64,9.18v-9.18Z"/>
    <path class="cls-1" d="M366.57,84.98c1.21-.8,1.81-1.87,1.85-3.21-.8-.19-1.38-.88-1.38-1.72,0-.93.78-1.72,1.75-1.72,1.27,0,1.96,1.12,1.96,2.07,0,2.3-1.53,4.37-3.66,5.41l-.52-.82Z"/>
    <path class="cls-1" d="M378.93,95.55c-1.55,0-2.71-.5-4.05-1.53l.28-2.13c1.44.78,2.63,1.27,3.86,1.27,1.08,0,2.46-.58,2.46-1.75,0-2.74-6.79-1.68-6.79-6.49,0-2.5,2.2-4.22,4.74-4.22,1.62,0,2.71.56,4.2,1.72l-.75,1.9c-1.01-.67-2.22-1.25-3.36-1.25-1.44,0-2.33.78-2.33,1.64,0,2.56,6.81,1.92,6.81,6.33,0,2.95-2.48,4.5-5.06,4.5Z"/>
    <path class="cls-1" d="M399.57,80.71c3.23,0,5.04,3.36,5.04,7.43s-1.81,7.41-5.04,7.41-5.02-3.34-5.02-7.41,1.79-7.43,5.02-7.43ZM399.57,93.16c1.62,0,2.5-2.28,2.5-5.02s-.88-5.04-2.5-5.04-2.48,2.28-2.48,5.04.88,5.02,2.48,5.02Z"/>
    <path class="cls-1" d="M409.16,80.95h7.67v2.39h-5.28v2.89h5.28v2.39h-5.28v6.7h-2.39v-14.37Z"/>
    <path class="cls-1" d="M421.14,80.95h7.67v2.39h-5.28v2.89h5.28v2.39h-5.28v6.7h-2.39v-14.37Z"/>
    <path class="cls-1" d="M435.51,83.34h-2.39v-2.39h7.17v2.39h-2.39v9.59h2.39v2.39h-7.17v-2.39h2.39v-9.59Z"/>
    <path class="cls-1" d="M450.91,80.71c1.77,0,3.62,1.1,4.63,2.76l-1.51,1.34c-.97-1.19-1.94-1.7-3.02-1.7-1.9,0-3.53,1.92-3.53,5.04s1.64,5.02,3.53,5.02c1.08,0,2.05-.5,3.02-1.7l1.51,1.34c-1.01,1.66-2.87,2.76-4.63,2.76-3.62,0-6.05-3.34-6.05-7.41s2.43-7.43,6.05-7.43Z"/>
    <path class="cls-1" d="M459.46,80.95h7.17v2.39h-4.78v2.89h4.78v2.39h-4.78v4.31h4.78v2.39h-7.17v-14.37Z"/>
  </g>
  <g>
    <path class="cls-7" d="M27.44,192.47H.44v-18.89h3.64v14.12h8.11v-12.16h3.6v12.16h11.66v4.77Z"/>
    <path class="cls-7" d="M27.44,168.95H.44v-4.77h23.33v-13.75h3.68v18.52Z"/>
    <path class="cls-7" d="M8.43,124.47h11.03c6.31,0,8.43,5.33,8.43,11.46s-2.12,11.46-8.43,11.46h-11.03c-6.31,0-8.43-5.38-8.43-11.46s2.12-11.46,8.43-11.46ZM9.43,142.62h8.99c4.51,0,5.71-2.76,5.71-6.69s-1.2-6.69-5.71-6.69h-8.99c-4.47,0-5.67,2.76-5.67,6.69s1.2,6.69,5.67,6.69Z"/>
    <path class="cls-7" d="M8.43,94.63h11.03c6.31,0,8.43,5.33,8.43,11.46s-2.12,11.46-8.43,11.46h-11.03c-6.31,0-8.43-5.38-8.43-11.46s2.12-11.46,8.43-11.46ZM9.43,112.78h8.99c4.51,0,5.71-2.76,5.71-6.69s-1.2-6.69-5.71-6.69h-8.99c-4.47,0-5.67,2.76-5.67,6.69s1.2,6.69,5.67,6.69Z"/>
    <path class="cls-7" d="M27.44,69.28l-11.35,6.73v6.92h11.35v4.77H.44v-14.22c0-3.88,2.68-6.73,5.99-6.73h3.67c2.6,0,4.79,1.73,5.63,4.35l11.7-7.02v5.19ZM7.39,71.53c-2.24,0-3.32,1.12-3.32,4.07v7.34h8.39v-7.34c0-2.95-1.08-4.07-3.32-4.07h-1.76Z"/>
    <path class="cls-7" d="M29.28,32.57c5.27,0,6.67,4.12,6.67,9.31,0,3.32-.52,8.89-.52,8.89h-3.71s.52-4.82.52-7.67c0-2.99-.52-5.75-3.48-5.75h-2.8c-2.68,0-3.32,2.25-3.32,4.49v8.28h-14.14v-16.18h3.64v11.41h6.87v-4.26c0-5.99,2.72-8.51,6.59-8.51h3.67Z"/>
  </g>
  <path class="cls-7" d="M202.97,385.84v157.09H16.34v-157.09h186.63M205.63,383.18H13.68v162.41h191.95v-162.41h0Z"/>
  <polyline class="cls-2" points="530.73 120.3 530.73 1 393.07 1 393.07 33.55 303.36 33.55 303.36 60.65 215.19 60.65 215.19 120.3"/>
  <polyline class="cls-2" points="215.19 120.26 215.19 133.28 136.1 133.28 136.1 243.41 278.59 243.41 278.59 133.28 489.45 133.28 489.45 248.95 634.93 248.95 634.93 133.64 530.73 133.64 530.73 120.26"/>
  <g id="gltsc02">
    <rect class="cls-7" x="117.78" y="269.82" width="160.82" height="100.98"/>
    <g>
      <path class="cls-5" d="M129.36,362.75c-1.3,0-2.27-.41-3.39-1.28l.23-1.78c1.21.65,2.2,1.06,3.22,1.06.9,0,2.05-.49,2.05-1.46,0-2.29-5.67-1.4-5.67-5.42,0-2.09,1.84-3.53,3.96-3.53,1.35,0,2.27.47,3.51,1.44l-.63,1.58c-.85-.56-1.85-1.04-2.81-1.04-1.21,0-1.94.65-1.94,1.37,0,2.14,5.69,1.6,5.69,5.29,0,2.47-2.07,3.76-4.23,3.76Z"/>
      <path class="cls-5" d="M144.71,362.55v-7.24l-2.9,5.44h-.4l-2.9-5.44v7.24h-1.91v-12.01h1.64l3.37,6.32,3.37-6.32h1.64v12.01h-1.91Z"/>
      <path class="cls-5" d="M152.61,362.55h-2v-7.6c0-2.97,1.8-4.61,4-4.61s4.02,1.64,4.02,4.61v7.6h-2v-4h-4.02v4ZM156.63,354.96c0-1.76-.92-2.61-2.02-2.61s-2,.85-2,2.61v1.6h4.02v-1.6Z"/>
      <path class="cls-5" d="M171.53,362.55h-2.45l-2.88-4h-1.58v4h-2v-12.01h3.91c2.2,0,4,1.8,4,4.02,0,1.53-.88,2.9-2.18,3.55l3.19,4.45ZM168.53,354.56c0-1.12-.9-2.02-2-2.02h-1.91v4.01h1.91c1.1,0,2-.9,2-2Z"/>
      <path class="cls-5" d="M173.22,352.54v-2h8.8v2h-3.4v10.01h-2v-10.01h-3.4Z"/>
      <path class="cls-5" d="M195.49,350.35c1.48,0,3.02.92,3.87,2.3l-1.26,1.12c-.81-.99-1.62-1.42-2.52-1.42-1.58,0-2.95,1.6-2.95,4.21s1.37,4.2,2.95,4.2c.9,0,1.71-.41,2.52-1.42l1.26,1.12c-.85,1.39-2.4,2.3-3.87,2.3-3.02,0-5.06-2.79-5.06-6.19s2.03-6.21,5.06-6.21Z"/>
      <path class="cls-5" d="M204.63,360.56h3.4v2h-5.4v-12.01h2v10.01Z"/>
      <path class="cls-5" d="M212.62,362.55h-2v-7.6c0-2.97,1.8-4.61,4-4.61s4.02,1.64,4.02,4.61v7.6h-2v-4h-4.02v4ZM216.64,354.96c0-1.76-.92-2.61-2.02-2.61s-2,.85-2,2.61v1.6h4.02v-1.6Z"/>
      <path class="cls-5" d="M225.39,362.75c-1.3,0-2.27-.41-3.38-1.28l.23-1.78c1.21.65,2.2,1.06,3.22,1.06.9,0,2.05-.49,2.05-1.46,0-2.29-5.67-1.4-5.67-5.42,0-2.09,1.84-3.53,3.96-3.53,1.35,0,2.27.47,3.51,1.44l-.63,1.58c-.85-.56-1.85-1.04-2.81-1.04-1.21,0-1.94.65-1.94,1.37,0,2.14,5.69,1.6,5.69,5.29,0,2.47-2.07,3.76-4.23,3.76Z"/>
      <path class="cls-5" d="M235.39,362.75c-1.3,0-2.27-.41-3.39-1.28l.23-1.78c1.21.65,2.2,1.06,3.22,1.06.9,0,2.05-.49,2.05-1.46,0-2.29-5.67-1.4-5.67-5.42,0-2.09,1.84-3.53,3.96-3.53,1.35,0,2.27.47,3.51,1.44l-.63,1.58c-.85-.56-1.85-1.04-2.81-1.04-1.21,0-1.94.65-1.94,1.37,0,2.14,5.69,1.6,5.69,5.29,0,2.47-2.07,3.76-4.23,3.76Z"/>
      <path class="cls-5" d="M254.64,354.34c0-1.1-.9-2-2-2s-2,.9-2,2v1.01h-2v-1.01c0-2.2,1.8-4,4-4s4.02,1.8,4.02,4c0,1.66-.76,2.68-1.91,3.76l-2.59,2.45h4.5v2h-8.01v-.72l4.3-4.55c.67-.7,1.69-1.76,1.69-2.94Z"/>
    </g>
    <g>
      <path class="cls-4" d="M130.94,284.27h-1.57v-1.55h3.12v4.66h-.48l-.32-.57c-.57.46-1.27.73-1.96.73-2.25,0-3.78-2.17-3.78-4.82s1.53-4.83,3.78-4.83c1.11,0,2.26.71,2.89,1.79l-.92.87c-.6-.77-1.2-1.11-1.86-1.11-1.18,0-2.17,1.25-2.17,3.28s.99,3.26,2.17,3.26c.38,0,.74-.11,1.11-.36v-1.34Z"/>
      <path class="cls-4" d="M137,285.83h2.65v1.55h-4.2v-9.34h1.56v7.79Z"/>
      <path class="cls-4" d="M140.56,279.59v-1.55h6.85v1.55h-2.65v7.79h-1.55v-7.79h-2.65Z"/>
      <path class="cls-4" d="M156.25,287.53c-1.01,0-1.76-.32-2.63-1l.18-1.39c.94.5,1.71.83,2.51.83.7,0,1.6-.38,1.6-1.13,0-1.78-4.41-1.09-4.41-4.22,0-1.62,1.43-2.75,3.08-2.75,1.05,0,1.77.36,2.73,1.12l-.49,1.23c-.66-.43-1.44-.81-2.19-.81-.94,0-1.51.5-1.51,1.06,0,1.67,4.43,1.25,4.43,4.12,0,1.92-1.61,2.93-3.29,2.93Z"/>
      <path class="cls-4" d="M165.67,277.88c1.15,0,2.35.71,3.01,1.79l-.98.87c-.63-.77-1.26-1.11-1.96-1.11-1.23,0-2.3,1.25-2.3,3.28s1.06,3.26,2.3,3.26c.7,0,1.33-.32,1.96-1.11l.98.87c-.66,1.08-1.86,1.79-3.01,1.79-2.35,0-3.94-2.17-3.94-4.82s1.58-4.83,3.94-4.83Z"/>
      <path class="cls-4" d="M174.33,277.88c2.1,0,3.28,2.19,3.28,4.83s-1.18,4.82-3.28,4.82-3.26-2.17-3.26-4.82,1.16-4.83,3.26-4.83ZM174.33,285.98c1.05,0,1.62-1.49,1.62-3.26s-.57-3.28-1.62-3.28-1.61,1.49-1.61,3.28.57,3.26,1.61,3.26Z"/>
      <path class="cls-4" d="M185.23,280.99c0-.85-.7-1.55-1.55-1.55s-1.55.7-1.55,1.55v.79h-1.56v-.79c0-1.71,1.4-3.11,3.11-3.11s3.12,1.4,3.12,3.11c0,1.29-.59,2.09-1.48,2.93l-2.02,1.91h3.5v1.55h-6.23v-.56l3.35-3.54c.52-.55,1.32-1.37,1.32-2.28Z"/>
    </g>
  </g>
  <g>
    <rect class="cls-7" x="486.91" y="352.69" width="10.64" height="47.86"/>
    <path class="cls-5" d="M496.04,354.19v44.86h-7.64v-44.86h7.64M499.04,351.19h-13.64v50.86h13.64v-50.86h0Z"/>
  </g>
  <g>
    <rect class="cls-7" x="269.46" y="324.44" width="10.64" height="47.86"/>
    <path class="cls-5" d="M278.59,325.94v44.86h-7.64v-44.86h7.64M281.59,322.94h-13.64v50.86h13.64v-50.86h0Z"/>
  </g>
  <g>
    <rect class="cls-5" x="441.07" y="121.86" width="47.86" height="10.64"/>
    <path class="cls-7" d="M487.43,123.36v7.64h-44.86v-7.64h44.86M490.43,120.36h-50.86v13.64h50.86v-13.64h0Z"/>
  </g>
  <g>
    <rect class="cls-5" x="382.5" y="121.86" width="47.86" height="10.64"/>
    <path class="cls-7" d="M428.86,123.36v7.64h-44.86v-7.64h44.86M431.86,120.36h-50.86v13.64h50.86v-13.64h0Z"/>
  </g>
  <g>
    <rect class="cls-5" x="279.08" y="121.86" width="47.86" height="10.64"/>
    <path class="cls-7" d="M325.44,123.36v7.64h-44.86v-7.64h44.86M328.44,120.36h-50.86v13.64h50.86v-13.64h0Z"/>
  </g>
  <rect class="cls-8" x="295.61" y="514.72" width="83.77" height="30.38"/>
  <rect class="cls-8" x="394.02" y="514.79" width="83.77" height="30.38"/>
  <g>
    <polygon class="cls-7" points="501.84 532.34 487.66 534.27 487.36 531.95 501.55 530.03 501.84 532.34"/>
    <polygon class="cls-7" points="501.33 528.8 487.12 527.33 487.39 525 501.6 526.47 501.33 528.8"/>
    <polygon class="cls-7" points="501.69 524.81 488.08 520.57 488.8 518.34 502.41 522.58 501.69 524.81"/>
    <polygon class="cls-7" points="503.17 521.37 491.98 512.55 493.45 510.72 504.64 519.55 503.17 521.37"/>
    <polygon class="cls-7" points="505.86 518.64 497.63 507 499.56 505.66 507.79 517.3 505.86 518.64"/>
    <polygon class="cls-7" points="509.49 516.94 504.69 503.52 506.9 502.75 511.7 516.18 509.49 516.94"/>
  </g>
  <g>
    <polygon class="cls-7" points="521.23 522.14 535.12 518.69 535.67 520.96 521.77 524.41 521.23 522.14"/>
    <polygon class="cls-7" points="522.12 525.62 536.41 525.53 536.4 527.87 522.11 527.96 522.12 525.62"/>
    <polygon class="cls-7" points="522.2 529.61 536.19 532.35 535.72 534.64 521.73 531.91 522.2 529.61"/>
    <polygon class="cls-7" points="521.1 533.19 533.19 540.75 531.92 542.73 519.84 535.17 521.1 533.19"/>
    <polygon class="cls-7" points="518.72 536.2 528.17 546.88 526.4 548.42 516.95 537.74 518.72 536.2"/>
    <polygon class="cls-7" points="515.31 538.28 521.53 551.11 519.41 552.11 513.19 539.29 515.31 538.28"/>
  </g>
  <g>
    <path class="cls-3" d="M510.55,528.18v.43s-.53,0-.53,0v.24s.44-.02.44-.02v.41s-.43.01-.43.01l.02.5-.49.03v-1.56s.98-.04.98-.04Z"/>
    <path class="cls-3" d="M511.23,528.21v1.52s-.48.03-.48.03l-.02-1.53.5-.02Z"/>
    <path class="cls-3" d="M512.04,529.26l-.08.02.02.48h-.48s-.02-1.51-.02-1.51l.74-.04.37.06.04.82-.16.08.3.43-.44.2-.29-.54ZM511.92,528.92l.25-.02v-.32s-.26,0-.26,0v.34Z"/>
    <path class="cls-3" d="M513.83,529.74h-.97s0-1.46,0-1.46l.09-.06.84-.02v.39s-.48,0-.48,0v.2s.35,0,.35,0v.36s-.38,0-.38,0v.21s.55-.01.55-.01v.4Z"/>
    <path class="cls-3" d="M509.75,530.65h-.3s0-.45,0-.45l.03-.02h.26s0,.11,0,.11h-.14s0,.06,0,.06h.11s0,.11,0,.11h-.11s0,.06,0,.06h.17s0,.12,0,.12Z"/>
    <path class="cls-3" d="M509.98,530.5l-.04.03v.12s-.17,0-.17,0l.03-.19.08-.05-.08-.05v-.17s.14,0,.14,0v.12s.04.04.04.04l.03-.03v-.12s.15,0,.15,0l-.02.17-.07.05.07.05.03.19h-.16s0-.11,0-.11l-.04-.03Z"/>
    <path class="cls-3" d="M510.57,530.31h-.12s.02.33.02.33h-.15s0-.33,0-.33h-.11s0-.13,0-.13h.35s0,.13,0,.13Z"/>
    <path class="cls-3" d="M510.76,530.18v.46s-.15,0-.15,0v-.47s.15,0,.15,0Z"/>
    <path class="cls-3" d="M511.22,530.65h-.14s0-.14,0-.14l-.1-.13v.26s-.14,0-.14,0v-.45s.13-.01.13-.01l.11.15v-.15s.14,0,.14,0v.46Z"/>
    <path class="cls-3" d="M511.36,530.18h.26s0,.13,0,.13h-.18v.2h.07s0-.12,0-.12h.14s-.01.26-.01.26h-.33s-.02-.38-.02-.38l.07-.09Z"/>
    <path class="cls-3" d="M512.07,530.19l.02.41-.06.05h-.29s-.03-.02-.03-.02v-.43s.14,0,.14,0v.31s.1-.01.1-.01v-.31s.13,0,.13,0Z"/>
    <path class="cls-3" d="M512.3,530.18v.46s-.15,0-.15,0v-.47s.15,0,.15,0Z"/>
    <path class="cls-3" d="M512.66,530.18v.13s-.14,0-.14,0v.03s.15.07.15.07v.23s-.3.03-.3.03v-.15s.15,0,.15,0v-.04s-.16-.09-.16-.09v-.19s.14-.01.14-.01h.16Z"/>
    <path class="cls-3" d="M512.97,530.48h-.09s0,.16,0,.16h-.14v-.45s.14,0,.14,0v.17s.09,0,.09,0v-.18s.15,0,.15,0v.48s-.15,0-.15,0v-.18Z"/>
    <path class="cls-3" d="M513.49,530.65h-.3s0-.45,0-.45l.03-.02h.26s0,.11,0,.11h-.14s0,.06,0,.06h.11s0,.11,0,.11h-.11s0,.06,0,.06h.17s0,.12,0,.12Z"/>
    <path class="cls-3" d="M513.71,530.5h-.02s0,.15,0,.15h-.15s0-.46,0-.46h.23s.11,0,.11,0v.25s-.04.03-.04.03l.09.13-.13.06-.09-.17ZM513.68,530.4h.08s0-.1,0-.1h-.08s0,.1,0,.1Z"/>
  </g>
  <path class="cls-3" d="M507.65,533.51l3.88,2.89c.06.05.15.05.21,0l3.88-2.89c.06-.04.08-.12.06-.19-.02-.07-.09-.12-.16-.12h-1.74v-1.79c0-.1-.08-.17-.17-.17h-3.93c-.1,0-.17.08-.17.17v1.79h-1.74c-.07,0-.14.05-.16.12-.02.07,0,.15.06.19Z"/>
  <path class="cls-3" d="M518.7,522.95s-.08-.05-.14-.05c-.02,0-.03,0-.05,0l-3.1.66c-.05,0-.09.03-.12.08-.03.04-.05.09-.05.14h-3.38c.06-.14.1-.29.1-.44,0-.3-.11-.57-.33-.78-.22-.22-.48-.33-.78-.33s-.57.11-.78.33c-.22.22-.33.48-.33.78,0,.2.06.4.17.6-.26.08-.51.2-.75.36-.24.16-.44.31-.59.46-.15.15-.29.31-.42.48-.13.17-.22.3-.26.37-.04.07-.08.13-.1.18-.06.11-.06.22-.02.34.04.12.11.2.22.26.06.03.13.05.2.05.18,0,.32-.08.39-.24.02-.04.05-.09.1-.17.05-.08.14-.2.28-.37.14-.17.29-.32.46-.46.16-.14.38-.26.63-.37.26-.11.52-.16.8-.16h.22v.77c-.46.14-.83.4-1.12.79-.29.39-.43.83-.43,1.32v.07h4.43v-.07c0-.53-.17-1-.5-1.41-.33-.41-.76-.66-1.27-.77v-.71h3.06c0,.05.02.1.05.14.03.04.07.07.12.08l3.1.66s.03,0,.05,0c.06,0,.1-.02.14-.05.06-.04.08-.1.08-.17v-2.22c0-.07-.03-.13-.08-.17ZM511.17,523.66c-.09.09-.19.13-.31.13s-.22-.04-.31-.13c-.09-.09-.13-.19-.13-.31s.04-.22.13-.31c.09-.09.19-.13.31-.13s.22.04.31.13c.09.09.13.19.13.31s-.04.22-.13.31Z"/>
  <polygon class="cls-7" points="268.41 535.84 268.41 526.34 255.62 526.34 255.62 516.67 242.83 516.67 242.83 507 230.05 507 230.05 497.33 217.26 497.33 217.26 507 217.26 545.51 242.83 545.51 255.62 545.51 268.19 545.51 280.97 545.51 280.97 535.84 268.41 535.84"/>
  <g>
    <rect class="cls-5" x="321.61" y="397.93" width="119.24" height="41.81"/>
    <path class="cls-7" d="M439.85,398.93v39.81h-117.24v-39.81h117.24M441.85,396.93h-121.24v43.81h121.24v-43.81h0Z"/>
  </g>
  <g>
    <rect class="cls-5" x="489.53" y="449.8" width="16.68" height="41.81"/>
    <path class="cls-7" d="M505.21,450.8v39.81h-14.68v-39.81h14.68M507.21,448.8h-18.68v43.81h18.68v-43.81h0Z"/>
  </g>
  <rect class="cls-5" x="322.61" y="389.52" width="20.31" height="13.33"/>
  <g>
    <rect class="cls-5" x="300.68" y="405.09" width="20.84" height="41.81"/>
    <path class="cls-7" d="M320.52,406.09v39.81h-18.84v-39.81h18.84M322.52,404.09h-22.84v43.81h22.84v-43.81h0Z"/>
  </g>
  <rect class="cls-5" x="289.5" y="419.33" width="20.31" height="13.33"/>
  <line class="cls-2" x1="202.96" y1="439.03" x2="252.2" y2="439.03"/>
  <rect class="cls-5" x="289.5" y="385.18" width="9.59" height="107.08"/>
  <rect class="cls-5" x="301.68" y="393.91" width="18.88" height="51.99"/>
</svg>