<?xml version="1.0" encoding="UTF-8"?>
<svg id="katman_1" data-name="katman 1" xmlns="http://www.w3.org/2000/svg" viewBox="0 0 628.01 567.74">
  <defs>
    <style>
      .cls-1 {
        fill: #3c3c3b;
      }

      .cls-2 {
        stroke-width: 3.41px;
      }

      .cls-2, .cls-3, .cls-4, .cls-5 {
        fill: none;
        stroke: #764695;
        stroke-miterlimit: 10;
      }

      .cls-3 {
        stroke-width: 4.01px;
      }

      .cls-6 {
        fill: #e52629;
      }

      .cls-4 {
        stroke-width: 2.24px;
      }

      .cls-5 {
        stroke-width: 2px;
      }

      .cls-7 {
        fill: #dadada;
      }

      .cls-8 {
        fill: #fff;
      }

      .cls-9 {
        fill: #878787;
      }

      .cls-10 {
        fill: #764695;
      }
    </style>
  </defs>
  <rect class="cls-3" x="293.64" y="148.53" width="177.52" height="340.19"/>
  <polygon class="cls-10" points="506.28 547.98 492.09 549.9 491.8 547.59 505.98 545.66 506.28 547.98"/>
  <polygon class="cls-10" points="505.77 544.43 491.56 542.97 491.82 540.64 506.03 542.11 505.77 544.43"/>
  <polygon class="cls-10" points="506.12 540.45 492.51 536.21 493.24 533.98 506.84 538.22 506.12 540.45"/>
  <polygon class="cls-10" points="507.61 537.01 496.41 528.18 497.88 526.36 509.08 535.18 507.61 537.01"/>
  <polygon class="cls-10" points="510.3 534.27 502.07 522.63 504 521.3 512.23 532.94 510.3 534.27"/>
  <polygon class="cls-10" points="513.92 532.58 509.12 519.16 511.34 518.39 516.14 531.81 513.92 532.58"/>
  <g>
    <polygon class="cls-10" points="525.66 537.78 539.55 534.33 540.1 536.6 526.21 540.05 525.66 537.78"/>
    <polygon class="cls-10" points="526.56 541.25 540.84 541.16 540.83 543.5 526.55 543.59 526.56 541.25"/>
    <polygon class="cls-10" points="526.63 545.25 540.62 547.98 540.15 550.28 526.16 547.55 526.63 545.25"/>
    <polygon class="cls-10" points="525.53 548.83 537.62 556.39 536.36 558.36 524.27 550.81 525.53 548.83"/>
    <polygon class="cls-10" points="523.16 551.84 532.6 562.52 530.83 564.05 521.38 553.38 523.16 551.84"/>
    <polygon class="cls-10" points="519.74 553.92 525.97 566.74 523.85 567.74 517.62 554.92 519.74 553.92"/>
  </g>
  <g>
    <path class="cls-6" d="M514.98,543.81v.43s-.53,0-.53,0v.24s.44-.02.44-.02v.41s-.43.01-.43.01l.02.5-.49.03v-1.56s.98-.04.98-.04Z"/>
    <path class="cls-6" d="M515.67,543.84v1.52s-.48.03-.48.03l-.02-1.53.5-.02Z"/>
    <path class="cls-6" d="M516.48,544.9l-.08.02.02.48h-.48s-.02-1.51-.02-1.51l.74-.04.37.06.04.82-.16.08.3.43-.44.2-.29-.54ZM516.36,544.56l.25-.02v-.32s-.26,0-.26,0v.34Z"/>
    <path class="cls-6" d="M518.27,545.38h-.97s0-1.46,0-1.46l.09-.06.84-.02v.39s-.48,0-.48,0v.2s.35,0,.35,0v.36s-.38,0-.38,0v.21s.55-.01.55-.01v.4Z"/>
    <path class="cls-6" d="M514.18,546.29h-.3s0-.45,0-.45l.03-.02h.26s0,.11,0,.11h-.14s0,.06,0,.06h.11s0,.11,0,.11h-.11s0,.06,0,.06h.17s0,.12,0,.12Z"/>
    <path class="cls-6" d="M514.42,546.14l-.04.03v.12s-.17,0-.17,0l.03-.19.08-.05-.08-.05v-.17s.14,0,.14,0v.12s.04.04.04.04l.03-.03v-.12s.15,0,.15,0l-.02.17-.07.05.07.05.03.19h-.16s0-.11,0-.11l-.04-.03Z"/>
    <path class="cls-6" d="M515,545.95h-.12s.02.33.02.33h-.15s0-.33,0-.33h-.11s0-.13,0-.13h.35s0,.13,0,.13Z"/>
    <path class="cls-6" d="M515.2,545.82v.46s-.15,0-.15,0v-.47s.15,0,.15,0Z"/>
    <path class="cls-6" d="M515.65,546.28h-.14s0-.14,0-.14l-.1-.13v.26s-.14,0-.14,0v-.45s.13-.01.13-.01l.11.15v-.15s.14,0,.14,0v.46Z"/>
    <path class="cls-6" d="M515.8,545.82h.26s0,.13,0,.13h-.18v.2h.07s0-.12,0-.12h.14s-.01.26-.01.26h-.33s-.02-.38-.02-.38l.07-.09Z"/>
    <path class="cls-6" d="M516.5,545.82l.02.41-.06.05h-.29s-.03-.02-.03-.02v-.43s.14,0,.14,0v.31s.1-.01.1-.01v-.31s.13,0,.13,0Z"/>
    <path class="cls-6" d="M516.73,545.82v.46s-.15,0-.15,0v-.47s.15,0,.15,0Z"/>
    <path class="cls-6" d="M517.1,545.82v.13s-.14,0-.14,0v.03s.15.07.15.07v.23s-.3.03-.3.03v-.15s.15,0,.15,0v-.04s-.16-.09-.16-.09v-.19s.14-.01.14-.01h.16Z"/>
    <path class="cls-6" d="M517.4,546.12h-.09s0,.16,0,.16h-.14v-.45s.14,0,.14,0v.17s.09,0,.09,0v-.18s.15,0,.15,0v.48s-.15,0-.15,0v-.18Z"/>
    <path class="cls-6" d="M517.92,546.29h-.3s0-.45,0-.45l.03-.02h.26s0,.11,0,.11h-.14s0,.06,0,.06h.11s0,.11,0,.11h-.11s0,.06,0,.06h.17s0,.12,0,.12Z"/>
    <path class="cls-6" d="M518.15,546.14h-.02s0,.15,0,.15h-.15s0-.46,0-.46h.23s.11,0,.11,0v.25s-.04.03-.04.03l.09.13-.13.06-.09-.17ZM518.11,546.04h.08s0-.1,0-.1h-.08s0,.1,0,.1Z"/>
  </g>
  <path class="cls-6" d="M512.09,549.15l3.88,2.89c.06.05.15.05.21,0l3.88-2.89c.06-.04.08-.12.06-.19-.02-.07-.09-.12-.16-.12h-1.74v-1.79c0-.1-.08-.17-.17-.17h-3.93c-.1,0-.17.08-.17.17v1.79h-1.74c-.07,0-.14.05-.16.12-.02.07,0,.15.06.19Z"/>
  <path class="cls-6" d="M523.14,538.59s-.08-.05-.14-.05c-.02,0-.03,0-.05,0l-3.1.66c-.05,0-.09.03-.12.08-.03.04-.05.09-.05.14h-3.38c.06-.14.1-.29.1-.44,0-.3-.11-.57-.33-.78-.22-.22-.48-.33-.78-.33s-.57.11-.78.33c-.22.22-.33.48-.33.78,0,.2.06.4.17.6-.26.08-.51.2-.75.36-.24.16-.44.31-.59.46-.15.15-.29.31-.42.48-.13.17-.22.3-.26.37-.04.07-.08.13-.1.18-.06.11-.06.22-.02.34.04.12.11.2.22.26.06.03.13.05.2.05.18,0,.32-.08.39-.24.02-.04.05-.09.1-.17.05-.08.14-.2.28-.37.14-.17.29-.32.46-.46.16-.14.38-.26.63-.37.26-.11.52-.16.8-.16h.22v.77c-.46.14-.83.4-1.12.79-.29.39-.43.83-.43,1.32v.07h4.43v-.07c0-.53-.17-1-.5-1.41-.33-.41-.76-.66-1.27-.77v-.71h3.06c0,.05.02.1.05.14.03.04.07.07.12.08l3.1.66s.03,0,.05,0c.06,0,.1-.02.14-.05.06-.04.08-.1.08-.17v-2.22c0-.07-.03-.13-.08-.17ZM515.6,539.29c-.09.09-.19.13-.31.13s-.22-.04-.31-.13c-.09-.09-.13-.19-.13-.31s.04-.22.13-.31c.09-.09.19-.13.31-.13s.22.04.31.13c.09.09.13.19.13.31s-.04.22-.13.31Z"/>
  <rect class="cls-5" x="144.55" y="388.85" width="130.99" height="47.84"/>
  <rect class="cls-5" x="483.77" y="358.9" width="83.13" height="60.53"/>
  <rect class="cls-5" x="483.77" y="429.16" width="83.13" height="60.4"/>
  <rect class="cls-5" x="144.58" y="442.37" width="130.99" height="47.84"/>
  <g>
    <path class="cls-1" d="M175.04,472.29h-2v-12.01h2v5.53l3.96-5.53h2.45l-4.21,5.87,4.41,6.14h-2.45l-4.16-5.8v5.8Z"/>
    <path class="cls-1" d="M187.05,462.28h-2v-2h6v2h-2v8.01h2v2h-6v-2h2v-8.01Z"/>
    <path class="cls-1" d="M193.65,462.28v-2h8.8v2h-3.4v10.01h-2v-10.01h-3.4Z"/>
    <path class="cls-1" d="M209.93,460.08c1.48,0,3.02.92,3.87,2.3l-1.26,1.12c-.81-.99-1.62-1.42-2.52-1.42-1.58,0-2.95,1.6-2.95,4.21s1.37,4.2,2.95,4.2c.9,0,1.71-.41,2.52-1.42l1.26,1.12c-.85,1.39-2.39,2.3-3.87,2.3-3.02,0-5.06-2.79-5.06-6.19s2.03-6.21,5.06-6.21Z"/>
    <path class="cls-1" d="M223.08,464.69v-4.41h2v12.01h-2v-5.6h-4.02v5.6h-2v-12.01h2v4.41h4.02Z"/>
    <path class="cls-1" d="M229.08,460.28h6v2h-4v2.41h4v2h-4v3.6h4v2h-6v-12.01Z"/>
    <path class="cls-1" d="M245.3,460.28h1.8v12.01h-1.51l-4.7-7.67v7.67h-1.8v-12.01h1.49l4.72,7.67v-7.67Z"/>
  </g>
  <g>
    <path class="cls-1" d="M162.01,408.86h-2v-2h6v2h-2v8.01h2v2h-6v-2h2v-8.01Z"/>
    <path class="cls-1" d="M176.23,406.86h1.8v12.01h-1.51l-4.7-7.67v7.67h-1.8v-12.01h1.49l4.72,7.67v-7.67Z"/>
    <path class="cls-1" d="M182.02,406.86h6.41v2h-4.41v2.41h4.41v2h-4.41v5.6h-2v-12.01Z"/>
    <path class="cls-1" d="M194.03,408.86h-2v-2h6v2h-2v8.01h2v2h-6v-2h2v-8.01Z"/>
    <path class="cls-1" d="M210.95,418.87h-2.45l-2.88-4h-1.58v4h-2v-12.01h3.91c2.2,0,4,1.8,4,4.02,0,1.53-.88,2.9-2.18,3.55l3.19,4.45ZM207.94,410.88c0-1.12-.9-2.02-2-2.02h-1.91v4.01h1.91c1.1,0,2-.9,2-2Z"/>
    <path class="cls-1" d="M222.15,418.87v-7.24l-2.9,5.44h-.4l-2.9-5.44v7.24h-1.91v-12.01h1.64l3.37,6.32,3.37-6.32h1.64v12.01h-1.91Z"/>
    <path class="cls-1" d="M230.05,418.87h-2v-7.6c0-2.97,1.8-4.61,4-4.61s4.02,1.64,4.02,4.61v7.6h-2v-4h-4.02v4ZM234.06,411.28c0-1.76-.92-2.61-2.02-2.61s-2,.85-2,2.61v1.6h4.02v-1.6Z"/>
    <path class="cls-1" d="M248.97,418.87h-2.45l-2.88-4h-1.58v4h-2v-12.01h3.91c2.2,0,4,1.8,4,4.02,0,1.53-.88,2.9-2.18,3.55l3.19,4.45ZM245.96,410.88c0-1.12-.9-2.02-2-2.02h-1.91v4.01h1.91c1.1,0,2-.9,2-2Z"/>
    <path class="cls-1" d="M250.06,406.86h2.3l2.7,4.93,2.7-4.93h2.3l-4.02,7.2v4.81h-2v-4.81l-4-7.2Z"/>
  </g>
  <g id="glt601">
    <rect class="cls-10" x="307.92" y="52.82" width="148.35" height="79.67"/>
    <g>
      <path class="cls-8" d="M345.03,93.33h-2.69v-2.66h5.35v7.99h-.82l-.55-.98c-.98.79-2.18,1.25-3.36,1.25-3.86,0-6.48-3.72-6.48-8.26s2.62-8.28,6.48-8.28c1.9,0,3.86,1.22,4.94,3.07l-1.58,1.49c-1.03-1.32-2.06-1.9-3.19-1.9-2.02,0-3.72,2.14-3.72,5.62s1.7,5.59,3.72,5.59c.65,0,1.27-.19,1.9-.62v-2.3Z"/>
      <path class="cls-8" d="M355.42,96h4.54v2.66h-7.2v-16.01h2.66v13.35Z"/>
      <path class="cls-8" d="M361.54,85.31v-2.66h11.74v2.66h-4.54v13.35h-2.66v-13.35h-4.54Z"/>
      <path class="cls-8" d="M391.23,82.65h3.26l-3.96,5.64c2.74.22,4.9,2.52,4.9,5.3,0,2.93-2.4,5.33-5.35,5.33s-5.3-2.4-5.33-5.33c-.02-1.51.62-2.59,1.39-3.67l5.09-7.27ZM390.08,90.93c-1.46,0-2.67,1.2-2.67,2.66s1.2,2.66,2.67,2.66,2.66-1.2,2.66-2.66-1.2-2.66-2.66-2.66Z"/>
      <path class="cls-8" d="M406.09,82.39c3.6,0,5.62,3.74,5.62,8.28s-2.02,8.26-5.62,8.26-5.59-3.72-5.59-8.26,1.99-8.28,5.59-8.28ZM406.09,96.26c1.8,0,2.78-2.54,2.78-5.59s-.98-5.62-2.78-5.62-2.76,2.54-2.76,5.62.98,5.59,2.76,5.59Z"/>
      <path class="cls-8" d="M420.78,87.79l-2.9,1.08-.6-1.1,5.38-5.38h.79v13.61h2.66v2.66h-7.99v-2.66h2.66v-8.21Z"/>
    </g>
  </g>
  <rect class="cls-9" x="291.01" y="521.09" width="83.77" height="30.38"/>
  <rect class="cls-9" x="389.42" y="521.16" width="83.77" height="30.38"/>
  <g>
    <rect class="cls-10" x="212.66" y="503.7" width="12.79" height="9.67"/>
    <rect class="cls-10" x="238.23" y="523.04" width="12.79" height="9.67"/>
    <rect class="cls-10" x="225.45" y="513.37" width="12.79" height="9.67"/>
    <rect class="cls-10" x="251.02" y="532.71" width="12.79" height="9.67"/>
    <rect class="cls-10" x="263.59" y="542.21" width="12.79" height="9.67"/>
    <rect class="cls-10" x="212.66" y="513.37" width="25.57" height="38.51"/>
    <rect class="cls-10" x="238.23" y="532.71" width="12.79" height="19.17"/>
    <rect class="cls-10" x="251.02" y="542.38" width="12.57" height="9.5"/>
  </g>
  <g>
    <path class="cls-10" d="M27.44,207.55H.44v-18.89h3.64v14.12h8.11v-12.16h3.6v12.16h11.66v4.77Z"/>
    <path class="cls-10" d="M27.44,184.03H.44v-4.77h23.33v-13.75h3.68v18.52Z"/>
    <path class="cls-10" d="M8.43,139.55h11.03c6.31,0,8.43,5.33,8.43,11.46s-2.12,11.46-8.43,11.46h-11.03c-6.31,0-8.43-5.38-8.43-11.46s2.12-11.46,8.43-11.46ZM9.43,157.7h8.99c4.51,0,5.71-2.76,5.71-6.69s-1.2-6.69-5.71-6.69h-8.99c-4.47,0-5.67,2.76-5.67,6.69s1.2,6.69,5.67,6.69Z"/>
    <path class="cls-10" d="M8.43,109.71h11.03c6.31,0,8.43,5.33,8.43,11.46s-2.12,11.46-8.43,11.46h-11.03c-6.31,0-8.43-5.38-8.43-11.46s2.12-11.46,8.43-11.46ZM9.43,127.86h8.99c4.51,0,5.71-2.76,5.71-6.69s-1.2-6.69-5.71-6.69h-8.99c-4.47,0-5.67,2.76-5.67,6.69s1.2,6.69,5.67,6.69Z"/>
    <path class="cls-10" d="M27.44,84.36l-11.35,6.73v6.92h11.35v4.77H.44v-14.22c0-3.88,2.68-6.73,5.99-6.73h3.67c2.6,0,4.79,1.73,5.63,4.35l11.7-7.02v5.19ZM7.39,86.61c-2.24,0-3.32,1.12-3.32,4.07v7.34h8.39v-7.34c0-2.95-1.08-4.07-3.32-4.07h-1.76Z"/>
    <path class="cls-10" d="M17.18,45.45h4.23c5.15,0,6.47,5.14,6.47,9.87s-1.32,9.87-6.47,9.87h-13.38c-6.27,0-8.03-4.02-8.03-10.24,0-1.82.32-5.8.52-8.33h3.83s-.6,6.5-.6,7.9c0,5.33,1.72,5.89,4.55,5.89h2.84c-.6-1.64-.84-2.9-.84-5.85,0-6.97,2.76-9.12,6.87-9.12ZM20.73,60.42c2.6,0,3.63-1.78,3.63-5.1s-1.04-5.1-3.63-5.1h-3.04c-2.68,0-3.56,1.12-3.56,4.44,0,2.71.84,5.75.84,5.75h5.75Z"/>
  </g>
  <g>
    <path class="cls-1" d="M499.41,382.96c2.7,0,4.21,2.81,4.21,6.21s-1.51,6.19-4.21,6.19-4.2-2.79-4.2-6.19,1.49-6.21,4.2-6.21ZM499.41,393.37c1.35,0,2.09-1.91,2.09-4.2s-.74-4.21-2.09-4.21-2.07,1.91-2.07,4.21.74,4.2,2.07,4.2Z"/>
    <path class="cls-1" d="M507.42,383.16h6.41v2h-4.41v2.41h4.41v2h-4.41v5.6h-2v-12.01Z"/>
    <path class="cls-1" d="M517.43,383.16h6.41v2h-4.41v2.41h4.41v2h-4.41v5.6h-2v-12.01Z"/>
    <path class="cls-1" d="M529.43,385.16h-2v-2h6v2h-2v8.01h2v2h-6v-2h2v-8.01Z"/>
    <path class="cls-1" d="M542.3,382.96c1.48,0,3.03.92,3.87,2.3l-1.26,1.12c-.81-.99-1.62-1.42-2.52-1.42-1.58,0-2.95,1.6-2.95,4.21s1.37,4.2,2.95,4.2c.9,0,1.71-.41,2.52-1.42l1.26,1.12c-.85,1.39-2.39,2.3-3.87,2.3-3.02,0-5.06-2.79-5.06-6.19s2.04-6.21,5.06-6.21Z"/>
    <path class="cls-1" d="M549.45,383.16h6v2h-4v2.41h4v2h-4v3.6h4v2h-6v-12.01Z"/>
  </g>
  <g>
    <path class="cls-1" d="M499.41,453.16c2.7,0,4.21,2.81,4.21,6.21s-1.51,6.19-4.21,6.19-4.2-2.79-4.2-6.19,1.49-6.21,4.2-6.21ZM499.41,463.57c1.35,0,2.09-1.91,2.09-4.2s-.74-4.21-2.09-4.21-2.07,1.91-2.07,4.21.74,4.2,2.07,4.2Z"/>
    <path class="cls-1" d="M507.42,453.36h6.41v2h-4.41v2.41h4.41v2h-4.41v5.6h-2v-12.01Z"/>
    <path class="cls-1" d="M517.43,453.36h6.41v2h-4.41v2.41h4.41v2h-4.41v5.6h-2v-12.01Z"/>
    <path class="cls-1" d="M529.43,455.36h-2v-2h6v2h-2v8.01h2v2h-6v-2h2v-8.01Z"/>
    <path class="cls-1" d="M542.3,453.16c1.48,0,3.03.92,3.87,2.3l-1.26,1.12c-.81-.99-1.62-1.42-2.52-1.42-1.58,0-2.95,1.6-2.95,4.21s1.37,4.2,2.95,4.2c.9,0,1.71-.41,2.52-1.42l1.26,1.12c-.85,1.39-2.39,2.3-3.87,2.3-3.02,0-5.06-2.79-5.06-6.19s2.04-6.21,5.06-6.21Z"/>
    <path class="cls-1" d="M549.45,453.36h6v2h-4v2.41h4v2h-4v3.6h4v2h-6v-12.01Z"/>
  </g>
  <rect class="cls-4" x="170.8" y="14.42" width="104.38" height="60.53"/>
  <rect class="cls-4" x="170.8" y="87.3" width="104.38" height="60.4"/>
  <g>
    <path class="cls-1" d="M197.07,38.48c2.7,0,4.21,2.81,4.21,6.21s-1.51,6.19-4.21,6.19-4.19-2.79-4.19-6.19,1.49-6.21,4.19-6.21ZM197.07,48.89c1.35,0,2.09-1.91,2.09-4.2s-.74-4.21-2.09-4.21-2.07,1.91-2.07,4.21.74,4.2,2.07,4.2Z"/>
    <path class="cls-1" d="M205.08,38.68h6.41v2h-4.41v2.41h4.41v2h-4.41v5.6h-2v-12.01Z"/>
    <path class="cls-1" d="M215.09,38.68h6.41v2h-4.41v2.41h4.41v2h-4.41v5.6h-2v-12.01Z"/>
    <path class="cls-1" d="M227.09,40.68h-2v-2h6v2h-2v8.01h2v2h-6v-2h2v-8.01Z"/>
    <path class="cls-1" d="M239.96,38.48c1.48,0,3.03.92,3.87,2.3l-1.26,1.12c-.81-.99-1.62-1.42-2.52-1.42-1.58,0-2.95,1.6-2.95,4.21s1.37,4.2,2.95,4.2c.9,0,1.71-.41,2.52-1.42l1.26,1.12c-.85,1.39-2.39,2.3-3.87,2.3-3.02,0-5.06-2.79-5.06-6.19s2.04-6.21,5.06-6.21Z"/>
    <path class="cls-1" d="M247.11,38.68h6v2h-4v2.41h4v2h-4v3.6h4v2h-6v-12.01Z"/>
  </g>
  <g>
    <path class="cls-1" d="M197.07,111.3c2.7,0,4.21,2.81,4.21,6.21s-1.51,6.19-4.21,6.19-4.19-2.79-4.19-6.19,1.49-6.21,4.19-6.21ZM197.07,121.71c1.35,0,2.09-1.91,2.09-4.2s-.74-4.21-2.09-4.21-2.07,1.91-2.07,4.21.74,4.2,2.07,4.2Z"/>
    <path class="cls-1" d="M205.08,111.5h6.41v2h-4.41v2.41h4.41v2h-4.41v5.6h-2v-12.01Z"/>
    <path class="cls-1" d="M215.09,111.5h6.41v2h-4.41v2.41h4.41v2h-4.41v5.6h-2v-12.01Z"/>
    <path class="cls-1" d="M227.09,113.5h-2v-2h6v2h-2v8.01h2v2h-6v-2h2v-8.01Z"/>
    <path class="cls-1" d="M239.96,111.3c1.48,0,3.03.92,3.87,2.3l-1.26,1.12c-.81-.99-1.62-1.42-2.52-1.42-1.58,0-2.95,1.6-2.95,4.21s1.37,4.2,2.95,4.2c.9,0,1.71-.41,2.52-1.42l1.26,1.12c-.85,1.39-2.39,2.3-3.87,2.3-3.02,0-5.06-2.79-5.06-6.19s2.04-6.21,5.06-6.21Z"/>
    <path class="cls-1" d="M247.11,111.5h6v2h-4v2.41h4v2h-4v3.6h4v2h-6v-12.01Z"/>
  </g>
  <rect class="cls-5" x="483.56" y="1" width="104.38" height="60.53"/>
  <g>
    <path class="cls-1" d="M509.83,25.06c2.7,0,4.21,2.81,4.21,6.21s-1.51,6.19-4.21,6.19-4.19-2.79-4.19-6.19,1.49-6.21,4.19-6.21ZM509.83,35.47c1.35,0,2.09-1.91,2.09-4.2s-.74-4.21-2.09-4.21-2.07,1.91-2.07,4.21.74,4.2,2.07,4.2Z"/>
    <path class="cls-1" d="M517.84,25.26h6.41v2h-4.41v2.41h4.41v2h-4.41v5.6h-2v-12.01Z"/>
    <path class="cls-1" d="M527.84,25.26h6.41v2h-4.41v2.41h4.41v2h-4.41v5.6h-2v-12.01Z"/>
    <path class="cls-1" d="M539.85,27.26h-2v-2h6v2h-2v8.01h2v2h-6v-2h2v-8.01Z"/>
    <path class="cls-1" d="M552.72,25.06c1.48,0,3.03.92,3.87,2.3l-1.26,1.12c-.81-.99-1.62-1.42-2.52-1.42-1.58,0-2.95,1.6-2.95,4.21s1.37,4.2,2.95,4.2c.9,0,1.71-.41,2.52-1.42l1.26,1.12c-.85,1.39-2.39,2.3-3.87,2.3-3.02,0-5.06-2.79-5.06-6.19s2.04-6.21,5.06-6.21Z"/>
    <path class="cls-1" d="M559.87,25.26h6v2h-4v2.41h4v2h-4v3.6h4v2h-6v-12.01Z"/>
  </g>
  <g id="gltbasic">
    <rect class="cls-10" x="118.21" y="155.54" width="156.97" height="219.49"/>
    <g>
      <path class="cls-8" d="M132.95,286.31h5.59c2.35,0,4.27,1.92,4.27,4.27,0,1.1-.34,1.92-.94,2.64,1.22.94,2.02,2.28,2.02,4.03,0,2.81-2.28,5.06-5.06,5.06h-5.88v-16.01ZM135.61,292.19h2.93c.89,0,1.61-.72,1.61-1.61s-.72-1.61-1.61-1.61h-2.93v3.22ZM135.61,299.65h3.22c1.32,0,2.4-1.08,2.4-2.4s-1.08-2.4-2.4-2.4h-3.22v4.8Z"/>
      <path class="cls-8" d="M151.62,302.32h-2.66v-10.13c0-3.96,2.4-6.14,5.33-6.14s5.35,2.18,5.35,6.14v10.13h-2.66v-5.33h-5.35v5.33ZM156.97,292.19c0-2.35-1.22-3.48-2.69-3.48s-2.67,1.13-2.67,3.48v2.14h5.35v-2.14Z"/>
      <path class="cls-8" d="M168.64,302.58c-1.73,0-3.02-.55-4.51-1.7l.31-2.38c1.61.86,2.93,1.42,4.3,1.42,1.2,0,2.74-.65,2.74-1.94,0-3.05-7.56-1.87-7.56-7.22,0-2.78,2.45-4.7,5.28-4.7,1.8,0,3.02.62,4.68,1.92l-.84,2.11c-1.13-.74-2.47-1.39-3.74-1.39-1.61,0-2.59.86-2.59,1.82,0,2.86,7.58,2.14,7.58,7.06,0,3.29-2.76,5.02-5.64,5.02Z"/>
      <path class="cls-8" d="M180.97,288.97h-2.66v-2.66h7.99v2.66h-2.66v10.68h2.66v2.66h-7.99v-2.66h2.66v-10.68Z"/>
      <path class="cls-8" d="M198.13,286.04c1.97,0,4.03,1.22,5.16,3.07l-1.68,1.49c-1.08-1.32-2.16-1.9-3.36-1.9-2.11,0-3.94,2.14-3.94,5.62s1.82,5.59,3.94,5.59c1.2,0,2.28-.55,3.36-1.9l1.68,1.49c-1.13,1.85-3.19,3.07-5.16,3.07-4.03,0-6.74-3.72-6.74-8.26s2.71-8.28,6.74-8.28Z"/>
      <path class="cls-8" d="M132.95,315.11h3.74c3.96,0,7.18,3.58,7.18,8.02s-3.22,7.99-7.18,7.99h-3.74v-16.01ZM135.61,328.45h1.08c2.33,0,4.25-2.4,4.25-5.33s-1.92-5.35-4.25-5.35h-1.08v10.68Z"/>
      <path class="cls-8" d="M148.96,315.11h7.99v2.66h-5.33v3.22h5.33v2.66h-5.33v4.8h5.33v2.66h-7.99v-16.01Z"/>
      <path class="cls-8" d="M165.97,331.38c-1.73,0-3.02-.55-4.51-1.7l.31-2.38c1.61.86,2.93,1.42,4.3,1.42,1.2,0,2.74-.65,2.74-1.94,0-3.05-7.56-1.87-7.56-7.22,0-2.78,2.45-4.71,5.28-4.71,1.8,0,3.02.62,4.68,1.92l-.84,2.11c-1.13-.74-2.47-1.39-3.74-1.39-1.61,0-2.59.86-2.59,1.82,0,2.86,7.58,2.14,7.58,7.06,0,3.29-2.76,5.02-5.64,5.02Z"/>
      <path class="cls-8" d="M178.31,317.77h-2.66v-2.66h7.99v2.66h-2.66v10.68h2.66v2.66h-7.99v-2.66h2.66v-10.68Z"/>
      <path class="cls-8" d="M197.27,325.79h-2.69v-2.66h5.35v7.99h-.82l-.55-.98c-.98.79-2.18,1.25-3.36,1.25-3.86,0-6.48-3.72-6.48-8.26s2.62-8.28,6.48-8.28c1.9,0,3.86,1.22,4.94,3.07l-1.58,1.49c-1.03-1.32-2.06-1.9-3.19-1.9-2.02,0-3.72,2.14-3.72,5.62s1.7,5.59,3.72,5.59c.65,0,1.27-.19,1.9-.62v-2.3Z"/>
      <path class="cls-8" d="M213.28,315.11h2.4v16.01h-2.02l-6.26-10.22v10.22h-2.4v-16.01h1.99l6.29,10.22v-10.22Z"/>
      <path class="cls-8" d="M136.62,360.18c-1.73,0-3.02-.55-4.51-1.7l.31-2.38c1.61.86,2.93,1.42,4.3,1.42,1.2,0,2.74-.65,2.74-1.94,0-3.05-7.56-1.87-7.56-7.22,0-2.78,2.45-4.7,5.28-4.7,1.8,0,3.02.62,4.68,1.92l-.84,2.11c-1.13-.74-2.47-1.39-3.74-1.39-1.61,0-2.59.86-2.59,1.82,0,2.86,7.58,2.14,7.58,7.06,0,3.29-2.76,5.02-5.64,5.02Z"/>
      <path class="cls-8" d="M144.42,346.57v-2.66h11.74v2.66h-4.54v13.35h-2.67v-13.35h-4.54Z"/>
      <path class="cls-8" d="M162.3,343.91v10.15c0,2.33,1.2,3.46,2.67,3.46s2.69-1.13,2.69-3.46v-10.15h2.66v10.15c0,3.94-2.4,6.12-5.35,6.12s-5.33-2.18-5.33-6.12v-10.15h2.66Z"/>
      <path class="cls-8" d="M175.64,343.91h3.74c3.96,0,7.18,3.58,7.18,8.02s-3.22,7.99-7.18,7.99h-3.74v-16.01ZM178.31,357.25h1.08c2.33,0,4.25-2.4,4.25-5.33s-1.92-5.35-4.25-5.35h-1.08v10.68Z"/>
      <path class="cls-8" d="M194.32,346.57h-2.66v-2.66h7.99v2.66h-2.66v10.68h2.66v2.66h-7.99v-2.66h2.66v-10.68Z"/>
      <path class="cls-8" d="M210.33,343.64c3.6,0,5.62,3.74,5.62,8.28s-2.02,8.26-5.62,8.26-5.59-3.72-5.59-8.26,1.99-8.28,5.59-8.28ZM210.33,357.52c1.8,0,2.78-2.54,2.78-5.59s-.98-5.62-2.78-5.62-2.76,2.54-2.76,5.62.98,5.59,2.76,5.59Z"/>
    </g>
    <g>
      <path class="cls-7" d="M137.37,176.1h-1.57v-1.55h3.12v4.66h-.48l-.32-.57c-.57.46-1.27.73-1.96.73-2.25,0-3.78-2.17-3.78-4.82s1.53-4.83,3.78-4.83c1.11,0,2.26.71,2.89,1.79l-.92.87c-.6-.77-1.2-1.11-1.86-1.11-1.18,0-2.17,1.25-2.17,3.28s1,3.26,2.17,3.26c.38,0,.74-.11,1.11-.36v-1.34Z"/>
      <path class="cls-7" d="M143.43,177.66h2.65v1.55h-4.2v-9.34h1.55v7.79Z"/>
      <path class="cls-7" d="M147,171.43v-1.56h6.85v1.56h-2.65v7.79h-1.55v-7.79h-2.65Z"/>
      <path class="cls-7" d="M160.54,169.87h3.26c1.37,0,2.49,1.12,2.49,2.49,0,.64-.2,1.12-.55,1.54.71.55,1.18,1.33,1.18,2.35,0,1.64-1.33,2.96-2.96,2.96h-3.43v-9.34ZM162.1,173.3h1.71c.52,0,.94-.42.94-.94s-.42-.94-.94-.94h-1.71v1.88ZM162.1,177.66h1.88c.77,0,1.4-.63,1.4-1.4s-.63-1.4-1.4-1.4h-1.88v2.8Z"/>
      <path class="cls-7" d="M171.43,179.21h-1.55v-5.91c0-2.31,1.4-3.59,3.11-3.59s3.12,1.27,3.12,3.59v5.91h-1.55v-3.11h-3.12v3.11ZM174.56,173.3c0-1.37-.71-2.03-1.57-2.03s-1.55.66-1.55,2.03v1.25h3.12v-1.25Z"/>
      <path class="cls-7" d="M181.36,179.37c-1.01,0-1.77-.32-2.63-.99l.18-1.39c.94.5,1.71.83,2.51.83.7,0,1.6-.38,1.6-1.13,0-1.78-4.41-1.09-4.41-4.22,0-1.62,1.43-2.75,3.08-2.75,1.05,0,1.76.36,2.73,1.12l-.49,1.23c-.66-.43-1.44-.81-2.19-.81-.94,0-1.51.5-1.51,1.06,0,1.67,4.43,1.25,4.43,4.12,0,1.92-1.61,2.93-3.29,2.93Z"/>
      <path class="cls-7" d="M188.55,171.43h-1.55v-1.56h4.67v1.56h-1.56v6.23h1.56v1.55h-4.67v-1.55h1.55v-6.23Z"/>
      <path class="cls-7" d="M198.57,169.72c1.15,0,2.35.71,3.01,1.79l-.98.87c-.63-.77-1.26-1.11-1.96-1.11-1.23,0-2.3,1.25-2.3,3.28s1.06,3.26,2.3,3.26c.7,0,1.33-.32,1.96-1.11l.98.87c-.66,1.08-1.86,1.79-3.01,1.79-2.35,0-3.94-2.17-3.94-4.82s1.58-4.83,3.94-4.83Z"/>
    </g>
  </g>
  <g id="gltanim">
    <rect class="cls-10" x="482.53" y="178.99" width="145.48" height="159.25"/>
    <g>
      <path class="cls-7" d="M556.1,199.56h-1.57v-1.55h3.12v4.66h-.48l-.32-.57c-.57.46-1.27.73-1.96.73-2.25,0-3.78-2.17-3.78-4.82s1.53-4.83,3.78-4.83c1.11,0,2.26.71,2.89,1.79l-.92.87c-.6-.77-1.2-1.11-1.86-1.11-1.18,0-2.17,1.25-2.17,3.28s1,3.26,2.17,3.26c.38,0,.74-.11,1.11-.36v-1.34Z"/>
      <path class="cls-7" d="M562.16,201.11h2.65v1.55h-4.2v-9.34h1.55v7.79Z"/>
      <path class="cls-7" d="M565.73,194.88v-1.56h6.85v1.56h-2.65v7.79h-1.55v-7.79h-2.65Z"/>
      <path class="cls-7" d="M580.82,202.67h-1.55v-5.91c0-2.31,1.4-3.59,3.11-3.59s3.12,1.27,3.12,3.59v5.91h-1.55v-3.11h-3.12v3.11ZM583.95,196.76c0-1.37-.71-2.03-1.57-2.03s-1.55.66-1.55,2.03v1.25h3.12v-1.25Z"/>
      <path class="cls-7" d="M593.44,193.33h1.4v9.34h-1.18l-3.66-5.97v5.97h-1.4v-9.34h1.16l3.67,5.97v-5.97Z"/>
      <path class="cls-7" d="M599.5,194.88h-1.55v-1.56h4.67v1.56h-1.56v6.23h1.56v1.55h-4.67v-1.55h1.55v-6.23Z"/>
      <path class="cls-7" d="M612.03,202.67v-5.63l-2.25,4.23h-.31l-2.25-4.23v5.63h-1.49v-9.34h1.27l2.62,4.92,2.62-4.92h1.27v9.34h-1.48Z"/>
    </g>
    <g>
      <path class="cls-8" d="M499.12,298.58h-2.33v-8.86c0-3.46,2.1-5.38,4.66-5.38s4.68,1.91,4.68,5.38v8.86h-2.33v-4.66h-4.68v4.66ZM503.8,289.72c0-2.06-1.07-3.04-2.35-3.04s-2.33.99-2.33,3.04v1.87h4.68v-1.87Z"/>
      <path class="cls-8" d="M518.04,284.58h2.1v14h-1.76l-5.48-8.94v8.94h-2.1v-14h1.74l5.5,8.94v-8.94Z"/>
      <path class="cls-8" d="M527.13,286.91h-2.33v-2.33h6.99v2.33h-2.33v9.34h2.33v2.33h-6.99v-2.33h2.33v-9.34Z"/>
      <path class="cls-8" d="M545.93,298.58v-8.44l-3.38,6.34h-.46l-3.38-6.34v8.44h-2.23v-14h1.91l3.93,7.37,3.93-7.37h1.91v14h-2.22Z"/>
      <path class="cls-8" d="M555.15,298.58h-2.33v-8.86c0-3.46,2.1-5.38,4.66-5.38s4.68,1.91,4.68,5.38v8.86h-2.33v-4.66h-4.68v4.66ZM559.83,289.72c0-2.06-1.07-3.04-2.35-3.04s-2.33.99-2.33,3.04v1.87h4.68v-1.87Z"/>
      <path class="cls-8" d="M565.19,286.91v-2.33h10.27v2.33h-3.97v11.67h-2.33v-11.67h-3.97Z"/>
      <path class="cls-8" d="M580.83,286.91h-2.33v-2.33h6.99v2.33h-2.33v9.34h2.33v2.33h-6.99v-2.33h2.33v-9.34Z"/>
      <path class="cls-8" d="M594.84,284.35c3.15,0,4.91,3.28,4.91,7.24s-1.76,7.22-4.91,7.22-4.89-3.25-4.89-7.22,1.74-7.24,4.89-7.24ZM594.84,296.48c1.57,0,2.44-2.23,2.44-4.89s-.86-4.91-2.44-4.91-2.42,2.23-2.42,4.91.86,4.89,2.42,4.89Z"/>
      <path class="cls-8" d="M611.43,284.58h2.1v14h-1.76l-5.48-8.94v8.94h-2.1v-14h1.74l5.5,8.94v-8.94Z"/>
      <path class="cls-8" d="M544.35,324.01c-1.51,0-2.65-.48-3.95-1.49l.27-2.08c1.41.76,2.56,1.24,3.76,1.24,1.05,0,2.39-.57,2.39-1.7,0-2.67-6.61-1.64-6.61-6.32,0-2.44,2.14-4.12,4.62-4.12,1.58,0,2.65.55,4.09,1.68l-.74,1.85c-.99-.65-2.16-1.22-3.28-1.22-1.41,0-2.27.76-2.27,1.6,0,2.5,6.63,1.87,6.63,6.17,0,2.88-2.41,4.39-4.93,4.39Z"/>
      <path class="cls-8" d="M551.18,312.11v-2.33h10.27v2.33h-3.97v11.67h-2.33v-11.67h-3.97Z"/>
      <path class="cls-8" d="M566.82,309.78v8.88c0,2.04,1.05,3.02,2.33,3.02s2.35-.99,2.35-3.02v-8.88h2.33v8.88c0,3.44-2.1,5.35-4.68,5.35s-4.66-1.91-4.66-5.35v-8.88h2.33Z"/>
      <path class="cls-8" d="M578.5,309.78h3.28c3.46,0,6.28,3.13,6.28,7.01s-2.81,6.99-6.28,6.99h-3.28v-14ZM580.83,321.45h.95c2.04,0,3.72-2.1,3.72-4.66s-1.68-4.68-3.72-4.68h-.95v9.34Z"/>
      <path class="cls-8" d="M594.84,312.11h-2.33v-2.33h6.99v2.33h-2.33v9.34h2.33v2.33h-6.99v-2.33h2.33v-9.34Z"/>
      <path class="cls-8" d="M608.84,309.55c3.15,0,4.91,3.28,4.91,7.24s-1.76,7.22-4.91,7.22-4.89-3.25-4.89-7.22,1.74-7.24,4.89-7.24ZM608.84,321.68c1.58,0,2.44-2.23,2.44-4.89s-.86-4.91-2.44-4.91-2.41,2.23-2.41,4.91.86,4.89,2.41,4.89Z"/>
    </g>
  </g>
  <rect class="cls-2" x="293.67" y="148.46" width="175.19" height="83.6"/>
  <g>
    <path class="cls-1" d="M379.09,170.86c0,2.2-1.8,4-4.02,4-1.84,0-3.31-1.21-3.82-2.83l1.89-.67c.22.81.97,1.49,1.93,1.49,1.1,0,2-.9,2-2s-.9-2-2-2h-1.49v-.61l2.65-3.6h-3.24l-.97,1.6h-.59v-3.6h7.87v.99l-2.63,3.53c1.37.63,2.43,1.96,2.43,3.69Z"/>
    <path class="cls-1" d="M383.08,162.65h2.81c2.97,0,5.38,2.68,5.38,6.01s-2.41,6-5.38,6h-2.81v-12.01ZM385.08,172.66h.81c1.75,0,3.19-1.8,3.19-4s-1.44-4.02-3.19-4.02h-.81v8.01Z"/>
    <path class="cls-1" d="M346.46,188.27c0,2.2-1.8,4-4,4h-2.41v4h-2v-12.01h4.41c2.2,0,4,1.8,4,4.02ZM344.46,188.27c0-1.12-.9-2.02-2-2.02h-2.41v4.01h2.41c1.1,0,2-.9,2-2Z"/>
    <path class="cls-1" d="M358.97,196.26h-2.45l-2.88-4h-1.58v4h-2v-12.01h3.91c2.2,0,4,1.8,4,4.02,0,1.53-.88,2.9-2.18,3.55l3.19,4.45ZM355.97,188.27c0-1.12-.9-2.02-2-2.02h-1.91v4.01h1.91c1.1,0,2-.9,2-2Z"/>
    <path class="cls-1" d="M364.06,186.25h-2v-2h6v2h-2v8.01h2v2h-6v-2h2v-8.01Z"/>
    <path class="cls-1" d="M378.29,184.25h1.8v12.01h-1.51l-4.7-7.67v7.67h-1.8v-12.01h1.5l4.72,7.67v-7.67Z"/>
    <path class="cls-1" d="M382.68,186.25v-2h8.8v2h-3.4v10.01h-2v-10.01h-3.4Z"/>
    <path class="cls-1" d="M396.09,186.25h-2v-2h6v2h-2v8.01h2v2h-6v-2h2v-8.01Z"/>
    <path class="cls-1" d="M410.31,184.25h1.8v12.01h-1.51l-4.7-7.67v7.67h-1.8v-12.01h1.49l4.72,7.67v-7.67Z"/>
    <path class="cls-1" d="M422.31,192.27h-2.02v-2h4.01v6h-.61l-.41-.74c-.74.59-1.64.94-2.52.94-2.9,0-4.86-2.79-4.86-6.19s1.96-6.21,4.86-6.21c1.42,0,2.9.92,3.71,2.3l-1.19,1.12c-.77-.99-1.55-1.42-2.39-1.42-1.51,0-2.79,1.6-2.79,4.21s1.28,4.2,2.79,4.2c.49,0,.95-.14,1.42-.47v-1.73Z"/>
    <path class="cls-1" d="M372.07,215.86h3.4v2h-5.4v-12.01h2v10.01Z"/>
    <path class="cls-1" d="M380.07,217.86h-2v-7.6c0-2.97,1.8-4.61,4-4.61s4.02,1.64,4.02,4.61v7.6h-2v-4h-4.02v4ZM384.08,210.26c0-1.76-.92-2.61-2.02-2.61s-2,.85-2,2.61v1.6h4.02v-1.6Z"/>
    <path class="cls-1" d="M390.07,205.85h4.2c1.76,0,3.21,1.44,3.21,3.21,0,.83-.25,1.44-.7,1.98.92.7,1.51,1.71,1.51,3.03,0,2.11-1.71,3.8-3.8,3.8h-4.41v-12.01ZM392.07,210.26h2.2c.67,0,1.21-.54,1.21-1.21s-.54-1.21-1.21-1.21h-2.2v2.41ZM392.07,215.86h2.41c.99,0,1.8-.81,1.8-1.8s-.81-1.8-1.8-1.8h-2.41v3.6Z"/>
  </g>
  <g id="gltmac02">
    <rect class="cls-10" x="482.44" y="71.62" width="145.41" height="97.29"/>
    <g>
      <path class="cls-8" d="M518.11,154.7v-8.44l-3.38,6.34h-.46l-3.38-6.34v8.44h-2.22v-14h1.91l3.93,7.37,3.93-7.37h1.91v14h-2.23Z"/>
      <path class="cls-8" d="M527.33,154.7h-2.33v-8.86c0-3.46,2.1-5.38,4.66-5.38s4.68,1.91,4.68,5.38v8.86h-2.33v-4.66h-4.68v4.66ZM532.01,145.84c0-2.06-1.07-3.04-2.35-3.04s-2.33.99-2.33,3.04v1.87h4.68v-1.87Z"/>
      <path class="cls-8" d="M544.68,140.46c1.72,0,3.53,1.07,4.51,2.69l-1.47,1.3c-.94-1.15-1.89-1.66-2.94-1.66-1.85,0-3.44,1.87-3.44,4.91s1.6,4.89,3.44,4.89c1.05,0,2-.48,2.94-1.66l1.47,1.3c-.99,1.62-2.79,2.69-4.51,2.69-3.53,0-5.9-3.25-5.9-7.22s2.37-7.24,5.9-7.24Z"/>
      <path class="cls-8" d="M562.34,152.37h3.97v2.33h-6.3v-14h2.33v11.67Z"/>
      <path class="cls-8" d="M571.66,154.7h-2.33v-8.86c0-3.46,2.1-5.38,4.66-5.38s4.68,1.91,4.68,5.38v8.86h-2.33v-4.66h-4.68v4.66ZM576.34,145.84c0-2.06-1.07-3.04-2.35-3.04s-2.33.99-2.33,3.04v1.87h4.68v-1.87Z"/>
      <path class="cls-8" d="M583.34,140.69h4.89c2.06,0,3.74,1.68,3.74,3.74,0,.97-.29,1.68-.82,2.31,1.07.82,1.76,1.99,1.76,3.53,0,2.46-1.99,4.43-4.43,4.43h-5.14v-14ZM585.67,145.84h2.56c.78,0,1.41-.63,1.41-1.41s-.63-1.41-1.41-1.41h-2.56v2.81ZM585.67,152.37h2.81c1.15,0,2.1-.94,2.1-2.1s-.95-2.1-2.1-2.1h-2.81v4.2Z"/>
      <path class="cls-8" d="M611.33,145.12c0-1.28-1.05-2.33-2.33-2.33s-2.33,1.05-2.33,2.33v1.18h-2.33v-1.18c0-2.56,2.1-4.66,4.66-4.66s4.68,2.1,4.68,4.66c0,1.93-.88,3.13-2.23,4.39l-3.02,2.86h5.25v2.33h-9.34v-.84l5.02-5.31c.78-.82,1.97-2.06,1.97-3.42Z"/>
    </g>
    <g>
      <path class="cls-7" d="M545.37,92.33h-1.57v-1.55h3.12v4.66h-.48l-.32-.57c-.57.46-1.27.73-1.96.73-2.25,0-3.78-2.17-3.78-4.82s1.53-4.83,3.78-4.83c1.11,0,2.26.71,2.89,1.79l-.92.87c-.6-.77-1.2-1.11-1.86-1.11-1.18,0-2.17,1.25-2.17,3.28s1,3.26,2.17,3.26c.38,0,.74-.11,1.11-.36v-1.34Z"/>
      <path class="cls-7" d="M551.43,93.88h2.65v1.55h-4.2v-9.34h1.55v7.79Z"/>
      <path class="cls-7" d="M555,87.65v-1.56h6.85v1.56h-2.65v7.79h-1.55v-7.79h-2.65Z"/>
      <path class="cls-7" d="M574.84,95.43v-5.63l-2.26,4.23h-.31l-2.25-4.23v5.63h-1.49v-9.34h1.27l2.62,4.92,2.62-4.92h1.27v9.34h-1.48Z"/>
      <path class="cls-7" d="M580.99,95.43h-1.55v-5.91c0-2.31,1.4-3.59,3.11-3.59s3.12,1.27,3.12,3.59v5.91h-1.55v-3.11h-3.12v3.11ZM584.11,89.52c0-1.37-.71-2.03-1.57-2.03s-1.55.66-1.55,2.03v1.25h3.12v-1.25Z"/>
      <path class="cls-7" d="M592.55,85.94c1.15,0,2.35.71,3.01,1.79l-.98.87c-.63-.77-1.26-1.11-1.96-1.11-1.23,0-2.3,1.25-2.3,3.28s1.06,3.26,2.3,3.26c.7,0,1.33-.32,1.96-1.11l.98.87c-.66,1.08-1.86,1.79-3.01,1.79-2.35,0-3.94-2.17-3.94-4.82s1.58-4.83,3.94-4.83Z"/>
      <path class="cls-7" d="M601.22,85.94c2.1,0,3.28,2.19,3.28,4.83s-1.18,4.82-3.28,4.82-3.26-2.17-3.26-4.82,1.16-4.83,3.26-4.83ZM601.22,94.03c1.05,0,1.62-1.48,1.62-3.26s-.57-3.28-1.62-3.28-1.61,1.48-1.61,3.28.57,3.26,1.61,3.26Z"/>
      <path class="cls-7" d="M612.11,89.05c0-.85-.7-1.55-1.56-1.55s-1.55.7-1.55,1.55v.78h-1.55v-.78c0-1.71,1.4-3.11,3.11-3.11s3.12,1.4,3.12,3.11c0,1.29-.59,2.09-1.48,2.93l-2.02,1.91h3.5v1.55h-6.23v-.56l3.35-3.54c.52-.55,1.32-1.37,1.32-2.28Z"/>
    </g>
  </g>
</svg>