<?xml version="1.0" encoding="UTF-8"?>
<svg id="katman_1" data-name="katman 1" xmlns="http://www.w3.org/2000/svg" viewBox="0 0 656.31 501.79">
  <defs>
    <style>
      .cls-1 {
        fill: #3c3c3b;
      }

      .cls-2 {
        stroke-width: 4px;
      }

      .cls-2, .cls-3, .cls-4, .cls-5 {
        fill: none;
        stroke: #ffd022;
        stroke-miterlimit: 10;
      }

      .cls-3 {
        stroke-width: 1.98px;
      }

      .cls-6 {
        fill: #878787;
      }

      .cls-4 {
        stroke-width: 2px;
      }

      .cls-5 {
        stroke-width: 2.01px;
      }

      .cls-7 {
        fill: #ffd022;
      }

      .cls-8 {
        fill: #e73447;
      }
    </style>
  </defs>
  <rect class="cls-4" x="295.09" y="102.49" width="176.37" height="319.74"/>
  <polygon class="cls-7" points="506.55 482.03 492.36 483.95 492.07 481.63 506.25 479.71 506.55 482.03"/>
  <polygon class="cls-7" points="506.04 478.48 491.83 477.01 492.09 474.69 506.3 476.15 506.04 478.48"/>
  <polygon class="cls-7" points="506.39 474.5 492.78 470.26 493.5 468.03 507.11 472.27 506.39 474.5"/>
  <polygon class="cls-7" points="507.88 471.06 496.68 462.23 498.15 460.4 509.35 469.23 507.88 471.06"/>
  <polygon class="cls-7" points="510.57 468.32 502.34 456.68 504.27 455.35 512.49 466.99 510.57 468.32"/>
  <polygon class="cls-7" points="514.19 466.63 509.39 453.2 511.61 452.44 516.41 465.86 514.19 466.63"/>
  <g>
    <polygon class="cls-7" points="525.93 471.83 539.82 468.37 540.37 470.64 526.48 474.1 525.93 471.83"/>
    <polygon class="cls-7" points="526.83 475.3 541.11 475.21 541.1 477.55 526.82 477.64 526.83 475.3"/>
    <polygon class="cls-7" points="526.9 479.3 540.89 482.03 540.42 484.33 526.43 481.59 526.9 479.3"/>
    <polygon class="cls-7" points="525.8 482.88 537.89 490.43 536.63 492.41 524.54 484.85 525.8 482.88"/>
    <polygon class="cls-7" points="523.43 485.89 532.87 496.56 531.1 498.1 521.65 487.42 523.43 485.89"/>
    <polygon class="cls-7" points="520.01 487.97 526.24 500.79 524.12 501.79 517.89 488.97 520.01 487.97"/>
  </g>
  <g>
    <path class="cls-8" d="M515.25,477.86v.43s-.53,0-.53,0v.24s.44-.02.44-.02v.41s-.43.01-.43.01l.02.5-.49.03v-1.56s.98-.04.98-.04Z"/>
    <path class="cls-8" d="M515.94,477.89v1.52s-.48.03-.48.03l-.02-1.53.5-.02Z"/>
    <path class="cls-8" d="M516.75,478.94l-.08.02.02.48h-.48s-.02-1.51-.02-1.51l.74-.04.37.06.04.82-.16.08.3.43-.44.2-.29-.54ZM516.63,478.61l.25-.02v-.32s-.26,0-.26,0v.34Z"/>
    <path class="cls-8" d="M518.54,479.43h-.97s0-1.46,0-1.46l.09-.06.84-.02v.39s-.48,0-.48,0v.2s.35,0,.35,0v.36s-.38,0-.38,0v.21s.55-.01.55-.01v.4Z"/>
    <path class="cls-8" d="M514.45,480.34h-.3s0-.45,0-.45l.03-.02h.26s0,.11,0,.11h-.14s0,.06,0,.06h.11s0,.11,0,.11h-.11s0,.06,0,.06h.17s0,.12,0,.12Z"/>
    <path class="cls-8" d="M514.69,480.18l-.04.03v.12s-.17,0-.17,0l.03-.19.08-.05-.08-.05v-.17s.14,0,.14,0v.12s.04.04.04.04l.03-.03v-.12s.15,0,.15,0l-.02.17-.07.05.07.05.03.19h-.16s0-.11,0-.11l-.04-.03Z"/>
    <path class="cls-8" d="M515.27,480h-.12s.02.33.02.33h-.15s0-.33,0-.33h-.11s0-.13,0-.13h.35s0,.13,0,.13Z"/>
    <path class="cls-8" d="M515.47,479.87v.46s-.15,0-.15,0v-.47s.15,0,.15,0Z"/>
    <path class="cls-8" d="M515.92,480.33h-.14s0-.14,0-.14l-.1-.13v.26s-.14,0-.14,0v-.45s.13-.01.13-.01l.11.15v-.15s.14,0,.14,0v.46Z"/>
    <path class="cls-8" d="M516.07,479.87h.26s0,.13,0,.13h-.18v.2h.07s0-.12,0-.12h.14s-.01.26-.01.26h-.33s-.02-.38-.02-.38l.07-.09Z"/>
    <path class="cls-8" d="M516.77,479.87l.02.41-.06.05h-.29s-.03-.02-.03-.02v-.43s.14,0,.14,0v.31s.1-.01.1-.01v-.31s.13,0,.13,0Z"/>
    <path class="cls-8" d="M517,479.87v.46s-.15,0-.15,0v-.47s.15,0,.15,0Z"/>
    <path class="cls-8" d="M517.37,479.86v.13s-.14,0-.14,0v.03s.15.07.15.07v.23s-.3.03-.3.03v-.15s.15,0,.15,0v-.04s-.16-.09-.16-.09v-.19s.14-.01.14-.01h.16Z"/>
    <path class="cls-8" d="M517.67,480.16h-.09s0,.16,0,.16h-.14v-.45s.14,0,.14,0v.17s.09,0,.09,0v-.18s.15,0,.15,0v.48s-.15,0-.15,0v-.18Z"/>
    <path class="cls-8" d="M518.19,480.34h-.3s0-.45,0-.45l.03-.02h.26s0,.11,0,.11h-.14s0,.06,0,.06h.11s0,.11,0,.11h-.11s0,.06,0,.06h.17s0,.12,0,.12Z"/>
    <path class="cls-8" d="M518.42,480.19h-.02s0,.15,0,.15h-.15s0-.46,0-.46h.23s.11,0,.11,0v.25s-.04.03-.04.03l.09.13-.13.06-.09-.17ZM518.38,480.09h.08s0-.1,0-.1h-.08s0,.1,0,.1Z"/>
  </g>
  <path class="cls-8" d="M512.36,483.19l3.88,2.89c.06.05.15.05.21,0l3.88-2.89c.06-.04.08-.12.06-.19-.02-.07-.09-.12-.16-.12h-1.74v-1.79c0-.1-.08-.17-.17-.17h-3.93c-.1,0-.17.08-.17.17v1.79h-1.74c-.07,0-.14.05-.16.12-.02.07,0,.15.06.19Z"/>
  <path class="cls-8" d="M523.41,472.63s-.08-.05-.14-.05c-.02,0-.03,0-.05,0l-3.1.66c-.05,0-.09.03-.12.08-.03.04-.05.09-.05.14h-3.38c.06-.14.1-.29.1-.44,0-.3-.11-.57-.33-.78-.22-.22-.48-.33-.78-.33s-.57.11-.78.33c-.22.22-.33.48-.33.78,0,.2.06.4.17.6-.26.08-.51.2-.75.36-.24.16-.44.31-.59.46-.15.15-.29.31-.42.48-.13.17-.22.3-.26.37-.04.07-.08.13-.1.18-.06.11-.06.22-.02.34.04.12.11.2.22.26.06.03.13.05.2.05.18,0,.32-.08.39-.24.02-.04.05-.09.1-.17.05-.08.14-.2.28-.37.14-.17.29-.32.46-.46.16-.14.38-.26.63-.37.26-.11.52-.16.8-.16h.22v.77c-.46.14-.83.4-1.12.79-.29.39-.43.83-.43,1.32v.07h4.43v-.07c0-.53-.17-1-.5-1.41-.33-.41-.76-.66-1.27-.77v-.71h3.06c0,.05.02.1.05.14.03.04.07.07.12.08l3.1.66s.03,0,.05,0c.06,0,.1-.02.14-.05.06-.04.08-.1.08-.17v-2.22c0-.07-.03-.13-.08-.17ZM515.87,473.34c-.09.09-.19.13-.31.13s-.22-.04-.31-.13c-.09-.09-.13-.19-.13-.31s.04-.22.13-.31c.09-.09.19-.13.31-.13s.22.04.31.13c.09.09.13.19.13.31s-.04.22-.13.31Z"/>
  <g>
    <path class="cls-7" d="M27.92,164.08H.45v-19.22h3.7v14.37h8.25v-12.37h3.66v12.37h11.87v4.85Z"/>
    <path class="cls-7" d="M27.92,140.15H.45v-4.85h23.73v-13.99h3.74v18.84Z"/>
    <path class="cls-7" d="M8.57,94.9h11.21c6.42,0,8.57,5.42,8.57,11.66s-2.15,11.66-8.57,11.66h-11.21c-6.42,0-8.57-5.47-8.57-11.66s2.15-11.66,8.57-11.66ZM9.59,113.36h9.14c4.59,0,5.81-2.81,5.81-6.8s-1.22-6.8-5.81-6.8h-9.14c-4.55,0-5.77,2.81-5.77,6.8s1.22,6.8,5.77,6.8Z"/>
    <path class="cls-7" d="M8.57,64.55h11.21c6.42,0,8.57,5.42,8.57,11.66s-2.15,11.66-8.57,11.66h-11.21c-6.42,0-8.57-5.47-8.57-11.66s2.15-11.66,8.57-11.66ZM9.59,83.01h9.14c4.59,0,5.81-2.81,5.81-6.8s-1.22-6.8-5.81-6.8h-9.14c-4.55,0-5.77,2.81-5.77,6.8s1.22,6.8,5.77,6.8Z"/>
    <path class="cls-7" d="M27.92,38.77l-11.54,6.85v7.04h11.54v4.85H.45v-14.46c0-3.95,2.72-6.85,6.1-6.85h3.74c2.64,0,4.88,1.76,5.73,4.42l11.91-7.14v5.28ZM7.52,41.05c-2.28,0-3.37,1.14-3.37,4.14v7.47h8.53v-7.47c0-3-1.1-4.14-3.37-4.14h-1.79Z"/>
    <path class="cls-7" d="M19.02,20.08h-4.31c-5.24,0-6.58-5.23-6.58-10.04S9.47,0,14.71,0h13.61c6.38,0,8.17,4.09,8.17,10.42,0,1.86-.33,5.9-.53,8.47h-3.9s.61-6.61.61-8.04c0-5.42-1.75-5.99-4.63-5.99h-2.89c.61,1.67.85,2.95.85,5.95,0,7.09-2.8,9.28-6.99,9.28ZM15.4,4.85c-2.64,0-3.7,1.81-3.7,5.19s1.06,5.19,3.7,5.19h3.09c2.72,0,3.62-1.14,3.62-4.52,0-2.76-.85-5.85-.85-5.85h-5.85Z"/>
  </g>
  <path class="cls-7" d="M606.5,300.2v119.06h-131.05v-119.06h131.05M610.5,296.2h-139.05v127.06h139.05v-127.06h0Z"/>
  <g>
    <path class="cls-1" d="M504.59,352.68c1.68,0,3.43,1.04,4.39,2.62l-1.43,1.27c-.92-1.12-1.84-1.61-2.86-1.61-1.8,0-3.35,1.82-3.35,4.78s1.55,4.76,3.35,4.76c1.02,0,1.94-.47,2.86-1.61l1.43,1.27c-.96,1.57-2.72,2.62-4.39,2.62-3.43,0-5.74-3.17-5.74-7.03s2.31-7.05,5.74-7.05Z"/>
    <path class="cls-1" d="M514.96,366.54h-2.27v-8.62c0-3.37,2.04-5.23,4.54-5.23s4.56,1.86,4.56,5.23v8.62h-2.27v-4.54h-4.56v4.54ZM519.52,357.91c0-2-1.04-2.96-2.29-2.96s-2.27.96-2.27,2.96v1.82h4.56v-1.82Z"/>
    <path class="cls-1" d="M533.37,352.91h2.04v13.63h-1.72l-5.33-8.7v8.7h-2.04v-13.63h1.7l5.35,8.7v-8.7Z"/>
    <path class="cls-1" d="M538.35,355.18v-2.27h9.99v2.27h-3.86v11.36h-2.27v-11.36h-3.86Z"/>
    <path class="cls-1" d="M551.3,352.91h6.8v2.27h-4.54v2.74h4.54v2.27h-4.54v4.09h4.54v2.27h-6.8v-13.63Z"/>
    <path class="cls-1" d="M562.66,352.91h6.8v2.27h-4.54v2.74h4.54v2.27h-4.54v4.09h4.54v2.27h-6.8v-13.63Z"/>
    <path class="cls-1" d="M581.07,352.91h2.04v13.63h-1.72l-5.33-8.7v8.7h-2.04v-13.63h1.7l5.35,8.7v-8.7Z"/>
  </g>
  <rect class="cls-3" x="158.01" y="296.03" width="137.08" height="126.21"/>
  <rect class="cls-4" x="158.01" y="168.25" width="137.08" height="0"/>
  <rect class="cls-5" x="471.45" y="102.49" width="139.05" height="67.76"/>
  <g>
    <path class="cls-1" d="M308.07,58.89h-2.29v-2.27h4.56v6.8h-.7l-.47-.84c-.84.67-1.86,1.06-2.86,1.06-3.29,0-5.52-3.17-5.52-7.03s2.23-7.05,5.52-7.05c1.61,0,3.29,1.04,4.21,2.62l-1.35,1.27c-.88-1.12-1.76-1.61-2.72-1.61-1.72,0-3.17,1.82-3.17,4.78s1.45,4.76,3.17,4.76c.55,0,1.08-.16,1.61-.53v-1.96Z"/>
    <path class="cls-1" d="M316.92,63.43h-2.27v-8.62c0-3.37,2.04-5.23,4.54-5.23s4.56,1.86,4.56,5.23v8.62h-2.27v-4.54h-4.56v4.54ZM321.47,54.81c0-2-1.04-2.96-2.29-2.96s-2.27.96-2.27,2.96v1.82h4.56v-1.82Z"/>
    <path class="cls-1" d="M330.54,61.16h3.86v2.27h-6.13v-13.63h2.27v11.36Z"/>
    <path class="cls-1" d="M339.61,63.43h-2.27v-8.62c0-3.37,2.04-5.23,4.54-5.23s4.56,1.86,4.56,5.23v8.62h-2.27v-4.54h-4.56v4.54ZM344.17,54.81c0-2-1.04-2.96-2.29-2.96s-2.27.96-2.27,2.96v1.82h4.56v-1.82Z"/>
    <path class="cls-1" d="M349.37,52.07v-2.27h9.99v2.27h-3.86v11.36h-2.27v-11.36h-3.86Z"/>
    <path class="cls-1" d="M364.59,63.43h-2.27v-8.62c0-3.37,2.04-5.23,4.54-5.23s4.56,1.86,4.56,5.23v8.62h-2.27v-4.54h-4.56v4.54ZM369.15,54.81c0-2-1.04-2.96-2.29-2.96s-2.27.96-2.27,2.96v1.82h4.56v-1.82Z"/>
    <path class="cls-1" d="M381.16,52.07v-2.27h9.99v2.27h-3.86v11.36h-2.27v-11.36h-3.86Z"/>
    <path class="cls-1" d="M394.11,49.8h6.8v2.27h-4.54v2.74h4.54v2.27h-4.54v4.09h4.54v2.27h-6.8v-13.63Z"/>
    <path class="cls-1" d="M415.58,63.43h-2.78l-3.27-4.54h-1.8v4.54h-2.27v-13.63h4.43c2.49,0,4.54,2.04,4.54,4.56,0,1.74-1,3.29-2.47,4.02l3.62,5.05ZM412.17,54.36c0-1.27-1.02-2.29-2.27-2.29h-2.17v4.56h2.17c1.25,0,2.27-1.02,2.27-2.27Z"/>
    <path class="cls-1" d="M429.21,63.43h-2.78l-3.27-4.54h-1.8v4.54h-2.27v-13.63h4.43c2.49,0,4.54,2.04,4.54,4.56,0,1.74-1,3.29-2.47,4.02l3.62,5.05ZM425.8,54.36c0-1.27-1.02-2.29-2.27-2.29h-2.17v4.56h2.17c1.25,0,2.27-1.02,2.27-2.27Z"/>
    <path class="cls-1" d="M434.99,63.43h-2.27v-8.62c0-3.37,2.04-5.23,4.54-5.23s4.56,1.86,4.56,5.23v8.62h-2.27v-4.54h-4.55v4.54ZM439.54,54.81c0-2-1.04-2.96-2.29-2.96s-2.27.96-2.27,2.96v1.82h4.55v-1.82Z"/>
    <path class="cls-1" d="M451.86,49.58c1.68,0,3.43,1.04,4.39,2.62l-1.43,1.27c-.92-1.12-1.84-1.61-2.86-1.61-1.8,0-3.35,1.82-3.35,4.78s1.55,4.76,3.35,4.76c1.02,0,1.94-.47,2.86-1.61l1.43,1.27c-.96,1.57-2.72,2.62-4.39,2.62-3.43,0-5.74-3.17-5.74-7.03s2.31-7.05,5.74-7.05Z"/>
    <path class="cls-1" d="M459.97,49.8h6.8v2.27h-4.54v2.74h4.54v2.27h-4.54v4.09h4.54v2.27h-6.8v-13.63Z"/>
  </g>
  <rect class="cls-6" x="292.18" y="455.83" width="83.77" height="30.38"/>
  <rect class="cls-6" x="390.59" y="455.9" width="83.77" height="30.38"/>
  <g>
    <rect class="cls-7" x="216.51" y="437.83" width="12.79" height="9.67"/>
    <rect class="cls-7" x="242.09" y="457.17" width="12.79" height="9.67"/>
    <rect class="cls-7" x="229.3" y="447.5" width="12.79" height="9.67"/>
    <rect class="cls-7" x="254.87" y="466.84" width="12.79" height="9.67"/>
    <rect class="cls-7" x="267.44" y="476.34" width="12.79" height="9.67"/>
    <rect class="cls-7" x="216.51" y="447.5" width="25.57" height="38.51"/>
    <rect class="cls-7" x="242.09" y="466.84" width="12.79" height="19.17"/>
    <rect class="cls-7" x="254.87" y="476.51" width="12.57" height="9.5"/>
  </g>
  <polygon class="cls-2" points="113.3 296.03 113.3 10.8 654.31 10.8 654.31 296.03 610.51 296.03 610.51 101.26 158.01 101.26 158.01 296.03 113.3 296.03 113.3 296.03"/>
</svg>