<?xml version="1.0" encoding="UTF-8"?>
<svg id="katman_1" data-name="katman 1" xmlns="http://www.w3.org/2000/svg" viewBox="0 0 841.89 595.28">
  <defs>
    <style>
      .cls-1 {
        fill: #3c3c3b;
      }

      .cls-2 {
        stroke-width: 3.01px;
      }

      .cls-2, .cls-3, .cls-4, .cls-5 {
        fill: none;
      }

      .cls-2, .cls-3, .cls-4, .cls-5, .cls-6 {
        stroke: #ffd022;
        stroke-miterlimit: 10;
      }

      .cls-7 {
        fill: #e52629;
      }

      .cls-3 {
        stroke-width: 1.97px;
      }

      .cls-8 {
        fill: #878787;
      }

      .cls-4 {
        stroke-width: 2.01px;
      }

      .cls-5 {
        stroke-width: 2.01px;
      }

      .cls-6 {
        fill: #fff;
        stroke-width: 2.02px;
      }

      .cls-9 {
        fill: #ffd022;
      }
    </style>
  </defs>
  <rect class="cls-6" x="339.72" y="163.29" width="180.39" height="319.74"/>
  <g>
    <path class="cls-9" d="M76.4,222.39h-27.47v-19.22h3.7v14.37h8.25v-12.37h3.66v12.37h11.87v4.85Z"/>
    <path class="cls-9" d="M76.4,198.46h-27.47v-4.85h23.73v-13.99h3.74v18.84Z"/>
    <path class="cls-9" d="M57.06,153.22h11.21c6.42,0,8.57,5.42,8.57,11.66s-2.15,11.66-8.57,11.66h-11.21c-6.42,0-8.57-5.47-8.57-11.66s2.15-11.66,8.57-11.66ZM58.07,171.68h9.14c4.59,0,5.81-2.81,5.81-6.8s-1.22-6.8-5.81-6.8h-9.14c-4.55,0-5.77,2.81-5.77,6.8s1.22,6.8,5.77,6.8Z"/>
    <path class="cls-9" d="M57.06,122.87h11.21c6.42,0,8.57,5.42,8.57,11.66s-2.15,11.66-8.57,11.66h-11.21c-6.42,0-8.57-5.47-8.57-11.66s2.15-11.66,8.57-11.66ZM58.07,141.33h9.14c4.59,0,5.81-2.81,5.81-6.8s-1.22-6.8-5.81-6.8h-9.14c-4.55,0-5.77,2.81-5.77,6.8s1.22,6.8,5.77,6.8Z"/>
    <path class="cls-9" d="M76.4,97.08l-11.54,6.85v7.04h11.54v4.85h-27.47v-14.46c0-3.95,2.72-6.85,6.1-6.85h3.74c2.64,0,4.88,1.76,5.73,4.42l11.91-7.14v5.28ZM56,99.37c-2.28,0-3.37,1.14-3.37,4.14v7.47h8.53v-7.47c0-3-1.1-4.14-3.37-4.14h-1.79Z"/>
    <path class="cls-9" d="M67.5,78.39h-4.31c-5.24,0-6.58-5.23-6.58-10.04s1.34-10.04,6.58-10.04h13.61c6.38,0,8.17,4.09,8.17,10.42,0,1.86-.33,5.9-.53,8.47h-3.9s.61-6.61.61-8.04c0-5.42-1.75-5.99-4.63-5.99h-2.89c.61,1.67.85,2.95.85,5.95,0,7.09-2.8,9.28-6.99,9.28ZM63.88,63.17c-2.64,0-3.7,1.81-3.7,5.19s1.06,5.19,3.7,5.19h3.09c2.72,0,3.62-1.14,3.62-4.52,0-2.76-.85-5.85-.85-5.85h-5.85Z"/>
  </g>
  <rect class="cls-4" x="205.83" y="357.71" width="133.74" height="125.28"/>
  <rect class="cls-3" x="206.66" y="229.05" width="132.92" height="0"/>
  <rect class="cls-5" x="520.11" y="163.29" width="139.05" height="67.76"/>
  <g>
    <rect class="cls-8" x="339.72" y="529.54" width="83.77" height="30.38"/>
    <rect class="cls-8" x="438.13" y="529.61" width="83.77" height="30.38"/>
    <g>
      <polygon class="cls-9" points="531.47 546.77 531.77 549.09 545.95 547.16 545.66 544.85 531.47 546.77"/>
      <polygon class="cls-9" points="545.71 541.29 531.5 539.82 531.23 542.15 545.44 543.62 545.71 541.29"/>
      <polygon class="cls-9" points="532.19 535.39 545.8 539.63 546.52 537.4 532.91 533.16 532.19 535.39"/>
      <polygon class="cls-9" points="536.09 527.37 547.28 536.19 548.76 534.37 537.56 525.54 536.09 527.37"/>
      <polygon class="cls-9" points="541.75 521.82 549.97 533.46 551.9 532.12 543.67 520.48 541.75 521.82"/>
      <polygon class="cls-9" points="548.8 518.34 553.6 531.76 555.81 531 551.02 517.57 548.8 518.34"/>
      <polygon class="cls-9" points="579.78 535.78 579.23 533.51 565.34 536.96 565.89 539.23 579.78 535.78"/>
      <polygon class="cls-9" points="566.23 540.44 566.22 542.78 580.51 542.69 580.52 540.35 566.23 540.44"/>
      <polygon class="cls-9" points="565.84 546.73 579.83 549.46 580.3 547.17 566.31 544.43 565.84 546.73"/>
      <polygon class="cls-9" points="563.95 549.99 576.03 557.55 577.3 555.57 565.21 548.01 563.95 549.99"/>
      <polygon class="cls-9" points="561.06 552.56 570.51 563.24 572.28 561.7 562.83 551.03 561.06 552.56"/>
      <polygon class="cls-9" points="557.3 554.11 563.53 566.93 565.65 565.93 559.42 553.1 557.3 554.11"/>
    </g>
    <g>
      <path class="cls-7" d="M554.66,543v.43s-.53,0-.53,0v.24s.44-.02.44-.02v.41s-.43.01-.43.01l.02.5-.49.03v-1.56s.98-.04.98-.04Z"/>
      <path class="cls-7" d="M555.35,543.03v1.52s-.48.03-.48.03l-.02-1.53.5-.02Z"/>
      <path class="cls-7" d="M556.16,544.08l-.08.02.02.48h-.48s-.02-1.51-.02-1.51l.74-.04.37.06.04.82-.16.08.3.43-.44.2-.29-.54ZM556.03,543.75l.25-.02v-.32s-.26,0-.26,0v.34Z"/>
      <path class="cls-7" d="M557.95,544.57h-.97s0-1.46,0-1.46l.09-.06.84-.02v.39s-.48,0-.48,0v.2s.35,0,.35,0v.36s-.38,0-.38,0v.21s.55-.01.55-.01v.4Z"/>
      <path class="cls-7" d="M553.86,545.47h-.3s0-.45,0-.45l.03-.02h.26s0,.11,0,.11h-.14s0,.06,0,.06h.11s0,.11,0,.11h-.11s0,.06,0,.06h.17s0,.12,0,.12Z"/>
      <path class="cls-7" d="M554.09,545.32l-.04.03v.12s-.17,0-.17,0l.03-.19.08-.05-.08-.05v-.17s.14,0,.14,0v.12s.04.04.04.04l.03-.03v-.12s.15,0,.15,0l-.02.17-.07.05.07.05.03.19h-.16s0-.11,0-.11l-.04-.03Z"/>
      <path class="cls-7" d="M554.68,545.13h-.12s.02.33.02.33h-.15s0-.33,0-.33h-.11s0-.13,0-.13h.35s0,.13,0,.13Z"/>
      <path class="cls-7" d="M554.87,545v.46s-.15,0-.15,0v-.47s.15,0,.15,0Z"/>
      <path class="cls-7" d="M555.33,545.47h-.14s0-.14,0-.14l-.1-.13v.26s-.14,0-.14,0v-.45s.13-.01.13-.01l.11.15v-.15s.14,0,.14,0v.46Z"/>
      <path class="cls-7" d="M555.47,545.01h.26s0,.13,0,.13h-.18v.2h.07s0-.12,0-.12h.14s-.01.26-.01.26h-.33s-.02-.38-.02-.38l.07-.09Z"/>
      <path class="cls-7" d="M556.18,545.01l.02.41-.06.05h-.29s-.03-.02-.03-.02v-.43s.14,0,.14,0v.31s.1-.01.1-.01v-.31s.13,0,.13,0Z"/>
      <path class="cls-7" d="M556.41,545v.46s-.15,0-.15,0v-.47s.15,0,.15,0Z"/>
      <path class="cls-7" d="M556.77,545v.13s-.14,0-.14,0v.03s.15.07.15.07v.23s-.3.03-.3.03v-.15s.15,0,.15,0v-.04s-.16-.09-.16-.09v-.19s.14-.01.14-.01h.16Z"/>
      <path class="cls-7" d="M557.08,545.3h-.09s0,.16,0,.16h-.14v-.45s.14,0,.14,0v.17s.09,0,.09,0v-.18s.15,0,.15,0v.48s-.15,0-.15,0v-.18Z"/>
      <path class="cls-7" d="M557.6,545.47h-.3s0-.45,0-.45l.03-.02h.26s0,.11,0,.11h-.14s0,.06,0,.06h.11s0,.11,0,.11h-.11s0,.06,0,.06h.17s0,.12,0,.12Z"/>
      <path class="cls-7" d="M557.82,545.32h-.02s0,.15,0,.15h-.15s0-.46,0-.46h.23s.11,0,.11,0v.25s-.04.03-.04.03l.09.13-.13.06-.09-.17ZM557.79,545.22h.08s0-.1,0-.1h-.08s0,.1,0,.1Z"/>
    </g>
    <path class="cls-7" d="M551.76,548.33l3.88,2.89c.06.05.15.05.21,0l3.88-2.89c.06-.04.08-.12.06-.19-.02-.07-.09-.12-.16-.12h-1.74v-1.79c0-.1-.08-.17-.17-.17h-3.93c-.1,0-.17.08-.17.17v1.79h-1.74c-.07,0-.14.05-.16.12-.02.07,0,.15.06.19Z"/>
    <path class="cls-7" d="M562.81,537.77s-.08-.05-.14-.05c-.02,0-.03,0-.05,0l-3.1.66c-.05,0-.09.03-.12.08-.03.04-.05.09-.05.14h-3.38c.06-.14.1-.29.1-.44,0-.3-.11-.57-.33-.78-.22-.22-.48-.33-.78-.33s-.57.11-.78.33c-.22.22-.33.48-.33.78,0,.2.06.4.17.6-.26.08-.51.2-.75.36-.24.16-.44.31-.59.46-.15.15-.29.31-.42.48-.13.17-.22.3-.26.37-.04.07-.08.13-.1.18-.06.11-.06.22-.02.34.04.12.11.2.22.26.06.03.13.05.2.05.18,0,.32-.08.39-.24.02-.04.05-.09.1-.17.05-.08.14-.2.28-.37.14-.17.29-.32.46-.46.16-.14.38-.26.63-.37.26-.11.52-.16.8-.16h.22v.77c-.46.14-.83.4-1.12.79-.29.39-.43.83-.43,1.32v.07h4.43v-.07c0-.53-.17-1-.5-1.41-.33-.41-.76-.66-1.27-.77v-.71h3.06c0,.05.02.1.05.14.03.04.07.07.12.08l3.1.66s.03,0,.05,0c.06,0,.1-.02.14-.05.06-.04.08-.1.08-.17v-2.22c0-.07-.03-.13-.08-.17ZM555.28,538.48c-.09.09-.19.13-.31.13s-.22-.04-.31-.13c-.09-.09-.13-.19-.13-.31s.04-.22.13-.31c.09-.09.19-.13.31-.13s.22.04.31.13c.09.09.13.19.13.31s-.04.22-.13.31Z"/>
    <polygon class="cls-9" points="312.52 550.66 312.52 541.16 299.73 541.16 299.73 531.49 286.95 531.49 286.95 521.82 274.16 521.82 274.16 512.15 261.37 512.15 261.37 521.82 261.37 560.33 286.95 560.33 299.73 560.33 312.3 560.33 325.08 560.33 325.08 550.66 312.52 550.66"/>
  </g>
  <g id="canteen">
    <path class="cls-9" d="M656.16,359.65v121.41h-133.83v-121.41h133.83M659.16,356.65h-139.83v127.41h139.83v-127.41h0Z"/>
    <g>
      <path class="cls-1" d="M549.51,414.17c1.72,0,3.53,1.07,4.51,2.69l-1.47,1.3c-.95-1.16-1.89-1.66-2.94-1.66-1.85,0-3.44,1.87-3.44,4.91s1.6,4.89,3.44,4.89c1.05,0,1.99-.48,2.94-1.66l1.47,1.3c-.99,1.62-2.79,2.69-4.51,2.69-3.53,0-5.9-3.25-5.9-7.22s2.37-7.24,5.9-7.24Z"/>
      <path class="cls-1" d="M566.39,428.41l-.88-1.66c-.88,1.18-2.1,1.89-3.51,1.89-2.62,0-4.66-2.54-4.7-5.71-.04-3.17,2.08-5.71,4.7-5.71,1.41,0,2.62.71,3.51,1.89l.88-1.66h.8v10.96h-.8ZM562.3,419.4c-1.43,0-2.56,1.6-2.56,3.53s1.13,3.53,2.56,3.53,2.56-1.6,2.56-3.53-1.13-3.53-2.56-3.53Z"/>
      <path class="cls-1" d="M579.1,428.41v-5.9c0-2-1.09-3.04-2.35-3.04s-2.56,1.15-2.56,2.58v6.36h-2.33v-10.96h.8l.88,1.6c.78-1.09,2.23-1.83,3.59-1.83,2.41,0,4.3,1.99,4.3,5.23v5.96h-2.33Z"/>
      <path class="cls-1" d="M585.4,419.78v-2.33h2.1v-3.97h2.33v3.97h3.51v2.33h-3.51v4.58c0,1.66.78,2.29,1.72,2.29.5,0,.88-.15,1.34-.34l.27,1.43c-.61.52-1.36.88-2.2.88-1.93,0-3.46-1.68-3.46-4.37v-4.47h-2.1Z"/>
      <path class="cls-1" d="M602.81,426.45c1.24,0,2.2-.74,2.81-1.26l1.22,1.47c-.9,1.11-2.52,1.97-4.24,1.97-3.55,0-5.65-2.54-5.65-5.67s2.18-5.75,5.4-5.75,5.4,2.64,4.83,5.98h-7.68c-.11,1.49,1.03,3.25,3.32,3.25ZM604.66,421.27c0-1.07-.84-1.87-2.29-1.87-.94,0-2.06.46-2.56,1.87h4.85Z"/>
      <path class="cls-1" d="M616.82,426.45c1.24,0,2.2-.74,2.81-1.26l1.22,1.47c-.9,1.11-2.52,1.97-4.24,1.97-3.55,0-5.65-2.54-5.65-5.67s2.18-5.75,5.4-5.75,5.4,2.64,4.83,5.98h-7.68c-.11,1.49,1.03,3.25,3.32,3.25ZM618.66,421.27c0-1.07-.84-1.87-2.29-1.87-.94,0-2.06.46-2.56,1.87h4.85Z"/>
      <path class="cls-1" d="M632.8,428.41v-5.9c0-2-1.09-3.04-2.35-3.04s-2.56,1.15-2.56,2.58v6.36h-2.33v-10.96h.8l.88,1.6c.78-1.09,2.23-1.83,3.59-1.83,2.41,0,4.3,1.99,4.3,5.23v5.96h-2.33Z"/>
    </g>
  </g>
  <g id="galataterrace">
    <polygon class="cls-2" points="160.61 358.15 160.61 71.6 703.04 71.6 703.04 358.15 659.12 358.15 659.12 162.48 205.44 162.48 205.44 358.15 160.61 358.15 160.61 358.15"/>
  </g>
  <g>
    <path class="cls-1" d="M358.47,116h-2.35v-2.33h4.68v6.99h-.71l-.48-.86c-.86.69-1.91,1.09-2.94,1.09-3.38,0-5.67-3.25-5.67-7.22s2.29-7.24,5.67-7.24c1.66,0,3.38,1.07,4.33,2.69l-1.39,1.3c-.9-1.16-1.81-1.66-2.79-1.66-1.76,0-3.25,1.87-3.25,4.91s1.49,4.89,3.25,4.89c.57,0,1.11-.17,1.66-.55v-2.02Z"/>
    <path class="cls-1" d="M373.78,120.66l-.88-1.66c-.88,1.18-2.1,1.89-3.51,1.89-2.62,0-4.66-2.54-4.7-5.71-.04-3.17,2.08-5.71,4.7-5.71,1.41,0,2.62.71,3.51,1.89l.88-1.66h.8v10.96h-.8ZM369.69,111.66c-1.43,0-2.56,1.6-2.56,3.53s1.13,3.53,2.56,3.53,2.56-1.6,2.56-3.53-1.13-3.53-2.56-3.53Z"/>
    <path class="cls-1" d="M379.24,104.33h2.33v16.33h-2.33v-16.33Z"/>
    <path class="cls-1" d="M394.78,120.66l-.88-1.66c-.88,1.18-2.1,1.89-3.51,1.89-2.62,0-4.66-2.54-4.7-5.71-.04-3.17,2.08-5.71,4.7-5.71,1.41,0,2.62.71,3.51,1.89l.88-1.66h.8v10.96h-.8ZM390.69,111.66c-1.43,0-2.56,1.6-2.56,3.53s1.13,3.53,2.56,3.53,2.56-1.6,2.56-3.53-1.13-3.53-2.56-3.53Z"/>
    <path class="cls-1" d="M399.78,112.03v-2.33h2.1v-3.97h2.33v3.97h3.51v2.33h-3.51v4.58c0,1.66.78,2.29,1.72,2.29.5,0,.88-.15,1.34-.34l.27,1.43c-.61.52-1.36.88-2.2.88-1.93,0-3.46-1.68-3.46-4.37v-4.47h-2.1Z"/>
    <path class="cls-1" d="M420.46,120.66l-.88-1.66c-.88,1.18-2.1,1.89-3.51,1.89-2.62,0-4.66-2.54-4.7-5.71-.04-3.17,2.08-5.71,4.7-5.71,1.41,0,2.62.71,3.51,1.89l.88-1.66h.8v10.96h-.8ZM416.37,111.66c-1.43,0-2.56,1.6-2.56,3.53s1.13,3.53,2.56,3.53,2.56-1.6,2.56-3.53-1.13-3.53-2.56-3.53Z"/>
    <path class="cls-1" d="M431.28,108.99v-2.33h10.27v2.33h-3.97v11.67h-2.33v-11.67h-3.97Z"/>
    <path class="cls-1" d="M449.86,118.71c1.24,0,2.2-.74,2.81-1.26l1.22,1.47c-.9,1.11-2.52,1.97-4.24,1.97-3.55,0-5.65-2.54-5.65-5.67s2.18-5.75,5.4-5.75,5.4,2.64,4.83,5.98h-7.68c-.11,1.49,1.03,3.25,3.32,3.25ZM451.71,113.53c0-1.07-.84-1.87-2.29-1.87-.94,0-2.06.46-2.56,1.87h4.85Z"/>
    <path class="cls-1" d="M460.93,114.3v6.36h-2.33v-10.96h.8l.88,1.6c.78-1.09,2-1.83,3.36-1.83.21,0,.67.06.67.06v4.54h-.78l-1.16-2.16c-.84.4-1.45,1.32-1.45,2.39Z"/>
    <path class="cls-1" d="M470.26,114.3v6.36h-2.33v-10.96h.8l.88,1.6c.78-1.09,2-1.83,3.36-1.83.21,0,.67.06.67.06v4.54h-.78l-1.16-2.16c-.84.4-1.45,1.32-1.45,2.39Z"/>
    <path class="cls-1" d="M485.79,120.66l-.88-1.66c-.88,1.18-2.1,1.89-3.51,1.89-2.62,0-4.66-2.54-4.7-5.71-.04-3.17,2.08-5.71,4.7-5.71,1.41,0,2.62.71,3.51,1.89l.88-1.66h.8v10.96h-.8ZM481.7,111.66c-1.43,0-2.56,1.6-2.56,3.53s1.13,3.53,2.56,3.53,2.56-1.6,2.56-3.53-1.13-3.53-2.56-3.53Z"/>
    <path class="cls-1" d="M498.23,112.83c-.55-.8-1.49-1.18-2.33-1.18-1.51,0-2.75,1.49-2.75,3.53s1.24,3.53,2.75,3.53c.84,0,1.87-.34,2.33-1.18l1.39,1.18c-.9,1.32-2.33,2.18-3.93,2.18-2.77,0-4.98-2.54-4.98-5.71s2.2-5.71,4.98-5.71c1.6,0,3.02.86,3.95,2.18l-1.41,1.18Z"/>
    <path class="cls-1" d="M508.2,118.71c1.24,0,2.2-.74,2.81-1.26l1.22,1.47c-.9,1.11-2.52,1.97-4.24,1.97-3.55,0-5.65-2.54-5.65-5.67s2.18-5.75,5.4-5.75,5.4,2.64,4.83,5.98h-7.68c-.11,1.49,1.03,3.25,3.32,3.25ZM510.05,113.53c0-1.07-.84-1.87-2.29-1.87-.94,0-2.06.46-2.56,1.87h4.85Z"/>
  </g>
</svg>