<?xml version="1.0" encoding="UTF-8"?>
<svg id="katman_1" data-name="katman 1" xmlns="http://www.w3.org/2000/svg" viewBox="0 0 728.43 539.97">
  <defs>
    <style>
      .cls-1 {
        fill: #3c3c3b;
      }

      .cls-2 {
        fill: #e52629;
      }

      .cls-3 {
        stroke-width: 2px;
      }

      .cls-3, .cls-4, .cls-5 {
        fill: none;
        stroke: #618e3f;
        stroke-miterlimit: 10;
      }

      .cls-6 {
        fill: #dadada;
      }

      .cls-7 {
        fill: #fff;
      }

      .cls-8 {
        fill: #878787;
      }

      .cls-4 {
        stroke-width: 4.06px;
      }

      .cls-5 {
        stroke-width: 3px;
      }

      .cls-9 {
        fill: #618e3f;
      }
    </style>
  </defs>
  <rect class="cls-5" x="34.42" y="368.11" width="158.13" height="98.13"/>
  <rect class="cls-5" x="501.73" y="7.94" width="141.2" height="112.88"/>
  <rect class="cls-4" x="237.26" y="200.23" width="41.74" height="206.73"/>
  <rect class="cls-3" x="220.15" y="140.67" width="325.57" height="325.57"/>
  <g>
    <path class="cls-1" d="M55.09,427.22c-1.39,0-2.43-.44-3.62-1.37l.25-1.91c1.29.69,2.35,1.14,3.45,1.14.96,0,2.2-.52,2.2-1.56,0-2.45-6.07-1.5-6.07-5.8,0-2.23,1.96-3.77,4.24-3.77,1.44,0,2.43.5,3.75,1.54l-.67,1.69c-.91-.6-1.98-1.12-3-1.12-1.29,0-2.08.69-2.08,1.46,0,2.29,6.08,1.71,6.08,5.66,0,2.64-2.21,4.02-4.53,4.02Z"/>
    <path class="cls-1" d="M67.13,413.95c2.89,0,4.51,3,4.51,6.64s-1.62,6.62-4.51,6.62-4.49-2.98-4.49-6.62,1.6-6.64,4.49-6.64ZM67.13,425.08c1.44,0,2.23-2.04,2.23-4.49s-.79-4.51-2.23-4.51-2.21,2.04-2.21,4.51.79,4.49,2.21,4.49Z"/>
    <path class="cls-1" d="M82.34,414.16h1.93v12.84h-1.62l-5.03-8.2v8.2h-1.93v-12.84h1.6l5.04,8.2v-8.2Z"/>
    <path class="cls-1" d="M86.41,414.16h2.46l2.89,5.28,2.89-5.28h2.46l-4.29,7.7v5.14h-2.14v-5.14l-4.27-7.7Z"/>
    <path class="cls-1" d="M109.09,427.22h-.42l-5.14-13.06h2.31l3.04,7.76,3.04-7.76h2.31l-5.14,13.06Z"/>
    <path class="cls-1" d="M118.51,416.3h-2.14v-2.14h6.41v2.14h-2.14v8.57h2.14v2.14h-6.41v-2.14h2.14v-8.57Z"/>
    <path class="cls-1" d="M127.08,414.16h3c3.18,0,5.76,2.87,5.76,6.43s-2.58,6.41-5.76,6.41h-3v-12.84ZM129.22,424.87h.87c1.87,0,3.41-1.93,3.41-4.27s-1.54-4.29-3.41-4.29h-.87v8.57Z"/>
    <path class="cls-1" d="M139.93,414.16h6.41v2.14h-4.27v2.58h4.27v2.14h-4.27v3.85h4.27v2.14h-6.41v-12.84Z"/>
    <path class="cls-1" d="M154.92,413.95c2.89,0,4.51,3,4.51,6.64s-1.62,6.62-4.51,6.62-4.49-2.98-4.49-6.62,1.6-6.64,4.49-6.64ZM154.92,425.08c1.44,0,2.23-2.04,2.23-4.49s-.79-4.51-2.23-4.51-2.21,2.04-2.21,4.51.79,4.49,2.21,4.49Z"/>
    <path class="cls-1" d="M55.57,450.33h-.42l-5.14-13.06h2.31l3.04,7.76,3.04-7.76h2.31l-5.14,13.06Z"/>
    <path class="cls-1" d="M64.99,447.98h3.64v2.14h-5.78v-12.84h2.14v10.71Z"/>
    <path class="cls-1" d="M75.68,437.06c2.89,0,4.51,3,4.51,6.64s-1.62,6.62-4.51,6.62-4.49-2.99-4.49-6.62,1.6-6.64,4.49-6.64ZM75.68,448.19c1.44,0,2.23-2.04,2.23-4.49s-.79-4.51-2.23-4.51-2.21,2.04-2.21,4.51.79,4.49,2.21,4.49Z"/>
    <path class="cls-1" d="M90.89,445.84h-2.16v-2.14h4.29v6.41h-.65l-.44-.79c-.79.63-1.75,1-2.7,1-3.1,0-5.2-2.99-5.2-6.62s2.1-6.64,5.2-6.64c1.52,0,3.1.98,3.97,2.46l-1.27,1.19c-.83-1.06-1.66-1.52-2.56-1.52-1.62,0-2.98,1.71-2.98,4.51s1.37,4.49,2.98,4.49c.52,0,1.02-.15,1.52-.5v-1.85Z"/>
    <path class="cls-1" d="M105.65,447.98h3.64v2.14h-5.78v-12.84h2.14v10.71Z"/>
    <path class="cls-1" d="M114.2,450.12h-2.14v-8.13c0-3.18,1.93-4.93,4.27-4.93s4.29,1.75,4.29,4.93v8.13h-2.14v-4.28h-4.29v4.28ZM118.49,441.99c0-1.89-.98-2.79-2.16-2.79s-2.14.91-2.14,2.79v1.71h4.29v-1.71Z"/>
    <path class="cls-1" d="M124.91,437.27h4.49c1.89,0,3.43,1.54,3.43,3.43,0,.89-.27,1.54-.75,2.12.98.75,1.62,1.83,1.62,3.23,0,2.25-1.83,4.06-4.06,4.06h-4.72v-12.84ZM127.04,441.99h2.35c.71,0,1.29-.58,1.29-1.29s-.58-1.29-1.29-1.29h-2.35v2.58ZM127.04,447.98h2.58c1.06,0,1.93-.87,1.93-1.93s-.87-1.93-1.93-1.93h-2.58v3.85Z"/>
  </g>
  <g>
    <path class="cls-1" d="M543.7,40.4h3.28c3.46,0,6.28,3.13,6.28,7.01s-2.81,6.99-6.28,6.99h-3.28v-14ZM546.03,52.07h.95c2.04,0,3.72-2.1,3.72-4.66s-1.68-4.68-3.72-4.68h-.95v9.34Z"/>
    <path class="cls-1" d="M560.03,42.73h-2.33v-2.33h6.99v2.33h-2.33v9.34h2.33v2.33h-6.99v-2.33h2.33v-9.34Z"/>
    <path class="cls-1" d="M576.62,49.74h-2.35v-2.33h4.68v6.99h-.71l-.48-.86c-.86.69-1.91,1.09-2.94,1.09-3.38,0-5.67-3.25-5.67-7.22s2.29-7.24,5.67-7.24c1.66,0,3.38,1.07,4.33,2.69l-1.39,1.3c-.9-1.15-1.81-1.66-2.79-1.66-1.76,0-3.25,1.87-3.25,4.91s1.49,4.89,3.25,4.89c.57,0,1.11-.17,1.66-.55v-2.02Z"/>
    <path class="cls-1" d="M585.72,42.73h-2.33v-2.33h6.99v2.33h-2.33v9.34h2.33v2.33h-6.99v-2.33h2.33v-9.34Z"/>
    <path class="cls-1" d="M593.42,42.73v-2.33h10.27v2.33h-3.97v11.67h-2.33v-11.67h-3.97Z"/>
    <path class="cls-1" d="M609.07,54.4h-2.33v-8.86c0-3.46,2.1-5.38,4.66-5.38s4.68,1.91,4.68,5.38v8.86h-2.33v-4.66h-4.68v4.66ZM613.75,45.54c0-2.06-1.07-3.04-2.35-3.04s-2.33.99-2.33,3.04v1.87h4.68v-1.87Z"/>
    <path class="cls-1" d="M623.08,52.07h3.97v2.33h-6.3v-14h2.33v11.67Z"/>
    <path class="cls-1" d="M544.68,65.37c1.72,0,3.53,1.07,4.51,2.69l-1.47,1.3c-.94-1.16-1.89-1.66-2.94-1.66-1.85,0-3.44,1.87-3.44,4.91s1.6,4.89,3.44,4.89c1.05,0,2-.48,2.94-1.66l1.47,1.3c-.99,1.62-2.79,2.69-4.51,2.69-3.53,0-5.9-3.25-5.9-7.22s2.37-7.24,5.9-7.24Z"/>
    <path class="cls-1" d="M557.68,65.37c3.15,0,4.91,3.28,4.91,7.24s-1.76,7.22-4.91,7.22-4.89-3.25-4.89-7.22,1.74-7.24,4.89-7.24ZM557.68,77.5c1.57,0,2.44-2.23,2.44-4.89s-.86-4.91-2.44-4.91-2.41,2.23-2.41,4.91.86,4.89,2.41,4.89Z"/>
    <path class="cls-1" d="M574.27,65.6h2.1v14h-1.76l-5.48-8.94v8.94h-2.1v-14h1.74l5.5,8.95v-8.95Z"/>
    <path class="cls-1" d="M579.4,67.93v-2.33h10.27v2.33h-3.97v11.67h-2.33v-11.67h-3.97Z"/>
    <path class="cls-1" d="M592.71,65.6h6.99v2.33h-4.66v2.81h4.66v2.33h-4.66v4.2h4.66v2.33h-6.99v-14Z"/>
    <path class="cls-1" d="M611.63,65.6h2.1v14h-1.76l-5.48-8.94v8.94h-2.1v-14h1.74l5.5,8.95v-8.95Z"/>
    <path class="cls-1" d="M616.76,67.93v-2.33h10.27v2.33h-3.97v11.67h-2.33v-11.67h-3.97Z"/>
    <path class="cls-1" d="M556.23,105.03c-1.51,0-2.64-.48-3.95-1.49l.27-2.08c1.41.76,2.56,1.24,3.76,1.24,1.05,0,2.39-.57,2.39-1.7,0-2.67-6.61-1.64-6.61-6.32,0-2.44,2.14-4.12,4.62-4.12,1.58,0,2.65.55,4.09,1.68l-.74,1.85c-.99-.65-2.16-1.22-3.28-1.22-1.41,0-2.27.76-2.27,1.6,0,2.5,6.63,1.87,6.63,6.17,0,2.88-2.42,4.39-4.93,4.39Z"/>
    <path class="cls-1" d="M563.06,93.13v-2.33h10.27v2.33h-3.97v11.67h-2.33v-11.67h-3.97Z"/>
    <path class="cls-1" d="M578.7,90.8v8.88c0,2.04,1.05,3.02,2.33,3.02s2.35-.99,2.35-3.02v-8.88h2.33v8.88c0,3.44-2.1,5.35-4.68,5.35s-4.66-1.91-4.66-5.35v-8.88h2.33Z"/>
    <path class="cls-1" d="M590.38,90.8h3.28c3.46,0,6.28,3.13,6.28,7.01s-2.81,6.99-6.28,6.99h-3.28v-14ZM592.71,102.47h.94c2.04,0,3.72-2.1,3.72-4.66s-1.68-4.68-3.72-4.68h-.94v9.34Z"/>
    <path class="cls-1" d="M606.72,93.13h-2.33v-2.33h6.99v2.33h-2.33v9.34h2.33v2.33h-6.99v-2.33h2.33v-9.34Z"/>
    <path class="cls-1" d="M620.72,90.57c3.15,0,4.91,3.28,4.91,7.24s-1.76,7.22-4.91,7.22-4.89-3.25-4.89-7.22,1.74-7.24,4.89-7.24ZM620.72,102.7c1.58,0,2.44-2.23,2.44-4.89s-.86-4.91-2.44-4.91-2.41,2.22-2.41,4.91.86,4.89,2.41,4.89Z"/>
  </g>
  <rect class="cls-3" x="570.54" y="355.41" width="156.89" height="108.57"/>
  <rect class="cls-3" x="216.99" y="1" width="98.35" height="120.23"/>
  <rect class="cls-3" x="343.19" y="18.23" width="120.91" height="103"/>
  <rect class="cls-3" x="570.82" y="140.67" width="90.03" height="78.71"/>
  <polygon class="cls-9" points="506.72 520.2 492.53 522.13 492.24 519.81 506.42 517.89 506.72 520.2"/>
  <polygon class="cls-9" points="506.2 516.66 492 515.19 492.26 512.86 506.47 514.33 506.2 516.66"/>
  <polygon class="cls-9" points="506.56 512.67 492.95 508.43 493.67 506.2 507.28 510.44 506.56 512.67"/>
  <polygon class="cls-9" points="508.05 509.23 496.85 500.41 498.32 498.58 509.52 507.41 508.05 509.23"/>
  <polygon class="cls-9" points="510.74 506.5 502.51 494.86 504.44 493.52 512.66 505.16 510.74 506.5"/>
  <polygon class="cls-9" points="514.36 504.8 509.56 491.38 511.78 490.61 516.58 504.04 514.36 504.8"/>
  <g>
    <polygon class="cls-9" points="526.1 510 539.99 506.55 540.54 508.82 526.65 512.27 526.1 510"/>
    <polygon class="cls-9" points="527 513.48 541.28 513.39 541.27 515.73 526.99 515.82 527 513.48"/>
    <polygon class="cls-9" points="527.07 517.47 541.06 520.21 540.59 522.5 526.6 519.77 527.07 517.47"/>
    <polygon class="cls-9" points="525.97 521.05 538.06 528.61 536.8 530.59 524.71 523.03 525.97 521.05"/>
    <polygon class="cls-9" points="523.6 524.06 533.04 534.74 531.27 536.28 521.82 525.6 523.6 524.06"/>
    <polygon class="cls-9" points="520.18 526.14 526.41 538.97 524.29 539.97 518.06 527.15 520.18 526.14"/>
  </g>
  <g>
    <path class="cls-2" d="M515.42,516.04v.43s-.53,0-.53,0v.24s.44-.02.44-.02v.41s-.43.01-.43.01l.02.5-.49.03v-1.56s.98-.04.98-.04Z"/>
    <path class="cls-2" d="M516.11,516.07v1.52s-.48.03-.48.03l-.02-1.53.5-.02Z"/>
    <path class="cls-2" d="M516.92,517.12l-.08.02.02.48h-.48s-.02-1.51-.02-1.51l.74-.04.37.06.04.82-.16.08.3.43-.44.2-.29-.54ZM516.8,516.79l.25-.02v-.32s-.26,0-.26,0v.34Z"/>
    <path class="cls-2" d="M518.71,517.6h-.97s0-1.46,0-1.46l.09-.06.84-.02v.39s-.48,0-.48,0v.2s.35,0,.35,0v.36s-.38,0-.38,0v.21s.55-.01.55-.01v.4Z"/>
    <path class="cls-2" d="M514.62,518.51h-.3s0-.45,0-.45l.03-.02h.26s0,.11,0,.11h-.14s0,.06,0,.06h.11s0,.11,0,.11h-.11s0,.06,0,.06h.17s0,.12,0,.12Z"/>
    <path class="cls-2" d="M514.86,518.36l-.04.03v.12s-.17,0-.17,0l.03-.19.08-.05-.08-.05v-.17s.14,0,.14,0v.12s.04.04.04.04l.03-.03v-.12s.15,0,.15,0l-.02.17-.07.05.07.05.03.19h-.16s0-.11,0-.11l-.04-.03Z"/>
    <path class="cls-2" d="M515.44,518.17h-.12s.02.33.02.33h-.15s0-.33,0-.33h-.11s0-.13,0-.13h.35s0,.13,0,.13Z"/>
    <path class="cls-2" d="M515.64,518.04v.46s-.15,0-.15,0v-.47s.15,0,.15,0Z"/>
    <path class="cls-2" d="M516.09,518.51h-.14s0-.14,0-.14l-.1-.13v.26s-.14,0-.14,0v-.45s.13-.01.13-.01l.11.15v-.15s.14,0,.14,0v.46Z"/>
    <path class="cls-2" d="M516.24,518.04h.26s0,.13,0,.13h-.18v.2h.07s0-.12,0-.12h.14s-.01.26-.01.26h-.33s-.02-.38-.02-.38l.07-.09Z"/>
    <path class="cls-2" d="M516.94,518.05l.02.41-.06.05h-.29s-.03-.02-.03-.02v-.43s.14,0,.14,0v.31s.1-.01.1-.01v-.31s.13,0,.13,0Z"/>
    <path class="cls-2" d="M517.17,518.04v.46s-.15,0-.15,0v-.47s.15,0,.15,0Z"/>
    <path class="cls-2" d="M517.54,518.04v.13s-.14,0-.14,0v.03s.15.07.15.07v.23s-.3.03-.3.03v-.15s.15,0,.15,0v-.04s-.16-.09-.16-.09v-.19s.14-.01.14-.01h.16Z"/>
    <path class="cls-2" d="M517.84,518.34h-.09s0,.16,0,.16h-.14v-.45s.14,0,.14,0v.17s.09,0,.09,0v-.18s.15,0,.15,0v.48s-.15,0-.15,0v-.18Z"/>
    <path class="cls-2" d="M518.36,518.51h-.3s0-.45,0-.45l.03-.02h.26s0,.11,0,.11h-.14s0,.06,0,.06h.11s0,.11,0,.11h-.11s0,.06,0,.06h.17s0,.12,0,.12Z"/>
    <path class="cls-2" d="M518.59,518.36h-.02s0,.15,0,.15h-.15s0-.46,0-.46h.23s.11,0,.11,0v.25s-.04.03-.04.03l.09.13-.13.06-.09-.17ZM518.55,518.26h.08s0-.1,0-.1h-.08s0,.1,0,.1Z"/>
  </g>
  <path class="cls-2" d="M512.53,521.37l3.88,2.89c.06.05.15.05.21,0l3.88-2.89c.06-.04.08-.12.06-.19-.02-.07-.09-.12-.16-.12h-1.74v-1.79c0-.1-.08-.17-.17-.17h-3.93c-.1,0-.17.08-.17.17v1.79h-1.74c-.07,0-.14.05-.16.12-.02.07,0,.15.06.19Z"/>
  <path class="cls-2" d="M523.58,510.81s-.08-.05-.14-.05c-.02,0-.03,0-.05,0l-3.1.66c-.05,0-.09.03-.12.08-.03.04-.05.09-.05.14h-3.38c.06-.14.1-.29.1-.44,0-.3-.11-.57-.33-.78-.22-.22-.48-.33-.78-.33s-.57.11-.78.33c-.22.22-.33.48-.33.78,0,.2.06.4.17.6-.26.08-.51.2-.75.36-.24.16-.44.31-.59.46-.15.15-.29.31-.42.48-.13.17-.22.3-.26.37-.04.07-.08.13-.1.18-.06.11-.06.22-.02.34.04.12.11.2.22.26.06.03.13.05.2.05.18,0,.32-.08.39-.24.02-.04.05-.09.1-.17.05-.08.14-.2.28-.37.14-.17.29-.32.46-.46.16-.14.38-.26.63-.37.26-.11.52-.16.8-.16h.22v.77c-.46.14-.83.4-1.12.79-.29.39-.43.83-.43,1.32v.07h4.43v-.07c0-.53-.17-1-.5-1.41-.33-.41-.76-.66-1.27-.77v-.71h3.06c0,.05.02.1.05.14.03.04.07.07.12.08l3.1.66s.03,0,.05,0c.06,0,.1-.02.14-.05.06-.04.08-.1.08-.17v-2.22c0-.07-.03-.13-.08-.17ZM516.04,511.52c-.09.09-.19.13-.31.13s-.22-.04-.31-.13c-.09-.09-.13-.19-.13-.31s.04-.22.13-.31c.09-.09.19-.13.31-.13s.22.04.31.13c.09.09.13.19.13.31s-.04.22-.13.31Z"/>
  <rect class="cls-5" x="300.78" y="342.93" width="163.31" height="66.76"/>
  <g>
    <path class="cls-1" d="M342.42,376.82h-2.03v-2.01h4.04v6.03h-.62l-.42-.74c-.74.6-1.65.94-2.53.94-2.91,0-4.89-2.8-4.89-6.23s1.97-6.24,4.89-6.24c1.43,0,2.91.92,3.73,2.32l-1.19,1.12c-.78-1-1.56-1.43-2.41-1.43-1.52,0-2.8,1.61-2.8,4.23s1.28,4.22,2.8,4.22c.49,0,.96-.14,1.43-.47v-1.74Z"/>
    <path class="cls-1" d="M357.2,380.84h-2.46l-2.9-4.02h-1.59v4.02h-2.01v-12.07h3.93c2.21,0,4.02,1.81,4.02,4.04,0,1.54-.89,2.91-2.19,3.57l3.2,4.47ZM354.18,372.8c0-1.12-.91-2.03-2.01-2.03h-1.92v4.04h1.92c1.1,0,2.01-.9,2.01-2.01Z"/>
    <path class="cls-1" d="M360.31,368.77h6.03v2.01h-4.02v2.42h4.02v2.01h-4.02v3.62h4.02v2.01h-6.03v-12.07Z"/>
    <path class="cls-1" d="M370.37,368.77h6.03v2.01h-4.02v2.42h4.02v2.01h-4.02v3.62h4.02v2.01h-6.03v-12.07Z"/>
    <path class="cls-1" d="M386.68,368.77h1.81v12.07h-1.52l-4.72-7.71v7.71h-1.81v-12.07h1.5l4.74,7.71v-7.71Z"/>
    <path class="cls-1" d="M398.53,368.77h4.22c1.77,0,3.22,1.45,3.22,3.22,0,.83-.25,1.45-.71,1.99.92.71,1.52,1.72,1.52,3.04,0,2.12-1.72,3.82-3.82,3.82h-4.43v-12.07ZM400.54,373.2h2.21c.67,0,1.21-.54,1.21-1.21s-.54-1.21-1.21-1.21h-2.21v2.42ZM400.54,378.83h2.42c1,0,1.81-.81,1.81-1.81s-.81-1.81-1.81-1.81h-2.42v3.62Z"/>
    <path class="cls-1" d="M414.62,368.57c2.71,0,4.23,2.82,4.23,6.24s-1.52,6.23-4.23,6.23-4.22-2.8-4.22-6.23,1.5-6.24,4.22-6.24ZM414.62,379.03c1.36,0,2.1-1.92,2.1-4.22s-.74-4.23-2.1-4.23-2.08,1.92-2.08,4.23.74,4.22,2.08,4.22Z"/>
    <path class="cls-1" d="M430.29,380.84h-2.32l-2.28-4.13-2.28,4.13h-2.33l3.44-6.21-3.24-5.86h2.32l2.08,3.76,2.08-3.76h2.33l-3.26,5.86,3.46,6.21Z"/>
  </g>
  <rect class="cls-5" x="300.78" y="200.43" width="163.31" height="142.49"/>
  <rect class="cls-3" x="61.57" y="214.08" width="130.99" height="142.49"/>
  <rect class="cls-3" x="50" y="44.58" width="142.49" height="142.49"/>
  <g>
    <path class="cls-1" d="M251.43,336.84c0-1.29.8-2.63,2.01-3.37l.97,1.1c-.86.71-1.24,1.41-1.24,2.2,0,1.38,1.4,2.57,3.67,2.57s3.65-1.19,3.65-2.57c0-.78-.36-1.49-1.24-2.2l.97-1.1c1.21.74,2.01,2.09,2.01,3.37,0,2.64-2.43,4.41-5.4,4.41s-5.41-1.77-5.41-4.41Z"/>
    <path class="cls-1" d="M253.34,328.87v1.74h-1.74v-5.22h1.74v1.74h6.98v-1.74h1.74v5.22h-1.74v-1.74h-6.98Z"/>
    <path class="cls-1" d="M251.6,316.48v-1.57h10.46v1.32l-6.68,4.09h6.68v1.57h-10.46v-1.3l6.68-4.11h-6.68Z"/>
    <path class="cls-1" d="M251.6,311.42v-5.22h1.74v3.48h2.1v-3.48h1.74v3.48h3.14v-3.48h1.74v5.22h-10.46Z"/>
    <path class="cls-1" d="M255.44,292.24h-3.84v-1.74h10.46v1.74h-4.88v3.5h4.88v1.74h-10.46v-1.74h3.84v-3.5Z"/>
    <path class="cls-1" d="M262.06,285.27v1.74h-6.62c-2.59,0-4.02-1.57-4.02-3.48s1.43-3.5,4.02-3.5h6.62v1.74h-3.48v3.5h3.48ZM255.44,281.78c-1.54,0-2.27.8-2.27,1.76s.74,1.74,2.27,1.74h1.4v-3.5h-1.4Z"/>
    <path class="cls-1" d="M260.32,274.81v-2.96h1.74v4.71h-10.46v-1.74h8.72Z"/>
    <path class="cls-1" d="M260.32,267.85v-2.96h1.74v4.71h-10.46v-1.74h8.72Z"/>
  </g>
  <rect class="cls-8" x="291.72" y="497.21" width="83.77" height="30.38"/>
  <rect class="cls-8" x="390.13" y="497.28" width="83.77" height="30.38"/>
  <g>
    <rect class="cls-9" x="213.37" y="479.81" width="12.79" height="9.67"/>
    <rect class="cls-9" x="238.94" y="499.15" width="12.79" height="9.67"/>
    <rect class="cls-9" x="226.16" y="489.48" width="12.79" height="9.67"/>
    <rect class="cls-9" x="251.73" y="508.82" width="12.79" height="9.67"/>
    <rect class="cls-9" x="264.3" y="518.33" width="12.79" height="9.67"/>
    <rect class="cls-9" x="213.37" y="489.48" width="25.57" height="38.51"/>
    <rect class="cls-9" x="238.94" y="508.82" width="12.79" height="19.17"/>
    <rect class="cls-9" x="251.73" y="518.5" width="12.57" height="9.5"/>
  </g>
  <g>
    <path class="cls-9" d="M27.44,177.58H.44v-18.89h3.64v14.12h8.11v-12.16h3.6v12.16h11.66v4.77Z"/>
    <path class="cls-9" d="M27.44,154.05H.44v-4.77h23.33v-13.75h3.68v18.52Z"/>
    <path class="cls-9" d="M8.43,109.58h11.03c6.31,0,8.43,5.33,8.43,11.46s-2.12,11.46-8.43,11.46h-11.03c-6.31,0-8.43-5.38-8.43-11.46s2.12-11.46,8.43-11.46ZM9.43,127.72h8.99c4.51,0,5.71-2.76,5.71-6.69s-1.2-6.69-5.71-6.69h-8.99c-4.47,0-5.67,2.76-5.67,6.69s1.2,6.69,5.67,6.69Z"/>
    <path class="cls-9" d="M8.43,79.74h11.03c6.31,0,8.43,5.33,8.43,11.46s-2.12,11.46-8.43,11.46h-11.03c-6.31,0-8.43-5.38-8.43-11.46s2.12-11.46,8.43-11.46ZM9.43,97.88h8.99c4.51,0,5.71-2.76,5.71-6.69s-1.2-6.69-5.71-6.69h-8.99c-4.47,0-5.67,2.76-5.67,6.69s1.2,6.69,5.67,6.69Z"/>
    <path class="cls-9" d="M27.44,54.39l-11.35,6.73v6.92h11.35v4.77H.44v-14.22c0-3.88,2.68-6.73,5.99-6.73h3.67c2.6,0,4.79,1.73,5.63,4.35l11.7-7.02v5.19ZM7.39,56.63c-2.24,0-3.32,1.12-3.32,4.07v7.34h8.39v-7.34c0-2.95-1.08-4.07-3.32-4.07h-1.76Z"/>
    <path class="cls-9" d="M28.44,19.27c4.71,0,7.51,2.76,7.51,9.68,0,3.18-.52,8.14-.52,8.14h-3.67s.52-4.77.52-7.95c0-2.99-.52-5.1-3.48-5.1h-1.8l-3.08,3.65v6.78h-3.63v-6.88l-2.88-3.41h-2.44c-2.6,0-3.24.84-3.24,3.79,0,1.96.52,8.28.52,8.28h-3.68s-.52-6.03-.52-8.65c0-7.25,3.12-8.18,7.15-8.18h2.32c.32,0,.84.05,1.16.28l3.44,4.07,3.56-4.21c.32-.23.84-.28,1.16-.28h1.6Z"/>
  </g>
  <g id="glt301">
    <rect class="cls-9" x="569.99" y="239.23" width="142.62" height="93.32"/>
    <g>
      <path class="cls-7" d="M626.28,278.83h2.1v14h-1.76l-5.48-8.94v8.94h-2.1v-14h1.74l5.5,8.95v-8.95Z"/>
      <path class="cls-7" d="M633.04,278.83h6.99v2.33h-4.66v2.81h4.66v2.33h-4.66v4.2h4.66v2.33h-6.99v-14Z"/>
      <path class="cls-7" d="M643.08,281.16v-2.33h10.27v2.33h-3.97v11.67h-2.33v-11.67h-3.97Z"/>
      <path class="cls-7" d="M656.39,278.83h7.47v2.33h-5.14v2.81h5.14v2.33h-5.14v6.53h-2.33v-14Z"/>
      <path class="cls-7" d="M670.4,290.5h3.97v2.33h-6.3v-14h2.33v11.67Z"/>
      <path class="cls-7" d="M679.72,281.16h-2.33v-2.33h6.99v2.33h-2.33v9.34h2.33v2.33h-6.99v-2.33h2.33v-9.34Z"/>
      <path class="cls-7" d="M697.91,292.84h-2.69l-2.65-4.79-2.65,4.79h-2.71l3.99-7.2-3.76-6.8h2.69l2.42,4.37,2.41-4.37h2.71l-3.78,6.8,4.01,7.2Z"/>
      <path class="cls-7" d="M645.72,303.8c1.72,0,3.53,1.07,4.51,2.69l-1.47,1.3c-.95-1.15-1.89-1.66-2.94-1.66-1.85,0-3.44,1.87-3.44,4.91s1.6,4.89,3.44,4.89c1.05,0,1.99-.48,2.94-1.66l1.47,1.3c-.99,1.62-2.79,2.69-4.51,2.69-3.53,0-5.9-3.25-5.9-7.22s2.37-7.24,5.9-7.24Z"/>
      <path class="cls-7" d="M656.39,315.71h3.97v2.33h-6.3v-14h2.33v11.67Z"/>
      <path class="cls-7" d="M665.72,318.04h-2.33v-8.86c0-3.46,2.1-5.38,4.66-5.38s4.68,1.91,4.68,5.38v8.86h-2.33v-4.66h-4.68v4.66ZM670.4,309.18c0-2.06-1.07-3.04-2.35-3.04s-2.33.99-2.33,3.04v1.87h4.68v-1.87Z"/>
      <path class="cls-7" d="M680.61,318.27c-1.51,0-2.65-.48-3.95-1.49l.27-2.08c1.41.76,2.56,1.24,3.76,1.24,1.05,0,2.39-.57,2.39-1.7,0-2.67-6.61-1.64-6.61-6.32,0-2.44,2.14-4.12,4.62-4.12,1.58,0,2.65.55,4.09,1.68l-.74,1.85c-.99-.65-2.16-1.22-3.28-1.22-1.41,0-2.27.76-2.27,1.6,0,2.5,6.63,1.87,6.63,6.17,0,2.88-2.41,4.39-4.93,4.39Z"/>
      <path class="cls-7" d="M692.28,318.27c-1.51,0-2.65-.48-3.95-1.49l.27-2.08c1.41.76,2.56,1.24,3.76,1.24,1.05,0,2.39-.57,2.39-1.7,0-2.67-6.61-1.64-6.61-6.32,0-2.44,2.14-4.12,4.62-4.12,1.57,0,2.64.55,4.09,1.68l-.73,1.85c-.99-.65-2.16-1.22-3.28-1.22-1.41,0-2.27.76-2.27,1.6,0,2.5,6.63,1.87,6.63,6.17,0,2.88-2.42,4.39-4.93,4.39Z"/>
    </g>
    <g>
      <path class="cls-6" d="M650.92,259.82h-1.57v-1.55h3.12v4.66h-.48l-.32-.57c-.57.46-1.27.73-1.96.73-2.25,0-3.78-2.17-3.78-4.82s1.53-4.83,3.78-4.83c1.11,0,2.26.71,2.89,1.79l-.92.87c-.6-.77-1.2-1.11-1.86-1.11-1.18,0-2.17,1.25-2.17,3.28s1,3.26,2.17,3.26c.38,0,.74-.11,1.11-.36v-1.34Z"/>
      <path class="cls-6" d="M656.98,261.38h2.65v1.55h-4.2v-9.34h1.55v7.79Z"/>
      <path class="cls-6" d="M660.55,255.14v-1.55h6.85v1.55h-2.65v7.79h-1.55v-7.79h-2.65Z"/>
      <path class="cls-6" d="M680.32,259.98c0,1.71-1.4,3.11-3.12,3.11-1.43,0-2.58-.94-2.97-2.2l1.47-.52c.17.63.76,1.16,1.5,1.16.85,0,1.56-.7,1.56-1.56s-.7-1.55-1.56-1.55h-1.16v-.48l2.06-2.8h-2.52l-.76,1.25h-.46v-2.8h6.12v.77l-2.04,2.75c1.06.49,1.89,1.53,1.89,2.87Z"/>
      <path class="cls-6" d="M686.53,253.44c2.1,0,3.28,2.19,3.28,4.83s-1.18,4.82-3.28,4.82-3.26-2.17-3.26-4.82,1.16-4.83,3.26-4.83ZM686.53,261.53c1.05,0,1.62-1.49,1.62-3.26s-.57-3.28-1.62-3.28-1.61,1.49-1.61,3.28.57,3.26,1.61,3.26Z"/>
      <path class="cls-6" d="M695.1,256.59l-1.7.63-.35-.64,3.14-3.14h.46v7.94h1.55v1.55h-4.67v-1.55h1.56v-4.79Z"/>
    </g>
  </g>
</svg>