<?xml version="1.0" encoding="UTF-8"?>
<svg id="katman_1" data-name="katman 1" xmlns="http://www.w3.org/2000/svg" viewBox="0 0 628.39 501.78">
  <defs>
    <style>
      .cls-1 {
        stroke-width: 4px;
      }

      .cls-1, .cls-2 {
        fill: none;
        stroke: #e888b7;
        stroke-miterlimit: 10;
      }

      .cls-3 {
        fill: #e888b7;
      }

      .cls-2 {
        stroke-width: 2px;
      }

      .cls-4 {
        fill: #dadada;
      }

      .cls-5 {
        fill: #878787;
      }

      .cls-6 {
        fill: #e73447;
      }
    </style>
  </defs>
  <rect class="cls-1" x="295.16" y="102.48" width="176.37" height="340.19"/>
  <polygon class="cls-3" points="506.62 482.02 492.44 483.94 492.14 481.62 506.33 479.7 506.62 482.02"/>
  <polygon class="cls-3" points="506.11 478.47 491.9 477 492.17 474.68 506.38 476.14 506.11 478.47"/>
  <polygon class="cls-3" points="506.47 474.49 492.86 470.25 493.58 468.02 507.19 472.26 506.47 474.49"/>
  <polygon class="cls-3" points="507.95 471.05 496.76 462.22 498.23 460.39 509.43 469.22 507.95 471.05"/>
  <polygon class="cls-3" points="510.64 468.31 502.42 456.67 504.34 455.34 512.57 466.98 510.64 468.31"/>
  <polygon class="cls-3" points="514.27 466.62 509.47 453.2 511.69 452.43 516.48 465.85 514.27 466.62"/>
  <g>
    <polygon class="cls-3" points="526.01 471.82 539.9 468.36 540.45 470.64 526.56 474.09 526.01 471.82"/>
    <polygon class="cls-3" points="526.9 475.29 541.19 475.2 541.18 477.54 526.89 477.63 526.9 475.29"/>
    <polygon class="cls-3" points="526.98 479.29 540.97 482.02 540.5 484.32 526.51 481.58 526.98 479.29"/>
    <polygon class="cls-3" points="525.88 482.87 537.97 490.43 536.7 492.4 524.62 484.85 525.88 482.87"/>
    <polygon class="cls-3" points="523.5 485.88 532.95 496.56 531.18 498.09 521.73 487.42 523.5 485.88"/>
    <polygon class="cls-3" points="520.09 487.96 526.32 500.78 524.2 501.78 517.97 488.96 520.09 487.96"/>
  </g>
  <g>
    <path class="cls-6" d="M515.33,477.85v.43s-.53,0-.53,0v.24s.44-.02.44-.02v.41s-.43.01-.43.01l.02.5-.49.03v-1.56s.98-.04.98-.04Z"/>
    <path class="cls-6" d="M516.02,477.88v1.52s-.48.03-.48.03l-.02-1.53.5-.02Z"/>
    <path class="cls-6" d="M516.83,478.93l-.08.02.02.48h-.48s-.02-1.51-.02-1.51l.74-.04.37.06.04.82-.16.08.3.43-.44.2-.29-.54ZM516.7,478.6l.25-.02v-.32s-.26,0-.26,0v.34Z"/>
    <path class="cls-6" d="M518.62,479.42h-.97s0-1.46,0-1.46l.09-.06.84-.02v.39s-.48,0-.48,0v.2s.35,0,.35,0v.36s-.38,0-.38,0v.21s.55-.01.55-.01v.4Z"/>
    <path class="cls-6" d="M514.53,480.33h-.3s0-.45,0-.45l.03-.02h.26s0,.11,0,.11h-.14s0,.06,0,.06h.11s0,.11,0,.11h-.11s0,.06,0,.06h.17s0,.12,0,.12Z"/>
    <path class="cls-6" d="M514.76,480.18l-.04.03v.12s-.17,0-.17,0l.03-.19.08-.05-.08-.05v-.17s.14,0,.14,0v.12s.04.04.04.04l.03-.03v-.12s.15,0,.15,0l-.02.17-.07.05.07.05.03.19h-.16s0-.11,0-.11l-.04-.03Z"/>
    <path class="cls-6" d="M515.35,479.99h-.12s.02.33.02.33h-.15s0-.33,0-.33h-.11s0-.13,0-.13h.35s0,.13,0,.13Z"/>
    <path class="cls-6" d="M515.54,479.86v.46s-.15,0-.15,0v-.47s.15,0,.15,0Z"/>
    <path class="cls-6" d="M516,480.32h-.14s0-.14,0-.14l-.1-.13v.26s-.14,0-.14,0v-.45s.13-.01.13-.01l.11.15v-.15s.14,0,.14,0v.46Z"/>
    <path class="cls-6" d="M516.14,479.86h.26s0,.13,0,.13h-.18v.2h.07s0-.12,0-.12h.14s-.01.26-.01.26h-.33s-.02-.38-.02-.38l.07-.09Z"/>
    <path class="cls-6" d="M516.85,479.86l.02.41-.06.05h-.29s-.03-.02-.03-.02v-.43s.14,0,.14,0v.31s.1-.01.1-.01v-.31s.13,0,.13,0Z"/>
    <path class="cls-6" d="M517.08,479.86v.46s-.15,0-.15,0v-.47s.15,0,.15,0Z"/>
    <path class="cls-6" d="M517.44,479.86v.13s-.14,0-.14,0v.03s.15.07.15.07v.23s-.3.03-.3.03v-.15s.15,0,.15,0v-.04s-.16-.09-.16-.09v-.19s.14-.01.14-.01h.16Z"/>
    <path class="cls-6" d="M517.75,480.16h-.09s0,.16,0,.16h-.14v-.45s.14,0,.14,0v.17s.09,0,.09,0v-.18s.15,0,.15,0v.48s-.15,0-.15,0v-.18Z"/>
    <path class="cls-6" d="M518.27,480.33h-.3s0-.45,0-.45l.03-.02h.26s0,.11,0,.11h-.14s0,.06,0,.06h.11s0,.11,0,.11h-.11s0,.06,0,.06h.17s0,.12,0,.12Z"/>
    <path class="cls-6" d="M518.49,480.18h-.02s0,.15,0,.15h-.15s0-.46,0-.46h.23s.11,0,.11,0v.25s-.04.03-.04.03l.09.13-.13.06-.09-.17ZM518.46,480.08h.08s0-.1,0-.1h-.08s0,.1,0,.1Z"/>
  </g>
  <path class="cls-6" d="M512.43,483.18l3.88,2.89c.06.05.15.05.21,0l3.88-2.89c.06-.04.08-.12.06-.19-.02-.07-.09-.12-.16-.12h-1.74v-1.79c0-.1-.08-.17-.17-.17h-3.93c-.1,0-.17.08-.17.17v1.79h-1.74c-.07,0-.14.05-.16.12-.02.07,0,.15.06.19Z"/>
  <path class="cls-6" d="M523.48,472.62s-.08-.05-.14-.05c-.02,0-.03,0-.05,0l-3.1.66c-.05,0-.09.03-.12.08-.03.04-.05.09-.05.14h-3.38c.06-.14.1-.29.1-.44,0-.3-.11-.57-.33-.78-.22-.22-.48-.33-.78-.33s-.57.11-.78.33c-.22.22-.33.48-.33.78,0,.2.06.4.17.6-.26.08-.51.2-.75.36-.24.16-.44.31-.59.46-.15.15-.29.31-.42.48-.13.17-.22.3-.26.37-.04.07-.08.13-.1.18-.06.11-.06.22-.02.34.04.12.11.2.22.26.06.03.13.05.2.05.18,0,.32-.08.39-.24.02-.04.05-.09.1-.17.05-.08.14-.2.28-.37.14-.17.29-.32.46-.46.16-.14.38-.26.63-.37.26-.11.52-.16.8-.16h.22v.77c-.46.14-.83.4-1.12.79-.29.39-.43.83-.43,1.32v.07h4.43v-.07c0-.53-.17-1-.5-1.41-.33-.41-.76-.66-1.27-.77v-.71h3.06c0,.05.02.1.05.14.03.04.07.07.12.08l3.1.66s.03,0,.05,0c.06,0,.1-.02.14-.05.06-.04.08-.1.08-.17v-2.22c0-.07-.03-.13-.08-.17ZM515.95,473.33c-.09.09-.19.13-.31.13s-.22-.04-.31-.13c-.09-.09-.13-.19-.13-.31s.04-.22.13-.31c.09-.09.19-.13.31-.13s.22.04.31.13c.09.09.13.19.13.31s-.04.22-.13.31Z"/>
  <g>
    <path class="cls-3" d="M34.29,199.53H.55v-23.6h4.54v17.64h10.13v-15.19h4.49v15.19h14.57v5.96Z"/>
    <path class="cls-3" d="M34.29,170.14H.55v-5.96h29.15v-17.18h4.59v23.14Z"/>
    <path class="cls-3" d="M10.53,114.57h13.78c7.89,0,10.53,6.66,10.53,14.31s-2.65,14.31-10.53,14.31h-13.78c-7.89,0-10.53-6.72-10.53-14.31s2.65-14.31,10.53-14.31ZM11.78,137.24h11.23c5.64,0,7.14-3.45,7.14-8.35s-1.5-8.35-7.14-8.35h-11.23c-5.59,0-7.09,3.45-7.09,8.35s1.5,8.35,7.09,8.35Z"/>
    <path class="cls-3" d="M10.53,77.3h13.78c7.89,0,10.53,6.66,10.53,14.31s-2.65,14.31-10.53,14.31h-13.78c-7.89,0-10.53-6.72-10.53-14.31s2.65-14.31,10.53-14.31ZM11.78,99.97h11.23c5.64,0,7.14-3.45,7.14-8.35s-1.5-8.35-7.14-8.35h-11.23c-5.59,0-7.09,3.45-7.09,8.35s1.5,8.35,7.09,8.35Z"/>
    <path class="cls-3" d="M34.29,45.63l-14.17,8.41v8.65h14.17v5.96H.55v-17.76c0-4.85,3.34-8.41,7.49-8.41h4.59c3.24,0,5.99,2.16,7.04,5.43l14.62-8.76v6.49ZM9.23,48.44c-2.79,0-4.14,1.4-4.14,5.08v9.17h10.48v-9.17c0-3.68-1.35-5.08-4.14-5.08h-2.2Z"/>
    <path class="cls-3" d="M29.7,0h4.59v24.07h-4.34l-6.99-12.15c-1.45-2.51-2.4-4.32-5.09-4.32h-.75c-1.6,0-2.3.58-2.3,3.15,0,3.27.65,11.04.65,11.04h-4.79s-.6-7.71-.6-11.51c0-4.5,1.15-8.65,5.29-8.65h2.99c2.6,0,4.69,1.64,6.49,4.85l4.64,8.18h.2V0Z"/>
  </g>
  <rect class="cls-2" x="482" y="13.6" width="92.64" height="75.32"/>
  <rect class="cls-2" x="482" y="227.34" width="145.39" height="96.93"/>
  <rect class="cls-2" x="118.56" y="161.53" width="159.07" height="74.16"/>
  <rect class="cls-2" x="146.64" y="62.3" width="130.99" height="80.36"/>
  <rect class="cls-2" x="387.43" y="4.81" width="84.1" height="84.1"/>
  <g id="gltsc03">
    <rect class="cls-3" x="155.14" y="348.23" width="123.36" height="94.34"/>
    <g>
      <path class="cls-4" d="M184.02,395.91h-2.02v-2h4.02v6h-.61l-.41-.74c-.74.59-1.64.94-2.52.94-2.9,0-4.86-2.79-4.86-6.19s1.96-6.21,4.86-6.21c1.42,0,2.9.92,3.71,2.3l-1.19,1.12c-.77-.99-1.55-1.42-2.39-1.42-1.51,0-2.79,1.6-2.79,4.21s1.28,4.2,2.79,4.2c.49,0,.95-.14,1.42-.47v-1.73Z"/>
      <path class="cls-4" d="M191.81,397.91h3.4v2h-5.4v-12.01h2v10.01Z"/>
      <path class="cls-4" d="M196.4,389.9v-2h8.8v2h-3.4v10.01h-2v-10.01h-3.4Z"/>
      <path class="cls-4" d="M216.56,400.1c-1.3,0-2.27-.41-3.38-1.28l.23-1.78c1.21.65,2.2,1.06,3.22,1.06.9,0,2.05-.49,2.05-1.46,0-2.29-5.67-1.4-5.67-5.42,0-2.09,1.84-3.53,3.96-3.53,1.35,0,2.27.47,3.51,1.44l-.63,1.58c-.85-.56-1.85-1.04-2.81-1.04-1.21,0-1.94.65-1.94,1.37,0,2.14,5.69,1.6,5.69,5.29,0,2.47-2.07,3.76-4.23,3.76Z"/>
      <path class="cls-4" d="M228.68,387.7c1.48,0,3.02.92,3.87,2.3l-1.26,1.12c-.81-.99-1.62-1.42-2.52-1.42-1.58,0-2.95,1.6-2.95,4.21s1.37,4.2,2.95,4.2c.9,0,1.71-.41,2.52-1.42l1.26,1.12c-.85,1.39-2.39,2.3-3.87,2.3-3.02,0-5.06-2.79-5.06-6.19s2.03-6.21,5.06-6.21Z"/>
      <path class="cls-4" d="M239.82,387.7c2.7,0,4.21,2.81,4.21,6.21s-1.51,6.19-4.21,6.19-4.2-2.79-4.2-6.19,1.49-6.21,4.2-6.21ZM239.82,398.11c1.35,0,2.09-1.91,2.09-4.2s-.74-4.21-2.09-4.21-2.07,1.91-2.07,4.21.74,4.2,2.07,4.2Z"/>
      <path class="cls-4" d="M255.84,396.11c0,2.2-1.8,4-4.02,4-1.84,0-3.31-1.21-3.82-2.83l1.89-.67c.22.81.97,1.49,1.93,1.49,1.1,0,2-.9,2-2s-.9-2-2-2h-1.49v-.61l2.65-3.6h-3.24l-.97,1.6h-.59v-3.6h7.87v.99l-2.63,3.53c1.37.63,2.43,1.96,2.43,3.69Z"/>
    </g>
  </g>
  <g id="gltbug">
    <rect class="cls-3" x="481.95" y="347.76" width="145.39" height="96.77"/>
    <g>
      <path class="cls-4" d="M526.85,396.65h-2.02v-2h4.02v6h-.61l-.41-.74c-.74.59-1.64.94-2.52.94-2.9,0-4.86-2.79-4.86-6.19s1.96-6.21,4.86-6.21c1.42,0,2.9.92,3.71,2.3l-1.19,1.12c-.77-.99-1.55-1.42-2.39-1.42-1.51,0-2.79,1.6-2.79,4.21s1.28,4.2,2.79,4.2c.49,0,.95-.14,1.42-.47v-1.73Z"/>
      <path class="cls-4" d="M534.64,398.65h3.4v2h-5.4v-12.01h2v10.01Z"/>
      <path class="cls-4" d="M539.23,390.64v-2h8.8v2h-3.4v10.01h-2v-10.01h-3.4Z"/>
      <path class="cls-4" d="M556.63,388.64h4.2c1.76,0,3.2,1.44,3.2,3.21,0,.83-.25,1.44-.7,1.98.92.7,1.51,1.71,1.51,3.03,0,2.11-1.71,3.8-3.8,3.8h-4.41v-12.01ZM558.63,393.05h2.2c.67,0,1.21-.54,1.21-1.21s-.54-1.21-1.21-1.21h-2.2v2.41ZM558.63,398.65h2.41c.99,0,1.8-.81,1.8-1.8s-.81-1.8-1.8-1.8h-2.41v3.6Z"/>
      <path class="cls-4" d="M570.64,388.64v7.62c0,1.75.9,2.59,2,2.59s2.02-.85,2.02-2.59v-7.62h2v7.62c0,2.95-1.8,4.59-4.01,4.59s-4-1.64-4-4.59v-7.62h2Z"/>
      <path class="cls-4" d="M586.85,396.65h-2.02v-2h4.01v6h-.61l-.41-.74c-.74.59-1.64.94-2.52.94-2.9,0-4.86-2.79-4.86-6.19s1.96-6.21,4.86-6.21c1.42,0,2.9.92,3.71,2.3l-1.19,1.12c-.77-.99-1.55-1.42-2.39-1.42-1.51,0-2.79,1.6-2.79,4.21s1.28,4.2,2.79,4.2c.49,0,.95-.14,1.42-.47v-1.73Z"/>
    </g>
  </g>
  <rect class="cls-2" x="482" y="102.48" width="145.39" height="103.26"/>
  <g id="gltsc01">
    <rect class="cls-3" x="117.68" y="246.57" width="160.82" height="91.6"/>
    <g>
      <path class="cls-4" d="M165.28,292.88h-2.02v-2h4.02v6h-.61l-.41-.74c-.74.59-1.64.94-2.52.94-2.9,0-4.86-2.79-4.86-6.19s1.96-6.21,4.86-6.21c1.42,0,2.9.92,3.71,2.3l-1.19,1.12c-.77-.99-1.55-1.42-2.39-1.42-1.51,0-2.79,1.6-2.79,4.21s1.28,4.2,2.79,4.2c.49,0,.95-.14,1.42-.47v-1.73Z"/>
      <path class="cls-4" d="M173.08,294.88h3.4v2h-5.4v-12.01h2v10.01Z"/>
      <path class="cls-4" d="M177.66,286.87v-2h8.8v2h-3.4v10.01h-2v-10.01h-3.4Z"/>
      <path class="cls-4" d="M197.83,297.08c-1.3,0-2.27-.41-3.38-1.28l.23-1.78c1.21.65,2.2,1.06,3.22,1.06.9,0,2.05-.49,2.05-1.46,0-2.29-5.67-1.4-5.67-5.42,0-2.09,1.84-3.53,3.96-3.53,1.35,0,2.27.47,3.51,1.44l-.63,1.58c-.85-.56-1.85-1.04-2.81-1.04-1.21,0-1.94.65-1.94,1.37,0,2.14,5.69,1.6,5.69,5.29,0,2.47-2.07,3.76-4.23,3.76Z"/>
      <path class="cls-4" d="M209.94,284.67c1.48,0,3.02.92,3.87,2.3l-1.26,1.12c-.81-.99-1.62-1.42-2.52-1.42-1.58,0-2.95,1.6-2.95,4.21s1.37,4.2,2.95,4.2c.9,0,1.71-.41,2.52-1.42l1.26,1.12c-.85,1.39-2.39,2.3-3.87,2.3-3.02,0-5.06-2.79-5.06-6.19s2.03-6.21,5.06-6.21Z"/>
      <path class="cls-4" d="M221.08,284.67c2.7,0,4.21,2.81,4.21,6.21s-1.51,6.19-4.21,6.19-4.2-2.79-4.2-6.19,1.49-6.21,4.2-6.21ZM221.08,295.08c1.35,0,2.09-1.91,2.09-4.2s-.74-4.21-2.09-4.21-2.07,1.91-2.07,4.21.74,4.2,2.07,4.2Z"/>
      <path class="cls-4" d="M232.1,288.72l-2.18.81-.45-.83,4.03-4.03h.59v10.21h2v2h-6v-2h2v-6.16Z"/>
    </g>
  </g>
  <rect class="cls-2" x="286.07" y="27.37" width="93.2" height="61.55"/>
  <rect class="cls-5" x="294.72" y="470.89" width="83.77" height="30.38"/>
  <rect class="cls-5" x="393.13" y="470.95" width="83.77" height="30.38"/>
  <g>
    <rect class="cls-3" x="214.9" y="453.25" width="12.79" height="9.67"/>
    <rect class="cls-3" x="240.47" y="472.59" width="12.79" height="9.67"/>
    <rect class="cls-3" x="227.69" y="462.92" width="12.79" height="9.67"/>
    <rect class="cls-3" x="253.26" y="482.26" width="12.79" height="9.67"/>
    <rect class="cls-3" x="265.83" y="491.77" width="12.79" height="9.67"/>
    <rect class="cls-3" x="214.9" y="462.92" width="25.57" height="38.51"/>
    <rect class="cls-3" x="240.47" y="482.26" width="12.79" height="19.17"/>
    <rect class="cls-3" x="253.26" y="491.93" width="12.57" height="9.5"/>
  </g>
</svg>