<?xml version="1.0" encoding="UTF-8"?>
<svg id="katman_1" data-name="katman 1" xmlns="http://www.w3.org/2000/svg" viewBox="0 0 841.9 595.3">
  <defs>
    <style>
      .cls-1 {
        fill: #3c3c3b;
      }

      .cls-2 {
        font-size: 21px;
      }

      .cls-2, .cls-3, .cls-4 {
        fill: #fff;
      }

      .cls-5 {
        fill: #2d3f3e;
      }

      .cls-6 {
        stroke-width: 1.9px;
      }

      .cls-6, .cls-7, .cls-3, .cls-8, .cls-9, .cls-10, .cls-11 {
        stroke-miterlimit: 10;
      }

      .cls-6, .cls-7, .cls-8, .cls-9, .cls-10, .cls-11 {
        fill: none;
      }

      .cls-6, .cls-9, .cls-10, .cls-11 {
        stroke: #2d3f3d;
      }

      .cls-7 {
        stroke-width: 3px;
      }

      .cls-7, .cls-3, .cls-8 {
        stroke: #2d3f3e;
      }

      .cls-3, .cls-8, .cls-9 {
        stroke-width: 2px;
      }

      .cls-12 {
        fill: #e52629;
      }

      .cls-13 {
        fill: #878787;
      }

      .cls-14 {
        fill: #706f6f;
      }

      .cls-10 {
        stroke-width: 2px;
      }

      .cls-11 {
        stroke-width: 2px;
      }

      .cls-15 {
        fill: #dadada;
        font-size: 14px;
      }
    </style>
  </defs>
  <rect class="cls-7" x="368.1" y="129" width="178.4" height="373"/>
  <g>
    <path class="cls-5" d="M74.9,233h-26.8v-18.8h3.6v14h8.1v-12.1h3.6v12.1h11.6v4.7Z"/>
    <path class="cls-5" d="M74.9,209.6h-26.8v-4.7h23.2v-13.7h3.6v18.4Z"/>
    <path class="cls-5" d="M56,165.4h10.9c6.3,0,8.4,5.3,8.4,11.4s-2.1,11.4-8.4,11.4h-10.9c-6.3,0-8.4-5.3-8.4-11.4s2.1-11.4,8.4-11.4ZM57,183.4h8.9c4.5,0,5.7-2.7,5.7-6.6s-1.2-6.6-5.7-6.6h-8.9c-4.4,0-5.6,2.7-5.6,6.6s1.2,6.6,5.6,6.6Z"/>
    <path class="cls-5" d="M56,135.8h10.9c6.3,0,8.4,5.3,8.4,11.4s-2.1,11.4-8.4,11.4h-10.9c-6.3,0-8.4-5.3-8.4-11.4s2.1-11.4,8.4-11.4ZM57,153.8h8.9c4.5,0,5.7-2.7,5.7-6.6s-1.2-6.6-5.7-6.6h-8.9c-4.4,0-5.6,2.7-5.6,6.6s1.2,6.6,5.6,6.6Z"/>
    <path class="cls-5" d="M74.9,110.6l-11.3,6.7v6.9h11.3v4.7h-26.8v-14.1c0-3.9,2.7-6.7,6-6.7h3.7c2.6,0,4.8,1.7,5.6,4.3l11.6-7v5.2ZM55,112.8c-2.2,0-3.3,1.1-3.3,4v7.3h8.3v-7.3c0-2.9-1.1-4-3.3-4h-1.7Z"/>
    <path class="cls-5" d="M65.8,93h-3.6v-13.1h3.6v13.1Z"/>
    <path class="cls-5" d="M71.2,58h3.6v19.1h-3.5l-5.6-9.7c-1.2-2-1.9-3.4-4-3.4h-.6c-1.3,0-1.8.5-1.8,2.5s.5,8.8.5,8.8h-3.8s-.5-6.1-.5-9.2.9-6.9,4.2-6.9h2.4c2.1,0,3.7,1.3,5.2,3.9l3.7,6.5h.2v-11.7Z"/>
  </g>
  <rect class="cls-8" x="557.6" y="367.9" width="149.2" height="27.9"/>
  <rect class="cls-9" x="368" y="128.6" width="79.5" height="74.2"/>
  <rect class="cls-9" x="199.1" y="29.7" width="351" height="82.8"/>
  <path class="cls-5" d="M773,368.6v189.4h-59.4v-189.4h59.4M775,366.6h-63.4v193.4h63.4v-193.4h0Z"/>
  <rect class="cls-10" x="367.8" y="203.4" width="79.7" height="74.2"/>
  <rect class="cls-8" x="368" y="277.5" width="79.5" height="74.2"/>
  <rect class="cls-6" x="115.1" y="160.8" width="108.8" height="220"/>
  <g>
    <rect class="cls-13" x="366.2" y="529.5" width="83.8" height="30.4"/>
    <rect class="cls-13" x="464.7" y="529.6" width="83.8" height="30.4"/>
    <g>
      <polygon class="cls-5" points="558 546.8 558.3 549.1 572.5 547.2 572.2 544.8 558 546.8"/>
      <polygon class="cls-5" points="572.2 541.3 558 539.8 557.8 542.2 572 543.6 572.2 541.3"/>
      <polygon class="cls-5" points="558.7 535.4 572.3 539.6 573 537.4 559.4 533.2 558.7 535.4"/>
      <polygon class="cls-5" points="562.6 527.4 573.8 536.2 575.3 534.4 564.1 525.5 562.6 527.4"/>
      <polygon class="cls-5" points="568.3 521.8 576.5 533.5 578.4 532.1 570.2 520.5 568.3 521.8"/>
      <polygon class="cls-5" points="575.3 518.3 580.1 531.8 582.3 531 577.5 517.6 575.3 518.3"/>
      <polygon class="cls-5" points="606.3 535.8 605.8 533.5 591.9 537 592.4 539.2 606.3 535.8"/>
      <polygon class="cls-5" points="592.8 540.4 592.7 542.8 607 542.7 607 540.3 592.8 540.4"/>
      <polygon class="cls-5" points="592.4 546.7 606.3 549.5 606.8 547.2 592.8 544.4 592.4 546.7"/>
      <polygon class="cls-5" points="590.5 550 602.6 557.5 603.8 555.6 591.7 548 590.5 550"/>
      <polygon class="cls-5" points="587.6 552.6 597 563.2 598.8 561.7 589.4 551 587.6 552.6"/>
      <polygon class="cls-5" points="583.8 554.1 590 566.9 592.2 565.9 585.9 553.1 583.8 554.1"/>
    </g>
    <g>
      <path class="cls-12" d="M581.2,543v.4s-.5,0-.5,0v.2s.4,0,.4,0v.4s-.4,0-.4,0v.5s-.5,0-.5,0v-1.6s1,0,1,0Z"/>
      <path class="cls-12" d="M581.9,543v1.5s-.5,0-.5,0v-1.5s.5,0,.5,0Z"/>
      <path class="cls-12" d="M582.7,544.1h0s0,.5,0,.5h-.5s0-1.5,0-1.5h.7s.4,0,.4,0v.8s-.1,0-.1,0l.3.4-.4.2-.3-.5ZM582.6,543.7h.3s0-.3,0-.3h-.3s0,.3,0,.3Z"/>
      <path class="cls-12" d="M584.5,544.6h-1s0-1.5,0-1.5h0c0,0,.8,0,.8,0v.4s-.5,0-.5,0v.2s.4,0,.4,0v.4s-.4,0-.4,0v.2s.5,0,.5,0v.4Z"/>
      <path class="cls-12" d="M580.4,545.5h-.3s0-.4,0-.4h0s.3,0,.3,0h0c0,.1-.1.1-.1.1h0c0,0,.1,0,.1,0h0c0,.1-.1.1-.1.1h0c0,0,.2,0,.2,0h0Z"/>
      <path class="cls-12" d="M580.6,545.3h0s0,.2,0,.2h-.2s0-.2,0-.2h0s0,0,0,0v-.2s.1,0,.1,0h0c0,.1,0,.2,0,.2h0s0-.1,0-.1h.1s0,.2,0,.2h0s0,0,0,0v.2s-.1,0-.1,0h0c0-.1,0-.2,0-.2Z"/>
      <path class="cls-12" d="M581.2,545.1h-.1s0,.3,0,.3h-.1s0-.3,0-.3h-.1s0-.1,0-.1h.4s0,.1,0,.1Z"/>
      <path class="cls-12" d="M581.4,545v.5s-.1,0-.1,0v-.5s.1,0,.1,0Z"/>
      <path class="cls-12" d="M581.9,545.5h-.1s0-.1,0-.1h-.1c0-.1,0,.1,0,.1h-.1s0-.4,0-.4h.1s.1.1.1.1h0c0-.1.1-.2.1-.2v.5Z"/>
      <path class="cls-12" d="M582,545h.3s0,.1,0,.1h-.2v.2h0s0-.1,0-.1h.1s0,.3,0,.3h-.3s0-.4,0-.4h0Z"/>
      <path class="cls-12" d="M582.7,545v.4s0,0,0,0h-.3s0,0,0,0v-.4s.1,0,.1,0v.3s0,0,0,0v-.3s.1,0,.1,0Z"/>
      <path class="cls-12" d="M582.9,545v.5s-.1,0-.1,0v-.5s.1,0,.1,0Z"/>
      <path class="cls-12" d="M583.3,545h0c0,.1-.1.1-.1.1h0s.2.1.2.1v.2s-.3,0-.3,0v-.2s.2,0,.2,0h0s-.2-.1-.2-.1v-.2s.1,0,.1,0h.2Z"/>
      <path class="cls-12" d="M583.6,545.3h0s0,.2,0,.2h-.1v-.5s.1,0,.1,0v.2s0,0,0,0v-.2s.1,0,.1,0v.5s-.1,0-.1,0v-.2Z"/>
      <path class="cls-12" d="M584.1,545.5h-.3s0-.4,0-.4h0s.3,0,.3,0h0c0,.1-.1.1-.1.1h0c0,0,.1,0,.1,0h0c0,.1-.1.1-.1.1h0c0,0,.2,0,.2,0h0Z"/>
      <path class="cls-12" d="M584.3,545.3h0s0,.2,0,.2h-.1s0-.5,0-.5h.2s.1,0,.1,0v.3s0,0,0,0h0c0,.1-.1.2-.1.2v-.2ZM584.3,545.2h0s0-.1,0-.1h0s0,.1,0,.1Z"/>
    </g>
    <path class="cls-12" d="M578.3,548.3l3.9,2.9c0,0,.1,0,.2,0l3.9-2.9c0,0,0-.1,0-.2,0,0,0-.1-.2-.1h-1.7v-1.8c0,0,0-.2-.2-.2h-3.9c0,0-.2,0-.2.2v1.8h-1.7c0,0-.1,0-.2.1,0,0,0,.1,0,.2Z"/>
    <path class="cls-12" d="M589.3,537.8s0,0-.1,0,0,0,0,0l-3.1.7c0,0,0,0-.1,0,0,0,0,0,0,.1h-3.4c0-.1,0-.3,0-.4,0-.3-.1-.6-.3-.8-.2-.2-.5-.3-.8-.3s-.6.1-.8.3c-.2.2-.3.5-.3.8s0,.4.2.6c-.3,0-.5.2-.8.4-.2.2-.4.3-.6.5-.2.2-.3.3-.4.5-.1.2-.2.3-.3.4,0,0,0,.1-.1.2,0,.1,0,.2,0,.3,0,.1.1.2.2.3,0,0,.1,0,.2,0,.2,0,.3,0,.4-.2,0,0,0,0,0-.2,0,0,.1-.2.3-.4.1-.2.3-.3.5-.5.2-.1.4-.3.6-.4.3-.1.5-.2.8-.2h.2v.8c-.5.1-.8.4-1.1.8-.3.4-.4.8-.4,1.3h0c0,0,4.4,0,4.4,0h0c0-.6-.2-1.1-.5-1.5-.3-.4-.8-.7-1.3-.8v-.7h3.1c0,0,0,0,0,.1,0,0,0,0,.1,0l3.1.7s0,0,0,0c0,0,.1,0,.1,0,0,0,0,0,0-.2v-2.2c0,0,0-.1,0-.2ZM581.8,538.5c0,0-.2.1-.3.1s-.2,0-.3-.1c0,0-.1-.2-.1-.3s0-.2.1-.3c0,0,.2-.1.3-.1s.2,0,.3.1c0,0,.1.2.1.3s0,.2-.1.3Z"/>
    <polygon class="cls-5" points="339 550.7 339 541.2 326.3 541.2 326.3 531.5 313.5 531.5 313.5 521.8 300.7 521.8 300.7 512.1 287.9 512.1 287.9 521.8 287.9 560.3 313.5 560.3 326.3 560.3 338.8 560.3 351.6 560.3 351.6 550.7 339 550.7"/>
  </g>
  <g id="tvstudio">
    <rect class="cls-9" x="234.4" y="127.8" width="123.2" height="252.4"/>
    <g>
      <path class="cls-1" d="M247.2,335.5v-2h8.8v2h-3.4v10h-2v-10h-3.4Z"/>
      <path class="cls-1" d="M261.8,345.7h-.4l-4.8-12.2h2.2l2.8,7.3,2.8-7.3h2.2l-4.8,12.2Z"/>
      <path class="cls-1" d="M251.4,367.3c-1.3,0-2.3-.4-3.4-1.3l.2-1.8c1.2.6,2.2,1.1,3.2,1.1s2.1-.5,2.1-1.5c0-2.3-5.7-1.4-5.7-5.4s1.8-3.5,4-3.5,2.3.5,3.5,1.4l-.6,1.6c-.8-.6-1.9-1-2.8-1s-1.9.6-1.9,1.4c0,2.1,5.7,1.6,5.7,5.3s-2.1,3.8-4.2,3.8Z"/>
      <path class="cls-1" d="M258.2,359.7v-2h1.8v-3.4h2v3.4h3v2h-3v3.9c0,1.4.7,2,1.5,2s.8-.1,1.2-.3l.2,1.2c-.5.5-1.2.8-1.9.8-1.7,0-3-1.4-3-3.7v-3.8h-1.8Z"/>
      <path class="cls-1" d="M276,367.1l-.8-1.4c-.7,1-1.9,1.6-3.1,1.6-2.1,0-3.7-1.7-3.7-4.5v-5.1h2v5.1c0,1.7.9,2.6,2,2.6s2.2-1,2.2-2.2v-5.5h2v9.4h-.7Z"/>
      <path class="cls-1" d="M288,367.1l-.8-1.4c-.8,1-1.8,1.6-3,1.6-2.2,0-4-2.2-4-4.9s1.8-4.9,4-4.9,1.8.4,2.4,1v-5.4h2v14h-.7ZM284.5,359.4c-1.2,0-2.2,1.4-2.2,3s1,3,2.2,3,2.2-1.4,2.2-3-1-3-2.2-3Z"/>
      <path class="cls-1" d="M294.8,354.1c0,.6-.5,1.2-1.2,1.2s-1.2-.5-1.2-1.2.5-1.2,1.2-1.2,1.2.5,1.2,1.2ZM292.7,357.7h2v9.4h-2v-9.4Z"/>
      <path class="cls-1" d="M307.1,362.4c0,2.7-2,4.9-4.5,4.9s-4.5-2.2-4.5-4.9,2-4.9,4.5-4.9,4.5,2.2,4.5,4.9ZM300.3,362.4c0,1.7,1.1,3,2.4,3s2.4-1.4,2.4-3-1.1-3-2.4-3-2.4,1.4-2.4,3Z"/>
    </g>
  </g>
  <g>
    <path class="cls-1" d="M375.9,310.5h3.7v1.2h-2.4v1.5h2.4v1.2h-2.4v2.2h2.4v1.2h-3.7v-7.3Z"/>
    <path class="cls-1" d="M385.7,320.3v-2.9c-.4.4-.9.6-1.5.6-1.4,0-2.5-1.3-2.5-3s1.1-3,2.5-3,1.4.4,1.8,1l.5-.9h.4v8.2h-1.2ZM384.4,313.2c-.7,0-1.3.8-1.3,1.8s.6,1.8,1.3,1.8,1.3-.8,1.3-1.8-.6-1.8-1.3-1.8Z"/>
    <path class="cls-1" d="M393.9,317.9l-.5-.8c-.4.6-1.2,1-1.9,1-1.3,0-2.2-1-2.2-2.7v-3.1h1.2v3.1c0,1,.6,1.6,1.2,1.6s1.4-.6,1.4-1.3v-3.3h1.2v5.7h-.4Z"/>
    <path class="cls-1" d="M398.1,309.9c0,.4-.3.7-.7.7s-.7-.3-.7-.7.3-.7.7-.7.7.3.7.7ZM396.7,312.1h1.2v5.7h-1.2v-5.7Z"/>
    <path class="cls-1" d="M403.1,318c-.6,0-1.1-.2-1.5-.6v2.9h-1.2v-8.2h.4l.5.9c.5-.6,1.1-1,1.8-1,1.4,0,2.5,1.3,2.5,3s-1.1,3-2.5,3ZM402.9,313.2c-.7,0-1.3.8-1.3,1.8s.6,1.8,1.3,1.8,1.3-.8,1.3-1.8-.6-1.8-1.3-1.8Z"/>
    <path class="cls-1" d="M411.4,317.9h-1.2v-3.9c0-.5-.3-.8-.6-.8s-.6.3-.6.7v4h-1.2v-5.7h.4l.3.6c.3-.4.8-.7,1.3-.7s.9.2,1.2.6c.3-.4.7-.6,1.2-.6.9,0,1.7.8,1.7,2v3.9h-1.2v-3.9c0-.5-.3-.8-.6-.8s-.6.3-.6.7v4Z"/>
    <path class="cls-1" d="M419,316.9c.6,0,1.2-.4,1.5-.7l.6.8c-.5.6-1.3,1-2.2,1-1.9,0-3-1.3-3-3s1.1-3,2.8-3,2.8,1.4,2.5,3.1h-4c0,.8.5,1.7,1.7,1.7ZM420,314.1c0-.6-.4-1-1.2-1s-1.1.2-1.3,1h2.5Z"/>
    <path class="cls-1" d="M427.4,317.9v-3.1c0-1-.6-1.6-1.2-1.6s-1.3.6-1.3,1.4v3.3h-1.2v-5.7h.4l.5.8c.4-.6,1.2-1,1.9-1,1.3,0,2.3,1,2.3,2.7v3.1h-1.2Z"/>
    <path class="cls-1" d="M430.7,313.4v-1.2h1.1v-2.1h1.2v2.1h1.8v1.2h-1.8v2.4c0,.9.4,1.2.9,1.2s.5,0,.7-.2v.7c-.2.3-.6.5-1,.5-1,0-1.8-.9-1.8-2.3v-2.3h-1.1Z"/>
    <path class="cls-1" d="M375.9,323.7h2.6c1.1,0,2,.9,2,2s-.2.9-.4,1.2c.6.4.9,1,.9,1.8,0,1.3-1,2.3-2.3,2.3h-2.7v-7.3ZM377.1,326.4h1.3c.4,0,.7-.3.7-.7s-.3-.7-.7-.7h-1.3v1.5ZM377.1,329.9h1.5c.6,0,1.1-.5,1.1-1.1s-.5-1.1-1.1-1.1h-1.5v2.2Z"/>
    <path class="cls-1" d="M388.4,328.2c0,1.7-1.2,3-2.7,3s-2.7-1.3-2.7-3,1.2-3,2.7-3,2.7,1.3,2.7,3ZM384.2,328.2c0,1,.6,1.8,1.5,1.8s1.5-.8,1.5-1.8-.6-1.8-1.5-1.8-1.5.8-1.5,1.8Z"/>
    <path class="cls-1" d="M391.8,327.8v3.3h-1.2v-5.7h.4l.5.8c.4-.6,1-1,1.8-1s.4,0,.4,0v2.4h-.4l-.6-1.1c-.4.2-.8.7-.8,1.3Z"/>
    <path class="cls-1" d="M396.7,327.8v3.3h-1.2v-5.7h.4l.5.8c.4-.6,1-1,1.8-1s.4,0,.4,0v2.4h-.4l-.6-1.1c-.4.2-.8.7-.8,1.3Z"/>
    <path class="cls-1" d="M405.5,328.2c0,1.7-1.2,3-2.7,3s-2.7-1.3-2.7-3,1.2-3,2.7-3,2.7,1.3,2.7,3ZM401.4,328.2c0,1,.6,1.8,1.5,1.8s1.5-.8,1.5-1.8-.6-1.8-1.5-1.8-1.5.8-1.5,1.8Z"/>
    <path class="cls-1" d="M413.5,325.3h1.3l-2.4,5.9h-.4l-1.3-3.1-1.3,3.1h-.4l-2.4-5.9h1.3l1.3,3.2.8-2-.5-1.1h1.3l1.3,3.2,1.3-3.2Z"/>
    <path class="cls-1" d="M417.6,323.1c0,.4-.3.7-.7.7s-.7-.3-.7-.7.3-.7.7-.7.7.3.7.7ZM416.3,325.3h1.2v5.7h-1.2v-5.7Z"/>
    <path class="cls-1" d="M423.7,331.1v-3.1c0-1-.6-1.6-1.2-1.6s-1.3.6-1.3,1.4v3.3h-1.2v-5.7h.4l.5.8c.4-.6,1.2-1,1.9-1,1.3,0,2.3,1,2.3,2.7v3.1h-1.2Z"/>
    <path class="cls-1" d="M429.6,333.5c-1,0-1.9-.6-2.3-1.2l.7-.7c.5.5.9.8,1.7.8s1.3-.5,1.3-1.6v-.2c-.4.4-.9.6-1.5.6-1.4,0-2.5-1.3-2.5-3s1.1-3,2.5-3,1.4.4,1.8,1l.5-.9h.4v5.4c0,1.8-1.2,2.8-2.6,2.8ZM429.6,326.4c-.7,0-1.3.8-1.3,1.8s.6,1.8,1.3,1.8,1.3-.8,1.3-1.8-.6-1.8-1.3-1.8Z"/>
    <path class="cls-1" d="M378.4,336.8c1.7,0,2.6,1.7,2.6,3.8s-.9,3.8-2.6,3.8-2.6-1.7-2.6-3.8.9-3.8,2.6-3.8ZM378.4,343.2c.8,0,1.3-1.2,1.3-2.6s-.5-2.6-1.3-2.6-1.3,1.2-1.3,2.6.5,2.6,1.3,2.6Z"/>
    <path class="cls-1" d="M387.4,337.1c-.2,0-.6-.2-.9-.2s-.9.3-.9,1.2v.5h1.7v1.2h-1.7v4.5h-1.2v-4.5h-1.3v-1.2h1.3v-.5c0-1.4.8-2.3,1.8-2.3s1.2.2,1.5.4l-.2,1Z"/>
    <path class="cls-1" d="M391.7,339.8v4.5h-1.2v-4.5h-1.3v-1.2h1.3v-.5c0-1.4.8-2.3,1.8-2.3s1.2.2,1.5.4l-.2,1c-.2,0-.6-.2-.9-.2s-.9.3-.9,1.2v.5h5v5.7h-1.2v-4.5h-3.8ZM396.8,336.3c0,.4-.3.7-.7.7s-.7-.3-.7-.7.3-.7.7-.7.7.3.7.7Z"/>
    <path class="cls-1" d="M402.8,340.2c-.3-.4-.8-.6-1.2-.6-.8,0-1.4.8-1.4,1.8s.6,1.8,1.4,1.8,1-.2,1.2-.6l.7.6c-.5.7-1.2,1.1-2.1,1.1-1.5,0-2.6-1.3-2.6-3s1.2-3,2.6-3,1.6.5,2.1,1.1l-.7.6Z"/>
    <path class="cls-1" d="M408,343.3c.6,0,1.2-.4,1.5-.7l.6.8c-.5.6-1.3,1-2.2,1-1.9,0-3-1.3-3-3s1.1-3,2.8-3,2.8,1.4,2.5,3.1h-4c0,.8.5,1.7,1.7,1.7ZM409,340.5c0-.6-.4-1-1.2-1s-1.1.2-1.3,1h2.5Z"/>
  </g>
  <g>
    <path class="cls-1" d="M375.9,236.3h3.7v1.2h-2.4v1.5h2.4v1.2h-2.4v2.2h2.4v1.2h-3.7v-7.3Z"/>
    <path class="cls-1" d="M385.7,246.1v-2.9c-.4.4-.9.6-1.5.6-1.4,0-2.5-1.3-2.5-3s1.1-3,2.5-3,1.4.4,1.8,1l.5-.9h.4v8.2h-1.2ZM384.4,238.9c-.7,0-1.3.8-1.3,1.8s.6,1.8,1.3,1.8,1.3-.8,1.3-1.8-.6-1.8-1.3-1.8Z"/>
    <path class="cls-1" d="M393.9,243.6l-.5-.8c-.4.6-1.2,1-1.9,1-1.3,0-2.2-1-2.2-2.7v-3.1h1.2v3.1c0,1,.6,1.6,1.2,1.6s1.4-.6,1.4-1.3v-3.3h1.2v5.7h-.4Z"/>
    <path class="cls-1" d="M398.1,235.7c0,.4-.3.7-.7.7s-.7-.3-.7-.7.3-.7.7-.7.7.3.7.7ZM396.7,237.9h1.2v5.7h-1.2v-5.7Z"/>
    <path class="cls-1" d="M403.1,243.8c-.6,0-1.1-.2-1.5-.6v2.9h-1.2v-8.2h.4l.5.9c.5-.6,1.1-1,1.8-1,1.4,0,2.5,1.3,2.5,3s-1.1,3-2.5,3ZM403,238.9c-.7,0-1.3.8-1.3,1.8s.6,1.8,1.3,1.8,1.3-.8,1.3-1.8-.6-1.8-1.3-1.8Z"/>
    <path class="cls-1" d="M411.4,243.6h-1.2v-3.9c0-.5-.3-.8-.6-.8s-.6.3-.6.7v4h-1.2v-5.7h.4l.3.6c.3-.4.8-.7,1.3-.7s.9.2,1.2.6c.3-.4.7-.6,1.2-.6.9,0,1.7.8,1.7,2v3.9h-1.2v-3.9c0-.5-.3-.8-.6-.8s-.6.3-.6.7v4Z"/>
    <path class="cls-1" d="M419.1,242.6c.6,0,1.2-.4,1.5-.7l.6.8c-.5.6-1.3,1-2.2,1-1.9,0-3-1.3-3-3s1.1-3,2.8-3,2.8,1.4,2.5,3.1h-4c0,.8.5,1.7,1.7,1.7ZM420,239.9c0-.6-.4-1-1.2-1s-1.1.2-1.3,1h2.5Z"/>
    <path class="cls-1" d="M427.4,243.6v-3.1c0-1-.6-1.6-1.2-1.6s-1.3.6-1.3,1.4v3.3h-1.2v-5.7h.4l.5.8c.4-.6,1.2-1,1.9-1,1.3,0,2.3,1,2.3,2.7v3.1h-1.2Z"/>
    <path class="cls-1" d="M430.7,239.1v-1.2h1.1v-2.1h1.2v2.1h1.8v1.2h-1.8v2.4c0,.9.4,1.2.9,1.2s.5,0,.7-.2v.7c-.2.3-.6.5-1,.5-1,0-1.8-.9-1.8-2.3v-2.3h-1.1Z"/>
    <path class="cls-1" d="M375.9,249.5h2.6c1.1,0,2,.9,2,2s-.2.9-.4,1.2c.6.4.9,1,.9,1.8,0,1.3-1,2.3-2.3,2.3h-2.7v-7.3ZM377.2,252.2h1.3c.4,0,.7-.3.7-.7s-.3-.7-.7-.7h-1.3v1.5ZM377.2,255.6h1.5c.6,0,1.1-.5,1.1-1.1s-.5-1.1-1.1-1.1h-1.5v2.2Z"/>
    <path class="cls-1" d="M388.5,254c0,1.7-1.2,3-2.7,3s-2.7-1.3-2.7-3,1.2-3,2.7-3,2.7,1.3,2.7,3ZM384.3,254c0,1,.6,1.8,1.5,1.8s1.5-.8,1.5-1.8-.6-1.8-1.5-1.8-1.5.8-1.5,1.8Z"/>
    <path class="cls-1" d="M391.8,253.5v3.3h-1.2v-5.7h.4l.5.8c.4-.6,1-1,1.8-1s.4,0,.4,0v2.4h-.4l-.6-1.1c-.4.2-.8.7-.8,1.3Z"/>
    <path class="cls-1" d="M396.7,253.5v3.3h-1.2v-5.7h.4l.5.8c.4-.6,1-1,1.8-1s.4,0,.4,0v2.4h-.4l-.6-1.1c-.4.2-.8.7-.8,1.3Z"/>
    <path class="cls-1" d="M405.6,254c0,1.7-1.2,3-2.7,3s-2.7-1.3-2.7-3,1.2-3,2.7-3,2.7,1.3,2.7,3ZM401.4,254c0,1,.6,1.8,1.5,1.8s1.5-.8,1.5-1.8-.6-1.8-1.5-1.8-1.5.8-1.5,1.8Z"/>
    <path class="cls-1" d="M413.5,251.1h1.3l-2.4,5.9h-.4l-1.3-3.1-1.3,3.1h-.4l-2.4-5.9h1.3l1.3,3.2.8-2-.5-1.1h1.3l1.3,3.2,1.3-3.2Z"/>
    <path class="cls-1" d="M417.6,248.9c0,.4-.3.7-.7.7s-.7-.3-.7-.7.3-.7.7-.7.7.3.7.7ZM416.3,251.1h1.2v5.7h-1.2v-5.7Z"/>
    <path class="cls-1" d="M423.7,256.8v-3.1c0-1-.6-1.6-1.2-1.6s-1.3.6-1.3,1.4v3.3h-1.2v-5.7h.4l.5.8c.4-.6,1.2-1,1.9-1,1.3,0,2.3,1,2.3,2.7v3.1h-1.2Z"/>
    <path class="cls-1" d="M429.6,259.3c-1,0-1.9-.6-2.3-1.2l.7-.7c.5.5.9.8,1.7.8s1.3-.5,1.3-1.6v-.2c-.4.4-.9.6-1.5.6-1.4,0-2.5-1.3-2.5-3s1.1-3,2.5-3,1.4.4,1.8,1l.5-.9h.4v5.4c0,1.8-1.2,2.8-2.6,2.8ZM429.6,252.1c-.7,0-1.3.8-1.3,1.8s.6,1.8,1.3,1.8,1.3-.8,1.3-1.8-.6-1.8-1.3-1.8Z"/>
    <path class="cls-1" d="M378.4,262.6c1.7,0,2.6,1.7,2.6,3.8s-.9,3.8-2.6,3.8-2.6-1.7-2.6-3.8.9-3.8,2.6-3.8ZM378.4,268.9c.8,0,1.3-1.2,1.3-2.6s-.5-2.6-1.3-2.6-1.3,1.2-1.3,2.6.5,2.6,1.3,2.6Z"/>
    <path class="cls-1" d="M387.5,262.8c-.2,0-.6-.2-.9-.2s-.9.3-.9,1.2v.5h1.7v1.2h-1.7v4.5h-1.2v-4.5h-1.3v-1.2h1.3v-.5c0-1.4.8-2.3,1.8-2.3s1.2.2,1.5.4l-.2,1Z"/>
    <path class="cls-1" d="M391.7,265.5v4.5h-1.2v-4.5h-1.3v-1.2h1.3v-.5c0-1.4.8-2.3,1.8-2.3s1.2.2,1.5.4l-.2,1c-.2,0-.6-.2-.9-.2s-.9.3-.9,1.2v.5h5v5.7h-1.2v-4.5h-3.8ZM396.9,262.1c0,.4-.3.7-.7.7s-.7-.3-.7-.7.3-.7.7-.7.7.3.7.7Z"/>
    <path class="cls-1" d="M402.8,265.9c-.3-.4-.8-.6-1.2-.6-.8,0-1.4.8-1.4,1.8s.6,1.8,1.4,1.8,1-.2,1.2-.6l.7.6c-.5.7-1.2,1.1-2.1,1.1-1.5,0-2.6-1.3-2.6-3s1.2-3,2.6-3,1.6.5,2.1,1.1l-.7.6Z"/>
    <path class="cls-1" d="M408.1,269c.6,0,1.2-.4,1.5-.7l.6.8c-.5.6-1.3,1-2.2,1-1.9,0-3-1.3-3-3s1.1-3,2.8-3,2.8,1.4,2.5,3.1h-4c0,.8.5,1.7,1.7,1.7ZM409,266.3c0-.6-.4-1-1.2-1s-1.1.2-1.3,1h2.5Z"/>
  </g>
  <g>
    <path class="cls-1" d="M376,161.7h3.7v1.2h-2.4v1.5h2.4v1.2h-2.4v2.2h2.4v1.2h-3.7v-7.3Z"/>
    <path class="cls-1" d="M385.7,171.5v-2.9c-.4.4-.9.6-1.5.6-1.4,0-2.5-1.3-2.5-3s1.1-3,2.5-3,1.4.4,1.8,1l.5-.9h.4v8.2h-1.2ZM384.4,164.3c-.7,0-1.3.8-1.3,1.8s.6,1.8,1.3,1.8,1.3-.8,1.3-1.8-.6-1.8-1.3-1.8Z"/>
    <path class="cls-1" d="M393.9,169l-.5-.8c-.4.6-1.2,1-1.9,1-1.3,0-2.2-1-2.2-2.7v-3.1h1.2v3.1c0,1,.6,1.6,1.2,1.6s1.4-.6,1.4-1.3v-3.3h1.2v5.7h-.4Z"/>
    <path class="cls-1" d="M398.1,161.1c0,.4-.3.7-.7.7s-.7-.3-.7-.7.3-.7.7-.7.7.3.7.7ZM396.7,163.3h1.2v5.7h-1.2v-5.7Z"/>
    <path class="cls-1" d="M403.1,169.1c-.6,0-1.1-.2-1.5-.6v2.9h-1.2v-8.2h.4l.5.9c.5-.6,1.1-1,1.8-1,1.4,0,2.5,1.3,2.5,3s-1.1,3-2.5,3ZM403,164.3c-.7,0-1.3.8-1.3,1.8s.6,1.8,1.3,1.8,1.3-.8,1.3-1.8-.6-1.8-1.3-1.8Z"/>
    <path class="cls-1" d="M411.4,169h-1.2v-3.9c0-.5-.3-.8-.6-.8s-.6.3-.6.7v4h-1.2v-5.7h.4l.3.6c.3-.4.8-.7,1.3-.7s.9.2,1.2.6c.3-.4.7-.6,1.2-.6.9,0,1.7.8,1.7,2v3.9h-1.2v-3.9c0-.5-.3-.8-.6-.8s-.6.3-.6.7v4Z"/>
    <path class="cls-1" d="M419.1,168c.6,0,1.2-.4,1.5-.7l.6.8c-.5.6-1.3,1-2.2,1-1.9,0-3-1.3-3-3s1.1-3,2.8-3,2.8,1.4,2.5,3.1h-4c0,.8.5,1.7,1.7,1.7ZM420,165.3c0-.6-.4-1-1.2-1s-1.1.2-1.3,1h2.5Z"/>
    <path class="cls-1" d="M427.4,169v-3.1c0-1-.6-1.6-1.2-1.6s-1.3.6-1.3,1.4v3.3h-1.2v-5.7h.4l.5.8c.4-.6,1.2-1,1.9-1,1.3,0,2.3,1,2.3,2.7v3.1h-1.2Z"/>
    <path class="cls-1" d="M430.7,164.5v-1.2h1.1v-2.1h1.2v2.1h1.8v1.2h-1.8v2.4c0,.9.4,1.2.9,1.2s.5,0,.7-.2v.7c-.2.3-.6.5-1,.5-1,0-1.8-.9-1.8-2.3v-2.3h-1.1Z"/>
    <path class="cls-1" d="M376,174.9h2.6c1.1,0,2,.9,2,2s-.2.9-.4,1.2c.6.4.9,1,.9,1.8,0,1.3-1,2.3-2.3,2.3h-2.7v-7.3ZM377.2,177.6h1.3c.4,0,.7-.3.7-.7s-.3-.7-.7-.7h-1.3v1.5ZM377.2,181h1.5c.6,0,1.1-.5,1.1-1.1s-.5-1.1-1.1-1.1h-1.5v2.2Z"/>
    <path class="cls-1" d="M388.5,179.3c0,1.7-1.2,3-2.7,3s-2.7-1.3-2.7-3,1.2-3,2.7-3,2.7,1.3,2.7,3ZM384.3,179.3c0,1,.6,1.8,1.5,1.8s1.5-.8,1.5-1.8-.6-1.8-1.5-1.8-1.5.8-1.5,1.8Z"/>
    <path class="cls-1" d="M391.8,178.9v3.3h-1.2v-5.7h.4l.5.8c.4-.6,1-1,1.8-1s.4,0,.4,0v2.4h-.4l-.6-1.1c-.4.2-.8.7-.8,1.3Z"/>
    <path class="cls-1" d="M396.7,178.9v3.3h-1.2v-5.7h.4l.5.8c.4-.6,1-1,1.8-1s.4,0,.4,0v2.4h-.4l-.6-1.1c-.4.2-.8.7-.8,1.3Z"/>
    <path class="cls-1" d="M405.6,179.3c0,1.7-1.2,3-2.7,3s-2.7-1.3-2.7-3,1.2-3,2.7-3,2.7,1.3,2.7,3ZM401.4,179.3c0,1,.6,1.8,1.5,1.8s1.5-.8,1.5-1.8-.6-1.8-1.5-1.8-1.5.8-1.5,1.8Z"/>
    <path class="cls-1" d="M413.5,176.5h1.3l-2.4,5.9h-.4l-1.3-3.1-1.3,3.1h-.4l-2.4-5.9h1.3l1.3,3.2.8-2-.5-1.1h1.3l1.3,3.2,1.3-3.2Z"/>
    <path class="cls-1" d="M417.6,174.3c0,.4-.3.7-.7.7s-.7-.3-.7-.7.3-.7.7-.7.7.3.7.7ZM416.3,176.5h1.2v5.7h-1.2v-5.7Z"/>
    <path class="cls-1" d="M423.7,182.2v-3.1c0-1-.6-1.6-1.2-1.6s-1.3.6-1.3,1.4v3.3h-1.2v-5.7h.4l.5.8c.4-.6,1.2-1,1.9-1,1.3,0,2.3,1,2.3,2.7v3.1h-1.2Z"/>
    <path class="cls-1" d="M429.6,184.7c-1,0-1.9-.6-2.3-1.2l.7-.7c.5.5.9.8,1.7.8s1.3-.5,1.3-1.6v-.2c-.4.4-.9.6-1.5.6-1.4,0-2.5-1.3-2.5-3s1.1-3,2.5-3,1.4.4,1.8,1l.5-.9h.4v5.4c0,1.8-1.2,2.8-2.6,2.8ZM429.6,177.5c-.7,0-1.3.8-1.3,1.8s.6,1.8,1.3,1.8,1.3-.8,1.3-1.8-.6-1.8-1.3-1.8Z"/>
    <path class="cls-1" d="M378.4,187.9c1.7,0,2.6,1.7,2.6,3.8s-.9,3.8-2.6,3.8-2.6-1.7-2.6-3.8.9-3.8,2.6-3.8ZM378.4,194.3c.8,0,1.3-1.2,1.3-2.6s-.5-2.6-1.3-2.6-1.3,1.2-1.3,2.6.5,2.6,1.3,2.6Z"/>
    <path class="cls-1" d="M387.5,188.2c-.2,0-.6-.2-.9-.2s-.9.3-.9,1.2v.5h1.7v1.2h-1.7v4.5h-1.2v-4.5h-1.3v-1.2h1.3v-.5c0-1.4.8-2.3,1.8-2.3s1.2.2,1.5.4l-.2,1Z"/>
    <path class="cls-1" d="M391.7,190.9v4.5h-1.2v-4.5h-1.3v-1.2h1.3v-.5c0-1.4.8-2.3,1.8-2.3s1.2.2,1.5.4l-.2,1c-.2,0-.6-.2-.9-.2s-.9.3-.9,1.2v.5h5v5.7h-1.2v-4.5h-3.8ZM396.9,187.5c0,.4-.3.7-.7.7s-.7-.3-.7-.7.3-.7.7-.7.7.3.7.7Z"/>
    <path class="cls-1" d="M402.8,191.3c-.3-.4-.8-.6-1.2-.6-.8,0-1.4.8-1.4,1.8s.6,1.8,1.4,1.8,1-.2,1.2-.6l.7.6c-.5.7-1.2,1.1-2.1,1.1-1.5,0-2.6-1.3-2.6-3s1.2-3,2.6-3,1.6.5,2.1,1.1l-.7.6Z"/>
    <path class="cls-1" d="M408.1,194.4c.6,0,1.2-.4,1.5-.7l.6.8c-.5.6-1.3,1-2.2,1-1.9,0-3-1.3-3-3s1.1-3,2.8-3,2.8,1.4,2.5,3.1h-4c0,.8.5,1.7,1.7,1.7ZM409,191.7c0-.6-.4-1-1.2-1s-1.1.2-1.3,1h2.5Z"/>
  </g>
  <g id="gltedit1">
    <rect class="cls-8" x="558.9" y="309" width="71" height="47.9"/>
    <g>
      <path class="cls-14" d="M606,329.5h-1.6v-1.6h3.1v4.7h-.5l-.3-.6c-.6.5-1.3.7-2,.7-2.3,0-3.8-2.2-3.8-4.8s1.5-4.8,3.8-4.8,2.3.7,2.9,1.8l-.9.9c-.6-.8-1.2-1.1-1.9-1.1-1.2,0-2.2,1.2-2.2,3.3s1,3.3,2.2,3.3.7-.1,1.1-.4v-1.3Z"/>
      <path class="cls-14" d="M612.1,331.1h2.6v1.6h-4.2v-9.3h1.6v7.8Z"/>
      <path class="cls-14" d="M615.7,324.9v-1.6h6.8v1.6h-2.6v7.8h-1.6v-7.8h-2.6Z"/>
      <path class="cls-14" d="M577.9,340.1h4.7v1.6h-3.1v1.9h3.1v1.6h-3.1v2.8h3.1v1.6h-4.7v-9.3Z"/>
      <path class="cls-14" d="M585.6,340.1h2.2c2.3,0,4.2,2.1,4.2,4.7s-1.9,4.7-4.2,4.7h-2.2v-9.3ZM587.2,347.9h.6c1.4,0,2.5-1.4,2.5-3.1s-1.1-3.1-2.5-3.1h-.6v6.2Z"/>
      <path class="cls-14" d="M596.5,341.7h-1.6v-1.6h4.7v1.6h-1.6v6.2h1.6v1.6h-4.7v-1.6h1.6v-6.2Z"/>
      <path class="cls-14" d="M601.7,341.7v-1.6h6.8v1.6h-2.6v7.8h-1.6v-7.8h-2.6Z"/>
      <path class="cls-14" d="M617.5,343.1l-1.7.6-.4-.6,3.1-3.1h.5v7.9h1.6v1.6h-4.7v-1.6h1.6v-4.8Z"/>
    </g>
    <rect class="cls-3" x="613.3" y="300" width="7.6" height="25.7" transform="translate(929.9 -304.3) rotate(90)"/>
  </g>
  <g id="gltedit2">
    <rect class="cls-8" x="634.7" y="309" width="71" height="47.9"/>
    <g>
      <path class="cls-14" d="M681.8,329.6h-1.6v-1.6h3.1v4.7h-.5l-.3-.6c-.6.5-1.3.7-2,.7-2.3,0-3.8-2.2-3.8-4.8s1.5-4.8,3.8-4.8,2.3.7,2.9,1.8l-.9.9c-.6-.8-1.2-1.1-1.9-1.1-1.2,0-2.2,1.2-2.2,3.3s1,3.3,2.2,3.3.7-.1,1.1-.4v-1.3Z"/>
      <path class="cls-14" d="M687.8,331.2h2.6v1.6h-4.2v-9.3h1.6v7.8Z"/>
      <path class="cls-14" d="M691.4,324.9v-1.6h6.8v1.6h-2.6v7.8h-1.6v-7.8h-2.6Z"/>
      <path class="cls-14" d="M653.6,340.2h4.7v1.6h-3.1v1.9h3.1v1.6h-3.1v2.8h3.1v1.6h-4.7v-9.3Z"/>
      <path class="cls-14" d="M661.4,340.2h2.2c2.3,0,4.2,2.1,4.2,4.7s-1.9,4.7-4.2,4.7h-2.2v-9.3ZM662.9,348h.6c1.4,0,2.5-1.4,2.5-3.1s-1.1-3.1-2.5-3.1h-.6v6.2Z"/>
      <path class="cls-14" d="M672.3,341.7h-1.6v-1.6h4.7v1.6h-1.6v6.2h1.6v1.6h-4.7v-1.6h1.6v-6.2Z"/>
      <path class="cls-14" d="M677.4,341.7v-1.6h6.8v1.6h-2.6v7.8h-1.6v-7.8h-2.6Z"/>
      <path class="cls-14" d="M695.6,343.1c0-.9-.7-1.6-1.6-1.6s-1.6.7-1.6,1.6v.8h-1.6v-.8c0-1.7,1.4-3.1,3.1-3.1s3.1,1.4,3.1,3.1-.6,2.1-1.5,2.9l-2,1.9h3.5v1.6h-6.2v-.6l3.3-3.5c.5-.5,1.3-1.4,1.3-2.3Z"/>
    </g>
    <rect class="cls-3" x="643.7" y="300" width="7.6" height="25.7" transform="translate(960.4 -334.7) rotate(90)"/>
  </g>
  <g id="gltedit3">
    <rect class="cls-8" x="711.1" y="254.8" width="63.9" height="102.2"/>
    <g>
      <path class="cls-14" d="M751.4,329.5h-1.6v-1.6h3.1v4.7h-.5l-.3-.6c-.6.5-1.3.7-2,.7-2.3,0-3.8-2.2-3.8-4.8s1.5-4.8,3.8-4.8,2.3.7,2.9,1.8l-.9.9c-.6-.8-1.2-1.1-1.9-1.1-1.2,0-2.2,1.2-2.2,3.3s1,3.3,2.2,3.3.7-.1,1.1-.4v-1.3Z"/>
      <path class="cls-14" d="M757.5,331h2.6v1.6h-4.2v-9.3h1.6v7.8Z"/>
      <path class="cls-14" d="M761,324.8v-1.6h6.8v1.6h-2.6v7.8h-1.6v-7.8h-2.6Z"/>
      <path class="cls-14" d="M723.2,340h4.7v1.6h-3.1v1.9h3.1v1.6h-3.1v2.8h3.1v1.6h-4.7v-9.3Z"/>
      <path class="cls-14" d="M731,340h2.2c2.3,0,4.2,2.1,4.2,4.7s-1.9,4.7-4.2,4.7h-2.2v-9.3ZM732.6,347.8h.6c1.4,0,2.5-1.4,2.5-3.1s-1.1-3.1-2.5-3.1h-.6v6.2Z"/>
      <path class="cls-14" d="M741.9,341.6h-1.6v-1.6h4.7v1.6h-1.6v6.2h1.6v1.6h-4.7v-1.6h1.6v-6.2Z"/>
      <path class="cls-14" d="M747,341.6v-1.6h6.8v1.6h-2.6v7.8h-1.6v-7.8h-2.6Z"/>
      <path class="cls-14" d="M766.8,346.4c0,1.7-1.4,3.1-3.1,3.1s-2.6-.9-3-2.2l1.5-.5c.2.6.8,1.2,1.5,1.2s1.6-.7,1.6-1.6-.7-1.6-1.6-1.6h-1.2v-.5l2.1-2.8h-2.5l-.8,1.2h-.5v-2.8h6.1v.8l-2,2.7c1.1.5,1.9,1.5,1.9,2.9Z"/>
    </g>
    <rect class="cls-3" x="711.1" y="254.8" width="7.6" height="25.7" transform="translate(1429.9 535.3) rotate(180)"/>
  </g>
  <g id="gltmovie">
    <rect class="cls-8" x="556.3" y="60.3" width="218.7" height="174.5"/>
    <g>
      <path class="cls-14" d="M636.4,149.1h-1.6v-1.6h3.1v4.7h-.5l-.3-.6c-.6.5-1.3.7-2,.7-2.3,0-3.8-2.2-3.8-4.8s1.5-4.8,3.8-4.8,2.3.7,2.9,1.8l-.9.9c-.6-.8-1.2-1.1-1.9-1.1-1.2,0-2.2,1.2-2.2,3.3s1,3.3,2.2,3.3.7-.1,1.1-.4v-1.3Z"/>
      <path class="cls-14" d="M642.4,150.7h2.6v1.6h-4.2v-9.3h1.6v7.8Z"/>
      <path class="cls-14" d="M646,144.4v-1.6h6.8v1.6h-2.6v7.8h-1.6v-7.8h-2.6Z"/>
      <path class="cls-14" d="M665.8,152.2v-5.6l-2.3,4.2h-.3l-2.3-4.2v5.6h-1.5v-9.3h1.3l2.6,4.9,2.6-4.9h1.3v9.3h-1.5Z"/>
      <path class="cls-14" d="M673.5,142.7c2.1,0,3.3,2.2,3.3,4.8s-1.2,4.8-3.3,4.8-3.3-2.2-3.3-4.8,1.2-4.8,3.3-4.8ZM673.5,150.8c1.1,0,1.6-1.5,1.6-3.3s-.6-3.3-1.6-3.3-1.6,1.5-1.6,3.3.6,3.3,1.6,3.3Z"/>
      <path class="cls-14" d="M682.3,152.4h-.3l-3.7-9.5h1.7l2.2,5.6,2.2-5.6h1.7l-3.7,9.5Z"/>
      <path class="cls-14" d="M689.1,144.4h-1.6v-1.6h4.7v1.6h-1.6v6.2h1.6v1.6h-4.7v-1.6h1.6v-6.2Z"/>
      <path class="cls-14" d="M695.3,142.9h4.7v1.6h-3.1v1.9h3.1v1.6h-3.1v2.8h3.1v1.6h-4.7v-9.3Z"/>
    </g>
    <rect class="cls-3" x="556.3" y="209" width="7.6" height="25.7" transform="translate(1120.3 443.8) rotate(180)"/>
  </g>
  <rect class="cls-4" x="543.8" y="254.8" width="7.6" height="25.7" transform="translate(1095.1 535.3) rotate(180)"/>
  <g id="gltdark">
    <g id="gltdark-2" data-name="gltdark">
      <rect class="cls-5" x="640.1" y="484.7" width="62.2" height="75.3"/>
      <rect class="cls-5" x="556.9" y="429" width="145.4" height="74.5"/>
    </g>
    <text class="cls-2" transform="translate(566.5 491.3)"><tspan x="0" y="0">Darkroom</tspan></text>
    <text class="cls-15" transform="translate(630.8 450.2)"><tspan x="0" y="0">GLTDARK</tspan></text>
    <g>
      <rect class="cls-5" x="569.1" y="428" width="27.7" height="9.6"/>
      <path class="cls-4" d="M595.8,429v7.6h-25.7v-7.6h25.7M597.8,427h-29.7v11.6h29.7v-11.6h0Z"/>
    </g>
  </g>
  <rect class="cls-4" x="542.8" y="398.6" width="7.6" height="25.7" transform="translate(1093.2 822.9) rotate(180)"/>
  <rect class="cls-3" x="438.8" y="203.5" width="7.6" height="25.7" transform="translate(885.3 432.7) rotate(180)"/>
  <rect class="cls-3" x="439.7" y="130.1" width="7.6" height="25.7" transform="translate(887.1 285.9) rotate(180)"/>
  <rect class="cls-3" x="439.9" y="277.7" width="7.6" height="25.7" transform="translate(887.4 581) rotate(180)"/>
  <rect class="cls-3" x="578.5" y="379" width="7.6" height="25.7" transform="translate(974.2 -190.4) rotate(90)"/>
  <rect class="cls-3" x="350" y="354.2" width="7.6" height="25.7" transform="translate(707.7 734.1) rotate(180)"/>
  <g id="gltfocus">
    <g id="gltfocus-2" data-name="gltfocus">
      <rect class="cls-11" x="99.9" y="392.5" width="123.4" height="166.3"/>
      <g>
        <path class="cls-14" d="M117.8,525.9h-1.6v-1.6h3.1v4.7h-.5l-.3-.6c-.6.5-1.3.7-2,.7-2.3,0-3.8-2.2-3.8-4.8s1.5-4.8,3.8-4.8,2.3.7,2.9,1.8l-.9.9c-.6-.8-1.2-1.1-1.9-1.1-1.2,0-2.2,1.2-2.2,3.3s1,3.3,2.2,3.3.7-.1,1.1-.4v-1.3Z"/>
        <path class="cls-14" d="M123.8,527.4h2.6v1.6h-4.2v-9.3h1.6v7.8Z"/>
        <path class="cls-14" d="M127.4,521.2v-1.6h6.8v1.6h-2.6v7.8h-1.6v-7.8h-2.6Z"/>
        <path class="cls-14" d="M112.9,536.5h5v1.6h-3.4v1.9h3.4v1.6h-3.4v4.4h-1.6v-9.3Z"/>
        <path class="cls-14" d="M123.8,536.3c2.1,0,3.3,2.2,3.3,4.8s-1.2,4.8-3.3,4.8-3.3-2.2-3.3-4.8,1.2-4.8,3.3-4.8ZM123.8,544.4c1.1,0,1.6-1.5,1.6-3.3s-.6-3.3-1.6-3.3-1.6,1.5-1.6,3.3.6,3.3,1.6,3.3Z"/>
        <path class="cls-14" d="M133.8,536.3c1.1,0,2.4.7,3,1.8l-1,.9c-.6-.8-1.3-1.1-2-1.1-1.2,0-2.3,1.2-2.3,3.3s1.1,3.3,2.3,3.3,1.3-.3,2-1.1l1,.9c-.7,1.1-1.9,1.8-3,1.8-2.4,0-3.9-2.2-3.9-4.8s1.6-4.8,3.9-4.8Z"/>
        <path class="cls-14" d="M140.9,536.5v5.9c0,1.4.7,2,1.6,2s1.6-.7,1.6-2v-5.9h1.6v5.9c0,2.3-1.4,3.6-3.1,3.6s-3.1-1.3-3.1-3.6v-5.9h1.6Z"/>
        <path class="cls-14" d="M150.9,545.9c-1,0-1.8-.3-2.6-1l.2-1.4c.9.5,1.7.8,2.5.8s1.6-.4,1.6-1.1c0-1.8-4.4-1.1-4.4-4.2s1.4-2.7,3.1-2.7,1.8.4,2.7,1.1l-.5,1.2c-.7-.4-1.4-.8-2.2-.8s-1.5.5-1.5,1.1c0,1.7,4.4,1.2,4.4,4.1s-1.6,2.9-3.3,2.9Z"/>
      </g>
    </g>
    <rect class="cls-3" x="215.6" y="488.3" width="7.6" height="25.7" transform="translate(438.9 1002.3) rotate(180)"/>
  </g>
  <rect class="cls-8" x="223.3" y="488.3" width="39.7" height="34.6" transform="translate(486.2 1011.2) rotate(180)"/>
  <g id="gltcep">
    <rect class="cls-9" x="237.2" y="392.5" width="123.4" height="95.7"/>
    <g>
      <path class="cls-14" d="M277.9,441.9h-1.6v-1.6h3.1v4.7h-.5l-.3-.6c-.6.5-1.3.7-2,.7-2.3,0-3.8-2.2-3.8-4.8s1.5-4.8,3.8-4.8,2.3.7,2.9,1.8l-.9.9c-.6-.8-1.2-1.1-1.9-1.1-1.2,0-2.2,1.2-2.2,3.3s1,3.3,2.2,3.3.7-.1,1.1-.4v-1.3Z"/>
      <path class="cls-14" d="M284,443.5h2.6v1.6h-4.2v-9.3h1.6v7.8Z"/>
      <path class="cls-14" d="M287.6,437.2v-1.6h6.8v1.6h-2.6v7.8h-1.6v-7.8h-2.6Z"/>
      <path class="cls-14" d="M304.9,435.5c1.1,0,2.4.7,3,1.8l-1,.9c-.6-.8-1.3-1.1-2-1.1-1.2,0-2.3,1.2-2.3,3.3s1.1,3.3,2.3,3.3,1.3-.3,2-1.1l1,.9c-.7,1.1-1.9,1.8-3,1.8-2.4,0-3.9-2.2-3.9-4.8s1.6-4.8,3.9-4.8Z"/>
      <path class="cls-14" d="M310.4,435.7h4.7v1.6h-3.1v1.9h3.1v1.6h-3.1v2.8h3.1v1.6h-4.7v-9.3Z"/>
      <path class="cls-14" d="M324.8,438.8c0,1.7-1.4,3.1-3.1,3.1h-1.9v3.1h-1.6v-9.3h3.4c1.7,0,3.1,1.4,3.1,3.1ZM323.2,438.8c0-.9-.7-1.6-1.6-1.6h-1.9v3.1h1.9c.9,0,1.6-.7,1.6-1.6Z"/>
    </g>
    <rect class="cls-3" x="352.9" y="403.3" width="7.6" height="25.7" transform="translate(713.4 832.3) rotate(180)"/>
    <rect class="cls-3" x="246.3" y="471.5" width="7.6" height="25.7" transform="translate(-234.2 734.5) rotate(-90)"/>
  </g>
  <rect class="cls-3" x="216.2" y="355.1" width="7.6" height="25.7" transform="translate(440.1 735.8) rotate(180)"/>
</svg>